<svg width="118" height="29" viewBox="0 0 118 29" fill="none" xmlns="http://www.w3.org/2000/svg">
<path d="M9.27 21.7C9.19 21.54 9.15 21.32 9.15 21.04C9.15 20.82 9.18 20.62 9.24 20.44C7.92 20.24 6.82 19.96 5.94 19.6C5.06 19.22 4.35 18.78 3.81 18.28C3.27 17.76 2.89 17.2 2.67 16.6C2.45 15.98 2.34 15.32 2.34 14.62C2.34 13.68 2.53 12.81 2.91 12.01C3.31 11.19 4.04 10.5 5.1 9.94C3.1 9.52 2.1 8.53 2.1 6.97C2.1 6.13 2.34 5.44 2.82 4.9C3.32 4.36 3.96 4.07 4.74 4.03C6.48 3.91 8.02 4.27 9.36 5.11C8.94 4.83 8.64 4.46 8.46 4C8.28 3.52 8.21 3.04 8.25 2.56C8.31 1.7 8.87 1.09 9.93 0.73C10.99 0.349998 12.43 0.159998 14.25 0.159998C16.03 0.159998 17.45 0.349998 18.51 0.73C19.57 1.09 20.14 1.7 20.22 2.56C20.26 3.04 20.18 3.52 19.98 4C19.8 4.46 19.49 4.83 19.05 5.11C20.41 4.27 21.98 3.91 23.76 4.03C24.52 4.07 25.14 4.34 25.62 4.84C26.1 5.32 26.34 5.98 26.34 6.82C26.34 7.58 26.09 8.24 25.59 8.8C25.11 9.34 24.36 9.72 23.34 9.94C24.42 10.5 25.15 11.18 25.53 11.98C25.93 12.78 26.13 13.66 26.13 14.62C26.13 15.32 26.01 15.98 25.77 16.6C25.55 17.2 25.17 17.76 24.63 18.28C24.11 18.78 23.41 19.22 22.53 19.6C21.65 19.96 20.55 20.24 19.23 20.44C19.29 20.62 19.32 20.82 19.32 21.04C19.32 21.32 19.28 21.54 19.2 21.7C20.74 21.62 22.35 21.5 24.03 21.34C25.19 21.2 26.08 21.41 26.7 21.97C27.34 22.53 27.66 23.32 27.66 24.34C27.66 25.58 27.34 26.45 26.7 26.95C26.06 27.47 25.16 27.79 24 27.91C20.66 28.25 17.39 28.42 14.19 28.42C11.01 28.42 7.75 28.25 4.41 27.91C3.83 27.85 3.32 27.74 2.88 27.58C2.44 27.44 2.06 27.23 1.74 26.95C1.42 26.67 1.18 26.32 1.02 25.9C0.86 25.48 0.78 24.96 0.78 24.34C0.78 23.34 1.1 22.56 1.74 22C2.38 21.42 3.27 21.2 4.41 21.34C6.05 21.5 7.67 21.62 9.27 21.7ZM12.18 12.19C12.74 12.71 13.35 13.16 14.01 13.54C14.67 13.92 15.36 14.17 16.08 14.29C16.24 14.31 16.37 14.29 16.47 14.23C16.57 14.15 16.64 14.06 16.68 13.96C16.72 13.84 16.72 13.73 16.68 13.63C16.66 13.53 16.59 13.46 16.47 13.42C15.71 13.2 15.03 12.93 14.43 12.61C13.85 12.29 13.27 11.89 12.69 11.41C12.59 11.33 12.49 11.31 12.39 11.35C12.29 11.37 12.2 11.42 12.12 11.5C12.04 11.58 12 11.69 12 11.83C12 11.95 12.06 12.07 12.18 12.19ZM53.0459 14.38C53.0059 14.6 52.9759 14.8 52.9559 14.98C52.9559 15.16 52.9359 15.35 52.8959 15.55C52.7559 16.55 52.3459 17.29 51.6659 17.77C50.9859 18.25 50.1159 18.49 49.0559 18.49C48.4559 18.49 47.9059 18.42 47.4059 18.28C46.9259 18.14 46.5159 17.94 46.1759 17.68C45.8559 17.4 45.6159 17.06 45.4559 16.66C45.3159 16.24 45.2859 15.75 45.3659 15.19C45.5859 13.51 45.6959 11.74 45.6959 9.88C45.6959 8 45.5959 6.28 45.3959 4.72C45.2159 3.48 45.4759 2.58 46.1759 2.02C46.8759 1.46 47.8359 1.18 49.0559 1.18C50.1159 1.18 50.9859 1.42 51.6659 1.9C52.3459 2.36 52.7559 3.1 52.8959 4.12C52.9359 4.34 52.9659 4.57 52.9859 4.81C53.0059 5.05 53.0359 5.29 53.0759 5.53L54.0059 5.44C54.7059 5.36 55.2459 5.68 55.6259 6.4C56.0059 7.1 56.1959 8.29 56.1959 9.97C56.1959 11.61 56.0059 12.79 55.6259 13.51C55.2459 14.23 54.7059 14.55 54.0059 14.47L53.0459 14.38ZM33.1859 10.75C33.0459 10.79 32.9559 10.86 32.9159 10.96C32.8959 11.04 32.8959 11.13 32.9159 11.23C32.9559 11.33 33.0259 11.42 33.1259 11.5C33.2259 11.56 33.3359 11.57 33.4559 11.53C34.3159 11.29 35.3059 11.07 36.4259 10.87C37.5459 10.67 38.6459 10.57 39.7259 10.57C41.3659 10.57 42.5959 10.83 43.4159 11.35C44.2559 11.85 44.7359 12.64 44.8559 13.72C44.9559 14.6 44.7959 15.33 44.3759 15.91C43.9759 16.47 43.3959 16.92 42.6359 17.26C41.8959 17.6 41.0159 17.84 39.9959 17.98C38.9959 18.1 37.9559 18.16 36.8759 18.16C34.2559 18.16 32.2359 17.89 30.8159 17.35C29.4159 16.81 28.5859 16.03 28.3259 15.01C28.1459 14.17 28.0459 13.34 28.0259 12.52C28.0059 11.68 28.1059 10.89 28.3259 10.15C28.4659 9.77 28.6159 9.43 28.7759 9.13C28.9559 8.81 29.1859 8.55 29.4659 8.35C29.7659 8.13 30.1359 7.96 30.5759 7.84C31.0359 7.72 31.5959 7.66 32.2559 7.66C33.2159 7.66 34.1559 7.64 35.0759 7.6C35.9959 7.56 36.9359 7.48 37.8959 7.36C38.0159 7.36 38.0959 7.32 38.1359 7.24C38.1959 7.14 38.2259 7.04 38.2259 6.94C38.2259 6.84 38.1959 6.75 38.1359 6.67C38.0959 6.59 38.0159 6.55 37.8959 6.55C36.9759 6.63 36.0859 6.69 35.2259 6.73C34.3859 6.77 33.5159 6.79 32.6159 6.79C31.7959 6.79 31.1059 6.75 30.5459 6.67C30.0059 6.57 29.5659 6.43 29.2259 6.25C28.9059 6.07 28.6759 5.84 28.5359 5.56C28.3959 5.26 28.3259 4.91 28.3259 4.51C28.3259 2.83 29.8259 1.81 32.8259 1.45C33.4459 1.37 34.0159 1.31 34.5359 1.27C35.0559 1.23 35.5559 1.21 36.0359 1.21C36.5159 1.19 36.9959 1.19 37.4759 1.21C37.9559 1.23 38.4559 1.27 38.9759 1.33C39.5759 1.39 40.1459 1.48 40.6859 1.6C41.2259 1.7 41.7059 1.85 42.1259 2.05C42.5659 2.25 42.9359 2.51 43.2359 2.83C43.5559 3.13 43.7859 3.51 43.9259 3.97C44.1459 4.75 44.2559 5.57 44.2559 6.43C44.2559 7.27 44.1459 8.03 43.9259 8.71C43.7659 9.15 43.4659 9.45 43.0259 9.61C42.6059 9.75 42.0659 9.83 41.4059 9.85C39.6859 9.85 38.1259 9.92 36.7259 10.06C35.3459 10.18 34.1659 10.41 33.1859 10.75ZM29.2559 24.1C29.2559 22.26 30.2059 20.89 32.1059 19.99C34.0259 19.07 37.1159 18.61 41.3759 18.61C45.6159 18.61 48.6959 19.07 50.6159 19.99C52.5359 20.89 53.4959 22.26 53.4959 24.1C53.4959 25.04 53.2859 25.81 52.8659 26.41C52.4659 27.01 51.7959 27.48 50.8559 27.82C49.9159 28.16 48.6659 28.39 47.1059 28.51C45.5659 28.65 43.6559 28.72 41.3759 28.72C39.0959 28.72 37.1759 28.65 35.6159 28.51C34.0759 28.39 32.8259 28.16 31.8659 27.82C30.9259 27.48 30.2559 27.01 29.8559 26.41C29.4559 25.81 29.2559 25.04 29.2559 24.1ZM39.5459 23.2C39.4459 23.16 39.3259 23.16 39.1859 23.2C39.0459 23.24 38.9259 23.34 38.8259 23.5C38.6859 23.8 38.8059 24.06 39.1859 24.28C39.8859 24.64 40.6059 24.82 41.3459 24.82C42.1059 24.8 42.8359 24.62 43.5359 24.28C43.6359 24.22 43.7259 24.12 43.8059 23.98C43.8859 23.84 43.8959 23.69 43.8359 23.53C43.7959 23.41 43.7059 23.32 43.5659 23.26C43.4259 23.18 43.2959 23.17 43.1759 23.23C42.6159 23.53 41.9959 23.68 41.3159 23.68C40.6559 23.68 40.0659 23.52 39.5459 23.2ZM70.7958 20.08C70.7958 19.86 70.7958 19.64 70.7958 19.42C70.8158 19.2 70.8358 18.98 70.8558 18.76C69.9958 18.76 69.1158 18.73 68.2158 18.67C67.3358 18.59 66.5258 18.4 65.7858 18.1C65.0658 17.8 64.4658 17.34 63.9858 16.72C63.5058 16.1 63.2458 15.24 63.2058 14.14C63.1658 13.22 63.2258 12.41 63.3858 11.71C63.5458 11.01 63.7758 10.43 64.0758 9.97C64.3758 9.49 64.7258 9.12 65.1258 8.86C65.5458 8.58 65.9958 8.39 66.4758 8.29C67.7158 8.05 68.7958 7.63 69.7158 7.03C70.6558 6.41 71.2358 5.59 71.4558 4.57C71.5758 3.95 71.7658 3.45 72.0258 3.07C72.2858 2.67 72.5958 2.36 72.9558 2.14C73.3358 1.92 73.7658 1.77 74.2458 1.69C74.7458 1.61 75.2958 1.57 75.8958 1.57C76.4958 1.57 77.0258 1.61 77.4858 1.69C77.9458 1.77 78.3458 1.92 78.6858 2.14C79.0458 2.34 79.3458 2.63 79.5858 3.01C79.8458 3.39 80.0558 3.88 80.2158 4.48C80.3558 5.02 80.6158 5.5 80.9958 5.92C81.3958 6.32 81.8558 6.68 82.3758 7C82.8958 7.32 83.4458 7.59 84.0258 7.81C84.6258 8.01 85.2158 8.18 85.7958 8.32C86.3358 8.44 86.7958 8.69 87.1758 9.07C87.5758 9.43 87.8858 9.88 88.1058 10.42C88.3458 10.94 88.5058 11.52 88.5858 12.16C88.6658 12.8 88.6758 13.46 88.6158 14.14C88.5158 15.02 88.3458 15.76 88.1058 16.36C87.8858 16.96 87.5758 17.45 87.1758 17.83C86.7758 18.19 86.2858 18.45 85.7058 18.61C85.1258 18.77 84.4458 18.85 83.6658 18.85C83.1058 18.85 82.5958 18.84 82.1358 18.82C81.6758 18.8 81.2658 18.77 80.9058 18.73C80.9258 18.95 80.9358 19.18 80.9358 19.42C80.9558 19.64 80.9658 19.86 80.9658 20.08C81.7458 20.04 82.5258 19.99 83.3058 19.93C84.0858 19.85 84.8858 19.77 85.7058 19.69C86.2858 19.63 86.7958 19.69 87.2358 19.87C87.6958 20.03 88.0758 20.29 88.3758 20.65C88.6958 21.01 88.9358 21.44 89.0958 21.94C89.2558 22.42 89.3358 22.94 89.3358 23.5C89.3358 24.9 89.0158 25.95 88.3758 26.65C87.7558 27.37 86.8558 27.79 85.6758 27.91C82.3158 28.25 79.0458 28.42 75.8658 28.42C72.7058 28.42 69.4458 28.25 66.0858 27.91C64.9458 27.79 64.0558 27.37 63.4158 26.65C62.7758 25.95 62.4558 24.9 62.4558 23.5C62.4558 22.94 62.5358 22.42 62.6958 21.94C62.8558 21.44 63.0958 21.01 63.4158 20.65C63.7358 20.29 64.1158 20.03 64.5558 19.87C64.9958 19.69 65.5058 19.63 66.0858 19.69C66.8858 19.77 67.6758 19.85 68.4558 19.93C69.2358 19.99 70.0158 20.04 70.7958 20.08ZM77.0658 16.33C77.1658 16.33 77.2558 16.34 77.3358 16.36C77.4158 16.36 77.5058 16.36 77.6058 16.36C77.7058 16.36 77.7958 16.37 77.8758 16.39C77.9758 16.39 78.0758 16.39 78.1758 16.39C78.1158 16.07 78.0758 15.72 78.0558 15.34C78.0358 14.96 78.0258 14.53 78.0258 14.05C78.0258 12.83 77.8158 11.79 77.3958 10.93C76.9958 10.07 76.3358 9.29 75.4158 8.59C75.2958 8.49 75.1658 8.46 75.0258 8.5C74.8858 8.52 74.7658 8.58 74.6658 8.68C74.5858 8.76 74.5458 8.86 74.5458 8.98C74.5658 9.1 74.6558 9.22 74.8158 9.34C75.1758 9.58 75.4958 9.85 75.7758 10.15C76.0558 10.45 76.2958 10.8 76.4958 11.2C76.6958 11.58 76.8458 12.03 76.9458 12.55C77.0658 13.07 77.1258 13.67 77.1258 14.35C77.1258 14.75 77.1258 15.11 77.1258 15.43C77.1258 15.75 77.1058 16.05 77.0658 16.33ZM110.312 17.65C110.252 20.21 110.132 22.67 109.952 25.03C109.852 26.23 109.532 27.12 108.992 27.7C108.472 28.28 107.782 28.57 106.922 28.57C106.002 28.57 105.262 28.23 104.702 27.55C104.162 26.87 103.962 25.87 104.102 24.55C104.382 21.37 104.522 18.21 104.522 15.07C104.542 11.93 104.412 8.84 104.132 5.8C103.992 4.32 104.192 3.24 104.732 2.56C105.272 1.86 106.002 1.51 106.922 1.51C107.782 1.51 108.472 1.8 108.992 2.38C109.532 2.96 109.852 3.85 109.952 5.05C110.072 6.55 110.162 8.08 110.222 9.64L111.422 9.73C111.382 9.03 111.332 8.34 111.272 7.66C111.232 6.96 111.182 6.26 111.122 5.56C110.982 4.08 111.182 2.98 111.722 2.26C112.262 1.54 113.002 1.18 113.942 1.18C114.782 1.18 115.472 1.48 116.012 2.08C116.552 2.68 116.872 3.6 116.972 4.84C117.212 8.1 117.332 11.48 117.332 14.98C117.332 18.48 117.212 21.87 116.972 25.15C116.872 26.35 116.552 27.25 116.012 27.85C115.472 28.45 114.782 28.75 113.942 28.75C113.002 28.75 112.252 28.41 111.692 27.73C111.152 27.05 110.952 26.03 111.092 24.67C111.192 23.47 111.272 22.29 111.332 21.13C111.412 19.95 111.472 18.76 111.512 17.56L110.312 17.65ZM96.8416 27.67C96.1216 27.61 95.4616 27.39 94.8616 27.01C94.2616 26.65 93.7516 26.16 93.3316 25.54C92.9316 24.94 92.6216 24.22 92.4016 23.38C92.2016 22.52 92.1316 21.56 92.1916 20.5C92.2516 19.34 92.4916 18.21 92.9116 17.11C93.3516 16.01 93.9016 14.98 94.5616 14.02C95.2216 13.06 95.9516 12.19 96.7516 11.41C97.5716 10.61 98.3916 9.93 99.2116 9.37C99.3316 9.29 99.3916 9.19 99.3916 9.07C99.4116 8.93 99.3916 8.81 99.3316 8.71C99.2916 8.59 99.2216 8.51 99.1216 8.47C99.0216 8.41 98.9216 8.42 98.8216 8.5C98.1216 9.12 97.3516 9.65 96.5116 10.09C95.6916 10.51 94.9316 10.76 94.2316 10.84C93.6916 10.92 93.1616 10.9 92.6416 10.78C92.1416 10.66 91.6716 10.46 91.2316 10.18C90.8116 9.88 90.4516 9.52 90.1516 9.1C89.8516 8.68 89.6616 8.2 89.5816 7.66C89.3816 6.46 89.5516 5.48 90.0916 4.72C90.6316 3.96 91.4316 3.38 92.4916 2.98C93.3516 2.66 94.1716 2.44 94.9516 2.32C95.7516 2.18 96.6816 2.11 97.7416 2.11C98.6016 2.11 99.3416 2.25 99.9616 2.53C100.602 2.79 101.132 3.16 101.552 3.64C101.992 4.12 102.342 4.71 102.602 5.41C102.882 6.09 103.082 6.85 103.202 7.69C103.342 8.75 103.442 9.9 103.502 11.14C103.562 12.36 103.572 13.6 103.532 14.86C103.512 16.12 103.442 17.38 103.322 18.64C103.202 19.88 103.042 21.04 102.842 22.12C102.662 22.96 102.402 23.74 102.062 24.46C101.742 25.16 101.332 25.76 100.832 26.26C100.352 26.76 99.7716 27.13 99.0916 27.37C98.4316 27.63 97.6816 27.73 96.8416 27.67Z" fill="white"/>
</svg>
