<svg width="474" height="96" viewBox="0 0 474 96" fill="none" xmlns="http://www.w3.org/2000/svg">
<path d="M77.4 9.8C77.4 11.3333 77.3333 13.1333 77.2 15.2C77.1333 17.2 76.9667 19.3667 76.7 21.7C76.5 23.9667 76.2333 26.3 75.9 28.7C75.5667 31.1 75.1667 33.4333 74.7 35.7H89.4C89.7333 35.7 90.0667 35.9 90.4 36.3C90.7333 36.6333 90.9 36.9667 90.9 37.3V43.8C90.9 44.1333 90.7333 44.4667 90.4 44.8C90.0667 45.1333 89.7333 45.3 89.4 45.3H50.8V60.2H70.3C73.0333 60.2 74.8 60.6667 75.6 61.6C76.4667 62.5333 76.9 64.4667 76.9 67.4V94.3C76.9 94.6333 76.7333 94.9333 76.4 95.2C76.1333 95.5333 75.8333 95.7 75.5 95.7H66.8C66.4 95.7 66.0333 95.5333 65.7 95.2C65.4333 94.9333 65.3 94.6333 65.3 94.3V71.3C65.3 70.6333 65.1667 70.2 64.9 70C64.6333 69.8 64.1333 69.7 63.4 69.7H14.2C13.8667 69.7 13.5333 69.6 13.2 69.4C12.8667 69.1333 12.7 68.8333 12.7 68.5V61.4C12.7 61 12.8667 60.7 13.2 60.5C13.5333 60.3 13.8667 60.2 14.2 60.2H39.3V45.3H2.3C1.9 45.3 1.56667 45.1333 1.3 44.8C1.03333 44.4667 0.9 44.1333 0.9 43.8V37.3C0.9 36.2333 1.36667 35.7 2.3 35.7H64.1C64.7 32.4333 65.2 29.0667 65.6 25.6C66 22.0667 66.2 18.3 66.2 14.3C66.2 13.3667 65.9667 12.8 65.5 12.6C65.0333 12.3333 64.3333 12.2 63.4 12.2H16.8C16.4667 12.2 16.1333 12.0667 15.8 11.8C15.4667 11.5333 15.3 11.2333 15.3 10.9V3.99999C15.3 3.59999 15.4667 3.29999 15.8 3.09999C16.1333 2.9 16.4667 2.8 16.8 2.8H70.8C72.9333 2.8 74.5667 3.36666 75.7 4.49999C76.8333 5.56666 77.4 7.33333 77.4 9.8ZM165.843 2.09999C165.843 1.76666 165.976 1.46666 166.243 1.19999C166.576 0.933327 166.943 0.799993 167.343 0.799993H175.843C176.776 0.799993 177.243 1.23333 177.243 2.09999V94.4C177.243 95.2667 176.776 95.7 175.843 95.7H167.243C166.91 95.7 166.576 95.5667 166.243 95.3C165.976 95.0333 165.843 94.7333 165.843 94.4V47.1H156.343V90.6C156.343 91 156.176 91.3333 155.843 91.6C155.576 91.8667 155.276 92 154.943 92H146.843C146.443 92 146.076 91.8667 145.743 91.6C145.476 91.3333 145.343 91 145.343 90.6V3.9C145.343 3.56666 145.476 3.26666 145.743 2.99999C146.076 2.73333 146.443 2.59999 146.843 2.59999H154.943C155.276 2.59999 155.576 2.73333 155.843 2.99999C156.176 3.26666 156.343 3.56666 156.343 3.9V37.5H165.843V2.09999ZM142.043 63C142.11 63.4667 141.976 63.8333 141.643 64.1C141.31 64.3 140.91 64.4667 140.443 64.6C138.11 65.2667 135.51 65.8667 132.643 66.4C129.843 66.8667 126.91 67.2333 123.843 67.5C120.843 67.7667 117.843 67.9667 114.843 68.1C111.91 68.1667 109.143 68.1333 106.543 68C104.143 67.8667 102.31 67.1667 101.043 65.9C99.7763 64.5667 99.143 62.7667 99.143 60.5V8.99999C99.143 8.66666 99.2763 8.36666 99.543 8.09999C99.8763 7.76666 100.243 7.6 100.643 7.6H108.943C109.343 7.6 109.71 7.76666 110.043 8.09999C110.376 8.36666 110.543 8.66666 110.543 8.99999V56.7C110.543 57.7 111.143 58.2333 112.343 58.3C114.01 58.5 115.91 58.5667 118.043 58.5C120.243 58.4333 122.51 58.2667 124.843 58C127.243 57.7333 129.643 57.4 132.043 57C134.51 56.6 136.843 56.1333 139.043 55.6C139.376 55.5333 139.776 55.5667 140.243 55.7C140.71 55.8333 140.976 56.1667 141.043 56.7L142.043 63ZM239.413 72.8C235.613 72.8 232.18 72 229.113 70.4C226.113 68.7333 223.58 66.4667 221.513 63.6C219.447 60.6667 217.847 57.1667 216.713 53.1C215.647 49.0333 215.113 44.5667 215.113 39.7C215.113 34.7 215.647 30.1667 216.713 26.1C217.847 22.0333 219.447 18.5667 221.513 15.7C223.58 12.8333 226.113 10.6333 229.113 9.09999C232.18 7.49999 235.613 6.69999 239.413 6.69999C244.013 6.69999 248.013 7.79999 251.413 9.99999C254.88 12.2 257.613 15.3 259.613 19.3H279.213V2.09999C279.213 1.23333 279.647 0.799993 280.513 0.799993H289.413C290.28 0.799993 290.713 1.23333 290.713 2.09999V94.4C290.713 95.2667 290.28 95.7 289.413 95.7H280.513C279.647 95.7 279.213 95.2667 279.213 94.4V59.2H260.013C258.08 63.5333 255.347 66.9 251.813 69.3C248.347 71.6333 244.213 72.8 239.413 72.8ZM252.613 39.7C252.613 36.6333 252.313 33.7333 251.713 31C251.18 28.2 250.347 25.7667 249.213 23.7C248.147 21.6333 246.78 20 245.113 18.8C243.447 17.5333 241.547 16.9 239.413 16.9C237.347 16.9 235.48 17.5333 233.813 18.8C232.213 20 230.847 21.6333 229.713 23.7C228.647 25.7667 227.813 28.2 227.213 31C226.68 33.7333 226.413 36.6333 226.413 39.7C226.413 42.7 226.68 45.6 227.213 48.4C227.813 51.1333 228.647 53.5667 229.713 55.7C230.847 57.7667 232.213 59.4333 233.813 60.7C235.48 61.9667 237.347 62.6 239.413 62.6C241.547 62.6 243.447 61.9667 245.113 60.7C246.78 59.4333 248.147 57.7667 249.213 55.7C250.347 53.5667 251.18 51.1333 251.713 48.4C252.313 45.6 252.613 42.7 252.613 39.7ZM262.813 28.7C263.547 32.2333 263.913 35.9 263.913 39.7C263.913 43.4333 263.613 46.8 263.013 49.8H279.213V28.7H262.813ZM374.556 2.09999C374.556 1.23333 375.023 0.799993 375.956 0.799993H384.556C385.423 0.799993 385.856 1.23333 385.856 2.09999V58.4C385.856 59.2667 385.423 59.7 384.556 59.7H375.856C374.99 59.7 374.556 59.2667 374.556 58.4V36.9H365.956V55.3C365.956 56.2333 365.523 56.7 364.656 56.7H356.356C355.423 56.7 354.956 56.2333 354.956 55.3V3.7C354.956 2.83333 355.423 2.4 356.356 2.4H364.656C365.523 2.4 365.956 2.83333 365.956 3.7V27.3H374.556V2.09999ZM374.856 78.6C374.856 77.4 374.323 76.3 373.256 75.3C372.256 74.2333 370.823 73.3333 368.956 72.6C367.156 71.8 364.99 71.2 362.456 70.8C359.99 70.3333 357.256 70.1 354.256 70.1C351.256 70.1 348.49 70.3333 345.956 70.8C343.49 71.2 341.356 71.8 339.556 72.6C337.756 73.3333 336.323 74.2333 335.256 75.3C334.256 76.3 333.756 77.4 333.756 78.6C333.756 79.6667 334.256 80.7 335.256 81.7C336.323 82.6333 337.756 83.4667 339.556 84.2C341.356 84.9333 343.49 85.5 345.956 85.9C348.49 86.3667 351.256 86.6 354.256 86.6C357.256 86.6 359.99 86.3667 362.456 85.9C364.99 85.5 367.156 84.9333 368.956 84.2C370.823 83.4667 372.256 82.6333 373.256 81.7C374.323 80.7 374.856 79.6667 374.856 78.6ZM386.656 78.3C386.656 80.9 385.823 83.2667 384.156 85.4C382.49 87.5333 380.19 89.3333 377.256 90.8C374.323 92.3333 370.89 93.5 366.956 94.3C363.023 95.1 358.79 95.5 354.256 95.5C349.723 95.5 345.49 95.1 341.556 94.3C337.623 93.5 334.19 92.3333 331.256 90.8C328.323 89.3333 326.023 87.5333 324.356 85.4C322.69 83.2667 321.856 80.9 321.856 78.3C321.856 75.7 322.69 73.3667 324.356 71.3C326.023 69.1667 328.323 67.3667 331.256 65.9C334.19 64.3667 337.623 63.2 341.556 62.4C345.49 61.6 349.723 61.2 354.256 61.2C358.79 61.2 363.023 61.6 366.956 62.4C370.89 63.2 374.323 64.3667 377.256 65.9C380.19 67.3667 382.49 69.1667 384.156 71.3C385.823 73.3667 386.656 75.7 386.656 78.3ZM350.056 22.7C350.056 23.1 349.89 23.4667 349.556 23.8C349.29 24.0667 348.956 24.2 348.556 24.2H305.656C305.323 24.2 304.99 24.0333 304.656 23.7C304.323 23.3667 304.156 23 304.156 22.6V17.1C304.156 16.7667 304.323 16.4333 304.656 16.1C305.056 15.7667 305.423 15.6 305.756 15.6H348.556C348.956 15.6 349.29 15.7667 349.556 16.1C349.89 16.3667 350.056 16.7 350.056 17.1V22.7ZM340.056 9.8C340.056 10.2667 339.89 10.6667 339.556 11C339.29 11.3333 338.923 11.5 338.456 11.5H316.856C316.59 11.5 316.256 11.3667 315.856 11.1C315.523 10.8333 315.356 10.4667 315.356 9.99999V4.3C315.356 3.83333 315.523 3.46667 315.856 3.2C316.256 2.93333 316.59 2.8 316.856 2.8H338.456C338.856 2.8 339.223 2.96666 339.556 3.3C339.89 3.63333 340.056 4 340.056 4.39999V9.8ZM327.656 36C324.79 36 322.59 36.7333 321.056 38.2C319.523 39.6667 318.756 41.3667 318.756 43.3C318.756 45.2333 319.523 46.9667 321.056 48.5C322.59 50.0333 324.79 50.8 327.656 50.8C330.456 50.8 332.623 50.0333 334.156 48.5C335.69 46.9667 336.456 45.2333 336.456 43.3C336.456 41.3667 335.69 39.6667 334.156 38.2C332.623 36.7333 330.456 36 327.656 36ZM327.656 27.4C330.59 27.4 333.223 27.8333 335.556 28.7C337.956 29.5 339.99 30.6333 341.656 32.1C343.39 33.5667 344.69 35.2667 345.556 37.2C346.49 39.0667 346.956 41.0333 346.956 43.1C346.956 45.2333 346.49 47.2667 345.556 49.2C344.69 51.1333 343.39 52.8667 341.656 54.4C339.99 55.8667 337.956 57.0333 335.556 57.9C333.156 58.7667 330.456 59.2 327.456 59.2C324.523 59.2 321.89 58.7667 319.556 57.9C317.223 57.0333 315.19 55.9 313.456 54.5C311.79 53.0333 310.49 51.3333 309.556 49.4C308.69 47.4667 308.256 45.4333 308.256 43.3C308.256 41.2333 308.69 39.2333 309.556 37.3C310.49 35.3667 311.79 33.6667 313.456 32.2C315.19 30.7333 317.256 29.5667 319.656 28.7C322.056 27.8333 324.723 27.4 327.656 27.4ZM473.199 94.4C473.199 95.2667 472.733 95.7 471.799 95.7H462.999C462.666 95.7 462.333 95.5667 461.999 95.3C461.733 95.1 461.599 94.8 461.599 94.4V2.09999C461.599 1.76666 461.733 1.46666 461.999 1.19999C462.333 0.933327 462.666 0.799993 462.999 0.799993H471.799C472.733 0.799993 473.199 1.23333 473.199 2.09999V94.4ZM424.199 16.1C420.399 16.1 417.266 17.3333 414.799 19.8C412.333 22.2667 411.099 25.6 411.099 29.8C411.099 34.0667 412.333 37.4333 414.799 39.9C417.266 42.3667 420.399 43.6 424.199 43.6C428.133 43.6 431.333 42.3667 433.799 39.9C436.266 37.4333 437.499 34.0667 437.499 29.8C437.499 25.6 436.266 22.2667 433.799 19.8C431.333 17.3333 428.133 16.1 424.199 16.1ZM424.199 6.6C427.599 6.6 430.766 7.16666 433.699 8.3C436.699 9.36666 439.299 10.9333 441.499 13C443.699 15 445.433 17.4333 446.699 20.3C447.966 23.1667 448.599 26.3333 448.599 29.8C448.599 33.3333 447.966 36.5333 446.699 39.4C445.433 42.2 443.699 44.6 441.499 46.6C439.299 48.5333 436.699 50.0333 433.699 51.1C430.766 52.1667 427.566 52.7 424.099 52.7C420.699 52.7 417.533 52.1667 414.599 51.1C411.666 50.0333 409.099 48.5333 406.899 46.6C404.766 44.6 403.066 42.2 401.799 39.4C400.533 36.5333 399.899 33.3333 399.899 29.8C399.899 26.3333 400.533 23.1667 401.799 20.3C403.066 17.4333 404.766 15 406.899 13C409.099 10.9333 411.666 9.36666 414.599 8.3C417.599 7.16666 420.799 6.6 424.199 6.6ZM393.999 67.1C393.999 66.7 394.133 66.3667 394.399 66.1C394.666 65.7667 395.033 65.6 395.499 65.6C400.233 65.7333 405.233 65.7333 410.499 65.6C415.766 65.4667 420.999 65.2667 426.199 65C431.466 64.7333 436.566 64.4 441.499 64C446.433 63.5333 450.966 63.0333 455.099 62.5C455.433 62.4333 455.799 62.4667 456.199 62.6C456.666 62.6667 456.933 62.9667 456.999 63.5L457.599 70C457.666 70.5333 457.533 70.9667 457.199 71.3C456.933 71.5667 456.633 71.7333 456.299 71.8C452.566 72.3333 448.199 72.8333 443.199 73.3C438.199 73.7667 432.933 74.1667 427.399 74.5C421.933 74.8333 416.433 75.1 410.899 75.3C405.366 75.4333 400.233 75.4667 395.499 75.4C395.033 75.4 394.666 75.2667 394.399 75C394.133 74.6667 393.999 74.3 393.999 73.9V67.1Z" fill="white"/>
</svg>
