<svg width="364" height="310" viewBox="0 0 364 310" fill="none" xmlns="http://www.w3.org/2000/svg">
<g filter="url(#filter0_d_1_465)">
<rect x="5" y="1" width="354" height="300" rx="16" fill="#033522" shape-rendering="crispEdges"/>
<rect x="4.5" y="0.5" width="355" height="301" rx="16.5" stroke="#B2A374" stroke-opacity="0.4" shape-rendering="crispEdges"/>
<path d="M46.6 53.676C46.6 53.06 46.768 52.528 47.16 52.024C47.524 51.52 48.056 51.1 48.756 50.764C49.456 50.428 50.324 50.148 51.332 49.952C52.34 49.784 53.488 49.672 54.776 49.672C57.352 49.672 59.34 50.036 60.768 50.764C62.196 51.492 62.924 52.444 62.924 53.676C62.924 54.712 62.42 55.608 61.468 56.336C60.516 57.064 59.144 57.568 57.408 57.82V61.18H62.14C62.896 60.788 63.54 60.536 64.1 60.368C64.66 60.2 65.136 60.144 65.528 60.172C65.976 60.228 66.284 60.34 66.48 60.536C66.676 60.732 66.788 60.984 66.844 61.292C66.9 61.6 66.872 61.936 66.816 62.3C66.76 62.692 66.676 63.056 66.592 63.42C66.424 63.364 66.172 63.336 65.836 63.28C65.472 63.252 65.164 63.224 64.884 63.224H47.16C46.936 63.224 46.684 63.28 46.376 63.392C46.068 63.504 45.76 63.644 45.424 63.756C45.088 63.896 44.724 64.008 44.388 64.12C44.052 64.232 43.744 64.288 43.464 64.288C43.016 64.288 42.68 64.148 42.456 63.868C42.232 63.588 42.12 63.252 42.092 62.86L41.98 60.956C42.82 60.956 43.604 60.984 44.276 61.012C44.948 61.068 45.676 61.124 46.516 61.18H52.032V57.792C50.296 57.54 48.952 57.036 48 56.308C47.048 55.58 46.6 54.684 46.6 53.676ZM44.64 46.284C45.06 46.284 45.452 46.312 45.788 46.312C46.124 46.312 46.432 46.34 46.768 46.34C47.104 46.368 47.44 46.396 47.776 46.424C48.112 46.452 48.476 46.48 48.896 46.508H59.48C60.236 46.116 60.88 45.836 61.384 45.612C61.888 45.388 62.392 45.304 62.868 45.332C63.316 45.36 63.624 45.472 63.82 45.696C64.016 45.92 64.128 46.172 64.184 46.508C64.24 46.844 64.212 47.208 64.156 47.6C64.1 47.992 64.016 48.384 63.932 48.748C63.764 48.692 63.512 48.664 63.176 48.608C62.812 48.58 62.504 48.552 62.224 48.552H49.54C49.316 48.552 49.092 48.608 48.812 48.72C48.532 48.832 48.252 48.916 47.944 49.028C47.636 49.14 47.328 49.252 47.02 49.364C46.684 49.476 46.404 49.504 46.124 49.504C45.676 49.504 45.34 49.392 45.116 49.14C44.892 48.888 44.78 48.58 44.752 48.188L44.64 46.284ZM49.596 43.344C49.596 42.952 49.708 42.588 49.988 42.196C50.268 41.832 50.66 41.636 51.22 41.636C51.444 41.636 51.808 41.692 52.284 41.748C52.732 41.832 53.264 41.916 53.824 42C54.384 42.112 54.972 42.196 55.588 42.252C56.204 42.336 56.764 42.364 57.268 42.364C57.828 42.364 58.304 42.56 58.696 42.896C59.06 43.232 59.256 43.848 59.284 44.744C58.808 44.912 58.164 45.052 57.38 45.164C56.596 45.276 55.756 45.332 54.888 45.36C53.992 45.388 53.152 45.388 52.312 45.332C51.472 45.276 50.772 45.192 50.212 45.08C49.988 44.856 49.82 44.576 49.736 44.24C49.624 43.904 49.596 43.624 49.596 43.344ZM51.78 53.676C51.78 54.348 52.06 54.88 52.62 55.3C53.18 55.748 53.88 55.944 54.776 55.944C55.616 55.944 56.344 55.748 56.904 55.3C57.464 54.88 57.744 54.348 57.744 53.676C57.744 53.032 57.464 52.5 56.904 52.08C56.344 51.66 55.616 51.436 54.776 51.436C53.88 51.436 53.18 51.66 52.62 52.08C52.06 52.5 51.78 53.032 51.78 53.676ZM73.5069 61.796C73.5069 60.9 73.7029 60.116 74.0949 59.444C74.4869 58.8 75.0469 58.268 75.7749 57.848C76.5029 57.428 77.3709 57.12 78.3789 56.924C79.3869 56.728 80.5349 56.616 81.7949 56.616C83.0269 56.616 84.1749 56.728 85.1829 56.924C86.1909 57.12 87.0589 57.428 87.7869 57.848C88.5149 58.268 89.0749 58.8 89.4669 59.444C89.8589 60.116 90.0549 60.9 90.0549 61.796C90.0549 62.748 89.8589 63.532 89.4669 64.176C89.0749 64.848 88.5149 65.38 87.7869 65.8C87.0589 66.22 86.1909 66.528 85.1829 66.724C84.1749 66.92 83.0269 67.004 81.7949 67.004C80.5349 67.004 79.3869 66.92 78.3789 66.724C77.3709 66.528 76.5029 66.22 75.7749 65.8C75.0469 65.38 74.4869 64.848 74.0949 64.176C73.7029 63.532 73.5069 62.748 73.5069 61.796ZM73.2269 45.248C72.9469 45.36 72.7229 45.556 72.5269 45.864C72.3309 46.172 72.2189 46.48 72.1629 46.788C71.3789 46.788 70.7629 46.592 70.2869 46.2C69.8109 45.836 69.5029 45.444 69.3349 44.996C69.1669 44.548 69.1949 44.156 69.3629 43.792C69.5309 43.428 69.8949 43.232 70.4549 43.232H76.9789C77.3989 43.12 77.9029 43.008 78.4909 42.868C79.0509 42.756 79.6389 42.7 80.1989 42.7C80.7589 42.7 81.2909 42.812 81.7669 43.036C82.2429 43.26 82.5789 43.652 82.8029 44.212C82.6349 44.548 82.5509 44.94 82.4949 45.36C82.4389 45.78 82.4109 46.172 82.4109 46.536V47.908C82.4109 48.244 82.3549 48.58 82.2429 48.916C82.1309 49.252 81.8789 49.504 81.4869 49.728C81.0949 49.952 80.5629 50.12 79.8349 50.204C79.1069 50.316 78.1549 50.288 76.9789 50.176H75.3549V53.172L79.3309 53.032C80.6749 52.248 81.8229 51.912 82.7469 51.968C83.0829 52.024 83.3349 52.108 83.5029 52.276C83.6709 52.444 83.8109 52.668 83.8669 52.948C83.9229 53.228 83.9229 53.564 83.8949 53.928C83.8389 54.292 83.7829 54.684 83.6989 55.076C83.4749 55.02 83.1949 54.992 82.8309 54.964C82.4669 54.964 82.1589 54.964 81.9349 54.964L74.0669 55.216C73.6749 55.3 73.3669 55.356 73.1149 55.384C72.8349 55.44 72.5829 55.44 72.3029 55.44C70.8469 55.44 69.9789 54.936 69.6989 53.928C69.7829 53.704 69.8389 53.424 69.8949 53.144C69.9229 52.864 69.9509 52.556 69.9509 52.22V50.848C69.6709 50.596 69.4469 50.288 69.2789 49.924C69.1109 49.588 68.9989 49.252 68.9989 48.916C69.4189 48.468 69.9509 48.188 70.5669 48.048C71.1829 47.908 71.8269 47.824 72.4429 47.824C72.6109 47.824 72.8629 47.852 73.1429 47.852C73.4229 47.88 73.7309 47.908 74.0109 47.936C74.2909 47.992 74.5709 48.02 74.8229 48.048C75.0469 48.104 75.2429 48.132 75.3549 48.16V48.188L76.9789 48.16V45.248H73.2269ZM92.1549 50.652C92.0429 50.4 91.9029 50.232 91.6789 50.148C91.4549 50.092 91.2309 50.036 91.0629 50.036L90.2229 50.092V53.704C90.2229 54.152 90.1389 54.544 90.0269 54.88C89.8869 55.216 89.6349 55.496 89.2429 55.692C88.8509 55.888 88.2909 56 87.5909 56.056C86.8909 56.112 85.9669 56.084 84.8469 55.972V45.444C84.8469 44.996 84.8189 44.52 84.8189 44.044C84.7909 43.568 84.7349 43.092 84.6789 42.588C85.1549 42.476 85.6869 42.336 86.3029 42.224C86.8909 42.112 87.5349 42.028 88.2069 42.028C88.6549 42.028 89.0189 42.084 89.3549 42.196C89.6629 42.308 89.9149 42.42 90.1389 42.588C90.3629 42.756 90.5309 42.924 90.6429 43.092C90.7549 43.26 90.8389 43.428 90.8949 43.568C90.6709 43.904 90.5029 44.352 90.3909 44.856C90.2789 45.36 90.2229 45.808 90.2229 46.172V48.02L92.9109 47.908C93.2749 47.908 93.5269 47.992 93.6949 48.188C93.8349 48.412 93.9189 48.636 93.9189 48.888C93.9189 49.336 93.7509 49.728 93.4429 50.092C93.1069 50.484 92.6869 50.652 92.1549 50.652ZM78.9109 61.796C78.9109 62.86 79.1909 63.672 79.7509 64.176C80.3109 64.708 80.9829 64.96 81.7949 64.96C82.5789 64.96 83.2509 64.708 83.8109 64.176C84.3709 63.672 84.6509 62.86 84.6509 61.796C84.6509 60.732 84.3709 59.948 83.8109 59.444C83.2509 58.94 82.5789 58.66 81.7949 58.66C80.9829 58.66 80.3109 58.94 79.7509 59.444C79.1909 59.948 78.9109 60.732 78.9109 61.796ZM94.3378 60.676C95.1778 60.676 95.9618 60.704 96.6338 60.732C97.3058 60.788 98.0338 60.844 98.8738 60.9H104.166V58.66C104.166 58.212 104.138 57.82 104.138 57.484C104.11 57.148 104.082 56.728 104.026 56.252C104.418 56.168 104.922 56.056 105.482 55.944C106.042 55.832 106.63 55.748 107.19 55.748C107.75 55.748 108.254 55.86 108.758 56.056C109.234 56.28 109.598 56.644 109.85 57.204C109.682 57.512 109.57 57.82 109.542 58.128C109.486 58.464 109.486 58.856 109.486 59.332V60.9H114.498C115.254 60.508 115.898 60.256 116.458 60.088C117.018 59.92 117.494 59.864 117.886 59.892C118.334 59.948 118.642 60.06 118.838 60.256C119.034 60.452 119.146 60.704 119.202 61.012C119.258 61.32 119.23 61.656 119.174 62.02C119.118 62.412 119.034 62.776 118.95 63.14C118.782 63.084 118.53 63.056 118.194 63C117.83 62.972 117.522 62.944 117.242 62.944H99.5178C99.2938 62.944 99.0418 63 98.7338 63.112C98.4258 63.224 98.1178 63.364 97.7818 63.476C97.4458 63.616 97.0818 63.728 96.7458 63.84C96.4098 63.952 96.1018 64.008 95.8218 64.008C95.3738 64.008 95.0378 63.868 94.8138 63.588C94.5898 63.308 94.4778 62.972 94.4498 62.58L94.3378 60.676ZM100.526 56.336C100.246 56.448 99.9378 56.504 99.6018 56.532C99.2658 56.56 98.9018 56.476 98.5378 56.308C98.1458 56.14 97.7818 55.804 97.3898 55.356C96.9978 54.908 96.6058 54.264 96.2418 53.368C97.1938 53.06 98.0898 52.668 98.9858 52.164C99.8818 51.688 100.666 51.128 101.394 50.512C102.122 49.896 102.71 49.224 103.186 48.496C103.634 47.768 103.914 46.956 104.026 46.116C104.082 45.584 104.054 44.968 103.97 44.296C104.698 44.016 105.398 43.792 106.07 43.652C106.742 43.54 107.33 43.484 107.89 43.54C108.45 43.596 108.926 43.764 109.318 43.988C109.71 44.24 110.018 44.576 110.186 44.996C110.046 45.164 109.934 45.444 109.85 45.892C109.738 46.34 109.654 46.816 109.57 47.264C109.262 48.664 108.786 49.868 108.142 50.876C107.47 51.884 106.714 52.752 105.874 53.452C105.034 54.18 104.138 54.768 103.214 55.216C102.262 55.664 101.366 56.056 100.526 56.336ZM108.478 54.152C109.318 53.452 109.99 52.696 110.494 51.912C110.998 51.128 111.39 50.288 111.726 49.336C113.322 49.728 114.47 50.204 115.198 50.764C115.926 51.352 116.262 52.108 116.206 53.06C116.038 53.116 115.842 53.284 115.618 53.508C115.394 53.732 115.114 54.012 114.834 54.292C114.554 54.6 114.246 54.908 113.91 55.188C113.574 55.468 113.266 55.692 112.93 55.86C112.622 56.028 112.314 56.112 112.006 56.14C111.67 56.196 111.334 56.14 110.998 56.028C110.634 55.916 110.242 55.692 109.822 55.412C109.402 55.132 108.954 54.712 108.478 54.152ZM138.381 43.848C138.241 44.184 138.157 44.548 138.129 44.94C138.101 45.36 138.101 45.808 138.101 46.284V51.128H139.613V45.248C139.613 44.828 139.585 44.38 139.585 43.932C139.557 43.484 139.529 43.036 139.473 42.56C139.809 42.448 140.229 42.336 140.761 42.224C141.293 42.112 141.825 42.028 142.385 42.028C142.917 42.028 143.421 42.14 143.897 42.336C144.345 42.56 144.709 42.924 144.933 43.484C144.709 43.82 144.569 44.212 144.457 44.688C144.345 45.192 144.289 45.612 144.289 45.948V63.728C144.289 64.064 144.233 64.4 144.149 64.708C144.037 65.016 143.841 65.268 143.533 65.492C143.197 65.716 142.749 65.856 142.133 65.94C141.517 66.052 140.677 66.024 139.613 65.912V53.2H138.101V63.168C138.101 63.504 138.045 63.812 137.961 64.092C137.877 64.4 137.681 64.652 137.373 64.876C137.065 65.1 136.617 65.24 136.001 65.324C135.385 65.436 134.573 65.408 133.565 65.296V45.78C133.565 45.332 133.537 44.912 133.537 44.464C133.509 44.016 133.481 43.568 133.425 43.092C133.761 42.98 134.153 42.868 134.629 42.728C135.077 42.616 135.553 42.532 136.029 42.532C136.505 42.532 136.953 42.616 137.373 42.784C137.793 42.98 138.129 43.344 138.381 43.848ZM125.249 46.816C124.969 46.984 124.745 47.236 124.549 47.572C124.353 47.908 124.241 48.272 124.185 48.636C123.401 48.636 122.785 48.412 122.309 47.992C121.833 47.6 121.525 47.152 121.357 46.676C121.189 46.2 121.217 45.752 121.385 45.36C121.553 44.968 121.917 44.744 122.477 44.744H127.349C127.685 44.632 128.133 44.52 128.665 44.38C129.197 44.268 129.701 44.184 130.205 44.184C130.681 44.184 131.129 44.296 131.577 44.52C132.025 44.744 132.333 45.136 132.557 45.724C132.445 45.948 132.333 46.228 132.277 46.592C132.221 46.984 132.165 47.404 132.137 47.88C132.025 49.112 131.829 50.372 131.493 51.716C131.157 53.06 130.681 54.348 130.121 55.58C129.533 56.812 128.833 57.876 127.993 58.828C127.153 59.78 126.201 60.48 125.137 60.928C124.857 61.04 124.577 61.096 124.297 61.124C124.017 61.152 123.709 61.096 123.373 60.984C123.037 60.872 122.701 60.648 122.337 60.34C121.973 60.06 121.581 59.612 121.189 59.052C122.309 58.52 123.261 57.792 124.045 56.868C124.829 55.944 125.445 54.936 125.949 53.816C126.425 52.696 126.789 51.548 127.013 50.316C127.237 49.112 127.349 47.936 127.349 46.816H125.249ZM45.774 89.9C45.984 89.732 46.222 89.606 46.502 89.522C46.782 89.438 47.076 89.396 47.384 89.396C47.846 89.396 48.196 89.48 48.448 89.634C48.686 89.802 48.812 90.04 48.812 90.376C48.784 90.516 48.77 90.684 48.77 90.88C48.756 91.09 48.756 91.286 48.756 91.468V96.69C48.756 96.858 48.728 97.026 48.672 97.194C48.616 97.362 48.49 97.488 48.294 97.6C48.098 97.712 47.832 97.796 47.468 97.838C47.104 97.894 46.628 97.88 46.04 97.824H44.374C44.178 97.866 44.01 97.894 43.856 97.908C43.702 97.936 43.562 97.936 43.422 97.936C42.694 97.936 42.26 97.684 42.12 97.18C42.162 97.068 42.19 96.928 42.218 96.788C42.232 96.648 42.246 96.494 42.246 96.326V91.356C42.12 91.244 42.008 91.09 41.924 90.866C41.826 90.642 41.77 90.46 41.77 90.292C41.98 90.068 42.246 89.914 42.554 89.816C42.862 89.732 43.184 89.676 43.492 89.676C43.884 89.676 44.22 89.76 44.514 89.928C44.808 90.096 44.962 90.348 44.962 90.684V93.092H46.04V90.922C45.956 90.782 45.9 90.628 45.858 90.46C45.816 90.306 45.788 90.124 45.774 89.9ZM53.488 94.52C53.432 94.394 53.362 94.31 53.25 94.268C53.138 94.24 53.026 94.212 52.942 94.212L52.522 94.24V99.266C52.522 99.434 52.494 99.602 52.438 99.77C52.382 99.938 52.256 100.064 52.074 100.176C51.878 100.288 51.612 100.372 51.262 100.414C50.898 100.47 50.422 100.456 49.834 100.4V90.222C49.834 89.998 49.82 89.76 49.82 89.522C49.806 89.284 49.778 89.046 49.75 88.794C49.988 88.738 50.254 88.668 50.562 88.612C50.856 88.556 51.178 88.514 51.514 88.514C51.738 88.514 51.92 88.542 52.088 88.598C52.242 88.654 52.368 88.71 52.48 88.794C52.592 88.878 52.676 88.962 52.732 89.046C52.788 89.13 52.83 89.214 52.858 89.284C52.746 89.452 52.662 89.676 52.606 89.928C52.55 90.18 52.522 90.404 52.522 90.586V93.204L53.866 93.148C54.048 93.148 54.174 93.19 54.258 93.288C54.328 93.4 54.37 93.512 54.37 93.638C54.37 93.862 54.286 94.058 54.132 94.24C53.964 94.436 53.754 94.52 53.488 94.52ZM44.962 96.816H46.04V94.1H44.962V96.816ZM58.2335 90.348C58.0935 90.404 57.9955 90.46 57.9115 90.53C57.8275 90.6 57.7715 90.698 57.7435 90.81C57.3515 90.81 57.0575 90.726 56.8335 90.558C56.6095 90.404 56.4555 90.236 56.3995 90.054C56.3435 89.872 56.3575 89.704 56.4555 89.55C56.5535 89.396 56.7495 89.312 57.0295 89.312H62.5035C62.8535 89.256 63.1895 89.214 63.4975 89.172C63.8055 89.13 64.0715 89.116 64.3235 89.13C64.5755 89.144 64.7855 89.2 64.9675 89.298C65.1495 89.41 65.2895 89.564 65.4015 89.788C65.2895 89.956 65.2335 90.11 65.2195 90.25C65.2055 90.39 65.2055 90.558 65.2055 90.74V91.874C65.2055 92.042 65.1775 92.21 65.1215 92.378C65.0655 92.546 64.9395 92.672 64.7575 92.784C64.5615 92.896 64.2955 92.98 63.9315 93.022C63.5675 93.078 63.0915 93.064 62.5035 93.008H59.4375V94.8H63.3575C63.6655 94.674 63.9455 94.576 64.2115 94.492C64.4775 94.422 64.7295 94.394 64.9675 94.408C65.1915 94.422 65.3455 94.478 65.4435 94.576C65.5275 94.674 65.5835 94.8 65.5975 94.94C65.6115 95.08 65.5975 95.248 65.5695 95.416C65.5275 95.584 65.4855 95.752 65.4435 95.892C65.3595 95.864 65.2475 95.85 65.0795 95.85C64.9115 95.85 64.7575 95.836 64.6455 95.836H62.2935V97.95H64.6595C65.0375 97.754 65.3595 97.628 65.6395 97.544C65.9195 97.46 66.1575 97.432 66.3535 97.446C66.5775 97.474 66.7315 97.53 66.8295 97.628C66.9275 97.726 66.9835 97.852 67.0115 98.006C67.0395 98.16 67.0255 98.328 66.9975 98.51C66.9695 98.706 66.9275 98.888 66.8855 99.07C66.8015 99.042 66.6755 99.028 66.5075 99C66.3255 98.986 66.1715 98.972 66.0315 98.972H57.1695C57.0575 98.972 56.9315 99 56.7775 99.056C56.6235 99.112 56.4695 99.182 56.3015 99.238C56.1335 99.308 55.9515 99.364 55.7835 99.42C55.6155 99.476 55.4615 99.504 55.3215 99.504C55.0975 99.504 54.9295 99.434 54.8175 99.294C54.7055 99.154 54.6495 98.986 54.6355 98.79L54.5795 97.838C54.9995 97.838 55.3915 97.852 55.7275 97.866C56.0635 97.894 56.4275 97.922 56.8475 97.95H59.6055V95.836H59.4375C59.2135 95.878 58.9615 95.906 58.6815 95.934C58.4015 95.962 58.1355 95.962 57.8975 95.962C57.1835 95.962 56.7495 95.71 56.6095 95.206C56.6515 95.094 56.6795 94.968 56.7075 94.828C56.7215 94.688 56.7355 94.548 56.7355 94.38V93.232C56.4555 92.98 56.3155 92.7 56.3015 92.364C56.5115 92.14 56.7635 92.014 57.0715 91.958C57.3655 91.902 57.6735 91.874 57.9815 91.874C58.0655 91.874 58.1915 91.888 58.3315 91.888C58.4715 91.902 58.6255 91.916 58.7655 91.93C58.9055 91.958 59.0455 91.972 59.1715 91.986C59.2835 92.014 59.3815 92.028 59.4375 92.042H62.5035V90.348H58.2335ZM79.6669 94.52C79.6109 94.394 79.5409 94.31 79.4289 94.268C79.3169 94.24 79.2049 94.212 79.1209 94.212L78.7009 94.24V99.266C78.7009 99.434 78.6729 99.602 78.6169 99.77C78.5609 99.938 78.4349 100.064 78.2529 100.176C78.0569 100.288 77.7909 100.372 77.4409 100.414C77.0769 100.47 76.6009 100.456 76.0129 100.4V90.222C76.0129 89.998 75.9989 89.76 75.9989 89.522C75.9849 89.284 75.9569 89.046 75.9289 88.794C76.1669 88.738 76.4329 88.668 76.7409 88.612C77.0349 88.556 77.3569 88.514 77.6929 88.514C77.9169 88.514 78.0989 88.542 78.2669 88.598C78.4209 88.654 78.5469 88.71 78.6589 88.794C78.7709 88.878 78.8549 88.962 78.9109 89.046C78.9669 89.13 79.0089 89.214 79.0369 89.284C78.9249 89.452 78.8409 89.676 78.7849 89.928C78.7289 90.18 78.7009 90.404 78.7009 90.586V93.204L80.0449 93.148C80.2269 93.148 80.3529 93.19 80.4369 93.288C80.5069 93.4 80.5489 93.512 80.5489 93.638C80.5489 93.862 80.4649 94.058 80.3109 94.24C80.1429 94.436 79.9329 94.52 79.6669 94.52ZM74.7669 91.44C74.7109 92.056 74.5709 92.7 74.3469 93.4C74.1229 94.1 73.8149 94.758 73.4229 95.374C73.0309 95.99 72.5689 96.55 72.0369 97.026C71.4909 97.516 70.8749 97.852 70.2029 98.034C70.0489 98.09 69.8809 98.104 69.7129 98.104C69.5449 98.104 69.3629 98.048 69.1809 97.964C68.9989 97.88 68.8169 97.754 68.6489 97.586C68.4669 97.418 68.2989 97.166 68.1309 96.858C68.7889 96.648 69.3769 96.326 69.8809 95.892C70.3849 95.458 70.8189 94.968 71.1549 94.408C71.4909 93.848 71.7429 93.274 71.9109 92.658C72.0789 92.042 72.1489 91.454 72.1209 90.894H70.7069C70.5109 91.006 70.3709 91.146 70.2729 91.328C70.1609 91.51 70.0909 91.706 70.0489 91.902C69.7129 91.902 69.4329 91.86 69.2089 91.776C68.9709 91.692 68.7749 91.594 68.6209 91.454C68.4669 91.314 68.3549 91.174 68.2849 91.006C68.2149 90.852 68.1869 90.698 68.1869 90.544C68.1869 90.362 68.2289 90.208 68.3409 90.068C68.4389 89.942 68.5929 89.872 68.7889 89.872H72.0229C72.2329 89.816 72.4989 89.76 72.8349 89.69C73.1569 89.634 73.4649 89.592 73.7449 89.592C74.0389 89.592 74.3189 89.648 74.5709 89.76C74.8229 89.872 75.0049 90.068 75.1309 90.362C75.0609 90.474 74.9909 90.614 74.9349 90.796C74.8649 90.992 74.8089 91.202 74.7669 91.44ZM88.0804 91.44C88.0244 92.056 87.8844 92.7 87.6604 93.4C87.4224 94.1 87.1004 94.758 86.7084 95.374C86.3024 95.99 85.8264 96.55 85.2804 97.026C84.7204 97.516 84.1044 97.852 83.4324 98.034C83.2784 98.09 83.1104 98.104 82.9424 98.104C82.7744 98.104 82.5924 98.048 82.4104 97.964C82.2284 97.88 82.0464 97.754 81.8784 97.586C81.6964 97.418 81.5284 97.166 81.3604 96.858C82.0184 96.648 82.6064 96.326 83.1244 95.892C83.6424 95.472 84.0764 94.982 84.4264 94.436C84.7764 93.89 85.0424 93.316 85.2104 92.7C85.3784 92.084 85.4624 91.496 85.4344 90.936H83.9364C83.7404 91.048 83.6004 91.188 83.5024 91.37C83.3904 91.552 83.3204 91.748 83.2784 91.944C82.9424 91.944 82.6624 91.902 82.4384 91.818C82.2004 91.734 82.0044 91.608 81.8504 91.468C81.6964 91.328 81.5844 91.188 81.5144 91.02C81.4444 90.852 81.4164 90.698 81.4164 90.544C81.4164 90.362 81.4584 90.208 81.5704 90.068C81.6684 89.942 81.8224 89.872 82.0184 89.872H85.3364C85.5464 89.816 85.8124 89.76 86.1484 89.69C86.4704 89.634 86.7784 89.592 87.0584 89.592C87.3524 89.592 87.6324 89.648 87.8844 89.76C88.1364 89.872 88.3184 90.068 88.4444 90.362C88.3744 90.474 88.3044 90.614 88.2484 90.796C88.1784 90.992 88.1224 91.202 88.0804 91.44ZM92.2804 99.266C92.2804 99.434 92.2524 99.602 92.1964 99.77C92.1404 99.938 92.0144 100.064 91.8324 100.176C91.6364 100.288 91.3704 100.372 91.0204 100.414C90.6564 100.47 90.1804 100.456 89.5924 100.4V90.222C89.5924 89.998 89.5784 89.76 89.5784 89.522C89.5644 89.284 89.5364 89.046 89.5084 88.794C89.7464 88.738 90.0124 88.668 90.3204 88.612C90.6144 88.556 90.9364 88.514 91.2724 88.514C91.4964 88.514 91.6784 88.542 91.8464 88.598C92.0004 88.654 92.1264 88.71 92.2384 88.794C92.3504 88.878 92.4344 88.962 92.4904 89.046C92.5464 89.13 92.5884 89.214 92.6164 89.284C92.5044 89.452 92.4204 89.676 92.3644 89.928C92.3084 90.18 92.2804 90.404 92.2804 90.586V99.266ZM100.55 94.632L96.574 89.06H99.304L103.364 94.632L99.304 100.19H96.574L100.55 94.632Z" fill="#B2A374"/>
</g>
<path d="M5 261H359V281C359 292.046 350.046 301 339 301H25C13.9543 301 5 292.046 5 281V261Z" fill="#022336"/>
<path fill-rule="evenodd" clip-rule="evenodd" d="M293.555 196.271C292.037 193.843 288.501 193.843 286.984 196.271L280.384 206.831C278.547 206.621 276.674 206.512 274.771 206.512C272.869 206.512 270.995 206.621 269.159 206.831L262.559 196.271C261.042 193.843 257.506 193.843 255.988 196.271L240.378 221.248C238.74 223.091 237.315 225.056 236.132 227.112C239.76 229.211 243.987 229.397 247.24 227.612L251.579 235.23C245.57 238.528 238.686 238.173 232.88 235.221C232.402 237.24 232.152 239.301 232.152 241.382C232.152 241.961 232.172 242.534 232.21 243.102C236.266 248.128 242.701 249.476 247.24 246.985L251.579 254.603C246.933 257.152 241.764 257.519 236.974 256.189C244.089 266.14 258.345 272.378 274.771 272.378C291.221 272.378 305.494 266.123 312.598 256.148C307.767 257.526 302.539 257.178 297.845 254.603L302.184 246.985C306.772 249.502 313.296 248.099 317.343 242.94C317.375 242.425 317.391 241.906 317.391 241.382C317.391 239.283 317.136 237.203 316.65 235.167C310.822 238.169 303.891 238.548 297.845 235.23L302.184 227.612C305.464 229.412 309.734 229.208 313.381 227.06C312.204 225.023 310.789 223.076 309.166 221.248L293.555 196.271ZM273.714 245.427C278.556 245.427 282.481 242.636 282.481 241.252C282.481 239.869 278.556 239.582 273.714 239.582C268.872 239.582 264.947 239.869 264.947 241.252C264.947 242.636 268.872 245.427 273.714 245.427Z" fill="#F0681C"/>
<defs>
<filter id="filter0_d_1_465" x="0" y="0" width="364" height="310" filterUnits="userSpaceOnUse" color-interpolation-filters="sRGB">
<feFlood flood-opacity="0" result="BackgroundImageFix"/>
<feColorMatrix in="SourceAlpha" type="matrix" values="0 0 0 0 0 0 0 0 0 0 0 0 0 0 0 0 0 0 127 0" result="hardAlpha"/>
<feOffset dy="4"/>
<feGaussianBlur stdDeviation="2"/>
<feComposite in2="hardAlpha" operator="out"/>
<feColorMatrix type="matrix" values="0 0 0 0 0 0 0 0 0 0 0 0 0 0 0 0 0 0 0.25 0"/>
<feBlend mode="normal" in2="BackgroundImageFix" result="effect1_dropShadow_1_465"/>
<feBlend mode="normal" in="SourceGraphic" in2="effect1_dropShadow_1_465" result="shape"/>
</filter>
</defs>
</svg>
