<svg width="511" height="99" viewBox="0 0 511 99" fill="none" xmlns="http://www.w3.org/2000/svg">
<path d="M73.4 2.09999C73.4 1.23333 73.8667 0.799993 74.8 0.799993H83.4C84.2667 0.799993 84.7 1.23333 84.7 2.09999V94.4C84.7 95.2667 84.2667 95.7 83.4 95.7H74.7C73.8333 95.7 73.4 95.2667 73.4 94.4V46.9H64.1V90.6C64.1 91.5333 63.6667 92 62.8 92H54.6C53.6667 92 53.2 91.5333 53.2 90.6V3.9C53.2 3.03333 53.6667 2.59999 54.6 2.59999H62.8C63.6667 2.59999 64.1 3.03333 64.1 3.9V37.3H73.4V2.09999ZM9.3 73C8.23333 74.0667 7.16667 74.0667 6.1 73L1.6 68.6C0.6 67.6667 0.633333 66.6667 1.7 65.6C5.3 62.2 8.3 58.4667 10.7 54.4C13.1 50.3333 15.0333 45.9 16.5 41.1C17.9667 36.3 19 31.1333 19.6 25.6C20.2667 20.0667 20.6 14.1333 20.6 7.8C20.6 6.8 21.0333 6.29999 21.9 6.29999L30.2 6.6C30.5333 6.6 30.8667 6.76666 31.2 7.1C31.5333 7.36666 31.7 7.7 31.7 8.09999C31.7 16.8333 31.2 24.6333 30.2 31.5C30.8 34.6333 31.7 37.7 32.9 40.7C34.1667 43.7 35.6 46.5667 37.2 49.3C38.8 52.0333 40.5 54.5333 42.3 56.8C44.1667 59.0667 46.0333 61 47.9 62.6C48.4333 63.0667 48.6333 63.5667 48.5 64.1C48.4333 64.5667 48.2 65 47.8 65.4L43.5 69.7C42.5667 70.6333 41.6 70.6667 40.6 69.8C39.0667 68.6667 37.5667 67.3333 36.1 65.8C34.6333 64.2 33.2333 62.5 31.9 60.7C30.5667 58.9 29.3333 57.0333 28.2 55.1C27.1333 53.1 26.2333 51.1333 25.5 49.2C23.7 53.7333 21.4667 57.9333 18.8 61.8C16.1333 65.6 12.9667 69.3333 9.3 73ZM181.443 78C181.443 78.3333 181.276 78.6667 180.943 79C180.61 79.3333 180.276 79.5 179.943 79.5H92.843C92.443 79.5 92.1096 79.3333 91.843 79C91.5763 78.6667 91.443 78.3333 91.443 78V71.7C91.443 71.3 91.5763 70.9333 91.843 70.6C92.1096 70.2667 92.443 70.1 92.843 70.1H130.743V55.2H112.843C111.376 55.2 110.176 55.1 109.243 54.9C108.31 54.7 107.576 54.3333 107.043 53.8C106.51 53.2667 106.143 52.6 105.943 51.8C105.743 50.9333 105.643 49.8333 105.643 48.5V32.4C105.643 31.0667 105.743 30 105.943 29.2C106.143 28.3333 106.51 27.6667 107.043 27.2C107.576 26.6667 108.31 26.3333 109.243 26.2C110.176 26 111.376 25.9 112.843 25.9H154.443C155.11 25.9 155.51 25.8333 155.643 25.7C155.843 25.5 155.943 25.0333 155.943 24.3V16.5C155.943 15.7667 155.843 15.3667 155.643 15.3C155.51 15.1667 155.11 15.1 154.443 15.1H107.343C107.01 15.1 106.71 14.9667 106.443 14.7C106.176 14.3667 106.043 14.0333 106.043 13.7V7C106.043 6.66666 106.176 6.36666 106.443 6.1C106.71 5.83333 107.01 5.7 107.343 5.7H159.943C162.743 5.7 164.643 6.16666 165.643 7.1C166.643 7.96666 167.143 9.7 167.143 12.3V28.5C167.143 31.1 166.643 32.8667 165.643 33.8C164.643 34.6667 162.743 35.1 159.943 35.1H118.243C117.576 35.1 117.176 35.1667 117.043 35.3C116.91 35.4333 116.843 35.8333 116.843 36.5V44.4C116.843 45.1333 116.91 45.6 117.043 45.8C117.243 45.9333 117.676 46 118.343 46H167.943C168.276 46 168.576 46.1333 168.843 46.4C169.11 46.6 169.243 46.8667 169.243 47.2V53.9C169.243 54.2333 169.076 54.5333 168.743 54.8C168.476 55.0667 168.21 55.2 167.943 55.2H142.243V70.1H179.943C180.276 70.1 180.61 70.3 180.943 70.7C181.276 71.0333 181.443 71.3667 181.443 71.7V78ZM228.186 38.9C223.519 38.9 219.219 38.5 215.286 37.7C211.419 36.8333 208.086 35.6333 205.286 34.1C202.486 32.5 200.286 30.5667 198.686 28.3C197.153 26.0333 196.386 23.4667 196.386 20.6C196.386 17.7333 197.153 15.1667 198.686 12.9C200.286 10.5667 202.486 8.63333 205.286 7.1C208.086 5.5 211.419 4.3 215.286 3.49999C219.219 2.63333 223.519 2.19999 228.186 2.19999C232.853 2.19999 237.119 2.63333 240.986 3.49999C244.853 4.3 248.186 5.5 250.986 7.1C253.786 8.63333 255.953 10.5667 257.486 12.9C259.086 15.1667 259.886 17.7333 259.886 20.6C259.886 23.4667 259.086 26.0333 257.486 28.3C255.953 30.5667 253.786 32.5 250.986 34.1C248.186 35.6333 244.853 36.8333 240.986 37.7C237.119 38.5 232.853 38.9 228.186 38.9ZM228.186 11.4C225.253 11.4 222.586 11.6333 220.186 12.1C217.786 12.5667 215.686 13.2 213.886 14C212.153 14.8 210.786 15.7667 209.786 16.9C208.853 18.0333 208.386 19.2667 208.386 20.6C208.386 21.9333 208.853 23.1667 209.786 24.3C210.786 25.4333 212.153 26.4 213.886 27.2C215.686 28 217.786 28.6333 220.186 29.1C222.586 29.5 225.253 29.7 228.186 29.7C231.053 29.7 233.686 29.5 236.086 29.1C238.486 28.6333 240.553 28 242.286 27.2C244.086 26.4 245.453 25.4333 246.386 24.3C247.386 23.1667 247.886 21.9333 247.886 20.6C247.886 19.2667 247.386 18.0333 246.386 16.9C245.453 15.7667 244.086 14.8 242.286 14C240.553 13.2 238.486 12.5667 236.086 12.1C233.686 11.6333 231.053 11.4 228.186 11.4ZM272.986 54.2C272.986 54.5333 272.819 54.9 272.486 55.3C272.153 55.6333 271.819 55.8 271.486 55.8H234.486V74.1C234.486 75.0333 234.019 75.5 233.086 75.5H224.386C223.453 75.5 222.986 75.0333 222.986 74.1V55.8H184.386C183.986 55.8 183.653 55.6333 183.386 55.3C183.119 54.9 182.986 54.5333 182.986 54.2V47.7C182.986 47.3 183.119 46.9667 183.386 46.7C183.653 46.3667 183.986 46.2 184.386 46.2H271.486C271.819 46.2 272.153 46.3667 272.486 46.7C272.819 47.0333 272.986 47.3667 272.986 47.7V54.2ZM262.086 92.1C262.086 92.5 261.919 92.8 261.586 93C261.319 93.2 260.986 93.3 260.586 93.3H203.986C200.986 93.3 198.953 92.7667 197.886 91.7C196.886 90.6333 196.386 88.8 196.386 86.2V65C196.386 64.6667 196.519 64.3667 196.786 64.1C197.119 63.7667 197.453 63.6 197.786 63.6H206.386C206.786 63.6 207.119 63.7667 207.386 64.1C207.719 64.3667 207.886 64.6667 207.886 65V82.1C207.886 82.7667 208.019 83.2 208.286 83.4C208.553 83.6 209.019 83.7 209.686 83.7H260.586C260.919 83.7 261.253 83.8333 261.586 84.1C261.919 84.3 262.086 84.5667 262.086 84.9V92.1ZM289.329 97.7C289.129 98.2333 288.829 98.5667 288.429 98.7C288.029 98.9 287.596 99 287.129 99H279.129C278.796 99 278.529 98.8667 278.329 98.6C278.129 98.4 278.096 98.1 278.229 97.7L283.129 79.5C283.262 79.1667 283.462 78.8333 283.729 78.5C283.996 78.1 284.496 77.9 285.229 77.9H294.929C295.796 77.9 296.262 78.1333 296.329 78.6C296.396 79 296.362 79.4 296.229 79.8L289.329 97.7ZM367.63 38.4H346.13V57.1C346.13 58.2333 346.73 58.8 347.93 58.8H365.83C367.03 58.8 367.63 58.2333 367.63 57.1V38.4ZM379.13 61.5C379.13 63.7 378.596 65.3667 377.53 66.5C376.463 67.6333 374.496 68.2 371.63 68.2H342.23C339.296 68.2 337.296 67.7 336.23 66.7C335.163 65.7 334.63 63.8667 334.63 61.2V7.19999C334.63 6.86666 334.763 6.6 335.03 6.4C335.296 6.13333 335.596 6 335.93 6H344.73C345.063 6 345.363 6.13333 345.63 6.4C345.963 6.6 346.13 6.86666 346.13 7.19999V29.1H367.63V7.1C367.63 6.76666 367.763 6.46666 368.03 6.2C368.296 5.93333 368.596 5.79999 368.93 5.79999H377.83C378.163 5.79999 378.463 5.93333 378.73 6.2C378.996 6.46666 379.13 6.76666 379.13 7.1V61.5ZM419.13 45.6C419.13 46 418.963 46.3333 418.63 46.6C418.363 46.8667 418.063 47 417.73 47H404.13V94.4C404.13 95.2667 403.696 95.7 402.83 95.7H393.93C393.063 95.7 392.63 95.2667 392.63 94.4V2.09999C392.63 1.23333 393.063 0.799993 393.93 0.799993H402.83C403.696 0.799993 404.13 1.23333 404.13 2.09999V37.4H417.73C418.063 37.4 418.363 37.5333 418.63 37.8C418.963 38 419.13 38.2667 419.13 38.6V45.6ZM484.373 72.4C484.373 71.8667 484.273 71.5333 484.073 71.4C483.939 71.2 483.606 71.1 483.073 71.1H449.673C449.139 71.1 448.773 71.1667 448.573 71.3C448.439 71.4333 448.373 71.7667 448.373 72.3V83.5C448.373 84.1 448.439 84.4667 448.573 84.6C448.773 84.7333 449.139 84.8 449.673 84.8H483.073C483.606 84.8 483.939 84.7333 484.073 84.6C484.273 84.4667 484.373 84.1 484.373 83.5V72.4ZM495.773 87C495.773 89.5333 495.206 91.3333 494.073 92.4C493.006 93.4667 491.206 94 488.673 94H444.573C441.573 94 439.539 93.4667 438.473 92.4C437.473 91.3333 436.973 89.5 436.973 86.9V69C436.973 66.4667 437.506 64.6667 438.573 63.6C439.706 62.4667 441.539 61.9 444.073 61.9H488.173C491.173 61.9 493.173 62.4333 494.173 63.5C495.239 64.5667 495.773 66.4333 495.773 69.1V87ZM510.673 33.2C510.673 33.5333 510.506 33.8333 510.173 34.1C509.906 34.3667 509.606 34.5 509.273 34.5H495.673V55.6C495.673 56.4667 495.239 56.9 494.373 56.9H485.473C484.606 56.9 484.173 56.4333 484.173 55.5V2.09999C484.173 1.23333 484.606 0.799993 485.473 0.799993H494.373C495.239 0.799993 495.673 1.23333 495.673 2.09999V25H509.273C509.606 25 509.906 25.1333 510.173 25.4C510.506 25.6 510.673 25.8667 510.673 26.2V33.2ZM479.773 48C479.839 48.3333 479.739 48.6667 479.473 49C479.206 49.2667 478.906 49.4333 478.573 49.5C475.439 50.1 472.006 50.6333 468.273 51.1C464.539 51.5667 460.706 51.9333 456.773 52.2C452.839 52.4667 448.873 52.6667 444.873 52.8C440.939 52.8667 437.206 52.8333 433.673 52.7C431.073 52.5667 429.306 52.0333 428.373 51.1C427.439 50.1667 426.973 48.6333 426.973 46.5V29.8C426.973 27.7333 427.406 26.2667 428.273 25.4C429.206 24.5333 430.739 24.1 432.873 24.1H455.973C456.706 24.1 457.139 24.0333 457.273 23.9C457.406 23.7667 457.473 23.3333 457.473 22.6V15C457.473 14.2667 457.406 13.8333 457.273 13.7C457.139 13.5667 456.706 13.5 455.973 13.5H428.773C428.439 13.5 428.106 13.3667 427.773 13.1C427.506 12.8333 427.373 12.5333 427.373 12.2V5.7C427.373 5.36666 427.506 5.1 427.773 4.89999C428.106 4.63333 428.439 4.49999 428.773 4.49999H462.173C464.773 4.49999 466.539 5.03333 467.473 6.1C468.406 7.1 468.873 8.76666 468.873 11.1V26.1C468.873 28.5667 468.339 30.2667 467.273 31.2C466.273 32.1333 464.706 32.6 462.573 32.6H439.773C439.239 32.6 438.873 32.7 438.673 32.9C438.473 33.0333 438.373 33.4 438.373 34V41.9C438.373 43.0333 438.973 43.6 440.173 43.6C446.239 43.7333 452.539 43.6 459.073 43.2C465.606 42.7333 471.606 42.0333 477.073 41.1C477.406 41.0333 477.739 41.0667 478.073 41.2C478.473 41.2667 478.706 41.5 478.773 41.9L479.773 48Z" fill="white"/>
</svg>
