<svg width="1920" height="1545" viewBox="0 0 1920 1545" fill="none" xmlns="http://www.w3.org/2000/svg">
<g opacity="0.4">
<path fill-rule="evenodd" clip-rule="evenodd" d="M349 772.5C349 928.659 222.408 1055.25 66.2499 1055.25C66.2499 1211.41 -60.3416 1338 -216.5 1338C-372.659 1338 -499.25 1211.41 -499.25 1055.25C-655.409 1055.25 -782 928.658 -782 772.5C-782 616.341 -655.409 489.75 -499.25 489.75C-499.25 333.591 -372.659 207 -216.5 207C-60.3415 207 66.25 333.591 66.25 489.75C222.408 489.75 349 616.341 349 772.5Z" fill="#1F2532"/>
<path fill-rule="evenodd" clip-rule="evenodd" d="M2686 772.5C2686 928.659 2559.41 1055.25 2403.25 1055.25C2403.25 1211.41 2276.66 1338 2120.5 1338C1964.34 1338 1837.75 1211.41 1837.75 1055.25C1681.59 1055.25 1555 928.658 1555 772.5C1555 616.341 1681.59 489.75 1837.75 489.75C1837.75 333.591 1964.34 207 2120.5 207C2276.66 207 2403.25 333.591 2403.25 489.75C2559.41 489.75 2686 616.341 2686 772.5Z" fill="#1F2532"/>
<path fill-rule="evenodd" clip-rule="evenodd" d="M464.262 489.75C386.182 624.987 432.518 797.914 567.755 875.994C489.676 1011.23 536.012 1184.16 671.249 1262.24C806.486 1340.32 979.414 1293.98 1057.49 1158.74C1192.73 1236.82 1365.66 1190.49 1443.74 1055.25C1521.82 920.013 1475.48 747.086 1340.24 669.006C1418.32 533.769 1371.99 360.842 1236.75 282.763C1101.51 204.683 928.585 251.019 850.505 386.256C715.268 308.177 542.341 354.513 464.262 489.75Z" fill="#1F2532"/>
<path fill-rule="evenodd" clip-rule="evenodd" d="M1443.74 489.75C1521.82 624.987 1475.48 797.914 1340.24 875.994C1418.32 1011.23 1371.99 1184.16 1236.75 1262.24C1101.51 1340.32 928.586 1293.98 850.507 1158.74C715.27 1236.82 542.343 1190.49 464.264 1055.25C386.184 920.013 432.52 747.086 567.757 669.006C489.678 533.769 536.014 360.842 671.251 282.763C806.488 204.683 979.415 251.019 1057.49 386.256C1192.73 308.177 1365.66 354.513 1443.74 489.75Z" fill="#21303F"/>
<path opacity="0.4" fill-rule="evenodd" clip-rule="evenodd" d="M520.5 772.5C520.5 892.208 617.542 989.25 737.25 989.25C737.25 1108.96 834.292 1206 954 1206C1073.71 1206 1170.75 1108.96 1170.75 989.25C1290.46 989.25 1387.5 892.208 1387.5 772.5C1387.5 652.792 1290.46 555.75 1170.75 555.75C1170.75 436.042 1073.71 339 954 339C834.292 339 737.25 436.042 737.25 555.75C617.542 555.75 520.5 652.792 520.5 772.5Z" fill="#1F2532"/>
</g>
</svg>
