<svg width="342" height="300" viewBox="0 0 342 300" fill="none" xmlns="http://www.w3.org/2000/svg">
<path d="M4.8 51.008C4.8 50.48 4.944 50.024 5.28 49.592C5.592 49.16 6.048 48.8 6.648 48.512C7.248 48.224 7.992 47.984 8.856 47.816C9.72 47.672 10.704 47.576 11.808 47.576C14.016 47.576 15.72 47.888 16.944 48.512C18.168 49.136 18.792 49.952 18.792 51.008C18.792 51.896 18.36 52.664 17.544 53.288C16.728 53.912 15.552 54.344 14.064 54.56V57.44H18.12C18.768 57.104 19.32 56.888 19.8 56.744C20.28 56.6 20.688 56.552 21.024 56.576C21.408 56.624 21.672 56.72 21.84 56.888C22.008 57.056 22.104 57.272 22.152 57.536C22.2 57.8 22.176 58.088 22.128 58.4C22.08 58.736 22.008 59.048 21.936 59.36C21.792 59.312 21.576 59.288 21.288 59.24C20.976 59.216 20.712 59.192 20.472 59.192H5.28C5.088 59.192 4.872 59.24 4.608 59.336C4.344 59.432 4.08 59.552 3.792 59.648C3.504 59.768 3.192 59.864 2.904 59.96C2.616 60.056 2.352 60.104 2.112 60.104C1.728 60.104 1.44 59.984 1.248 59.744C1.056 59.504 0.96 59.216 0.936 58.88L0.84 57.248C1.56 57.248 2.232 57.272 2.808 57.296C3.384 57.344 4.008 57.392 4.728 57.44H9.456V54.536C7.968 54.32 6.816 53.888 6 53.264C5.184 52.64 4.8 51.872 4.8 51.008ZM3.12 44.672C3.48 44.672 3.816 44.696 4.104 44.696C4.392 44.696 4.656 44.72 4.944 44.72C5.232 44.744 5.52 44.768 5.808 44.792C6.096 44.816 6.408 44.84 6.768 44.864H15.84C16.488 44.528 17.04 44.288 17.472 44.096C17.904 43.904 18.336 43.832 18.744 43.856C19.128 43.88 19.392 43.976 19.56 44.168C19.728 44.36 19.824 44.576 19.872 44.864C19.92 45.152 19.896 45.464 19.848 45.8C19.8 46.136 19.728 46.472 19.656 46.784C19.512 46.736 19.296 46.712 19.008 46.664C18.696 46.64 18.432 46.616 18.192 46.616H7.32C7.128 46.616 6.936 46.664 6.696 46.76C6.456 46.856 6.216 46.928 5.952 47.024C5.688 47.12 5.424 47.216 5.16 47.312C4.872 47.408 4.632 47.432 4.392 47.432C4.008 47.432 3.72 47.336 3.528 47.12C3.336 46.904 3.24 46.64 3.216 46.304L3.12 44.672ZM7.368 42.152C7.368 41.816 7.464 41.504 7.704 41.168C7.944 40.856 8.28 40.688 8.76 40.688C8.952 40.688 9.264 40.736 9.672 40.784C10.056 40.856 10.512 40.928 10.992 41C11.472 41.096 11.976 41.168 12.504 41.216C13.032 41.288 13.512 41.312 13.944 41.312C14.424 41.312 14.832 41.48 15.168 41.768C15.48 42.056 15.648 42.584 15.672 43.352C15.264 43.496 14.712 43.616 14.04 43.712C13.368 43.808 12.648 43.856 11.904 43.88C11.136 43.904 10.416 43.904 9.696 43.856C8.976 43.808 8.376 43.736 7.896 43.64C7.704 43.448 7.56 43.208 7.488 42.92C7.392 42.632 7.368 42.392 7.368 42.152ZM9.24 51.008C9.24 51.584 9.48 52.04 9.96 52.4C10.44 52.784 11.04 52.952 11.808 52.952C12.528 52.952 13.152 52.784 13.632 52.4C14.112 52.04 14.352 51.584 14.352 51.008C14.352 50.456 14.112 50 13.632 49.64C13.152 49.28 12.528 49.088 11.808 49.088C11.04 49.088 10.44 49.28 9.96 49.64C9.48 50 9.24 50.456 9.24 51.008ZM27.8631 57.968C27.8631 57.2 28.0311 56.528 28.3671 55.952C28.7031 55.4 29.1831 54.944 29.8071 54.584C30.4311 54.224 31.1751 53.96 32.0391 53.792C32.9031 53.624 33.8871 53.528 34.9671 53.528C36.0231 53.528 37.0071 53.624 37.8711 53.792C38.7351 53.96 39.4791 54.224 40.1031 54.584C40.7271 54.944 41.2071 55.4 41.5431 55.952C41.8791 56.528 42.0471 57.2 42.0471 57.968C42.0471 58.784 41.8791 59.456 41.5431 60.008C41.2071 60.584 40.7271 61.04 40.1031 61.4C39.4791 61.76 38.7351 62.024 37.8711 62.192C37.0071 62.36 36.0231 62.432 34.9671 62.432C33.8871 62.432 32.9031 62.36 32.0391 62.192C31.1751 62.024 30.4311 61.76 29.8071 61.4C29.1831 61.04 28.7031 60.584 28.3671 60.008C28.0311 59.456 27.8631 58.784 27.8631 57.968ZM27.6231 43.784C27.3831 43.88 27.1911 44.048 27.0231 44.312C26.8551 44.576 26.7591 44.84 26.7111 45.104C26.0391 45.104 25.5111 44.936 25.1031 44.6C24.6951 44.288 24.4311 43.952 24.2871 43.568C24.1431 43.184 24.1671 42.848 24.3111 42.536C24.4551 42.224 24.7671 42.056 25.2471 42.056H30.8391C31.1991 41.96 31.6311 41.864 32.1351 41.744C32.6151 41.648 33.1191 41.6 33.5991 41.6C34.0791 41.6 34.5351 41.696 34.9431 41.888C35.3511 42.08 35.6391 42.416 35.8311 42.896C35.6871 43.184 35.6151 43.52 35.5671 43.88C35.5191 44.24 35.4951 44.576 35.4951 44.888V46.064C35.4951 46.352 35.4471 46.64 35.3511 46.928C35.2551 47.216 35.0391 47.432 34.7031 47.624C34.3671 47.816 33.9111 47.96 33.2871 48.032C32.6631 48.128 31.8471 48.104 30.8391 48.008H29.4471V50.576L32.8551 50.456C34.0071 49.784 34.9911 49.496 35.7831 49.544C36.0711 49.592 36.2871 49.664 36.4311 49.808C36.5751 49.952 36.6951 50.144 36.7431 50.384C36.7911 50.624 36.7911 50.912 36.7671 51.224C36.7191 51.536 36.6711 51.872 36.5991 52.208C36.4071 52.16 36.1671 52.136 35.8551 52.112C35.5431 52.112 35.2791 52.112 35.0871 52.112L28.3431 52.328C28.0071 52.4 27.7431 52.448 27.5271 52.472C27.2871 52.52 27.0711 52.52 26.8311 52.52C25.5831 52.52 24.8391 52.088 24.5991 51.224C24.6711 51.032 24.7191 50.792 24.7671 50.552C24.7911 50.312 24.8151 50.048 24.8151 49.76V48.584C24.5751 48.368 24.3831 48.104 24.2391 47.792C24.0951 47.504 23.9991 47.216 23.9991 46.928C24.3591 46.544 24.8151 46.304 25.3431 46.184C25.8711 46.064 26.4231 45.992 26.9511 45.992C27.0951 45.992 27.3111 46.016 27.5511 46.016C27.7911 46.04 28.0551 46.064 28.2951 46.088C28.5351 46.136 28.7751 46.16 28.9911 46.184C29.1831 46.232 29.3511 46.256 29.4471 46.28V46.304L30.8391 46.28V43.784H27.6231ZM43.8471 48.416C43.7511 48.2 43.6311 48.056 43.4391 47.984C43.2471 47.936 43.0551 47.888 42.9111 47.888L42.1911 47.936V51.032C42.1911 51.416 42.1191 51.752 42.0231 52.04C41.9031 52.328 41.6871 52.568 41.3511 52.736C41.0151 52.904 40.5351 53 39.9351 53.048C39.3351 53.096 38.5431 53.072 37.5831 52.976V43.952C37.5831 43.568 37.5591 43.16 37.5591 42.752C37.5351 42.344 37.4871 41.936 37.4391 41.504C37.8471 41.408 38.3031 41.288 38.8311 41.192C39.3351 41.096 39.8871 41.024 40.4631 41.024C40.8471 41.024 41.1591 41.072 41.4471 41.168C41.7111 41.264 41.9271 41.36 42.1191 41.504C42.3111 41.648 42.4551 41.792 42.5511 41.936C42.6471 42.08 42.7191 42.224 42.7671 42.344C42.5751 42.632 42.4311 43.016 42.3351 43.448C42.2391 43.88 42.1911 44.264 42.1911 44.576V46.16L44.4951 46.064C44.8071 46.064 45.0231 46.136 45.1671 46.304C45.2871 46.496 45.3591 46.688 45.3591 46.904C45.3591 47.288 45.2151 47.624 44.9511 47.936C44.6631 48.272 44.3031 48.416 43.8471 48.416ZM32.4951 57.968C32.4951 58.88 32.7351 59.576 33.2151 60.008C33.6951 60.464 34.2711 60.68 34.9671 60.68C35.6391 60.68 36.2151 60.464 36.6951 60.008C37.1751 59.576 37.4151 58.88 37.4151 57.968C37.4151 57.056 37.1751 56.384 36.6951 55.952C36.2151 55.52 35.6391 55.28 34.9671 55.28C34.2711 55.28 33.6951 55.52 33.2151 55.952C32.7351 56.384 32.4951 57.056 32.4951 57.968ZM46.3181 56.408C46.8221 56.384 47.3261 56.384 47.8541 56.384C48.3821 56.384 48.9101 56.384 49.4861 56.36C50.3261 56.36 51.2381 56.312 52.2461 56.24C53.2541 56.168 54.2621 56.072 55.2941 55.952C56.3021 55.832 57.3341 55.688 58.3421 55.544C59.3501 55.4 60.2861 55.208 61.1741 55.016V43.952C61.1741 43.568 61.1501 43.16 61.1501 42.752C61.1261 42.344 61.0781 41.936 61.0301 41.504C61.4381 41.408 61.8941 41.288 62.4221 41.192C62.9261 41.096 63.4781 41.024 64.0541 41.024C64.4381 41.024 64.7501 41.072 65.0381 41.168C65.3021 41.264 65.5181 41.36 65.7101 41.504C65.9021 41.648 66.0461 41.792 66.1421 41.936C66.2381 42.08 66.3101 42.224 66.3581 42.344C66.1661 42.632 66.0221 43.016 65.9261 43.448C65.8301 43.88 65.7821 44.264 65.7821 44.576V59.456C65.7821 59.744 65.7341 60.032 65.6381 60.32C65.5421 60.608 65.3261 60.824 65.0141 61.016C64.6781 61.208 64.2221 61.352 63.6221 61.424C62.9981 61.52 62.1821 61.496 61.1741 61.4V56.888C60.3101 57.08 59.4221 57.272 58.4621 57.416C57.5021 57.56 56.5421 57.704 55.5821 57.824C54.6221 57.968 53.6621 58.064 52.7021 58.16C51.7421 58.256 50.8541 58.352 50.0381 58.4C49.7981 58.448 49.6061 58.496 49.4141 58.568C49.2221 58.64 49.0541 58.712 48.8861 58.784C48.6941 58.856 48.5021 58.928 48.3101 58.976C48.1181 59.048 47.9021 59.072 47.6621 59.072C46.9181 59.072 46.5341 58.76 46.4861 58.088L46.3181 56.408ZM47.3501 47.864C47.3501 47.096 47.4701 46.352 47.7341 45.656C47.9981 44.96 48.3821 44.36 48.9101 43.832C49.4141 43.328 50.0621 42.92 50.8301 42.608C51.5981 42.32 52.4861 42.152 53.4941 42.152C54.5021 42.152 55.3661 42.32 56.1341 42.608C56.9021 42.92 57.5261 43.328 58.0541 43.832C58.5821 44.36 58.9661 44.96 59.2301 45.656C59.4701 46.352 59.6141 47.096 59.6141 47.864C59.6141 48.68 59.4701 49.424 59.2301 50.12C58.9661 50.816 58.5821 51.416 58.0541 51.92C57.5261 52.448 56.9021 52.856 56.1341 53.144C55.3661 53.456 54.5021 53.6 53.4941 53.6C52.4861 53.6 51.5981 53.456 50.8301 53.144C50.0621 52.856 49.4141 52.448 48.9101 51.92C48.3821 51.416 47.9981 50.816 47.7341 50.12C47.4701 49.424 47.3501 48.68 47.3501 47.864ZM51.9821 47.864C51.9821 48.392 51.9821 48.872 52.0301 49.352C52.0781 49.832 52.1501 50.24 52.2701 50.624C52.3661 51.008 52.5341 51.296 52.7261 51.512C52.9181 51.752 53.1581 51.848 53.4941 51.848C53.7821 51.848 54.0461 51.752 54.2381 51.512C54.4301 51.296 54.5741 51.008 54.6941 50.624C54.7901 50.24 54.8621 49.832 54.9101 49.352C54.9581 48.872 54.9821 48.392 54.9821 47.864C54.9821 47.384 54.9581 46.88 54.9101 46.4C54.8621 45.92 54.7901 45.512 54.6941 45.128C54.5741 44.768 54.4301 44.48 54.2381 44.24C54.0461 44.024 53.7821 43.904 53.4941 43.904C53.1581 43.904 52.9181 44.024 52.7261 44.24C52.5341 44.48 52.3661 44.768 52.2701 45.128C52.1501 45.512 52.0781 45.92 52.0301 46.4C51.9821 46.88 51.9821 47.384 51.9821 47.864ZM85.3826 46.04C85.2866 47.096 85.0466 48.2 84.6626 49.4C84.2546 50.6 83.7026 51.728 83.0306 52.784C82.3346 53.84 81.5186 54.8 80.5826 55.616C79.6226 56.456 78.5666 57.032 77.4146 57.344C77.1506 57.44 76.8626 57.464 76.5746 57.464C76.2866 57.464 75.9746 57.368 75.6626 57.224C75.3506 57.08 75.0386 56.864 74.7506 56.576C74.4386 56.288 74.1506 55.856 73.8626 55.328C74.9906 54.968 75.9986 54.416 76.8866 53.672C77.7746 52.952 78.5186 52.112 79.1186 51.176C79.7186 50.24 80.1746 49.256 80.4626 48.2C80.7506 47.144 80.8946 46.136 80.8466 45.176H78.2786C77.9426 45.368 77.7026 45.608 77.5346 45.92C77.3426 46.232 77.2226 46.568 77.1506 46.904C76.5746 46.904 76.0946 46.832 75.7106 46.688C75.3026 46.544 74.9666 46.328 74.7026 46.088C74.4386 45.848 74.2466 45.608 74.1266 45.32C74.0066 45.032 73.9586 44.768 73.9586 44.504C73.9586 44.192 74.0306 43.928 74.2226 43.688C74.3906 43.472 74.6546 43.352 74.9906 43.352H80.6786C81.0386 43.256 81.4946 43.16 82.0706 43.04C82.6226 42.944 83.1506 42.872 83.6306 42.872C84.1346 42.872 84.6146 42.968 85.0466 43.16C85.4786 43.352 85.7906 43.688 86.0066 44.192C85.8866 44.384 85.7666 44.624 85.6706 44.936C85.5506 45.272 85.4546 45.632 85.3826 46.04ZM92.5826 59.456C92.5826 59.744 92.5346 60.032 92.4386 60.32C92.3426 60.608 92.1266 60.824 91.8146 61.016C91.4786 61.208 91.0226 61.352 90.4226 61.424C89.7986 61.52 88.9826 61.496 87.9746 61.4V43.952C87.9746 43.568 87.9506 43.16 87.9506 42.752C87.9266 42.344 87.8786 41.936 87.8306 41.504C88.2386 41.408 88.6946 41.288 89.2226 41.192C89.7266 41.096 90.2786 41.024 90.8546 41.024C91.2386 41.024 91.5506 41.072 91.8386 41.168C92.1026 41.264 92.3186 41.36 92.5106 41.504C92.7026 41.648 92.8466 41.792 92.9426 41.936C93.0386 42.08 93.1106 42.224 93.1586 42.344C92.9666 42.632 92.8226 43.016 92.7266 43.448C92.6306 43.88 92.5826 44.264 92.5826 44.576V59.456ZM95.2697 50.576C95.9897 50.576 96.6617 50.6 97.2377 50.624C97.8137 50.672 98.4377 50.72 99.1577 50.768H112.55C113.198 50.432 113.75 50.216 114.23 50.072C114.71 49.928 115.118 49.88 115.454 49.904C115.838 49.952 116.102 50.048 116.27 50.216C116.438 50.384 116.534 50.6 116.582 50.864C116.63 51.128 116.606 51.416 116.558 51.728C116.51 52.064 116.438 52.376 116.366 52.688C116.222 52.64 116.006 52.616 115.718 52.568C115.406 52.544 115.142 52.52 114.902 52.52H99.7097C99.5177 52.52 99.3017 52.568 99.0377 52.664C98.7737 52.76 98.5097 52.88 98.2217 52.976C97.9337 53.096 97.6217 53.192 97.3337 53.288C97.0457 53.384 96.7817 53.432 96.5417 53.432C96.1577 53.432 95.8697 53.312 95.6777 53.072C95.4857 52.832 95.3897 52.544 95.3657 52.208L95.2697 50.576ZM103.118 45.464C103.214 46.16 103.43 46.64 103.79 46.928C104.15 47.216 104.75 47.336 105.59 47.336L109.07 47.24C109.886 46.904 110.558 46.64 111.086 46.448C111.614 46.28 112.07 46.208 112.478 46.232C112.862 46.256 113.126 46.352 113.294 46.52C113.462 46.688 113.558 46.904 113.606 47.168C113.654 47.432 113.63 47.72 113.582 48.056C113.534 48.392 113.462 48.704 113.39 49.016C113.246 48.968 113.054 48.944 112.766 48.92C112.478 48.896 112.214 48.896 112.022 48.896L104.606 49.136C103.646 49.184 102.806 49.184 102.062 49.112C101.318 49.04 100.67 48.872 100.142 48.584C99.6137 48.296 99.1817 47.888 98.8697 47.36C98.5577 46.832 98.3657 46.088 98.3177 45.176C98.2697 44.504 98.1497 43.976 97.9577 43.568C97.7657 43.16 97.6217 42.896 97.5017 42.776C97.8137 42.32 98.1977 42.008 98.6297 41.816C99.0617 41.624 99.5657 41.528 100.094 41.528C100.238 41.528 100.454 41.552 100.694 41.576C100.934 41.624 101.198 41.648 101.462 41.696C101.702 41.744 101.942 41.768 102.158 41.816C102.35 41.864 102.518 41.912 102.614 41.936C102.686 42.272 102.758 42.752 102.83 43.328C102.902 43.928 102.998 44.648 103.118 45.464ZM99.0857 58.04C99.0857 57.44 99.2537 56.888 99.5897 56.36C99.9257 55.856 100.43 55.424 101.054 55.04C101.678 54.656 102.422 54.368 103.286 54.152C104.15 53.96 105.134 53.84 106.214 53.84C107.27 53.84 108.254 53.96 109.118 54.152C109.982 54.368 110.75 54.656 111.374 55.04C111.998 55.424 112.478 55.856 112.814 56.36C113.15 56.888 113.318 57.44 113.318 58.04C113.318 58.664 113.15 59.216 112.814 59.744C112.478 60.272 111.998 60.704 111.374 61.088C110.75 61.472 109.982 61.76 109.118 61.952C108.254 62.168 107.27 62.264 106.214 62.264C105.134 62.264 104.15 62.168 103.286 61.952C102.422 61.76 101.678 61.472 101.054 61.088C100.43 60.704 99.9257 60.272 99.5897 59.744C99.2537 59.216 99.0857 58.664 99.0857 58.04ZM103.718 58.04C103.718 58.808 103.958 59.432 104.438 59.864C104.918 60.296 105.518 60.512 106.214 60.512C106.55 60.512 106.862 60.464 107.174 60.344C107.462 60.248 107.726 60.08 107.966 59.864C108.182 59.648 108.35 59.384 108.494 59.072C108.614 58.784 108.686 58.424 108.686 58.04C108.662 57.272 108.422 56.672 107.942 56.24C107.462 55.808 106.886 55.592 106.214 55.592C105.518 55.592 104.918 55.808 104.438 56.24C103.958 56.672 103.718 57.272 103.718 58.04ZM123.997 55.064C123.517 55.256 123.253 55.52 123.157 55.904C122.773 55.904 122.413 55.832 122.125 55.736C121.837 55.64 121.597 55.496 121.405 55.352C121.213 55.208 121.045 55.016 120.949 54.824C120.853 54.632 120.805 54.44 120.805 54.248C120.805 54.008 120.877 53.792 121.069 53.6C121.261 53.432 121.549 53.336 121.933 53.336H131.197C131.557 53.24 131.989 53.144 132.469 53.024C132.949 52.928 133.429 52.856 133.909 52.856C134.389 52.856 134.845 52.952 135.277 53.144C135.685 53.336 135.973 53.672 136.165 54.176C136.069 54.344 135.997 54.56 135.925 54.848C135.853 55.136 135.829 55.376 135.829 55.568V56.744C135.829 57.224 135.709 57.584 135.493 57.848C135.277 58.112 134.965 58.304 134.581 58.424C134.197 58.544 133.717 58.592 133.141 58.592C132.565 58.592 131.917 58.568 131.197 58.52H126.133V60.32H132.541C133.069 60.104 133.573 59.912 134.077 59.768C134.557 59.624 135.013 59.552 135.421 59.576C135.853 59.624 136.141 59.744 136.285 59.96C136.429 60.2 136.525 60.464 136.525 60.752C136.525 60.968 136.477 61.208 136.429 61.448C136.357 61.712 136.285 61.952 136.213 62.168C136.069 62.12 135.853 62.096 135.541 62.072C135.229 62.072 134.965 62.048 134.773 62.048H125.653C125.365 62.096 125.029 62.144 124.645 62.192C124.261 62.24 123.853 62.24 123.445 62.24C122.821 62.24 122.317 62.144 121.933 61.928C121.549 61.712 121.285 61.4 121.165 60.992C121.237 60.848 121.309 60.632 121.381 60.392C121.453 60.152 121.501 59.912 121.501 59.624V58.832C121.261 58.616 121.069 58.376 120.925 58.088C120.781 57.8 120.709 57.56 120.685 57.344C120.997 57.128 121.357 56.96 121.765 56.816C122.149 56.672 122.653 56.6 123.229 56.6C123.421 56.6 123.637 56.624 123.925 56.624C124.213 56.648 124.501 56.672 124.789 56.696C125.077 56.72 125.341 56.744 125.581 56.768C125.821 56.816 126.013 56.84 126.133 56.84H131.197V55.064H123.997ZM121.021 44.888C121.021 44.264 121.213 43.688 121.597 43.208C121.981 42.728 122.533 42.344 123.205 42.032C123.877 41.72 124.693 41.48 125.605 41.336C126.517 41.192 127.525 41.096 128.605 41.096C129.661 41.096 130.669 41.192 131.581 41.336C132.493 41.48 133.309 41.72 133.981 42.032C134.653 42.344 135.205 42.728 135.589 43.208C135.973 43.688 136.165 44.264 136.165 44.888C136.165 45.56 135.973 46.112 135.589 46.592C135.205 47.072 134.653 47.456 133.981 47.768C133.309 48.104 132.493 48.344 131.581 48.488C130.669 48.632 129.661 48.704 128.605 48.704C127.525 48.704 126.517 48.632 125.605 48.488C124.693 48.344 123.877 48.104 123.205 47.768C122.533 47.456 121.981 47.072 121.597 46.592C121.213 46.112 121.021 45.56 121.021 44.888ZM117.709 49.808C118.429 49.808 119.101 49.832 119.677 49.856C120.253 49.904 120.877 49.952 121.597 50H134.989C135.637 49.664 136.189 49.448 136.669 49.304C137.149 49.16 137.557 49.112 137.893 49.136C138.277 49.184 138.541 49.28 138.709 49.448C138.877 49.616 138.973 49.832 139.021 50.096C139.069 50.36 139.045 50.648 138.997 50.96C138.949 51.296 138.877 51.608 138.805 51.92C138.661 51.872 138.445 51.848 138.157 51.8C137.845 51.776 137.581 51.752 137.341 51.752H122.149C121.957 51.752 121.741 51.8 121.477 51.896C121.213 51.992 120.949 52.112 120.661 52.208C120.373 52.328 120.061 52.424 119.773 52.52C119.485 52.616 119.221 52.664 118.981 52.664C118.597 52.664 118.309 52.544 118.117 52.304C117.925 52.064 117.829 51.776 117.805 51.44L117.709 49.808ZM125.653 44.888C125.653 45.464 125.917 45.968 126.445 46.352C126.973 46.76 127.693 46.952 128.605 46.952C129.493 46.952 130.213 46.76 130.741 46.352C131.269 45.968 131.533 45.464 131.533 44.888C131.509 44.312 131.245 43.832 130.717 43.448C130.189 43.064 129.493 42.848 128.605 42.848C127.693 42.848 126.973 43.064 126.445 43.448C125.917 43.832 125.653 44.312 125.653 44.888ZM144.821 57.008C145.541 57.008 146.213 57.032 146.789 57.056C147.365 57.104 147.989 57.152 148.709 57.2H153.245V55.28C153.245 54.896 153.221 54.56 153.221 54.272C153.197 53.984 153.173 53.624 153.125 53.216C153.461 53.144 153.893 53.048 154.373 52.952C154.853 52.856 155.357 52.784 155.837 52.784C156.317 52.784 156.749 52.88 157.181 53.048C157.589 53.24 157.901 53.552 158.117 54.032C157.973 54.296 157.877 54.56 157.853 54.824C157.805 55.112 157.805 55.448 157.805 55.856V57.2H162.101C162.749 56.864 163.301 56.648 163.781 56.504C164.261 56.36 164.669 56.312 165.005 56.336C165.389 56.384 165.653 56.48 165.821 56.648C165.989 56.816 166.085 57.032 166.133 57.296C166.181 57.56 166.157 57.848 166.109 58.16C166.061 58.496 165.989 58.808 165.917 59.12C165.773 59.072 165.557 59.048 165.269 59C164.957 58.976 164.693 58.952 164.453 58.952H149.261C149.069 58.952 148.853 59 148.589 59.096C148.325 59.192 148.061 59.312 147.773 59.408C147.485 59.528 147.173 59.624 146.885 59.72C146.597 59.816 146.333 59.864 146.093 59.864C145.709 59.864 145.421 59.744 145.229 59.504C145.037 59.264 144.941 58.976 144.917 58.64L144.821 57.008ZM150.125 53.288C149.885 53.384 149.621 53.432 149.333 53.456C149.045 53.48 148.733 53.408 148.421 53.264C148.085 53.12 147.773 52.832 147.437 52.448C147.101 52.064 146.765 51.512 146.453 50.744C147.269 50.48 148.037 50.144 148.805 49.712C149.573 49.304 150.245 48.824 150.869 48.296C151.493 47.768 151.997 47.192 152.405 46.568C152.789 45.944 153.029 45.248 153.125 44.528C153.173 44.072 153.149 43.544 153.077 42.968C153.701 42.728 154.301 42.536 154.877 42.416C155.453 42.32 155.957 42.272 156.437 42.32C156.917 42.368 157.325 42.512 157.661 42.704C157.997 42.92 158.261 43.208 158.405 43.568C158.285 43.712 158.189 43.952 158.117 44.336C158.021 44.72 157.949 45.128 157.877 45.512C157.613 46.712 157.205 47.744 156.653 48.608C156.077 49.472 155.429 50.216 154.709 50.816C153.989 51.44 153.221 51.944 152.429 52.328C151.613 52.712 150.845 53.048 150.125 53.288ZM156.941 51.416C157.661 50.816 158.237 50.168 158.669 49.496C159.101 48.824 159.437 48.104 159.725 47.288C161.093 47.624 162.077 48.032 162.701 48.512C163.325 49.016 163.613 49.664 163.565 50.48C163.421 50.528 163.253 50.672 163.061 50.864C162.869 51.056 162.629 51.296 162.389 51.536C162.149 51.8 161.885 52.064 161.597 52.304C161.309 52.544 161.045 52.736 160.757 52.88C160.493 53.024 160.229 53.096 159.965 53.12C159.677 53.168 159.389 53.12 159.101 53.024C158.789 52.928 158.453 52.736 158.093 52.496C157.733 52.256 157.349 51.896 156.941 51.416ZM182.572 42.584C182.452 42.872 182.38 43.184 182.356 43.52C182.332 43.88 182.332 44.264 182.332 44.672V48.824H183.628V43.784C183.628 43.424 183.604 43.04 183.604 42.656C183.58 42.272 183.556 41.888 183.508 41.48C183.796 41.384 184.156 41.288 184.612 41.192C185.068 41.096 185.524 41.024 186.004 41.024C186.46 41.024 186.892 41.12 187.3 41.288C187.684 41.48 187.996 41.792 188.188 42.272C187.996 42.56 187.876 42.896 187.78 43.304C187.684 43.736 187.636 44.096 187.636 44.384V59.624C187.636 59.912 187.588 60.2 187.516 60.464C187.42 60.728 187.252 60.944 186.988 61.136C186.7 61.328 186.316 61.448 185.788 61.52C185.26 61.616 184.54 61.592 183.628 61.496V50.6H182.332V59.144C182.332 59.432 182.284 59.696 182.212 59.936C182.14 60.2 181.972 60.416 181.708 60.608C181.444 60.8 181.06 60.92 180.532 60.992C180.004 61.088 179.308 61.064 178.444 60.968V44.24C178.444 43.856 178.42 43.496 178.42 43.112C178.396 42.728 178.372 42.344 178.324 41.936C178.612 41.84 178.948 41.744 179.356 41.624C179.74 41.528 180.148 41.456 180.556 41.456C180.964 41.456 181.348 41.528 181.708 41.672C182.068 41.84 182.356 42.152 182.572 42.584ZM171.316 45.128C171.076 45.272 170.884 45.488 170.716 45.776C170.548 46.064 170.452 46.376 170.404 46.688C169.732 46.688 169.204 46.496 168.796 46.136C168.388 45.8 168.124 45.416 167.98 45.008C167.836 44.6 167.86 44.216 168.004 43.88C168.148 43.544 168.46 43.352 168.94 43.352H173.116C173.404 43.256 173.788 43.16 174.244 43.04C174.7 42.944 175.132 42.872 175.564 42.872C175.972 42.872 176.356 42.968 176.74 43.16C177.124 43.352 177.388 43.688 177.58 44.192C177.484 44.384 177.388 44.624 177.34 44.936C177.292 45.272 177.244 45.632 177.22 46.04C177.124 47.096 176.956 48.176 176.668 49.328C176.38 50.48 175.972 51.584 175.492 52.64C174.988 53.696 174.388 54.608 173.668 55.424C172.948 56.24 172.132 56.84 171.22 57.224C170.98 57.32 170.74 57.368 170.5 57.392C170.26 57.416 169.996 57.368 169.708 57.272C169.42 57.176 169.132 56.984 168.82 56.72C168.508 56.48 168.172 56.096 167.836 55.616C168.796 55.16 169.612 54.536 170.284 53.744C170.956 52.952 171.484 52.088 171.916 51.128C172.324 50.168 172.636 49.184 172.828 48.128C173.02 47.096 173.116 46.088 173.116 45.128H171.316ZM203.451 55.208C203.811 54.968 204.219 54.8 204.675 54.704C205.107 54.608 205.611 54.536 206.139 54.536C206.931 54.536 207.531 54.632 207.963 54.824C208.371 55.016 208.587 55.376 208.587 55.952C208.539 56.192 208.515 56.432 208.515 56.672C208.491 56.936 208.491 57.224 208.491 57.536V60.104C208.491 60.392 208.443 60.68 208.347 60.968C208.251 61.256 208.035 61.472 207.699 61.664C207.363 61.856 206.907 62 206.283 62.072C205.659 62.168 204.843 62.144 203.835 62.048H198.123C197.787 62.12 197.499 62.168 197.235 62.192C196.971 62.24 196.731 62.24 196.491 62.24C195.243 62.24 194.499 61.808 194.259 60.944C194.331 60.752 194.379 60.56 194.427 60.392C194.451 60.224 194.475 60.008 194.475 59.72V57.224C194.235 57.008 194.043 56.744 193.899 56.408C193.755 56.096 193.683 55.832 193.683 55.592C194.043 55.328 194.499 55.136 195.027 54.992C195.555 54.848 196.083 54.776 196.611 54.776C196.947 54.776 197.259 54.8 197.571 54.848C197.859 54.896 198.123 54.992 198.363 55.088C198.603 55.184 198.771 55.328 198.915 55.52C199.059 55.712 199.131 55.952 199.131 56.24V56.792H203.835V56.528C203.715 56.288 203.619 56.072 203.571 55.904C203.523 55.736 203.475 55.496 203.451 55.208ZM191.667 50.336C191.667 49.568 191.835 48.92 192.195 48.44C192.531 47.96 192.987 47.6 193.515 47.336C194.043 47.072 194.643 46.904 195.291 46.808C195.915 46.712 196.539 46.664 197.139 46.664C197.715 46.664 198.339 46.712 198.987 46.808C199.611 46.904 200.211 47.072 200.739 47.336C201.267 47.6 201.723 47.96 202.059 48.44C202.395 48.92 202.587 49.568 202.587 50.336C202.587 51.152 202.395 51.776 202.059 52.256C201.723 52.736 201.267 53.12 200.739 53.384C200.211 53.648 199.611 53.816 198.987 53.912C198.339 54.008 197.715 54.032 197.139 54.032C196.539 54.032 195.915 54.008 195.291 53.912C194.643 53.816 194.043 53.648 193.515 53.384C192.987 53.12 192.531 52.736 192.195 52.256C191.835 51.776 191.667 51.152 191.667 50.336ZM210.267 49.88C210.171 49.664 210.051 49.52 209.859 49.448C209.667 49.4 209.475 49.352 209.331 49.352L208.611 49.4V51.8C208.611 52.088 208.563 52.376 208.467 52.664C208.371 52.952 208.155 53.168 207.843 53.36C207.507 53.552 207.051 53.696 206.451 53.768C205.827 53.864 205.011 53.84 204.003 53.744V43.952C204.003 43.568 203.979 43.16 203.979 42.752C203.955 42.344 203.907 41.936 203.859 41.504C204.267 41.408 204.723 41.288 205.251 41.192C205.755 41.096 206.307 41.024 206.883 41.024C207.267 41.024 207.579 41.072 207.867 41.168C208.131 41.264 208.347 41.36 208.539 41.504C208.731 41.648 208.875 41.792 208.971 41.936C209.067 42.08 209.139 42.224 209.187 42.344C208.995 42.632 208.851 43.016 208.755 43.448C208.659 43.88 208.611 44.264 208.611 44.576V47.624L210.915 47.528C211.227 47.528 211.443 47.6 211.587 47.768C211.707 47.96 211.779 48.152 211.779 48.368C211.779 48.752 211.635 49.088 211.371 49.4C211.083 49.736 210.723 49.88 210.267 49.88ZM190.275 43.976C190.635 43.976 190.971 44 191.259 44C191.547 44 191.811 44.024 192.099 44.024C192.387 44.048 192.675 44.072 192.963 44.096C193.251 44.12 193.563 44.144 193.923 44.168H199.467C200.067 43.856 200.547 43.64 200.931 43.496C201.315 43.376 201.699 43.328 202.107 43.352C202.395 43.376 202.635 43.472 202.803 43.64C202.947 43.808 203.043 44.024 203.091 44.264C203.139 44.528 203.139 44.816 203.091 45.128C203.043 45.464 202.995 45.776 202.923 46.088C202.779 46.04 202.563 46.016 202.275 45.968C201.963 45.944 201.699 45.92 201.459 45.92H194.475C194.283 45.92 194.091 45.968 193.851 46.064C193.611 46.16 193.371 46.232 193.107 46.328C192.843 46.424 192.579 46.52 192.315 46.616C192.027 46.712 191.787 46.736 191.547 46.736C191.163 46.736 190.875 46.64 190.683 46.424C190.491 46.208 190.395 45.944 190.371 45.608L190.275 43.976ZM193.707 41.504C193.707 41.168 193.803 40.88 193.995 40.616C194.187 40.352 194.523 40.208 195.003 40.208C195.195 40.208 195.411 40.256 195.627 40.304C195.819 40.352 196.059 40.424 196.323 40.472C196.587 40.52 196.875 40.592 197.211 40.64C197.547 40.688 197.931 40.712 198.363 40.712C198.843 40.712 199.251 40.88 199.539 41.192C199.827 41.504 200.019 42.008 200.091 42.728C199.131 43.064 198.171 43.304 197.211 43.424C196.251 43.568 195.243 43.472 194.211 43.136C194.043 42.944 193.923 42.68 193.827 42.368C193.731 42.08 193.707 41.792 193.707 41.504ZM199.131 60.32H203.835V58.52H199.131V60.32ZM196.059 50.336C196.059 50.912 196.131 51.392 196.299 51.752C196.467 52.112 196.755 52.28 197.139 52.28C197.499 52.28 197.763 52.112 197.931 51.752C198.099 51.392 198.195 50.912 198.195 50.336C198.195 49.76 198.099 49.304 197.931 48.944C197.763 48.608 197.499 48.416 197.139 48.416C196.755 48.416 196.467 48.608 196.299 48.944C196.131 49.304 196.059 49.76 196.059 50.336ZM231.89 59.456C231.89 59.744 231.842 60.032 231.746 60.32C231.65 60.608 231.434 60.824 231.122 61.016C230.786 61.208 230.33 61.352 229.73 61.424C229.106 61.52 228.29 61.496 227.282 61.4V43.952C227.282 43.568 227.258 43.16 227.258 42.752C227.234 42.344 227.186 41.936 227.138 41.504C227.546 41.408 228.002 41.288 228.53 41.192C229.034 41.096 229.586 41.024 230.162 41.024C230.546 41.024 230.858 41.072 231.146 41.168C231.41 41.264 231.626 41.36 231.818 41.504C232.01 41.648 232.154 41.792 232.25 41.936C232.346 42.08 232.418 42.224 232.466 42.344C232.274 42.632 232.13 43.016 232.034 43.448C231.938 43.88 231.89 44.264 231.89 44.576V59.456ZM218.858 52.952C218.882 53.672 219.026 54.176 219.314 54.488C219.578 54.8 220.082 54.896 220.85 54.8L221.546 54.728C222.218 54.416 222.794 54.128 223.298 53.864C223.778 53.624 224.234 53.504 224.642 53.528C224.978 53.576 225.242 53.672 225.41 53.84C225.554 54.032 225.65 54.248 225.698 54.488C225.722 54.728 225.698 55.016 225.65 55.328C225.578 55.664 225.506 55.976 225.434 56.288C225.29 56.24 225.074 56.216 224.786 56.216C224.498 56.216 224.234 56.216 224.042 56.216L220.322 56.456C219.362 56.552 218.522 56.552 217.778 56.456C217.034 56.36 216.386 56.168 215.858 55.856C215.306 55.568 214.874 55.136 214.562 54.56C214.25 53.984 214.082 53.24 214.034 52.328L213.746 46.16C213.698 45.704 213.626 45.344 213.482 45.056C213.338 44.768 213.218 44.576 213.098 44.48C213.41 43.976 213.818 43.616 214.322 43.424C214.802 43.232 215.33 43.112 215.858 43.112C216.05 43.112 216.266 43.136 216.53 43.16C216.77 43.208 217.034 43.232 217.274 43.28C217.514 43.328 217.73 43.4 217.922 43.448C218.114 43.52 218.282 43.592 218.378 43.64C218.426 43.856 218.474 44.312 218.522 44.984C218.57 45.68 218.594 46.472 218.642 47.36C218.69 48.272 218.714 49.208 218.762 50.216C218.786 51.224 218.81 52.136 218.858 52.952ZM255.146 51.32C255.05 51.104 254.93 50.96 254.738 50.888C254.546 50.84 254.354 50.792 254.21 50.792L253.49 50.84V59.456C253.49 59.744 253.442 60.032 253.346 60.32C253.25 60.608 253.034 60.824 252.722 61.016C252.386 61.208 251.93 61.352 251.33 61.424C250.706 61.52 249.89 61.496 248.882 61.4V43.952C248.882 43.568 248.858 43.16 248.858 42.752C248.834 42.344 248.786 41.936 248.738 41.504C249.146 41.408 249.602 41.288 250.13 41.192C250.634 41.096 251.186 41.024 251.762 41.024C252.146 41.024 252.458 41.072 252.746 41.168C253.01 41.264 253.226 41.36 253.418 41.504C253.61 41.648 253.754 41.792 253.85 41.936C253.946 42.08 254.018 42.224 254.066 42.344C253.874 42.632 253.73 43.016 253.634 43.448C253.538 43.88 253.49 44.264 253.49 44.576V49.064L255.794 48.968C256.106 48.968 256.322 49.04 256.466 49.208C256.586 49.4 256.658 49.592 256.658 49.808C256.658 50.192 256.514 50.528 256.25 50.84C255.962 51.176 255.602 51.32 255.146 51.32ZM239.882 56.744C239.546 56.816 239.258 56.864 238.994 56.888C238.73 56.936 238.49 56.936 238.25 56.936C237.002 56.936 236.258 56.504 236.018 55.64C236.09 55.448 236.138 55.208 236.186 54.968C236.21 54.728 236.234 54.464 236.234 54.176V45.776C235.994 45.56 235.802 45.296 235.658 45.008C235.514 44.72 235.418 44.408 235.418 44.024C235.73 43.688 236.114 43.424 236.57 43.256C237.002 43.112 237.482 43.016 237.962 42.992C238.442 42.968 238.922 42.992 239.402 43.064C239.882 43.16 240.338 43.256 240.77 43.352L246.002 43.184C246.482 43.184 246.794 43.376 246.938 43.712C247.082 44.048 247.082 44.432 246.938 44.864C246.794 45.296 246.53 45.68 246.122 46.016C245.69 46.376 245.162 46.568 244.538 46.568C244.49 46.256 244.37 45.944 244.202 45.656C244.034 45.368 243.842 45.152 243.626 45.008L240.89 45.104V55.016L243.194 54.896C243.458 54.752 243.746 54.632 244.058 54.488C244.37 54.344 244.682 54.224 244.97 54.104C245.258 54.008 245.546 53.912 245.834 53.84C246.122 53.768 246.362 53.744 246.554 53.744C246.938 53.768 247.202 53.864 247.37 54.032C247.538 54.224 247.634 54.44 247.682 54.704C247.73 54.992 247.706 55.28 247.658 55.616C247.61 55.952 247.538 56.288 247.466 56.6C247.322 56.552 247.13 56.528 246.842 56.504C246.554 56.48 246.29 56.48 246.098 56.48L239.882 56.744ZM257.473 57.752C257.473 57.152 257.665 56.648 258.097 56.216C258.505 55.784 259.033 55.568 259.657 55.568C259.945 55.568 260.233 55.64 260.521 55.736C260.785 55.856 261.025 56.024 261.217 56.216C261.409 56.408 261.577 56.648 261.697 56.912C261.793 57.176 261.865 57.464 261.865 57.752C261.865 58.064 261.793 58.352 261.697 58.616C261.577 58.88 261.409 59.12 261.217 59.312C261.025 59.504 260.785 59.672 260.521 59.792C260.233 59.912 259.945 59.96 259.657 59.96C259.321 59.96 259.033 59.912 258.769 59.792C258.505 59.672 258.289 59.504 258.097 59.312C257.905 59.12 257.737 58.88 257.641 58.616C257.521 58.352 257.473 58.064 257.473 57.752ZM4.018 89.026C3.962 89.054 3.906 89.082 3.85 89.138C3.794 89.194 3.724 89.278 3.668 89.39C3.276 89.39 2.982 89.306 2.758 89.166C2.534 89.026 2.38 88.858 2.324 88.69C2.268 88.522 2.282 88.368 2.38 88.228C2.478 88.088 2.674 88.018 2.954 88.018H8.358C8.638 87.962 8.918 87.92 9.212 87.878C9.506 87.836 9.786 87.822 10.052 87.836C10.318 87.864 10.556 87.92 10.78 88.004C10.99 88.102 11.144 88.256 11.256 88.48C11.172 88.648 11.13 88.788 11.102 88.886C11.074 88.998 11.06 89.138 11.06 89.32V89.824C11.06 89.992 11.032 90.16 10.976 90.314C10.92 90.468 10.794 90.594 10.612 90.692C10.416 90.804 10.15 90.874 9.786 90.902C9.422 90.944 8.946 90.93 8.358 90.874H5.404V91.77H9.422C9.73 91.644 9.982 91.546 10.206 91.49C10.43 91.434 10.654 91.406 10.892 91.42C11.074 91.434 11.214 91.49 11.298 91.574C11.382 91.658 11.424 91.77 11.438 91.91C11.452 92.05 11.438 92.19 11.41 92.358C11.382 92.526 11.34 92.68 11.298 92.82C11.214 92.792 11.102 92.778 10.934 92.778C10.766 92.778 10.612 92.764 10.5 92.764H5.404C5.18 92.806 4.928 92.834 4.648 92.862C4.368 92.89 4.102 92.89 3.864 92.89C3.15 92.89 2.716 92.638 2.576 92.134C2.618 92.022 2.646 91.91 2.674 91.812C2.688 91.728 2.702 91.602 2.702 91.434V91.07C2.562 90.944 2.45 90.818 2.366 90.706C2.282 90.594 2.226 90.454 2.226 90.286C2.436 90.062 2.702 89.936 3.01 89.88C3.318 89.824 3.64 89.796 3.948 89.796C4.032 89.796 4.158 89.81 4.298 89.81C4.438 89.824 4.592 89.838 4.732 89.852C4.872 89.88 5.012 89.894 5.138 89.908C5.25 89.936 5.348 89.95 5.404 89.964H8.358V89.026H4.018ZM10.192 82.222C9.814 82.6 9.338 82.964 8.75 83.314C8.162 83.678 7.546 84 6.902 84.28C6.244 84.56 5.6 84.812 4.956 85.008C4.312 85.204 3.738 85.344 3.234 85.4C3.01 85.428 2.828 85.414 2.688 85.358C2.548 85.302 2.422 85.204 2.31 85.078C2.198 84.952 2.114 84.798 2.03 84.616C1.946 84.434 1.862 84.238 1.778 84.014C2.366 83.888 2.954 83.734 3.514 83.552C4.074 83.37 4.592 83.174 5.068 82.978C5.53 82.782 5.936 82.6 6.3 82.404C6.65 82.208 6.93 82.04 7.126 81.872H4.648C4.48 81.956 4.354 82.054 4.256 82.18C4.158 82.32 4.088 82.446 4.046 82.572C3.752 82.572 3.5 82.544 3.29 82.474C3.066 82.404 2.898 82.32 2.758 82.208C2.618 82.096 2.506 81.984 2.45 81.844C2.38 81.704 2.352 81.578 2.352 81.438C2.352 81.27 2.408 81.13 2.52 81.018C2.632 80.906 2.786 80.836 2.954 80.836H7.7C7.91 80.794 8.162 80.752 8.47 80.71C8.778 80.668 9.086 80.64 9.394 80.64C9.534 80.64 9.688 80.668 9.842 80.696C9.982 80.738 10.122 80.808 10.248 80.892C10.374 80.99 10.472 81.116 10.556 81.256C10.64 81.396 10.682 81.578 10.696 81.774C10.612 81.816 10.528 81.872 10.458 81.956C10.374 82.04 10.29 82.124 10.192 82.222ZM0.49 85.96C0.91 85.96 1.302 85.974 1.638 85.988C1.974 86.016 2.338 86.044 2.758 86.072H10.696C11.046 85.918 11.354 85.806 11.606 85.736C11.858 85.68 12.082 85.652 12.278 85.666C12.474 85.694 12.628 85.736 12.726 85.82C12.824 85.904 12.894 86.016 12.922 86.142C12.95 86.282 12.95 86.436 12.922 86.604C12.894 86.772 12.852 86.954 12.81 87.136C12.726 87.108 12.6 87.094 12.432 87.066C12.25 87.052 12.096 87.038 11.956 87.038H3.08C2.968 87.038 2.842 87.066 2.688 87.108C2.534 87.164 2.38 87.22 2.212 87.276C2.044 87.332 1.862 87.388 1.694 87.43C1.526 87.486 1.372 87.5 1.232 87.5C1.008 87.5 0.84 87.444 0.728 87.318C0.616 87.206 0.56 87.052 0.546 86.856L0.49 85.96ZM7.756 84.336C8.26 84.14 8.694 83.916 9.072 83.664C9.436 83.412 9.73 83.188 9.954 82.992C10.444 83.188 10.808 83.398 11.06 83.594C11.298 83.79 11.396 84.084 11.368 84.476C11.284 84.504 11.186 84.546 11.046 84.63C10.906 84.714 10.766 84.798 10.598 84.882C10.43 84.98 10.262 85.078 10.08 85.162C9.898 85.26 9.716 85.33 9.548 85.358C9.38 85.4 9.24 85.414 9.1 85.386C8.96 85.372 8.834 85.316 8.694 85.232C8.554 85.148 8.414 85.036 8.26 84.896C8.106 84.756 7.938 84.56 7.756 84.336ZM20.8175 83.44L20.7895 83.706H22.4135V82.222C22.4135 81.998 22.3995 81.76 22.3995 81.522C22.3855 81.284 22.3575 81.046 22.3295 80.794C22.5675 80.738 22.8335 80.668 23.1415 80.612C23.4355 80.556 23.7575 80.514 24.0935 80.514C24.3175 80.514 24.4995 80.542 24.6675 80.598C24.8215 80.654 24.9475 80.71 25.0595 80.794C25.1715 80.878 25.2555 80.962 25.3115 81.046C25.3675 81.13 25.4095 81.214 25.4375 81.284C25.3255 81.452 25.2415 81.676 25.1855 81.928C25.1295 82.18 25.1015 82.404 25.1015 82.586V91.252C25.1015 91.42 25.0735 91.588 25.0175 91.756C24.9615 91.924 24.8355 92.05 24.6535 92.162C24.4575 92.274 24.1915 92.358 23.8415 92.4C23.4775 92.456 23.0015 92.442 22.4135 92.386V87.64H21.5035C21.4055 87.64 21.2795 87.668 21.1395 87.724C20.9995 87.78 20.9155 87.864 20.8875 87.976C20.6075 87.976 20.3975 87.892 20.2435 87.696C20.0755 87.514 20.0055 87.318 20.0055 87.094C20.0055 86.968 20.0335 86.856 20.1175 86.758C20.1875 86.66 20.3135 86.604 20.5095 86.604H22.4135V84.742H21.8115C21.7135 84.742 21.5875 84.77 21.4475 84.826C21.3075 84.882 21.2235 84.966 21.1955 85.078C20.9435 85.078 20.7475 84.994 20.5795 84.826C20.4395 85.386 20.2295 85.932 19.9775 86.478C19.7115 87.038 19.4035 87.542 19.0395 88.018C18.6755 88.494 18.2555 88.914 17.7935 89.278C17.3175 89.642 16.8135 89.894 16.2535 90.034C16.0995 90.09 15.9315 90.104 15.7635 90.104C15.5955 90.104 15.4135 90.048 15.2315 89.964C15.0495 89.88 14.8675 89.754 14.6995 89.586C14.5175 89.418 14.3495 89.166 14.1815 88.858C14.8395 88.648 15.4275 88.326 15.9315 87.892C16.4355 87.458 16.8695 86.968 17.2055 86.408C17.5415 85.848 17.7935 85.274 17.9615 84.658C18.1295 84.042 18.1995 83.454 18.1715 82.894H16.7575C16.5615 83.006 16.4215 83.146 16.3235 83.328C16.2115 83.51 16.1415 83.706 16.0995 83.902C15.7635 83.902 15.4835 83.86 15.2595 83.776C15.0215 83.692 14.8255 83.594 14.6715 83.454C14.5175 83.314 14.4055 83.174 14.3355 83.006C14.2655 82.852 14.2375 82.698 14.2375 82.544C14.2375 82.362 14.2795 82.208 14.3915 82.068C14.4895 81.942 14.6435 81.872 14.8395 81.872H18.0735C18.2835 81.816 18.5495 81.76 18.8855 81.69C19.2075 81.634 19.5155 81.592 19.7955 81.592C20.0895 81.592 20.3695 81.648 20.6215 81.76C20.8735 81.872 21.0555 82.068 21.1815 82.362C21.1115 82.474 21.0415 82.614 20.9855 82.796C20.9155 82.992 20.8595 83.202 20.8175 83.44ZM34.4809 81.55C34.5649 81.494 34.6909 81.452 34.8309 81.396C34.9709 81.34 35.1109 81.298 35.2509 81.27C35.3909 81.242 35.5309 81.214 35.6709 81.186C35.8109 81.172 35.9229 81.158 36.0069 81.158C36.4689 81.158 36.8189 81.228 37.0709 81.354C37.3089 81.494 37.4349 81.718 37.4349 82.054C37.4069 82.194 37.3929 82.334 37.3929 82.474C37.3789 82.628 37.3789 82.796 37.3789 82.978V86.59C37.3789 86.758 37.3509 86.926 37.2949 87.094C37.2389 87.262 37.1129 87.388 36.9169 87.5C36.7209 87.612 36.4549 87.696 36.0909 87.738C35.7269 87.794 35.2509 87.78 34.6629 87.724H34.3829V89.95H36.7489C37.1269 89.754 37.4489 89.628 37.7289 89.544C38.0089 89.46 38.2469 89.432 38.4429 89.446C38.6669 89.474 38.8209 89.53 38.9189 89.628C39.0169 89.726 39.0729 89.852 39.1009 90.006C39.1289 90.16 39.1149 90.328 39.0869 90.51C39.0589 90.706 39.0169 90.888 38.9749 91.07C38.8909 91.042 38.7649 91.028 38.5969 91C38.4149 90.986 38.2609 90.972 38.1209 90.972H29.2589C29.1469 90.972 29.0209 91 28.8669 91.056C28.7129 91.112 28.5589 91.182 28.3909 91.238C28.2229 91.308 28.0409 91.364 27.8729 91.42C27.7049 91.476 27.5509 91.504 27.4109 91.504C27.1869 91.504 27.0189 91.434 26.9069 91.294C26.7949 91.154 26.7389 90.986 26.7249 90.79L26.6689 89.838C27.0889 89.838 27.4809 89.852 27.8169 89.866C28.1529 89.894 28.5169 89.922 28.9369 89.95H31.6949V87.724H30.8549C30.6589 87.766 30.4909 87.794 30.3369 87.808C30.1829 87.836 30.0429 87.836 29.9029 87.836C29.1749 87.836 28.7409 87.584 28.6009 87.08C28.6429 86.968 28.6709 86.87 28.6989 86.786C28.7129 86.716 28.7269 86.604 28.7269 86.436V82.838C28.5869 82.712 28.4609 82.558 28.3629 82.362C28.2649 82.166 28.2089 81.97 28.2089 81.746C28.4189 81.592 28.6849 81.466 29.0209 81.382C29.3429 81.298 29.6649 81.242 29.9729 81.242C30.3649 81.242 30.7009 81.312 30.9949 81.452C31.2889 81.592 31.4429 81.83 31.4429 82.166V83.636H34.6629V82.362C34.6069 82.222 34.5789 82.082 34.5509 81.97C34.5229 81.858 34.4949 81.718 34.4809 81.55ZM31.4429 86.716H34.6629V84.644H31.4429V86.716ZM51.6444 91.364C51.6444 91.532 51.6164 91.7 51.5744 91.854C51.5184 92.008 51.4204 92.134 51.2664 92.246C51.0984 92.358 50.8744 92.428 50.5664 92.47C50.2584 92.526 49.8384 92.512 49.3064 92.456V82.124C49.3064 81.914 49.2924 81.69 49.2924 81.466C49.2784 81.242 49.2644 81.018 49.2364 80.78C49.4324 80.724 49.6704 80.668 49.9504 80.612C50.2164 80.556 50.4824 80.514 50.7484 80.514C51.0004 80.514 51.2384 80.57 51.4624 80.668C51.6864 80.78 51.8544 80.962 51.9664 81.242C51.8544 81.41 51.7844 81.606 51.7284 81.844C51.6724 82.096 51.6444 82.306 51.6444 82.474V91.364ZM48.8584 81.424C48.7884 81.592 48.7464 81.774 48.7324 81.97C48.7184 82.18 48.7184 82.404 48.7184 82.642V91.084C48.7184 91.252 48.6904 91.406 48.6484 91.546C48.6064 91.7 48.5084 91.826 48.3544 91.938C48.2004 92.05 47.9764 92.12 47.6684 92.162C47.3604 92.218 46.9544 92.204 46.4504 92.148V85.694H46.0444C45.9464 85.694 45.8204 85.722 45.6804 85.764C45.5404 85.82 45.4564 85.89 45.4284 86.002C45.2464 86.002 45.0924 85.932 44.9664 85.792C44.8264 85.652 44.7424 85.512 44.7004 85.344C44.6584 85.19 44.6724 85.05 44.7424 84.91C44.8124 84.784 44.9664 84.714 45.1904 84.714H46.4504V82.39C46.4504 82.166 46.4364 81.956 46.4364 81.732C46.4224 81.508 46.4084 81.284 46.3804 81.046C46.5484 80.99 46.7444 80.934 46.9824 80.864C47.2064 80.808 47.4444 80.766 47.6824 80.766C47.9204 80.766 48.1444 80.808 48.3544 80.892C48.5644 80.99 48.7324 81.172 48.8584 81.424ZM44.5464 82.418C44.5044 82.53 44.4764 82.684 44.4624 82.852C44.4344 83.034 44.4204 83.202 44.4204 83.342C44.3924 83.86 44.3224 84.406 44.2104 84.98C44.0844 85.554 43.9024 86.128 43.6644 86.688C43.4264 87.262 43.1324 87.808 42.7824 88.34C42.4324 88.872 42.0264 89.362 41.5504 89.782C41.4664 89.866 41.3544 89.922 41.2144 89.95C41.0744 89.978 40.9204 89.978 40.7524 89.922C40.5844 89.88 40.3884 89.782 40.1924 89.642C39.9964 89.502 39.7864 89.278 39.5904 88.998C39.9544 88.648 40.2904 88.242 40.5844 87.78C40.8784 87.318 41.1304 86.828 41.3404 86.31C41.5364 85.792 41.6904 85.26 41.8024 84.7C41.9144 84.14 41.9704 83.594 41.9704 83.034C41.8864 82.866 41.8164 82.712 41.7604 82.544C41.7044 82.376 41.6624 82.208 41.6484 82.012C41.7464 81.9 41.8864 81.788 42.0684 81.704C42.2504 81.62 42.4464 81.564 42.6564 81.522C42.8664 81.48 43.0904 81.466 43.3144 81.466C43.5384 81.48 43.7344 81.522 43.9164 81.592C44.0844 81.662 44.2384 81.76 44.3644 81.9C44.4764 82.04 44.5464 82.208 44.5464 82.418ZM42.6984 89.264C42.8804 89.04 43.0484 88.816 43.2164 88.592C43.3704 88.368 43.5104 88.144 43.6504 87.892C43.7904 87.64 43.9164 87.374 44.0284 87.094C44.1404 86.814 44.2384 86.492 44.3364 86.142C44.5324 86.198 44.7284 86.268 44.9524 86.352C45.1624 86.436 45.3584 86.548 45.5264 86.674C45.6944 86.814 45.8204 86.968 45.9324 87.15C46.0304 87.332 46.0724 87.542 46.0584 87.78C45.9604 87.892 45.8484 88.046 45.7364 88.242C45.6244 88.438 45.4984 88.648 45.3724 88.872C45.2324 89.096 45.1064 89.292 44.9664 89.488C44.8264 89.684 44.7004 89.81 44.5604 89.894C44.3084 90.062 44.0424 90.09 43.7484 89.978C43.4544 89.866 43.1044 89.628 42.6984 89.264ZM54.7798 84.644C54.7798 84.07 54.8918 83.566 55.1158 83.132C55.3398 82.712 55.6618 82.348 56.0538 82.068C56.4458 81.788 56.9218 81.564 57.4538 81.424C57.9858 81.284 58.5738 81.214 59.2038 81.214C59.8198 81.214 60.4078 81.284 60.9538 81.424C61.4858 81.564 61.9618 81.788 62.3538 82.068C62.7458 82.348 63.0678 82.712 63.2918 83.132C63.5158 83.566 63.6278 84.07 63.6278 84.644C63.6278 85.162 63.5298 85.624 63.3618 86.016C63.1798 86.408 62.9418 86.744 62.6338 87.024V89.95H63.0678C63.4458 89.754 63.7538 89.628 63.9778 89.544C64.2018 89.46 64.4258 89.432 64.6218 89.446C64.8458 89.474 64.9998 89.53 65.0978 89.628C65.1958 89.726 65.2518 89.852 65.2798 90.006C65.3078 90.16 65.2938 90.328 65.2658 90.51C65.2378 90.706 65.1958 90.888 65.1538 91.07C65.0698 91.042 64.9438 91.028 64.7758 91C64.5938 90.986 64.4398 90.972 64.2998 90.972H55.4378C55.3258 90.972 55.1998 91 55.0458 91.056C54.8918 91.112 54.7378 91.182 54.5698 91.238C54.4018 91.308 54.2198 91.364 54.0518 91.42C53.8838 91.476 53.7298 91.504 53.5898 91.504C53.3658 91.504 53.1978 91.434 53.0858 91.294C52.9738 91.154 52.9178 90.986 52.9038 90.79L52.8478 89.838C53.2678 89.838 53.6598 89.852 53.9958 89.866C54.3318 89.894 54.6958 89.922 55.1158 89.95H55.7738V87.024C55.4518 86.744 55.1998 86.394 55.0318 86.002C54.8638 85.61 54.7798 85.162 54.7798 84.644ZM57.5098 84.644C57.5098 85.008 57.5378 85.33 57.6218 85.624C57.6918 85.932 57.8038 86.184 57.9438 86.394C58.0838 86.618 58.2658 86.786 58.4758 86.898C58.6858 87.024 58.9238 87.08 59.2038 87.08C59.7498 87.08 60.1698 86.87 60.4638 86.422C60.7438 85.974 60.8978 85.386 60.8978 84.644C60.8838 83.916 60.7298 83.342 60.4498 82.894C60.1698 82.446 59.7498 82.222 59.2038 82.222C58.6438 82.222 58.2238 82.446 57.9438 82.894C57.6498 83.342 57.5098 83.916 57.5098 84.644ZM59.2038 88.102C59.0218 88.102 58.8538 88.102 58.6858 88.088C58.5178 88.074 58.3638 88.06 58.2098 88.032V89.95H60.1978V88.046C60.0298 88.074 59.8758 88.088 59.7078 88.088C59.5398 88.102 59.3718 88.102 59.2038 88.102Z" fill="#E1CE92"/>
</svg>
