<svg width="562" height="54" viewBox="0 0 562 54" fill="none" xmlns="http://www.w3.org/2000/svg">
<rect width="562" height="54" rx="27" fill="#FF5C00"/>
<g clip-path="url(#clip0_1_615)">
<g clip-path="url(#clip1_1_615)">
<path fill-rule="evenodd" clip-rule="evenodd" d="M205 17H221C222.1 17 223 17.9 223 19V31C223 32.1 222.1 33 221 33H207L203 37V19C203 17.9 203.9 17 205 17ZM209.444 26.4444H207V24H209.444V26.4444ZM217 26.4444H219.444V24H217V26.4444ZM214.444 26.4444H212V24H214.444V26.4444Z" fill="white"/>
</g>
</g>
<path d="M254.832 32.024C254.832 32.0773 254.805 32.136 254.752 32.2C254.699 32.2533 254.645 32.28 254.592 32.28H240.656C240.592 32.28 240.539 32.2533 240.496 32.2C240.453 32.1467 240.432 32.088 240.432 32.024V31.016C240.432 30.952 240.453 30.8987 240.496 30.856C240.539 30.8027 240.592 30.776 240.656 30.776H246.704V29.368C246.181 29.304 245.707 29.1973 245.28 29.048C244.864 28.888 244.507 28.6907 244.208 28.456C243.909 28.2107 243.675 27.9387 243.504 27.64C243.344 27.3307 243.264 26.9947 243.264 26.632C243.264 26.2267 243.371 25.8533 243.584 25.512C243.808 25.1707 244.112 24.8773 244.496 24.632C244.88 24.376 245.339 24.1787 245.872 24.04C246.405 23.9013 246.987 23.832 247.616 23.832C248.256 23.832 248.843 23.9013 249.376 24.04C249.909 24.1787 250.368 24.376 250.752 24.632C251.147 24.8773 251.451 25.1707 251.664 25.512C251.877 25.8533 251.984 26.2267 251.984 26.632C251.984 26.9947 251.899 27.3307 251.728 27.64C251.568 27.9387 251.339 28.2107 251.04 28.456C250.741 28.6907 250.379 28.888 249.952 29.048C249.525 29.1973 249.056 29.304 248.544 29.368V30.776H254.592C254.645 30.776 254.699 30.8027 254.752 30.856C254.805 30.9093 254.832 30.9627 254.832 31.016V32.024ZM253.552 23.064C253.552 23.1387 253.525 23.2027 253.472 23.256C253.429 23.2987 253.376 23.32 253.312 23.32H241.936C241.883 23.32 241.829 23.2933 241.776 23.24C241.723 23.1867 241.696 23.1227 241.696 23.048V22.12C241.696 22.0667 241.723 22.0133 241.776 21.96C241.84 21.9067 241.899 21.88 241.952 21.88H253.312C253.376 21.88 253.429 21.9067 253.472 21.96C253.525 22.0027 253.552 22.056 253.552 22.12V23.064ZM247.616 25.192C247.264 25.192 246.928 25.2293 246.608 25.304C246.299 25.368 246.027 25.464 245.792 25.592C245.568 25.72 245.387 25.8747 245.248 26.056C245.12 26.2267 245.056 26.4187 245.056 26.632C245.056 26.8453 245.12 27.0427 245.248 27.224C245.387 27.3947 245.568 27.544 245.792 27.672C246.027 27.8 246.299 27.9013 246.608 27.976C246.928 28.04 247.264 28.072 247.616 28.072C247.968 28.072 248.299 28.04 248.608 27.976C248.928 27.9013 249.2 27.8 249.424 27.672C249.659 27.544 249.845 27.3947 249.984 27.224C250.123 27.0427 250.192 26.8453 250.192 26.632C250.192 26.4187 250.123 26.2267 249.984 26.056C249.845 25.8747 249.659 25.72 249.424 25.592C249.2 25.464 248.928 25.368 248.608 25.304C248.299 25.2293 247.968 25.192 247.616 25.192ZM250.288 21C250.288 21.064 250.261 21.1227 250.208 21.176C250.165 21.2293 250.107 21.256 250.032 21.256H245.216C245.173 21.256 245.12 21.2347 245.056 21.192C245.003 21.1493 244.976 21.0907 244.976 21.016V20.024C244.976 19.9387 245.003 19.8747 245.056 19.832C245.12 19.7893 245.173 19.768 245.216 19.768H250.032C250.096 19.768 250.155 19.8 250.208 19.864C250.261 19.9173 250.288 19.976 250.288 20.04V21ZM265.543 31.864C265.543 31.4267 265.292 31.0853 264.791 30.84C264.3 30.5947 263.602 30.472 262.695 30.472C261.788 30.472 261.084 30.5947 260.583 30.84C260.092 31.0853 259.847 31.4267 259.847 31.864C259.847 32.3013 260.092 32.6427 260.583 32.888C261.084 33.1333 261.788 33.256 262.695 33.256C263.602 33.256 264.3 33.1333 264.791 32.888C265.292 32.6427 265.543 32.3013 265.543 31.864ZM267.463 31.864C267.463 32.28 267.356 32.664 267.143 33.016C266.93 33.368 266.62 33.6667 266.215 33.912C265.81 34.1573 265.308 34.3493 264.711 34.488C264.124 34.6267 263.452 34.696 262.695 34.696C261.938 34.696 261.26 34.6267 260.663 34.488C260.076 34.3493 259.575 34.1573 259.159 33.912C258.754 33.6667 258.439 33.368 258.215 33.016C258.002 32.664 257.895 32.28 257.895 31.864C257.895 31.448 258.002 31.064 258.215 30.712C258.439 30.36 258.754 30.0613 259.159 29.816C259.575 29.56 260.076 29.3627 260.663 29.224C261.26 29.0853 261.938 29.016 262.695 29.016C263.452 29.016 264.124 29.0853 264.711 29.224C265.308 29.3627 265.81 29.56 266.215 29.816C266.62 30.0613 266.93 30.36 267.143 30.712C267.356 31.064 267.463 31.448 267.463 31.864ZM269.687 24.728C269.687 24.7813 269.66 24.8293 269.607 24.872C269.564 24.9147 269.516 24.936 269.463 24.936H267.287V28.568C267.287 28.7067 267.218 28.776 267.079 28.776H265.655C265.516 28.776 265.447 28.7013 265.447 28.552V19.736C265.447 19.5973 265.516 19.528 265.655 19.528H267.079C267.218 19.528 267.287 19.5973 267.287 19.736V23.4H269.463C269.516 23.4 269.564 23.4213 269.607 23.464C269.66 23.5067 269.687 23.5547 269.687 23.608V24.728ZM264.743 27.176C264.754 27.2293 264.738 27.2827 264.695 27.336C264.652 27.3787 264.604 27.4053 264.551 27.416C264.05 27.512 263.5 27.5973 262.903 27.672C262.306 27.7467 261.692 27.8053 261.063 27.848C260.434 27.8907 259.799 27.9227 259.159 27.944C258.53 27.9547 257.932 27.9493 257.367 27.928C256.951 27.9067 256.668 27.8213 256.519 27.672C256.37 27.5227 256.295 27.2773 256.295 26.936V24.232C256.295 23.912 256.364 23.6827 256.503 23.544C256.652 23.4053 256.898 23.336 257.239 23.336H260.935C261.052 23.336 261.122 23.3253 261.143 23.304C261.164 23.2827 261.175 23.2133 261.175 23.096V21.864C261.175 21.7467 261.164 21.6773 261.143 21.656C261.122 21.6347 261.052 21.624 260.935 21.624H256.583C256.53 21.624 256.476 21.6027 256.423 21.56C256.38 21.5173 256.359 21.4693 256.359 21.416V20.376C256.359 20.3227 256.38 20.28 256.423 20.248C256.476 20.2053 256.53 20.184 256.583 20.184H261.927C262.343 20.184 262.626 20.2693 262.775 20.44C262.924 20.6 262.999 20.8667 262.999 21.24V23.656C262.999 24.0507 262.914 24.3227 262.743 24.472C262.583 24.6213 262.332 24.696 261.991 24.696H258.343C258.258 24.696 258.199 24.712 258.167 24.744C258.135 24.7653 258.119 24.824 258.119 24.92V26.2C258.119 26.3813 258.215 26.472 258.407 26.472C259.378 26.4933 260.386 26.472 261.431 26.408C262.476 26.3333 263.436 26.2213 264.311 26.072C264.364 26.0613 264.418 26.0667 264.471 26.088C264.535 26.0987 264.572 26.136 264.583 26.2L264.743 27.176ZM286.05 26.44C286.05 26.8453 285.96 27.1333 285.778 27.304C285.608 27.464 285.32 27.544 284.914 27.544H281.938V30.584H287.97C288.024 30.584 288.077 30.6107 288.13 30.664C288.184 30.7173 288.21 30.776 288.21 30.84V31.88C288.21 31.9333 288.184 31.9867 288.13 32.04C288.077 32.0933 288.024 32.12 287.97 32.12H274.034C273.97 32.12 273.917 32.0933 273.874 32.04C273.832 31.9867 273.81 31.9333 273.81 31.88V30.84C273.81 30.6693 273.885 30.584 274.034 30.584H280.098V27.544H277.138C276.658 27.544 276.333 27.464 276.162 27.304C276.002 27.1333 275.922 26.84 275.922 26.424V21.656C275.922 21.2507 276.008 20.968 276.178 20.808C276.36 20.6373 276.653 20.552 277.058 20.552H284.834C285.314 20.552 285.634 20.632 285.794 20.792C285.965 20.952 286.05 21.2453 286.05 21.672V26.44ZM284.21 22.296C284.21 22.2107 284.194 22.1573 284.162 22.136C284.141 22.104 284.088 22.088 284.002 22.088H277.986C277.901 22.088 277.842 22.0987 277.81 22.12C277.789 22.1413 277.778 22.1947 277.778 22.28V25.8C277.778 25.9067 277.789 25.9707 277.81 25.992C277.842 26.0133 277.901 26.024 277.986 26.024H284.002C284.088 26.024 284.141 26.0133 284.162 25.992C284.194 25.9707 284.21 25.9067 284.21 25.8V22.296ZM301.193 27.88C301.193 28.0187 301.124 28.088 300.985 28.088H299.561C299.422 28.088 299.353 28.0133 299.353 27.864V19.736C299.353 19.5973 299.422 19.528 299.561 19.528H300.985C301.124 19.528 301.193 19.5973 301.193 19.736V27.88ZM301.193 33.352C301.193 33.7573 301.102 34.0453 300.921 34.216C300.75 34.3867 300.462 34.472 300.057 34.472H293.257C292.766 34.472 292.409 34.3867 292.185 34.216C291.972 34.0453 291.865 33.752 291.865 33.336V30.04C291.865 29.6347 291.95 29.3413 292.121 29.16C292.302 28.9787 292.596 28.888 293.001 28.888H299.977C300.457 28.888 300.777 28.9787 300.937 29.16C301.108 29.3307 301.193 29.6293 301.193 30.056V33.352ZM299.369 30.568C299.369 30.4827 299.353 30.4293 299.321 30.408C299.3 30.376 299.246 30.36 299.161 30.36H293.897C293.812 30.36 293.753 30.3707 293.721 30.392C293.7 30.4133 293.689 30.4667 293.689 30.552V32.792C293.689 32.888 293.7 32.9467 293.721 32.968C293.753 32.9893 293.812 33 293.897 33H299.161C299.246 33 299.3 32.9893 299.321 32.968C299.353 32.9467 299.369 32.888 299.369 32.792V30.568ZM297.065 23.768C297.065 24.3013 296.969 24.7973 296.777 25.256C296.596 25.704 296.329 26.0933 295.977 26.424C295.636 26.7547 295.225 27.0107 294.745 27.192C294.276 27.3733 293.753 27.464 293.177 27.464C292.612 27.464 292.094 27.3733 291.625 27.192C291.156 27.0107 290.75 26.7547 290.409 26.424C290.078 26.0933 289.822 25.704 289.641 25.256C289.46 24.7973 289.369 24.3013 289.369 23.768C289.369 23.256 289.46 22.776 289.641 22.328C289.822 21.88 290.078 21.4907 290.409 21.16C290.75 20.8187 291.156 20.552 291.625 20.36C292.094 20.168 292.612 20.072 293.177 20.072C293.753 20.072 294.276 20.168 294.745 20.36C295.225 20.552 295.636 20.8187 295.977 21.16C296.329 21.4907 296.596 21.88 296.777 22.328C296.969 22.776 297.065 23.256 297.065 23.768ZM295.241 23.8C295.241 23.1707 295.054 22.6693 294.681 22.296C294.308 21.912 293.806 21.72 293.177 21.72C292.569 21.72 292.078 21.912 291.705 22.296C291.332 22.6693 291.145 23.1707 291.145 23.8C291.145 24.44 291.332 24.952 291.705 25.336C292.078 25.72 292.569 25.912 293.177 25.912C293.806 25.912 294.308 25.72 294.681 25.336C295.054 24.952 295.241 24.44 295.241 23.8ZM313.556 25.544H310.116V28.536C310.116 28.7173 310.212 28.808 310.404 28.808H313.268C313.46 28.808 313.556 28.7173 313.556 28.536V25.544ZM315.396 29.24C315.396 29.592 315.311 29.8587 315.14 30.04C314.97 30.2213 314.655 30.312 314.196 30.312H309.492C309.023 30.312 308.703 30.232 308.532 30.072C308.362 29.912 308.276 29.6187 308.276 29.192V20.552C308.276 20.4987 308.298 20.456 308.34 20.424C308.383 20.3813 308.431 20.36 308.484 20.36H309.892C309.946 20.36 309.994 20.3813 310.036 20.424C310.09 20.456 310.116 20.4987 310.116 20.552V24.056H313.556V20.536C313.556 20.4827 313.578 20.4347 313.62 20.392C313.663 20.3493 313.711 20.328 313.764 20.328H315.188C315.242 20.328 315.29 20.3493 315.332 20.392C315.375 20.4347 315.396 20.4827 315.396 20.536V29.24ZM321.796 26.696C321.796 26.76 321.77 26.8133 321.716 26.856C321.674 26.8987 321.626 26.92 321.572 26.92H319.396V34.504C319.396 34.6427 319.327 34.712 319.188 34.712H317.764C317.626 34.712 317.556 34.6427 317.556 34.504V19.736C317.556 19.5973 317.626 19.528 317.764 19.528H319.188C319.327 19.528 319.396 19.5973 319.396 19.736V25.384H321.572C321.626 25.384 321.674 25.4053 321.716 25.448C321.77 25.48 321.796 25.5227 321.796 25.576V26.696ZM336.235 31.88C336.235 31.9333 336.209 31.9867 336.155 32.04C336.102 32.0933 336.049 32.12 335.995 32.12H322.059C321.995 32.12 321.942 32.0933 321.899 32.04C321.857 31.9867 321.835 31.9333 321.835 31.88V30.872C321.835 30.808 321.857 30.7493 321.899 30.696C321.942 30.6427 321.995 30.616 322.059 30.616H328.123V28.232H325.259C325.025 28.232 324.833 28.216 324.683 28.184C324.534 28.152 324.417 28.0933 324.331 28.008C324.246 27.9227 324.187 27.816 324.155 27.688C324.123 27.5493 324.107 27.3733 324.107 27.16V24.584C324.107 24.3707 324.123 24.2 324.155 24.072C324.187 23.9333 324.246 23.8267 324.331 23.752C324.417 23.6667 324.534 23.6133 324.683 23.592C324.833 23.56 325.025 23.544 325.259 23.544H331.915C332.022 23.544 332.086 23.5333 332.107 23.512C332.139 23.48 332.155 23.4053 332.155 23.288V22.04C332.155 21.9227 332.139 21.8587 332.107 21.848C332.086 21.8267 332.022 21.816 331.915 21.816H324.379C324.326 21.816 324.278 21.7947 324.235 21.752C324.193 21.6987 324.171 21.6453 324.171 21.592V20.52C324.171 20.4667 324.193 20.4187 324.235 20.376C324.278 20.3333 324.326 20.312 324.379 20.312H332.795C333.243 20.312 333.547 20.3867 333.707 20.536C333.867 20.6747 333.947 20.952 333.947 21.368V23.96C333.947 24.376 333.867 24.6587 333.707 24.808C333.547 24.9467 333.243 25.016 332.795 25.016H326.123C326.017 25.016 325.953 25.0267 325.931 25.048C325.91 25.0693 325.899 25.1333 325.899 25.24V26.504C325.899 26.6213 325.91 26.696 325.931 26.728C325.963 26.7493 326.033 26.76 326.139 26.76H334.075C334.129 26.76 334.177 26.7813 334.219 26.824C334.262 26.856 334.283 26.8987 334.283 26.952V28.024C334.283 28.0773 334.257 28.1253 334.203 28.168C334.161 28.2107 334.118 28.232 334.075 28.232H329.963V30.616H335.995C336.049 30.616 336.102 30.648 336.155 30.712C336.209 30.7653 336.235 30.8187 336.235 30.872V31.88ZM344.626 21.928C344.551 22.8987 344.354 23.8373 344.034 24.744C343.714 25.64 343.271 26.488 342.706 27.288C342.151 28.088 341.479 28.8347 340.69 29.528C339.901 30.2213 339.01 30.84 338.018 31.384C337.933 31.4267 337.842 31.448 337.746 31.448C337.661 31.4373 337.591 31.3893 337.538 31.304L336.898 30.408C336.845 30.3227 336.829 30.2373 336.85 30.152C336.871 30.0667 336.919 29.9973 336.994 29.944C338.583 29.1013 339.869 28.0613 340.85 26.824C341.831 25.5867 342.429 24.2427 342.642 22.792C342.674 22.5787 342.658 22.44 342.594 22.376C342.541 22.3013 342.418 22.264 342.226 22.264H337.714C337.575 22.264 337.506 22.1893 337.506 22.04V20.92C337.506 20.792 337.575 20.728 337.714 20.728H343.49C343.97 20.728 344.285 20.8293 344.434 21.032C344.594 21.224 344.658 21.5227 344.626 21.928ZM351.106 26.68C351.106 26.744 351.079 26.7973 351.026 26.84C350.983 26.8827 350.93 26.904 350.866 26.904H348.706V34.504C348.706 34.6427 348.637 34.712 348.498 34.712H347.074C346.935 34.712 346.866 34.6427 346.866 34.504V19.736C346.866 19.5973 346.935 19.528 347.074 19.528H348.498C348.637 19.528 348.706 19.5973 348.706 19.736V25.368H350.866C350.93 25.368 350.983 25.3893 351.026 25.432C351.079 25.464 351.106 25.5067 351.106 25.56V26.68ZM364.009 34.504C364.009 34.6427 363.94 34.712 363.801 34.712H362.377C362.238 34.712 362.169 34.6427 362.169 34.504V19.736C362.169 19.5973 362.238 19.528 362.377 19.528H363.801C363.94 19.528 364.009 19.5973 364.009 19.736V34.504ZM359.689 21.928C359.604 22.9627 359.385 23.9387 359.033 24.856C358.692 25.7733 358.233 26.6267 357.657 27.416C357.092 28.2053 356.42 28.936 355.641 29.608C354.862 30.28 354.004 30.8933 353.065 31.448C352.98 31.5013 352.884 31.5227 352.777 31.512C352.681 31.4907 352.606 31.4373 352.553 31.352L352.009 30.504C351.956 30.4187 351.94 30.3387 351.961 30.264C351.982 30.1787 352.03 30.1147 352.105 30.072C353.694 29.1333 354.964 28.0507 355.913 26.824C356.873 25.5973 357.497 24.2533 357.785 22.792C357.828 22.5787 357.817 22.44 357.753 22.376C357.689 22.3013 357.556 22.264 357.353 22.264H352.841C352.692 22.264 352.617 22.1893 352.617 22.04V20.92C352.617 20.792 352.692 20.728 352.841 20.728H358.569C359.049 20.728 359.364 20.8293 359.513 21.032C359.662 21.224 359.721 21.5227 359.689 21.928Z" fill="white"/>
<defs>
<clipPath id="clip0_1_615">
<rect width="34" height="34" fill="white" transform="translate(196 10)"/>
</clipPath>
<clipPath id="clip1_1_615">
<rect width="24" height="24" fill="white" transform="translate(201 15)"/>
</clipPath>
</defs>
</svg>
