<svg width="562" height="54" viewBox="0 0 562 54" fill="none" xmlns="http://www.w3.org/2000/svg">
<rect x="0.5" y="0.5" width="561" height="53" rx="26.5" stroke="#AE9F73"/>
<path d="M205.5 19C202.736 19 200.5 20.904 200.5 24C200.5 28.2 205.5 35 205.5 35C205.5 35 210.5 28.2 210.5 24C210.5 20.904 208.264 19 205.5 19Z" fill="white"/>
<circle cx="205.5" cy="24" r="2" fill="#033522"/>
<path d="M225.893 31.048C225.285 31.048 224.735 30.92 224.245 30.664C223.765 30.3973 223.359 30.0347 223.029 29.576C222.698 29.1067 222.442 28.5467 222.261 27.896C222.09 27.2453 222.005 26.5307 222.005 25.752C222.005 24.952 222.09 24.2267 222.261 23.576C222.442 22.9253 222.698 22.3707 223.029 21.912C223.359 21.4533 223.765 21.1013 224.245 20.856C224.735 20.6 225.285 20.472 225.893 20.472C226.629 20.472 227.269 20.648 227.813 21C228.367 21.352 228.805 21.848 229.125 22.488H232.261V19.736C232.261 19.5973 232.33 19.528 232.469 19.528H233.893C234.031 19.528 234.101 19.5973 234.101 19.736V34.504C234.101 34.6427 234.031 34.712 233.893 34.712H232.469C232.33 34.712 232.261 34.6427 232.261 34.504V28.872H229.189C228.879 29.5653 228.442 30.104 227.877 30.488C227.322 30.8613 226.661 31.048 225.893 31.048ZM228.005 25.752C228.005 25.2613 227.957 24.7973 227.861 24.36C227.775 23.912 227.642 23.5227 227.461 23.192C227.29 22.8613 227.071 22.6 226.805 22.408C226.538 22.2053 226.234 22.104 225.893 22.104C225.562 22.104 225.263 22.2053 224.997 22.408C224.741 22.6 224.522 22.8613 224.341 23.192C224.17 23.5227 224.037 23.912 223.941 24.36C223.855 24.7973 223.813 25.2613 223.813 25.752C223.813 26.232 223.855 26.696 223.941 27.144C224.037 27.5813 224.17 27.9707 224.341 28.312C224.522 28.6427 224.741 28.9093 224.997 29.112C225.263 29.3147 225.562 29.416 225.893 29.416C226.234 29.416 226.538 29.3147 226.805 29.112C227.071 28.9093 227.29 28.6427 227.461 28.312C227.642 27.9707 227.775 27.5813 227.861 27.144C227.957 26.696 228.005 26.232 228.005 25.752ZM229.637 23.992C229.754 24.5573 229.813 25.144 229.813 25.752C229.813 26.3493 229.765 26.888 229.669 27.368H232.261V23.992H229.637ZM247.516 19.736C247.516 19.5973 247.59 19.528 247.74 19.528H249.116C249.254 19.528 249.324 19.5973 249.324 19.736V28.744C249.324 28.8827 249.254 28.952 249.116 28.952H247.724C247.585 28.952 247.516 28.8827 247.516 28.744V25.304H246.14V28.248C246.14 28.3973 246.07 28.472 245.932 28.472H244.604C244.454 28.472 244.38 28.3973 244.38 28.248V19.992C244.38 19.8533 244.454 19.784 244.604 19.784H245.932C246.07 19.784 246.14 19.8533 246.14 19.992V23.768H247.516V19.736ZM247.564 31.976C247.564 31.784 247.478 31.608 247.308 31.448C247.148 31.2773 246.918 31.1333 246.62 31.016C246.332 30.888 245.985 30.792 245.58 30.728C245.185 30.6533 244.748 30.616 244.268 30.616C243.788 30.616 243.345 30.6533 242.94 30.728C242.545 30.792 242.204 30.888 241.916 31.016C241.628 31.1333 241.398 31.2773 241.228 31.448C241.068 31.608 240.988 31.784 240.988 31.976C240.988 32.1467 241.068 32.312 241.228 32.472C241.398 32.6213 241.628 32.7547 241.916 32.872C242.204 32.9893 242.545 33.08 242.94 33.144C243.345 33.2187 243.788 33.256 244.268 33.256C244.748 33.256 245.185 33.2187 245.58 33.144C245.985 33.08 246.332 32.9893 246.62 32.872C246.918 32.7547 247.148 32.6213 247.308 32.472C247.478 32.312 247.564 32.1467 247.564 31.976ZM249.452 31.928C249.452 32.344 249.318 32.7227 249.052 33.064C248.785 33.4053 248.417 33.6933 247.948 33.928C247.478 34.1733 246.929 34.36 246.3 34.488C245.67 34.616 244.993 34.68 244.268 34.68C243.542 34.68 242.865 34.616 242.236 34.488C241.606 34.36 241.057 34.1733 240.588 33.928C240.118 33.6933 239.75 33.4053 239.484 33.064C239.217 32.7227 239.084 32.344 239.084 31.928C239.084 31.512 239.217 31.1387 239.484 30.808C239.75 30.4667 240.118 30.1787 240.588 29.944C241.057 29.6987 241.606 29.512 242.236 29.384C242.865 29.256 243.542 29.192 244.268 29.192C244.993 29.192 245.67 29.256 246.3 29.384C246.929 29.512 247.478 29.6987 247.948 29.944C248.417 30.1787 248.785 30.4667 249.052 30.808C249.318 31.1387 249.452 31.512 249.452 31.928ZM243.596 23.032C243.596 23.096 243.569 23.1547 243.516 23.208C243.473 23.2507 243.42 23.272 243.356 23.272H236.492C236.438 23.272 236.385 23.2453 236.332 23.192C236.278 23.1387 236.252 23.08 236.252 23.016V22.136C236.252 22.0827 236.278 22.0293 236.332 21.976C236.396 21.9227 236.454 21.896 236.508 21.896H243.356C243.42 21.896 243.473 21.9227 243.516 21.976C243.569 22.0187 243.596 22.072 243.596 22.136V23.032ZM241.996 20.968C241.996 21.0427 241.969 21.1067 241.916 21.16C241.873 21.2133 241.814 21.24 241.74 21.24H238.284C238.241 21.24 238.188 21.2187 238.124 21.176C238.07 21.1333 238.044 21.0747 238.044 21V20.088C238.044 20.0133 238.07 19.9547 238.124 19.912C238.188 19.8693 238.241 19.848 238.284 19.848H241.74C241.804 19.848 241.862 19.8747 241.916 19.928C241.969 19.9813 241.996 20.04 241.996 20.104V20.968ZM240.012 25.16C239.553 25.16 239.201 25.2773 238.956 25.512C238.71 25.7467 238.588 26.0187 238.588 26.328C238.588 26.6373 238.71 26.9147 238.956 27.16C239.201 27.4053 239.553 27.528 240.012 27.528C240.46 27.528 240.806 27.4053 241.052 27.16C241.297 26.9147 241.42 26.6373 241.42 26.328C241.42 26.0187 241.297 25.7467 241.052 25.512C240.806 25.2773 240.46 25.16 240.012 25.16ZM240.012 23.784C240.481 23.784 240.902 23.8533 241.276 23.992C241.66 24.12 241.985 24.3013 242.252 24.536C242.529 24.7707 242.737 25.0427 242.876 25.352C243.025 25.6507 243.1 25.9653 243.1 26.296C243.1 26.6373 243.025 26.9627 242.876 27.272C242.737 27.5813 242.529 27.8587 242.252 28.104C241.985 28.3387 241.66 28.5253 241.276 28.664C240.892 28.8027 240.46 28.872 239.98 28.872C239.51 28.872 239.089 28.8027 238.716 28.664C238.342 28.5253 238.017 28.344 237.74 28.12C237.473 27.8853 237.265 27.6133 237.116 27.304C236.977 26.9947 236.908 26.6693 236.908 26.328C236.908 25.9973 236.977 25.6773 237.116 25.368C237.265 25.0587 237.473 24.7867 237.74 24.552C238.017 24.3173 238.348 24.1307 238.732 23.992C239.116 23.8533 239.542 23.784 240.012 23.784ZM251.89 30.856C251.805 30.9093 251.714 30.9307 251.618 30.92C251.522 30.9093 251.448 30.8613 251.394 30.776L250.77 29.944C250.696 29.848 250.68 29.7573 250.722 29.672C250.776 29.5867 250.84 29.5227 250.914 29.48C251.586 29.064 252.226 28.584 252.834 28.04C253.442 27.496 253.986 26.9253 254.466 26.328C254.957 25.7307 255.373 25.1227 255.714 24.504C256.056 23.8747 256.301 23.272 256.45 22.696C256.493 22.5147 256.498 22.3973 256.466 22.344C256.434 22.2907 256.328 22.264 256.146 22.264H252.018C251.954 22.264 251.901 22.2427 251.858 22.2C251.826 22.1467 251.81 22.088 251.81 22.024V20.952C251.81 20.8027 251.885 20.728 252.034 20.728H257.25C257.666 20.728 257.992 20.808 258.226 20.968C258.461 21.128 258.578 21.336 258.578 21.592C258.578 21.7307 258.568 21.8747 258.546 22.024C258.525 22.1627 258.498 22.2907 258.466 22.408C258.317 22.9733 258.114 23.544 257.858 24.12C257.613 24.6853 257.309 25.256 256.946 25.832C257.149 26.1093 257.384 26.4027 257.65 26.712C257.917 27.0107 258.194 27.304 258.482 27.592C258.77 27.88 259.053 28.152 259.33 28.408C259.608 28.6533 259.858 28.856 260.082 29.016C260.157 29.0693 260.205 29.1387 260.226 29.224C260.258 29.3093 260.242 29.3947 260.178 29.48L259.49 30.264C259.352 30.4133 259.176 30.424 258.962 30.296C258.77 30.168 258.541 29.992 258.274 29.768C258.018 29.5333 257.752 29.2773 257.474 29C257.197 28.7227 256.925 28.4293 256.658 28.12C256.392 27.8107 256.152 27.5173 255.938 27.24C255.394 27.912 254.786 28.5573 254.114 29.176C253.442 29.784 252.701 30.344 251.89 30.856ZM263.298 34.504C263.298 34.6427 263.224 34.712 263.074 34.712H261.666C261.613 34.712 261.56 34.6907 261.506 34.648C261.464 34.616 261.442 34.568 261.442 34.504V19.736C261.442 19.6827 261.464 19.6347 261.506 19.592C261.56 19.5493 261.613 19.528 261.666 19.528H263.074C263.224 19.528 263.298 19.5973 263.298 19.736V34.504ZM271.006 27.736C270.963 27.7573 270.904 27.7627 270.83 27.752C270.766 27.7307 270.707 27.6773 270.654 27.592L270.078 26.6C270.035 26.5147 270.03 26.44 270.062 26.376C270.104 26.3013 270.163 26.2533 270.238 26.232C271.038 25.9333 271.736 25.6133 272.334 25.272C272.942 24.92 273.454 24.52 273.87 24.072C274.286 23.624 274.616 23.112 274.862 22.536C275.107 21.96 275.267 21.2933 275.342 20.536C275.352 20.4613 275.374 20.3867 275.406 20.312C275.448 20.2373 275.512 20.2053 275.598 20.216L276.99 20.28C277.171 20.2907 277.256 20.408 277.246 20.632C277.235 20.9093 277.203 21.1707 277.15 21.416C277.278 21.928 277.502 22.4187 277.822 22.888C278.142 23.3573 278.531 23.7893 278.99 24.184C279.459 24.568 279.976 24.9093 280.542 25.208C281.107 25.5067 281.694 25.7413 282.302 25.912C282.366 25.9333 282.408 25.9813 282.43 26.056C282.451 26.12 282.446 26.1787 282.414 26.232L281.886 27.256C281.8 27.416 281.672 27.4747 281.502 27.432C281.011 27.304 280.515 27.1227 280.014 26.888C279.523 26.6533 279.048 26.3813 278.59 26.072C278.131 25.752 277.71 25.4 277.326 25.016C276.942 24.6213 276.616 24.2 276.35 23.752C275.816 24.6907 275.091 25.4907 274.174 26.152C273.256 26.8133 272.2 27.3413 271.006 27.736ZM283.534 31.88C283.534 31.9333 283.507 31.9867 283.454 32.04C283.4 32.0933 283.347 32.12 283.294 32.12H269.358C269.294 32.12 269.24 32.0987 269.198 32.056C269.155 32.0027 269.134 31.944 269.134 31.88V30.824C269.134 30.76 269.155 30.7067 269.198 30.664C269.24 30.6107 269.294 30.584 269.358 30.584H275.374V27.16C275.374 27.0107 275.448 26.936 275.598 26.936H276.99C277.054 26.936 277.107 26.9573 277.15 27C277.203 27.0427 277.23 27.096 277.23 27.16V30.584H283.294C283.347 30.584 283.4 30.6107 283.454 30.664C283.507 30.7173 283.534 30.7707 283.534 30.824V31.88ZM295.557 19.736C295.557 19.5973 295.631 19.528 295.781 19.528H297.157C297.295 19.528 297.365 19.5973 297.365 19.736V34.504C297.365 34.6427 297.295 34.712 297.157 34.712H295.765C295.626 34.712 295.557 34.6427 295.557 34.504V26.936H294.069V33.896C294.069 34.0453 293.999 34.12 293.861 34.12H292.549C292.399 34.12 292.325 34.0453 292.325 33.896V20.024C292.325 19.8853 292.399 19.816 292.549 19.816H293.861C293.999 19.816 294.069 19.8853 294.069 20.024V25.4H295.557V19.736ZM285.365 31.032C285.279 31.0853 285.194 31.1173 285.109 31.128C285.023 31.1387 284.954 31.1067 284.901 31.032L284.261 30.152C284.197 30.056 284.181 29.9707 284.213 29.896C284.255 29.8107 284.303 29.7467 284.357 29.704C285.082 29.256 285.733 28.7493 286.309 28.184C286.895 27.6187 287.391 27.032 287.797 26.424C288.213 25.8053 288.533 25.192 288.757 24.584C288.981 23.9653 289.103 23.3893 289.125 22.856C289.135 22.632 289.114 22.4827 289.061 22.408C289.007 22.3227 288.869 22.28 288.645 22.28H285.109C284.959 22.28 284.885 22.2107 284.885 22.072V20.984C284.885 20.9307 284.906 20.8827 284.949 20.84C285.002 20.7973 285.055 20.776 285.109 20.776H289.765C290.223 20.776 290.538 20.8667 290.709 21.048C290.879 21.2187 290.959 21.512 290.949 21.928C290.927 22.856 290.783 23.752 290.517 24.616C290.25 25.48 289.877 26.296 289.397 27.064C288.917 27.832 288.335 28.552 287.653 29.224C286.97 29.8853 286.207 30.488 285.365 31.032ZM308.88 25.544H305.44V28.536C305.44 28.7173 305.536 28.808 305.728 28.808H308.592C308.784 28.808 308.88 28.7173 308.88 28.536V25.544ZM310.72 29.24C310.72 29.592 310.634 29.8587 310.464 30.04C310.293 30.2213 309.978 30.312 309.52 30.312H304.816C304.346 30.312 304.026 30.232 303.856 30.072C303.685 29.912 303.6 29.6187 303.6 29.192V20.552C303.6 20.4987 303.621 20.456 303.664 20.424C303.706 20.3813 303.754 20.36 303.808 20.36H305.216C305.269 20.36 305.317 20.3813 305.36 20.424C305.413 20.456 305.44 20.4987 305.44 20.552V24.056H308.88V20.536C308.88 20.4827 308.901 20.4347 308.944 20.392C308.986 20.3493 309.034 20.328 309.088 20.328H310.512C310.565 20.328 310.613 20.3493 310.656 20.392C310.698 20.4347 310.72 20.4827 310.72 20.536V29.24ZM317.12 26.696C317.12 26.76 317.093 26.8133 317.04 26.856C316.997 26.8987 316.949 26.92 316.896 26.92H314.72V34.504C314.72 34.6427 314.65 34.712 314.512 34.712H313.088C312.949 34.712 312.88 34.6427 312.88 34.504V19.736C312.88 19.5973 312.949 19.528 313.088 19.528H314.512C314.65 19.528 314.72 19.5973 314.72 19.736V25.384H316.896C316.949 25.384 316.997 25.4053 317.04 25.448C317.093 25.48 317.12 25.5227 317.12 25.576V26.696ZM331.559 31.88C331.559 31.9333 331.532 31.9867 331.479 32.04C331.425 32.0933 331.372 32.12 331.319 32.12H317.383C317.319 32.12 317.265 32.0933 317.223 32.04C317.18 31.9867 317.159 31.9333 317.159 31.88V30.872C317.159 30.808 317.18 30.7493 317.223 30.696C317.265 30.6427 317.319 30.616 317.383 30.616H323.447V28.232H320.583C320.348 28.232 320.156 28.216 320.007 28.184C319.857 28.152 319.74 28.0933 319.655 28.008C319.569 27.9227 319.511 27.816 319.479 27.688C319.447 27.5493 319.431 27.3733 319.431 27.16V24.584C319.431 24.3707 319.447 24.2 319.479 24.072C319.511 23.9333 319.569 23.8267 319.655 23.752C319.74 23.6667 319.857 23.6133 320.007 23.592C320.156 23.56 320.348 23.544 320.583 23.544H327.239C327.345 23.544 327.409 23.5333 327.431 23.512C327.463 23.48 327.479 23.4053 327.479 23.288V22.04C327.479 21.9227 327.463 21.8587 327.431 21.848C327.409 21.8267 327.345 21.816 327.239 21.816H319.703C319.649 21.816 319.601 21.7947 319.559 21.752C319.516 21.6987 319.495 21.6453 319.495 21.592V20.52C319.495 20.4667 319.516 20.4187 319.559 20.376C319.601 20.3333 319.649 20.312 319.703 20.312H328.119C328.567 20.312 328.871 20.3867 329.031 20.536C329.191 20.6747 329.271 20.952 329.271 21.368V23.96C329.271 24.376 329.191 24.6587 329.031 24.808C328.871 24.9467 328.567 25.016 328.119 25.016H321.447C321.34 25.016 321.276 25.0267 321.255 25.048C321.233 25.0693 321.223 25.1333 321.223 25.24V26.504C321.223 26.6213 321.233 26.696 321.255 26.728C321.287 26.7493 321.356 26.76 321.463 26.76H329.399C329.452 26.76 329.5 26.7813 329.543 26.824C329.585 26.856 329.607 26.8987 329.607 26.952V28.024C329.607 28.0773 329.58 28.1253 329.527 28.168C329.484 28.2107 329.441 28.232 329.399 28.232H325.287V30.616H331.319C331.372 30.616 331.425 30.648 331.479 30.712C331.532 30.7653 331.559 30.8187 331.559 30.872V31.88ZM339.95 21.928C339.875 22.8987 339.678 23.8373 339.358 24.744C339.038 25.64 338.595 26.488 338.03 27.288C337.475 28.088 336.803 28.8347 336.014 29.528C335.224 30.2213 334.334 30.84 333.342 31.384C333.256 31.4267 333.166 31.448 333.07 31.448C332.984 31.4373 332.915 31.3893 332.862 31.304L332.222 30.408C332.168 30.3227 332.152 30.2373 332.174 30.152C332.195 30.0667 332.243 29.9973 332.318 29.944C333.907 29.1013 335.192 28.0613 336.174 26.824C337.155 25.5867 337.752 24.2427 337.966 22.792C337.998 22.5787 337.982 22.44 337.918 22.376C337.864 22.3013 337.742 22.264 337.55 22.264H333.038C332.899 22.264 332.83 22.1893 332.83 22.04V20.92C332.83 20.792 332.899 20.728 333.038 20.728H338.814C339.294 20.728 339.608 20.8293 339.758 21.032C339.918 21.224 339.982 21.5227 339.95 21.928ZM346.43 26.68C346.43 26.744 346.403 26.7973 346.35 26.84C346.307 26.8827 346.254 26.904 346.19 26.904H344.03V34.504C344.03 34.6427 343.96 34.712 343.822 34.712H342.398C342.259 34.712 342.19 34.6427 342.19 34.504V19.736C342.19 19.5973 342.259 19.528 342.398 19.528H343.822C343.96 19.528 344.03 19.5973 344.03 19.736V25.368H346.19C346.254 25.368 346.307 25.3893 346.35 25.432C346.403 25.464 346.43 25.5067 346.43 25.56V26.68ZM359.332 34.504C359.332 34.6427 359.263 34.712 359.124 34.712H357.7C357.562 34.712 357.492 34.6427 357.492 34.504V19.736C357.492 19.5973 357.562 19.528 357.7 19.528H359.124C359.263 19.528 359.332 19.5973 359.332 19.736V34.504ZM355.012 21.928C354.927 22.9627 354.708 23.9387 354.356 24.856C354.015 25.7733 353.556 26.6267 352.98 27.416C352.415 28.2053 351.743 28.936 350.964 29.608C350.186 30.28 349.327 30.8933 348.388 31.448C348.303 31.5013 348.207 31.5227 348.1 31.512C348.004 31.4907 347.93 31.4373 347.876 31.352L347.332 30.504C347.279 30.4187 347.263 30.3387 347.284 30.264C347.306 30.1787 347.354 30.1147 347.428 30.072C349.018 29.1333 350.287 28.0507 351.236 26.824C352.196 25.5973 352.82 24.2533 353.108 22.792C353.151 22.5787 353.14 22.44 353.076 22.376C353.012 22.3013 352.879 22.264 352.676 22.264H348.164C348.015 22.264 347.94 22.1893 347.94 22.04V20.92C347.94 20.792 348.015 20.728 348.164 20.728H353.892C354.372 20.728 354.687 20.8293 354.836 21.032C354.986 21.224 355.044 21.5227 355.012 21.928Z" fill="white"/>
</svg>
