<svg width="364" height="310" viewBox="0 0 364 310" fill="none" xmlns="http://www.w3.org/2000/svg">
<g filter="url(#filter0_d_1_472)">
<rect x="5" y="1" width="354" height="300" rx="16" fill="#033522" shape-rendering="crispEdges"/>
<rect x="4.5" y="0.5" width="355" height="301" rx="16.5" stroke="#B2A374" stroke-opacity="0.4" shape-rendering="crispEdges"/>
<path d="M59.9 43.848C59.76 44.184 59.676 44.548 59.648 44.94C59.62 45.36 59.62 45.808 59.62 46.284V51.128H61.076V45.248C61.076 44.828 61.048 44.38 61.048 43.932C61.02 43.484 60.992 43.036 60.936 42.56C61.272 42.448 61.692 42.336 62.224 42.224C62.756 42.112 63.288 42.028 63.848 42.028C64.38 42.028 64.884 42.14 65.36 42.336C65.808 42.56 66.172 42.924 66.396 43.484C66.172 43.82 66.032 44.212 65.92 44.688C65.808 45.192 65.752 45.612 65.752 45.948V63.728C65.752 64.064 65.696 64.4 65.612 64.708C65.5 65.016 65.304 65.268 64.996 65.492C64.66 65.716 64.212 65.856 63.596 65.94C62.98 66.052 62.14 66.024 61.076 65.912V53.2H59.62V63.168C59.62 63.504 59.564 63.812 59.48 64.092C59.396 64.4 59.2 64.652 58.892 64.876C58.584 65.1 58.136 65.24 57.52 65.324C56.904 65.436 56.092 65.408 55.084 65.296V45.78C55.084 45.332 55.056 44.912 55.056 44.464C55.028 44.016 55 43.568 54.944 43.092C55.28 42.98 55.672 42.868 56.148 42.728C56.596 42.616 57.072 42.532 57.548 42.532C58.024 42.532 58.472 42.616 58.892 42.784C59.312 42.98 59.648 43.344 59.9 43.848ZM48.504 56.308C48.504 57.036 48.644 57.54 48.924 57.792C49.176 58.072 49.596 58.156 50.212 58.072L50.576 57.988C51.08 57.596 51.528 57.288 51.92 57.064C52.312 56.84 52.704 56.756 53.096 56.784C53.432 56.84 53.684 56.98 53.824 57.204C53.936 57.428 54.02 57.708 54.02 58.016C54.02 58.352 53.992 58.66 53.936 58.996C53.852 59.332 53.796 59.612 53.74 59.836C53.628 59.808 53.488 59.78 53.292 59.752C53.096 59.752 52.9 59.752 52.732 59.752L49.624 59.976C48.7 60.088 47.888 60.088 47.16 60.004C46.432 59.92 45.788 59.696 45.284 59.332C44.752 58.996 44.332 58.492 44.052 57.82C43.772 57.148 43.604 56.28 43.604 55.16L43.352 47.74C43.296 47.208 43.212 46.788 43.1 46.452C42.988 46.116 42.848 45.892 42.708 45.78C42.96 45.304 43.324 44.968 43.828 44.772C44.332 44.576 44.836 44.464 45.396 44.464C45.928 44.464 46.432 44.52 46.936 44.632C47.412 44.772 47.776 44.912 48 45.08C48.056 45.332 48.084 45.864 48.14 46.704C48.196 47.544 48.224 48.524 48.28 49.616C48.336 50.736 48.364 51.884 48.392 53.088C48.42 54.292 48.448 55.356 48.504 56.308ZM73.6113 53.116C74.4513 53.116 75.2353 53.144 75.9073 53.172C76.5793 53.228 77.3073 53.284 78.1473 53.34H93.7713C94.5273 52.948 95.1713 52.696 95.7313 52.528C96.2913 52.36 96.7673 52.304 97.1593 52.332C97.6073 52.388 97.9153 52.5 98.1113 52.696C98.3073 52.892 98.4193 53.144 98.4753 53.452C98.5313 53.76 98.5033 54.096 98.4473 54.46C98.3913 54.852 98.3073 55.216 98.2233 55.58C98.0553 55.524 97.8033 55.496 97.4673 55.44C97.1033 55.412 96.7953 55.384 96.5153 55.384H78.7913C78.5673 55.384 78.3153 55.44 78.0073 55.552C77.6993 55.664 77.3913 55.804 77.0553 55.916C76.7193 56.056 76.3553 56.168 76.0193 56.28C75.6833 56.392 75.3753 56.448 75.0953 56.448C74.6473 56.448 74.3113 56.308 74.0873 56.028C73.8633 55.748 73.7513 55.412 73.7233 55.02L73.6113 53.116ZM94.4993 60.9C95.0033 60.9 95.3953 61.096 95.6193 61.488C95.8433 61.88 95.9553 62.328 95.9553 62.888C95.9553 63.336 95.8713 63.756 95.7593 64.148C95.6473 64.54 95.4793 64.96 95.2553 65.38C94.7233 65.52 94.1073 65.632 93.3793 65.716C92.6513 65.828 91.8953 65.912 91.1393 65.968C90.3833 66.024 89.6553 66.08 88.9553 66.108C88.2553 66.136 87.6673 66.136 87.2193 66.136C86.0433 66.136 85.0073 65.996 84.1113 65.716C83.2153 65.436 82.3753 65.016 81.5913 64.484C80.8073 63.952 80.0513 63.308 79.3233 62.58C78.5953 61.852 77.8673 61.04 77.0833 60.144C76.9153 59.948 76.8313 59.696 76.8313 59.388C76.8313 59.22 76.8593 58.996 76.9713 58.772C77.0553 58.548 77.1953 58.352 77.4193 58.156C77.6433 57.988 77.9233 57.82 78.2593 57.68C78.5953 57.568 79.0153 57.484 79.5193 57.456C79.8553 57.96 80.1913 58.464 80.5833 58.94C80.9753 59.444 81.3953 59.864 81.8993 60.256C82.3753 60.648 82.9073 60.984 83.5233 61.208C84.1113 61.432 84.7833 61.544 85.5393 61.544C86.2673 61.544 87.0513 61.516 87.8353 61.46C88.6193 61.404 89.4033 61.32 90.1873 61.236C90.9713 61.152 91.7273 61.068 92.4553 61.012C93.1833 60.956 93.8833 60.9 94.4993 60.9ZM82.0393 45.024C81.6473 45.248 81.3673 45.528 81.1713 45.892C80.9473 46.256 80.8073 46.648 80.7233 47.04C80.0513 47.04 79.4913 46.956 79.0433 46.788C78.5673 46.62 78.1753 46.424 77.8673 46.144C77.5593 45.864 77.3353 45.584 77.1953 45.248C77.0553 44.94 76.9993 44.632 76.9993 44.324C76.9993 43.96 77.0833 43.652 77.3073 43.372C77.5033 43.12 77.8113 42.98 78.2033 42.98H89.3193C89.7393 42.868 90.2433 42.756 90.8593 42.616C91.4753 42.504 92.0633 42.42 92.6233 42.42C93.2113 42.42 93.7433 42.532 94.1913 42.756C94.6393 42.98 95.0033 43.372 95.2553 43.96C95.1153 44.184 95.0033 44.464 94.9193 44.8C94.8353 45.136 94.8073 45.556 94.8073 46.032C94.8073 46.48 94.7793 46.956 94.7513 47.432C94.7233 47.908 94.6953 48.356 94.6673 48.776C94.6113 49.224 94.5553 49.616 94.4993 49.952C94.4433 50.288 94.3593 50.568 94.3033 50.736C94.1913 51.016 94.0233 51.24 93.8273 51.408C93.6313 51.576 93.3513 51.66 92.9873 51.716C92.5953 51.772 92.1193 51.744 91.5033 51.688C90.8873 51.632 90.1033 51.548 89.1513 51.38C89.2353 51.044 89.3193 50.596 89.3753 50.008C89.4313 49.448 89.4593 48.832 89.4873 48.188C89.5153 47.572 89.5433 46.956 89.5433 46.368C89.5433 45.808 89.5713 45.36 89.5713 45.024H82.0393ZM115.218 54.152C114.658 54.152 114.238 53.984 113.93 53.62C113.594 53.284 113.454 52.892 113.454 52.444C113.454 52.192 113.51 51.968 113.678 51.772C113.818 51.576 114.07 51.464 114.462 51.464H117.458V45.444C117.458 44.996 117.43 44.52 117.43 44.044C117.402 43.568 117.346 43.092 117.29 42.588C117.766 42.476 118.298 42.336 118.914 42.224C119.502 42.112 120.146 42.028 120.818 42.028C121.266 42.028 121.63 42.084 121.966 42.196C122.274 42.308 122.526 42.42 122.75 42.588C122.974 42.756 123.142 42.924 123.254 43.092C123.366 43.26 123.45 43.428 123.506 43.568C123.282 43.904 123.114 44.352 123.002 44.856C122.89 45.36 122.834 45.808 122.834 46.172V63.504C122.834 63.84 122.778 64.176 122.666 64.512C122.554 64.848 122.302 65.1 121.938 65.324C121.546 65.548 121.014 65.716 120.314 65.8C119.586 65.912 118.634 65.884 117.458 65.772V53.536H116.45C116.254 53.536 116.002 53.592 115.722 53.676C115.442 53.76 115.274 53.928 115.218 54.152ZM112.866 49.812C112.698 50.484 112.474 51.184 112.138 51.968C111.802 52.752 111.382 53.508 110.934 54.292C110.458 55.076 109.926 55.86 109.338 56.588C108.75 57.344 108.134 58.044 107.49 58.66C106.818 59.276 106.146 59.836 105.446 60.284C104.718 60.732 104.018 61.04 103.318 61.208C103.094 61.264 102.87 61.292 102.646 61.236C102.422 61.18 102.17 61.068 101.918 60.9C101.638 60.732 101.358 60.452 101.078 60.116C100.77 59.78 100.462 59.304 100.182 58.744C101.47 58.072 102.618 57.288 103.57 56.392C104.522 55.496 105.306 54.6 105.922 53.676C106.538 52.752 107.014 51.856 107.322 50.988C107.602 50.12 107.77 49.364 107.77 48.748H105.586C105.194 48.972 104.914 49.28 104.718 49.7C104.494 50.12 104.354 50.54 104.27 50.932C103.598 50.932 103.038 50.848 102.59 50.652C102.114 50.484 101.722 50.232 101.414 49.952C101.106 49.672 100.882 49.336 100.742 49C100.602 48.664 100.546 48.356 100.546 48.076C100.546 47.712 100.63 47.404 100.854 47.152C101.05 46.928 101.358 46.788 101.75 46.788H107.77C108.19 46.704 108.694 46.592 109.282 46.48C109.842 46.368 110.43 46.284 110.99 46.284C111.578 46.284 112.11 46.396 112.614 46.592C113.118 46.816 113.482 47.18 113.734 47.74C113.594 47.936 113.454 48.188 113.314 48.496C113.146 48.804 113.006 49.252 112.866 49.812ZM108.134 59.36C109.002 58.576 109.786 57.736 110.458 56.896C111.13 56.056 111.69 55.104 112.138 54.096C112.586 54.264 113.034 54.46 113.482 54.684C113.93 54.908 114.294 55.188 114.63 55.496C114.966 55.804 115.218 56.14 115.386 56.532C115.554 56.924 115.638 57.344 115.61 57.82C115.386 57.988 115.162 58.212 114.882 58.492C114.602 58.772 114.322 59.08 114.014 59.388C113.706 59.724 113.398 60.032 113.062 60.312C112.726 60.62 112.418 60.844 112.11 61.012C111.802 61.18 111.522 61.264 111.242 61.292C110.962 61.348 110.682 61.292 110.402 61.18C110.094 61.068 109.758 60.844 109.394 60.564C109.03 60.284 108.61 59.864 108.134 59.36ZM103.906 43.484C103.906 43.316 103.906 43.092 103.962 42.868C103.99 42.644 104.046 42.448 104.158 42.28C104.27 42.112 104.41 41.944 104.578 41.832C104.746 41.72 104.998 41.636 105.278 41.636C105.502 41.636 105.782 41.692 106.062 41.776C106.342 41.888 106.678 41.972 107.042 42.084C107.378 42.196 107.77 42.308 108.218 42.392C108.638 42.504 109.114 42.532 109.618 42.532C110.178 42.532 110.654 42.7 110.99 43.036C111.326 43.372 111.55 43.96 111.634 44.8C111.074 45.024 110.486 45.192 109.926 45.36C109.366 45.528 108.778 45.668 108.19 45.752C107.602 45.836 107.014 45.864 106.426 45.808C105.81 45.752 105.222 45.612 104.634 45.36C104.382 45.024 104.186 44.716 104.074 44.408C103.962 44.128 103.906 43.82 103.906 43.484ZM154.465 63.532C154.465 63.868 154.409 64.204 154.297 64.54C154.185 64.876 153.933 65.128 153.569 65.352C153.177 65.576 152.645 65.744 151.945 65.828C151.217 65.94 150.265 65.912 149.089 65.8V56.56H146.121C145.617 57.904 144.861 58.996 143.825 59.78C142.789 60.592 141.473 60.984 139.849 60.984C138.673 60.984 137.637 60.788 136.769 60.34C135.901 59.892 135.173 59.304 134.613 58.52C134.025 57.764 133.605 56.868 133.325 55.832C133.045 54.796 132.905 53.676 132.905 52.444C132.905 51.268 133.045 50.148 133.325 49.112C133.605 48.076 134.025 47.18 134.613 46.396C135.173 45.64 135.901 45.052 136.769 44.604C137.637 44.156 138.673 43.932 139.849 43.932C141.417 43.932 142.705 44.324 143.713 45.052C144.721 45.808 145.505 46.816 146.009 48.048H149.089V45.444C149.089 44.996 149.061 44.52 149.061 44.044C149.033 43.568 148.977 43.092 148.921 42.588C149.397 42.476 149.929 42.336 150.545 42.224C151.133 42.112 151.777 42.028 152.449 42.028C152.897 42.028 153.261 42.084 153.597 42.196C153.905 42.308 154.157 42.42 154.381 42.588C154.605 42.756 154.773 42.924 154.885 43.092C154.997 43.26 155.081 43.428 155.137 43.568C154.913 43.904 154.745 44.352 154.633 44.856C154.521 45.36 154.465 45.808 154.465 46.172V63.532ZM138.225 52.444C138.225 53.424 138.225 54.32 138.281 55.104C138.337 55.888 138.421 56.588 138.533 57.148C138.645 57.708 138.813 58.156 139.009 58.464C139.205 58.8 139.457 58.94 139.765 58.94C140.045 58.94 140.269 58.8 140.465 58.464C140.661 58.156 140.829 57.708 140.941 57.148C141.053 56.588 141.165 55.888 141.221 55.104C141.277 54.32 141.305 53.424 141.305 52.444C141.305 51.492 141.277 50.596 141.221 49.812C141.165 49.028 141.053 48.328 140.941 47.768C140.829 47.208 140.661 46.76 140.465 46.452C140.269 46.144 140.045 45.976 139.765 45.976C139.457 45.976 139.205 46.144 139.009 46.452C138.813 46.76 138.645 47.208 138.533 47.768C138.421 48.328 138.337 49.028 138.281 49.812C138.225 50.596 138.225 51.492 138.225 52.444ZM146.793 52.444C146.793 53.172 146.737 53.872 146.625 54.488H149.089V50.12H146.597C146.653 50.512 146.681 50.876 146.737 51.268C146.765 51.66 146.793 52.052 146.793 52.444ZM175.688 43.624C175.548 43.96 175.464 44.324 175.436 44.716C175.408 45.136 175.408 45.584 175.408 46.06V49.784H176.696V45.248C176.696 44.828 176.668 44.38 176.668 43.932C176.64 43.484 176.612 43.036 176.556 42.56C176.948 42.448 177.424 42.336 177.984 42.224C178.516 42.112 179.048 42.028 179.58 42.028C180.084 42.028 180.56 42.14 181.008 42.336C181.456 42.56 181.792 42.924 182.016 43.484C181.792 43.82 181.652 44.212 181.54 44.688C181.428 45.192 181.372 45.612 181.372 45.948V54.908C181.372 55.244 181.316 55.58 181.232 55.888C181.12 56.196 180.924 56.448 180.616 56.672C180.28 56.896 179.832 57.036 179.216 57.12C178.6 57.232 177.76 57.204 176.696 57.092V51.8H175.408V54.46C175.408 54.796 175.352 55.104 175.268 55.384C175.184 55.692 174.988 55.944 174.68 56.168C174.372 56.392 173.924 56.532 173.308 56.616C172.692 56.728 171.88 56.7 170.872 56.588V45.556C170.872 45.108 170.844 44.688 170.844 44.24C170.816 43.792 170.788 43.344 170.732 42.868C171.068 42.756 171.46 42.644 171.936 42.504C172.384 42.392 172.86 42.308 173.336 42.308C173.812 42.308 174.26 42.392 174.68 42.56C175.1 42.756 175.436 43.12 175.688 43.624ZM163.76 62.328C163.76 60.872 164.488 59.724 165.972 58.884C167.456 58.044 169.556 57.596 172.272 57.596C174.988 57.596 177.088 58.044 178.544 58.884C180 59.724 180.756 60.872 180.756 62.328C180.756 63.812 180 64.988 178.544 65.828C177.088 66.696 174.988 67.116 172.272 67.116C169.528 67.116 167.428 66.696 165.972 65.828C164.488 64.988 163.76 63.812 163.76 62.328ZM158.888 52.64C158.888 51.8 159.056 51.128 159.392 50.568C159.728 50.008 160.176 49.588 160.736 49.252C161.268 48.916 161.856 48.692 162.5 48.552C163.144 48.44 163.76 48.356 164.376 48.356C164.936 48.356 165.552 48.44 166.196 48.552C166.84 48.692 167.428 48.916 167.96 49.252C168.492 49.588 168.94 50.008 169.276 50.568C169.612 51.128 169.808 51.8 169.808 52.64C169.808 53.48 169.612 54.18 169.276 54.74C168.94 55.3 168.492 55.72 167.96 56.056C167.428 56.392 166.84 56.644 166.196 56.756C165.552 56.896 164.936 56.952 164.376 56.952C163.76 56.952 163.144 56.896 162.5 56.756C161.856 56.644 161.268 56.392 160.736 56.056C160.176 55.72 159.728 55.3 159.392 54.74C159.056 54.18 158.888 53.48 158.888 52.64ZM157.684 45.276C158.02 45.276 158.356 45.304 158.636 45.304C158.916 45.304 159.196 45.332 159.476 45.332C159.728 45.36 160.008 45.388 160.288 45.416C160.568 45.444 160.876 45.472 161.24 45.5H166.42C167.008 45.136 167.484 44.884 167.876 44.772C168.268 44.66 168.66 44.604 169.052 44.632C169.36 44.66 169.584 44.772 169.752 44.94C169.92 45.136 170.004 45.388 170.06 45.668C170.088 45.948 170.088 46.284 170.06 46.648C170.004 47.012 169.948 47.376 169.892 47.74C169.724 47.684 169.5 47.656 169.22 47.6C168.912 47.572 168.632 47.544 168.408 47.544H161.772C161.604 47.544 161.408 47.6 161.184 47.712C160.96 47.824 160.708 47.908 160.456 48.02C160.204 48.132 159.952 48.244 159.7 48.356C159.42 48.468 159.168 48.496 158.944 48.496C158.552 48.496 158.272 48.384 158.104 48.132C157.908 47.88 157.796 47.572 157.768 47.18L157.684 45.276ZM169.164 62.328C169.164 63.14 169.444 63.812 170.004 64.316C170.564 64.82 171.32 65.072 172.272 65.072C173.168 65.072 173.924 64.82 174.484 64.316C175.044 63.812 175.352 63.14 175.352 62.328C175.352 61.544 175.044 60.9 174.484 60.396C173.924 59.892 173.168 59.64 172.272 59.64C171.32 59.64 170.564 59.892 170.004 60.396C169.444 60.9 169.164 61.544 169.164 62.328ZM160.708 42.588C160.708 42.196 160.82 41.86 161.1 41.552C161.352 41.244 161.716 41.076 162.22 41.076C162.5 41.076 162.696 41.104 162.864 41.16C163.004 41.216 163.172 41.272 163.368 41.328C163.536 41.384 163.788 41.44 164.124 41.496C164.432 41.552 164.908 41.552 165.58 41.552C166.056 41.552 166.448 41.748 166.756 42.112C167.036 42.476 167.232 43.064 167.316 43.904C166.364 44.296 165.356 44.576 164.32 44.716C163.284 44.884 162.248 44.772 161.212 44.38C161.044 44.156 160.932 43.876 160.848 43.54C160.736 43.232 160.708 42.924 160.708 42.588ZM163.424 52.64C163.424 53.312 163.48 53.872 163.592 54.292C163.704 54.712 163.984 54.908 164.376 54.908C164.74 54.908 164.992 54.712 165.104 54.292C165.216 53.872 165.3 53.312 165.3 52.64C165.3 51.968 165.216 51.436 165.104 51.016C164.992 50.624 164.74 50.4 164.376 50.4C163.984 50.4 163.704 50.624 163.592 51.016C163.48 51.436 163.424 51.968 163.424 52.64ZM192.011 59.276C192.879 58.492 193.719 57.624 194.531 56.672C195.343 55.72 195.987 54.74 196.435 53.732C196.883 53.9 197.359 54.096 197.807 54.32C198.255 54.544 198.619 54.796 198.955 55.076C199.291 55.356 199.543 55.692 199.739 56.056C199.907 56.448 199.991 56.868 199.963 57.344C199.739 57.568 199.459 57.82 199.151 58.156C198.815 58.492 198.479 58.856 198.115 59.22C197.751 59.584 197.387 59.92 197.023 60.256C196.631 60.592 196.295 60.816 195.987 60.984C195.679 61.152 195.399 61.236 195.119 61.264C194.839 61.32 194.559 61.264 194.279 61.124C193.971 61.012 193.635 60.788 193.271 60.48C192.907 60.2 192.487 59.78 192.011 59.276ZM197.891 46.844C197.667 48.132 197.247 49.504 196.631 50.904C195.987 52.332 195.231 53.676 194.335 54.964C193.439 56.252 192.487 57.428 191.423 58.464C190.359 59.528 189.323 60.312 188.259 60.872C187.979 61.04 187.671 61.124 187.335 61.124C186.999 61.124 186.635 61.068 186.271 60.9C185.907 60.732 185.543 60.48 185.207 60.116C184.843 59.752 184.507 59.248 184.171 58.632C185.347 57.876 186.439 56.952 187.419 55.86C188.399 54.768 189.239 53.648 189.939 52.528C190.639 51.408 191.199 50.316 191.591 49.252C191.983 48.216 192.179 47.348 192.179 46.676H189.575C189.183 46.9 188.903 47.18 188.707 47.544C188.483 47.908 188.343 48.3 188.259 48.692C187.587 48.692 187.027 48.608 186.579 48.44C186.103 48.272 185.711 48.02 185.403 47.74C185.095 47.46 184.871 47.18 184.731 46.844C184.591 46.508 184.535 46.2 184.535 45.892C184.535 45.528 184.619 45.22 184.843 44.94C185.039 44.688 185.347 44.548 185.739 44.548H192.263C192.683 44.436 193.215 44.324 193.887 44.184C194.531 44.072 195.147 43.988 195.707 43.988C196.295 43.988 196.855 44.1 197.359 44.324C197.863 44.548 198.227 44.94 198.479 45.528C198.367 45.696 198.255 45.864 198.143 46.088C198.003 46.312 197.919 46.564 197.891 46.844ZM206.823 63.532C206.823 63.868 206.767 64.204 206.655 64.54C206.543 64.876 206.291 65.128 205.927 65.352C205.535 65.576 205.003 65.744 204.303 65.828C203.575 65.94 202.623 65.912 201.447 65.8V45.444C201.447 44.996 201.419 44.52 201.419 44.044C201.391 43.568 201.335 43.092 201.279 42.588C201.755 42.476 202.287 42.336 202.903 42.224C203.491 42.112 204.135 42.028 204.807 42.028C205.255 42.028 205.619 42.084 205.955 42.196C206.263 42.308 206.515 42.42 206.739 42.588C206.963 42.756 207.131 42.924 207.243 43.092C207.355 43.26 207.439 43.428 207.495 43.568C207.271 43.904 207.103 44.352 206.991 44.856C206.879 45.36 206.823 45.808 206.823 46.172V63.532ZM45.774 89.9C45.984 89.732 46.222 89.606 46.502 89.522C46.782 89.438 47.076 89.396 47.384 89.396C47.846 89.396 48.196 89.48 48.448 89.634C48.686 89.802 48.812 90.04 48.812 90.376C48.784 90.516 48.77 90.684 48.77 90.88C48.756 91.09 48.756 91.286 48.756 91.468V96.69C48.756 96.858 48.728 97.026 48.672 97.194C48.616 97.362 48.49 97.488 48.294 97.6C48.098 97.712 47.832 97.796 47.468 97.838C47.104 97.894 46.628 97.88 46.04 97.824H44.374C44.178 97.866 44.01 97.894 43.856 97.908C43.702 97.936 43.562 97.936 43.422 97.936C42.694 97.936 42.26 97.684 42.12 97.18C42.162 97.068 42.19 96.928 42.218 96.788C42.232 96.648 42.246 96.494 42.246 96.326V91.356C42.12 91.244 42.008 91.09 41.924 90.866C41.826 90.642 41.77 90.46 41.77 90.292C41.98 90.068 42.246 89.914 42.554 89.816C42.862 89.732 43.184 89.676 43.492 89.676C43.884 89.676 44.22 89.76 44.514 89.928C44.808 90.096 44.962 90.348 44.962 90.684V93.092H46.04V90.922C45.956 90.782 45.9 90.628 45.858 90.46C45.816 90.306 45.788 90.124 45.774 89.9ZM53.488 94.52C53.432 94.394 53.362 94.31 53.25 94.268C53.138 94.24 53.026 94.212 52.942 94.212L52.522 94.24V99.266C52.522 99.434 52.494 99.602 52.438 99.77C52.382 99.938 52.256 100.064 52.074 100.176C51.878 100.288 51.612 100.372 51.262 100.414C50.898 100.47 50.422 100.456 49.834 100.4V90.222C49.834 89.998 49.82 89.76 49.82 89.522C49.806 89.284 49.778 89.046 49.75 88.794C49.988 88.738 50.254 88.668 50.562 88.612C50.856 88.556 51.178 88.514 51.514 88.514C51.738 88.514 51.92 88.542 52.088 88.598C52.242 88.654 52.368 88.71 52.48 88.794C52.592 88.878 52.676 88.962 52.732 89.046C52.788 89.13 52.83 89.214 52.858 89.284C52.746 89.452 52.662 89.676 52.606 89.928C52.55 90.18 52.522 90.404 52.522 90.586V93.204L53.866 93.148C54.048 93.148 54.174 93.19 54.258 93.288C54.328 93.4 54.37 93.512 54.37 93.638C54.37 93.862 54.286 94.058 54.132 94.24C53.964 94.436 53.754 94.52 53.488 94.52ZM44.962 96.816H46.04V94.1H44.962V96.816ZM58.2335 90.348C58.0935 90.404 57.9955 90.46 57.9115 90.53C57.8275 90.6 57.7715 90.698 57.7435 90.81C57.3515 90.81 57.0575 90.726 56.8335 90.558C56.6095 90.404 56.4555 90.236 56.3995 90.054C56.3435 89.872 56.3575 89.704 56.4555 89.55C56.5535 89.396 56.7495 89.312 57.0295 89.312H62.5035C62.8535 89.256 63.1895 89.214 63.4975 89.172C63.8055 89.13 64.0715 89.116 64.3235 89.13C64.5755 89.144 64.7855 89.2 64.9675 89.298C65.1495 89.41 65.2895 89.564 65.4015 89.788C65.2895 89.956 65.2335 90.11 65.2195 90.25C65.2055 90.39 65.2055 90.558 65.2055 90.74V91.874C65.2055 92.042 65.1775 92.21 65.1215 92.378C65.0655 92.546 64.9395 92.672 64.7575 92.784C64.5615 92.896 64.2955 92.98 63.9315 93.022C63.5675 93.078 63.0915 93.064 62.5035 93.008H59.4375V94.8H63.3575C63.6655 94.674 63.9455 94.576 64.2115 94.492C64.4775 94.422 64.7295 94.394 64.9675 94.408C65.1915 94.422 65.3455 94.478 65.4435 94.576C65.5275 94.674 65.5835 94.8 65.5975 94.94C65.6115 95.08 65.5975 95.248 65.5695 95.416C65.5275 95.584 65.4855 95.752 65.4435 95.892C65.3595 95.864 65.2475 95.85 65.0795 95.85C64.9115 95.85 64.7575 95.836 64.6455 95.836H62.2935V97.95H64.6595C65.0375 97.754 65.3595 97.628 65.6395 97.544C65.9195 97.46 66.1575 97.432 66.3535 97.446C66.5775 97.474 66.7315 97.53 66.8295 97.628C66.9275 97.726 66.9835 97.852 67.0115 98.006C67.0395 98.16 67.0255 98.328 66.9975 98.51C66.9695 98.706 66.9275 98.888 66.8855 99.07C66.8015 99.042 66.6755 99.028 66.5075 99C66.3255 98.986 66.1715 98.972 66.0315 98.972H57.1695C57.0575 98.972 56.9315 99 56.7775 99.056C56.6235 99.112 56.4695 99.182 56.3015 99.238C56.1335 99.308 55.9515 99.364 55.7835 99.42C55.6155 99.476 55.4615 99.504 55.3215 99.504C55.0975 99.504 54.9295 99.434 54.8175 99.294C54.7055 99.154 54.6495 98.986 54.6355 98.79L54.5795 97.838C54.9995 97.838 55.3915 97.852 55.7275 97.866C56.0635 97.894 56.4275 97.922 56.8475 97.95H59.6055V95.836H59.4375C59.2135 95.878 58.9615 95.906 58.6815 95.934C58.4015 95.962 58.1355 95.962 57.8975 95.962C57.1835 95.962 56.7495 95.71 56.6095 95.206C56.6515 95.094 56.6795 94.968 56.7075 94.828C56.7215 94.688 56.7355 94.548 56.7355 94.38V93.232C56.4555 92.98 56.3155 92.7 56.3015 92.364C56.5115 92.14 56.7635 92.014 57.0715 91.958C57.3655 91.902 57.6735 91.874 57.9815 91.874C58.0655 91.874 58.1915 91.888 58.3315 91.888C58.4715 91.902 58.6255 91.916 58.7655 91.93C58.9055 91.958 59.0455 91.972 59.1715 91.986C59.2835 92.014 59.3815 92.028 59.4375 92.042H62.5035V90.348H58.2335ZM79.6669 94.52C79.6109 94.394 79.5409 94.31 79.4289 94.268C79.3169 94.24 79.2049 94.212 79.1209 94.212L78.7009 94.24V99.266C78.7009 99.434 78.6729 99.602 78.6169 99.77C78.5609 99.938 78.4349 100.064 78.2529 100.176C78.0569 100.288 77.7909 100.372 77.4409 100.414C77.0769 100.47 76.6009 100.456 76.0129 100.4V90.222C76.0129 89.998 75.9989 89.76 75.9989 89.522C75.9849 89.284 75.9569 89.046 75.9289 88.794C76.1669 88.738 76.4329 88.668 76.7409 88.612C77.0349 88.556 77.3569 88.514 77.6929 88.514C77.9169 88.514 78.0989 88.542 78.2669 88.598C78.4209 88.654 78.5469 88.71 78.6589 88.794C78.7709 88.878 78.8549 88.962 78.9109 89.046C78.9669 89.13 79.0089 89.214 79.0369 89.284C78.9249 89.452 78.8409 89.676 78.7849 89.928C78.7289 90.18 78.7009 90.404 78.7009 90.586V93.204L80.0449 93.148C80.2269 93.148 80.3529 93.19 80.4369 93.288C80.5069 93.4 80.5489 93.512 80.5489 93.638C80.5489 93.862 80.4649 94.058 80.3109 94.24C80.1429 94.436 79.9329 94.52 79.6669 94.52ZM74.7669 91.44C74.7109 92.056 74.5709 92.7 74.3469 93.4C74.1229 94.1 73.8149 94.758 73.4229 95.374C73.0309 95.99 72.5689 96.55 72.0369 97.026C71.4909 97.516 70.8749 97.852 70.2029 98.034C70.0489 98.09 69.8809 98.104 69.7129 98.104C69.5449 98.104 69.3629 98.048 69.1809 97.964C68.9989 97.88 68.8169 97.754 68.6489 97.586C68.4669 97.418 68.2989 97.166 68.1309 96.858C68.7889 96.648 69.3769 96.326 69.8809 95.892C70.3849 95.458 70.8189 94.968 71.1549 94.408C71.4909 93.848 71.7429 93.274 71.9109 92.658C72.0789 92.042 72.1489 91.454 72.1209 90.894H70.7069C70.5109 91.006 70.3709 91.146 70.2729 91.328C70.1609 91.51 70.0909 91.706 70.0489 91.902C69.7129 91.902 69.4329 91.86 69.2089 91.776C68.9709 91.692 68.7749 91.594 68.6209 91.454C68.4669 91.314 68.3549 91.174 68.2849 91.006C68.2149 90.852 68.1869 90.698 68.1869 90.544C68.1869 90.362 68.2289 90.208 68.3409 90.068C68.4389 89.942 68.5929 89.872 68.7889 89.872H72.0229C72.2329 89.816 72.4989 89.76 72.8349 89.69C73.1569 89.634 73.4649 89.592 73.7449 89.592C74.0389 89.592 74.3189 89.648 74.5709 89.76C74.8229 89.872 75.0049 90.068 75.1309 90.362C75.0609 90.474 74.9909 90.614 74.9349 90.796C74.8649 90.992 74.8089 91.202 74.7669 91.44ZM88.0804 91.44C88.0244 92.056 87.8844 92.7 87.6604 93.4C87.4224 94.1 87.1004 94.758 86.7084 95.374C86.3024 95.99 85.8264 96.55 85.2804 97.026C84.7204 97.516 84.1044 97.852 83.4324 98.034C83.2784 98.09 83.1104 98.104 82.9424 98.104C82.7744 98.104 82.5924 98.048 82.4104 97.964C82.2284 97.88 82.0464 97.754 81.8784 97.586C81.6964 97.418 81.5284 97.166 81.3604 96.858C82.0184 96.648 82.6064 96.326 83.1244 95.892C83.6424 95.472 84.0764 94.982 84.4264 94.436C84.7764 93.89 85.0424 93.316 85.2104 92.7C85.3784 92.084 85.4624 91.496 85.4344 90.936H83.9364C83.7404 91.048 83.6004 91.188 83.5024 91.37C83.3904 91.552 83.3204 91.748 83.2784 91.944C82.9424 91.944 82.6624 91.902 82.4384 91.818C82.2004 91.734 82.0044 91.608 81.8504 91.468C81.6964 91.328 81.5844 91.188 81.5144 91.02C81.4444 90.852 81.4164 90.698 81.4164 90.544C81.4164 90.362 81.4584 90.208 81.5704 90.068C81.6684 89.942 81.8224 89.872 82.0184 89.872H85.3364C85.5464 89.816 85.8124 89.76 86.1484 89.69C86.4704 89.634 86.7784 89.592 87.0584 89.592C87.3524 89.592 87.6324 89.648 87.8844 89.76C88.1364 89.872 88.3184 90.068 88.4444 90.362C88.3744 90.474 88.3044 90.614 88.2484 90.796C88.1784 90.992 88.1224 91.202 88.0804 91.44ZM92.2804 99.266C92.2804 99.434 92.2524 99.602 92.1964 99.77C92.1404 99.938 92.0144 100.064 91.8324 100.176C91.6364 100.288 91.3704 100.372 91.0204 100.414C90.6564 100.47 90.1804 100.456 89.5924 100.4V90.222C89.5924 89.998 89.5784 89.76 89.5784 89.522C89.5644 89.284 89.5364 89.046 89.5084 88.794C89.7464 88.738 90.0124 88.668 90.3204 88.612C90.6144 88.556 90.9364 88.514 91.2724 88.514C91.4964 88.514 91.6784 88.542 91.8464 88.598C92.0004 88.654 92.1264 88.71 92.2384 88.794C92.3504 88.878 92.4344 88.962 92.4904 89.046C92.5464 89.13 92.5884 89.214 92.6164 89.284C92.5044 89.452 92.4204 89.676 92.3644 89.928C92.3084 90.18 92.2804 90.404 92.2804 90.586V99.266ZM100.55 94.632L96.574 89.06H99.304L103.364 94.632L99.304 100.19H96.574L100.55 94.632Z" fill="#B2A374"/>
</g>
<path d="M5 261H359V281C359 292.046 350.046 301 339 301H25C13.9543 301 5 292.046 5 281V261Z" fill="#022336"/>
<ellipse cx="274.609" cy="279.385" rx="24.4173" ry="3.61446" fill="#868686" fill-opacity="0.4"/>
<path d="M291.702 216.735C291.702 226.051 284.05 233.602 274.61 233.602C265.17 233.602 257.518 226.051 257.518 216.735C257.518 207.419 265.17 199.867 274.61 199.867C284.05 199.867 291.702 207.419 291.702 216.735Z" fill="#033522"/>
<path d="M274.001 183C256.115 183 241.648 198.084 241.648 216.735C241.648 242.036 274.001 279.386 274.001 279.386C274.001 279.386 306.354 242.036 306.354 216.735C306.354 198.084 291.888 183 274.001 183ZM274.001 228.783C267.623 228.783 262.447 223.386 262.447 216.735C262.447 210.084 267.623 204.687 274.001 204.687C280.38 204.687 285.556 210.084 285.556 216.735C285.556 223.386 280.38 228.783 274.001 228.783Z" fill="#F0681C"/>
<defs>
<filter id="filter0_d_1_472" x="0" y="0" width="364" height="310" filterUnits="userSpaceOnUse" color-interpolation-filters="sRGB">
<feFlood flood-opacity="0" result="BackgroundImageFix"/>
<feColorMatrix in="SourceAlpha" type="matrix" values="0 0 0 0 0 0 0 0 0 0 0 0 0 0 0 0 0 0 127 0" result="hardAlpha"/>
<feOffset dy="4"/>
<feGaussianBlur stdDeviation="2"/>
<feComposite in2="hardAlpha" operator="out"/>
<feColorMatrix type="matrix" values="0 0 0 0 0 0 0 0 0 0 0 0 0 0 0 0 0 0 0.25 0"/>
<feBlend mode="normal" in2="BackgroundImageFix" result="effect1_dropShadow_1_472"/>
<feBlend mode="normal" in="SourceGraphic" in2="effect1_dropShadow_1_472" result="shape"/>
</filter>
</defs>
</svg>
