<svg width="562" height="54" viewBox="0 0 562 54" fill="none" xmlns="http://www.w3.org/2000/svg">
<rect width="562" height="54" rx="27" fill="#FF5C00"/>
<path d="M196 19C193.236 19 191 20.904 191 24C191 28.2 196 35 196 35C196 35 201 28.2 201 24C201 20.904 198.764 19 196 19Z" fill="white"/>
<circle cx="196" cy="24" r="2" fill="#FF5C00"/>
<path d="M223.487 19.736C223.487 19.6827 223.508 19.6347 223.551 19.592C223.604 19.5493 223.663 19.528 223.727 19.528H225.087C225.236 19.528 225.311 19.5973 225.311 19.736V34.504C225.311 34.6427 225.236 34.712 225.087 34.712H223.711C223.658 34.712 223.604 34.6907 223.551 34.648C223.508 34.6053 223.487 34.5573 223.487 34.504V26.936H221.967V33.896C221.967 33.96 221.94 34.0133 221.887 34.056C221.844 34.0987 221.796 34.12 221.743 34.12H220.447C220.383 34.12 220.324 34.0987 220.271 34.056C220.228 34.0133 220.207 33.96 220.207 33.896V20.024C220.207 19.9707 220.228 19.9227 220.271 19.88C220.324 19.8373 220.383 19.816 220.447 19.816H221.743C221.796 19.816 221.844 19.8373 221.887 19.88C221.94 19.9227 221.967 19.9707 221.967 20.024V25.4H223.487V19.736ZM219.679 29.48C219.69 29.5547 219.668 29.6133 219.615 29.656C219.562 29.688 219.498 29.7147 219.423 29.736C219.05 29.8427 218.634 29.9387 218.175 30.024C217.727 30.0987 217.258 30.1573 216.767 30.2C216.287 30.2427 215.807 30.2747 215.327 30.296C214.858 30.3067 214.415 30.3013 213.999 30.28C213.615 30.2587 213.322 30.1467 213.119 29.944C212.916 29.7307 212.815 29.4427 212.815 29.08V20.84C212.815 20.7867 212.836 20.7387 212.879 20.696C212.932 20.6427 212.991 20.616 213.055 20.616H214.383C214.447 20.616 214.506 20.6427 214.559 20.696C214.612 20.7387 214.639 20.7867 214.639 20.84V28.472C214.639 28.632 214.735 28.7173 214.927 28.728C215.194 28.76 215.498 28.7707 215.839 28.76C216.191 28.7493 216.554 28.7227 216.927 28.68C217.311 28.6373 217.695 28.584 218.079 28.52C218.474 28.456 218.847 28.3813 219.199 28.296C219.252 28.2853 219.316 28.2907 219.391 28.312C219.466 28.3333 219.508 28.3867 219.519 28.472L219.679 29.48ZM230.698 27.832C230.634 27.832 230.581 27.8053 230.538 27.752C230.496 27.6987 230.474 27.64 230.474 27.576V26.536C230.474 26.472 230.496 26.4187 230.538 26.376C230.581 26.3227 230.634 26.296 230.698 26.296H240.506C240.57 26.0187 240.624 25.6827 240.666 25.288C240.72 24.8827 240.762 24.472 240.794 24.056C240.837 23.64 240.869 23.2453 240.89 22.872C240.912 22.488 240.922 22.184 240.922 21.96C240.922 21.8107 240.885 21.7147 240.81 21.672C240.736 21.6293 240.624 21.608 240.474 21.608H233.018C232.965 21.608 232.912 21.592 232.858 21.56C232.805 21.5173 232.778 21.4693 232.778 21.416V20.312C232.778 20.2373 232.805 20.184 232.858 20.152C232.912 20.12 232.965 20.104 233.018 20.104H241.658C242 20.104 242.261 20.1947 242.442 20.376C242.624 20.5573 242.714 20.8453 242.714 21.24C242.714 21.496 242.704 21.832 242.682 22.248C242.661 22.664 242.629 23.112 242.586 23.592C242.544 24.0613 242.49 24.536 242.426 25.016C242.373 25.496 242.309 25.9227 242.234 26.296H244.634C244.688 26.296 244.741 26.3227 244.794 26.376C244.848 26.4293 244.874 26.4827 244.874 26.536V27.576C244.874 27.6293 244.848 27.688 244.794 27.752C244.741 27.8053 244.688 27.832 244.634 27.832H230.698ZM243.098 34.088C243.098 34.2267 243.029 34.296 242.89 34.296H233.946C233.466 34.296 233.141 34.2053 232.97 34.024C232.81 33.8533 232.73 33.56 232.73 33.144V29.448C232.73 29.3947 232.752 29.3413 232.794 29.288C232.848 29.2347 232.901 29.208 232.954 29.208H234.33C234.394 29.208 234.448 29.2347 234.49 29.288C234.544 29.3413 234.57 29.3947 234.57 29.448V32.488C234.57 32.6053 234.592 32.68 234.634 32.712C234.677 32.744 234.757 32.76 234.874 32.76H242.858C242.912 32.76 242.965 32.7813 243.018 32.824C243.072 32.856 243.098 32.8987 243.098 32.952V34.088ZM246.545 31.24C246.46 31.2827 246.369 31.304 246.273 31.304C246.188 31.2933 246.119 31.2507 246.065 31.176L245.569 30.408C245.495 30.2907 245.473 30.184 245.505 30.088C245.548 29.9813 245.607 29.912 245.681 29.88C246.268 29.56 246.833 29.208 247.377 28.824C247.932 28.44 248.439 28.0293 248.897 27.592C249.356 27.1547 249.761 26.7013 250.113 26.232C250.476 25.752 250.759 25.2613 250.961 24.76C251.025 24.6107 251.063 24.504 251.073 24.44C251.084 24.3653 250.961 24.328 250.705 24.328H246.545C246.471 24.328 246.412 24.3013 246.369 24.248C246.337 24.1947 246.321 24.136 246.321 24.072V23.016C246.321 22.8667 246.401 22.792 246.561 22.792H251.953C252.412 22.792 252.732 22.8773 252.913 23.048C253.095 23.2187 253.185 23.4 253.185 23.592C253.185 23.848 253.137 24.12 253.041 24.408C252.647 25.4 252.145 26.312 251.537 27.144C251.74 27.3573 251.964 27.576 252.209 27.8C252.455 28.024 252.705 28.2427 252.961 28.456C253.217 28.6693 253.473 28.872 253.729 29.064C253.996 29.256 254.241 29.4213 254.465 29.56C254.551 29.6133 254.588 29.6827 254.577 29.768C254.567 29.8533 254.535 29.9387 254.481 30.024L253.905 30.872C253.852 30.9253 253.783 30.9627 253.697 30.984C253.623 30.9947 253.532 30.968 253.425 30.904C253.223 30.7867 252.993 30.632 252.737 30.44C252.481 30.248 252.22 30.04 251.953 29.816C251.687 29.5813 251.42 29.3413 251.153 29.096C250.897 28.8507 250.668 28.616 250.465 28.392C249.399 29.48 248.092 30.4293 246.545 31.24ZM258.129 34.504C258.129 34.6427 258.06 34.712 257.921 34.712H256.497C256.359 34.712 256.289 34.6427 256.289 34.504V27.384H253.841C253.788 27.384 253.735 27.368 253.681 27.336C253.639 27.2933 253.617 27.2453 253.617 27.192V26.056C253.617 26.0027 253.639 25.9547 253.681 25.912C253.735 25.8693 253.788 25.848 253.841 25.848H256.289V19.736C256.289 19.5973 256.359 19.528 256.497 19.528H257.921C258.06 19.528 258.129 19.5973 258.129 19.736V34.504ZM252.177 21.448C252.177 21.512 252.151 21.5707 252.097 21.624C252.055 21.6773 251.996 21.704 251.921 21.704H247.761C247.719 21.704 247.665 21.6827 247.601 21.64C247.548 21.5973 247.521 21.5387 247.521 21.464V20.488C247.521 20.4133 247.548 20.3547 247.601 20.312C247.665 20.2693 247.719 20.248 247.761 20.248H251.921C251.985 20.248 252.044 20.2747 252.097 20.328C252.151 20.3813 252.177 20.44 252.177 20.504V21.448ZM268.636 31.048C268.028 31.048 267.479 30.92 266.988 30.664C266.508 30.3973 266.103 30.0347 265.772 29.576C265.442 29.1067 265.186 28.5467 265.004 27.896C264.834 27.2453 264.748 26.5307 264.748 25.752C264.748 24.952 264.834 24.2267 265.004 23.576C265.186 22.9253 265.442 22.3707 265.772 21.912C266.103 21.4533 266.508 21.1013 266.988 20.856C267.479 20.6 268.028 20.472 268.636 20.472C269.372 20.472 270.012 20.648 270.556 21C271.111 21.352 271.548 21.848 271.868 22.488H275.004V19.736C275.004 19.5973 275.074 19.528 275.212 19.528H276.636C276.775 19.528 276.844 19.5973 276.844 19.736V34.504C276.844 34.6427 276.775 34.712 276.636 34.712H275.212C275.074 34.712 275.004 34.6427 275.004 34.504V28.872H271.932C271.623 29.5653 271.186 30.104 270.62 30.488C270.066 30.8613 269.404 31.048 268.636 31.048ZM270.748 25.752C270.748 25.2613 270.7 24.7973 270.604 24.36C270.519 23.912 270.386 23.5227 270.204 23.192C270.034 22.8613 269.815 22.6 269.548 22.408C269.282 22.2053 268.978 22.104 268.636 22.104C268.306 22.104 268.007 22.2053 267.74 22.408C267.484 22.6 267.266 22.8613 267.084 23.192C266.914 23.5227 266.78 23.912 266.684 24.36C266.599 24.7973 266.556 25.2613 266.556 25.752C266.556 26.232 266.599 26.696 266.684 27.144C266.78 27.5813 266.914 27.9707 267.084 28.312C267.266 28.6427 267.484 28.9093 267.74 29.112C268.007 29.3147 268.306 29.416 268.636 29.416C268.978 29.416 269.282 29.3147 269.548 29.112C269.815 28.9093 270.034 28.6427 270.204 28.312C270.386 27.9707 270.519 27.5813 270.604 27.144C270.7 26.696 270.748 26.232 270.748 25.752ZM272.38 23.992C272.498 24.5573 272.556 25.144 272.556 25.752C272.556 26.3493 272.508 26.888 272.412 27.368H275.004V23.992H272.38ZM290.259 19.736C290.259 19.5973 290.334 19.528 290.483 19.528H291.859C291.998 19.528 292.067 19.5973 292.067 19.736V28.744C292.067 28.8827 291.998 28.952 291.859 28.952H290.467C290.329 28.952 290.259 28.8827 290.259 28.744V25.304H288.883V28.248C288.883 28.3973 288.814 28.472 288.675 28.472H287.347C287.198 28.472 287.123 28.3973 287.123 28.248V19.992C287.123 19.8533 287.198 19.784 287.347 19.784H288.675C288.814 19.784 288.883 19.8533 288.883 19.992V23.768H290.259V19.736ZM290.307 31.976C290.307 31.784 290.222 31.608 290.051 31.448C289.891 31.2773 289.662 31.1333 289.363 31.016C289.075 30.888 288.729 30.792 288.323 30.728C287.929 30.6533 287.491 30.616 287.011 30.616C286.531 30.616 286.089 30.6533 285.683 30.728C285.289 30.792 284.947 30.888 284.659 31.016C284.371 31.1333 284.142 31.2773 283.971 31.448C283.811 31.608 283.731 31.784 283.731 31.976C283.731 32.1467 283.811 32.312 283.971 32.472C284.142 32.6213 284.371 32.7547 284.659 32.872C284.947 32.9893 285.289 33.08 285.683 33.144C286.089 33.2187 286.531 33.256 287.011 33.256C287.491 33.256 287.929 33.2187 288.323 33.144C288.729 33.08 289.075 32.9893 289.363 32.872C289.662 32.7547 289.891 32.6213 290.051 32.472C290.222 32.312 290.307 32.1467 290.307 31.976ZM292.195 31.928C292.195 32.344 292.062 32.7227 291.795 33.064C291.529 33.4053 291.161 33.6933 290.691 33.928C290.222 34.1733 289.673 34.36 289.043 34.488C288.414 34.616 287.737 34.68 287.011 34.68C286.286 34.68 285.609 34.616 284.979 34.488C284.35 34.36 283.801 34.1733 283.331 33.928C282.862 33.6933 282.494 33.4053 282.227 33.064C281.961 32.7227 281.827 32.344 281.827 31.928C281.827 31.512 281.961 31.1387 282.227 30.808C282.494 30.4667 282.862 30.1787 283.331 29.944C283.801 29.6987 284.35 29.512 284.979 29.384C285.609 29.256 286.286 29.192 287.011 29.192C287.737 29.192 288.414 29.256 289.043 29.384C289.673 29.512 290.222 29.6987 290.691 29.944C291.161 30.1787 291.529 30.4667 291.795 30.808C292.062 31.1387 292.195 31.512 292.195 31.928ZM286.339 23.032C286.339 23.096 286.313 23.1547 286.259 23.208C286.217 23.2507 286.163 23.272 286.099 23.272H279.235C279.182 23.272 279.129 23.2453 279.075 23.192C279.022 23.1387 278.995 23.08 278.995 23.016V22.136C278.995 22.0827 279.022 22.0293 279.075 21.976C279.139 21.9227 279.198 21.896 279.251 21.896H286.099C286.163 21.896 286.217 21.9227 286.259 21.976C286.313 22.0187 286.339 22.072 286.339 22.136V23.032ZM284.739 20.968C284.739 21.0427 284.713 21.1067 284.659 21.16C284.617 21.2133 284.558 21.24 284.483 21.24H281.027C280.985 21.24 280.931 21.2187 280.867 21.176C280.814 21.1333 280.787 21.0747 280.787 21V20.088C280.787 20.0133 280.814 19.9547 280.867 19.912C280.931 19.8693 280.985 19.848 281.027 19.848H284.483C284.547 19.848 284.606 19.8747 284.659 19.928C284.713 19.9813 284.739 20.04 284.739 20.104V20.968ZM282.755 25.16C282.297 25.16 281.945 25.2773 281.699 25.512C281.454 25.7467 281.331 26.0187 281.331 26.328C281.331 26.6373 281.454 26.9147 281.699 27.16C281.945 27.4053 282.297 27.528 282.755 27.528C283.203 27.528 283.55 27.4053 283.795 27.16C284.041 26.9147 284.163 26.6373 284.163 26.328C284.163 26.0187 284.041 25.7467 283.795 25.512C283.55 25.2773 283.203 25.16 282.755 25.16ZM282.755 23.784C283.225 23.784 283.646 23.8533 284.019 23.992C284.403 24.12 284.729 24.3013 284.995 24.536C285.273 24.7707 285.481 25.0427 285.619 25.352C285.769 25.6507 285.843 25.9653 285.843 26.296C285.843 26.6373 285.769 26.9627 285.619 27.272C285.481 27.5813 285.273 27.8587 284.995 28.104C284.729 28.3387 284.403 28.5253 284.019 28.664C283.635 28.8027 283.203 28.872 282.723 28.872C282.254 28.872 281.833 28.8027 281.459 28.664C281.086 28.5253 280.761 28.344 280.483 28.12C280.217 27.8853 280.009 27.6133 279.859 27.304C279.721 26.9947 279.651 26.6693 279.651 26.328C279.651 25.9973 279.721 25.6773 279.859 25.368C280.009 25.0587 280.217 24.7867 280.483 24.552C280.761 24.3173 281.091 24.1307 281.475 23.992C281.859 23.8533 282.286 23.784 282.755 23.784ZM294.634 30.856C294.549 30.9093 294.458 30.9307 294.362 30.92C294.266 30.9093 294.192 30.8613 294.138 30.776L293.514 29.944C293.44 29.848 293.424 29.7573 293.466 29.672C293.52 29.5867 293.584 29.5227 293.658 29.48C294.33 29.064 294.97 28.584 295.578 28.04C296.186 27.496 296.73 26.9253 297.21 26.328C297.701 25.7307 298.117 25.1227 298.458 24.504C298.8 23.8747 299.045 23.272 299.194 22.696C299.237 22.5147 299.242 22.3973 299.21 22.344C299.178 22.2907 299.072 22.264 298.89 22.264H294.762C294.698 22.264 294.645 22.2427 294.602 22.2C294.57 22.1467 294.554 22.088 294.554 22.024V20.952C294.554 20.8027 294.629 20.728 294.778 20.728H299.994C300.41 20.728 300.736 20.808 300.97 20.968C301.205 21.128 301.322 21.336 301.322 21.592C301.322 21.7307 301.312 21.8747 301.29 22.024C301.269 22.1627 301.242 22.2907 301.21 22.408C301.061 22.9733 300.858 23.544 300.602 24.12C300.357 24.6853 300.053 25.256 299.69 25.832C299.893 26.1093 300.128 26.4027 300.394 26.712C300.661 27.0107 300.938 27.304 301.226 27.592C301.514 27.88 301.797 28.152 302.074 28.408C302.352 28.6533 302.602 28.856 302.826 29.016C302.901 29.0693 302.949 29.1387 302.97 29.224C303.002 29.3093 302.986 29.3947 302.922 29.48L302.234 30.264C302.096 30.4133 301.92 30.424 301.706 30.296C301.514 30.168 301.285 29.992 301.018 29.768C300.762 29.5333 300.496 29.2773 300.218 29C299.941 28.7227 299.669 28.4293 299.402 28.12C299.136 27.8107 298.896 27.5173 298.682 27.24C298.138 27.912 297.53 28.5573 296.858 29.176C296.186 29.784 295.445 30.344 294.634 30.856ZM306.042 34.504C306.042 34.6427 305.968 34.712 305.818 34.712H304.41C304.357 34.712 304.304 34.6907 304.25 34.648C304.208 34.616 304.186 34.568 304.186 34.504V19.736C304.186 19.6827 304.208 19.6347 304.25 19.592C304.304 19.5493 304.357 19.528 304.41 19.528H305.818C305.968 19.528 306.042 19.5973 306.042 19.736V34.504ZM323.253 31.416C322.923 31.736 322.48 32.0453 321.925 32.344C322.405 32.504 322.933 32.6533 323.509 32.792C324.096 32.9307 324.613 33.048 325.061 33.144C325.275 33.1973 325.349 33.3147 325.285 33.496L324.949 34.392C324.896 34.5307 324.763 34.584 324.549 34.552C324.24 34.488 323.899 34.408 323.525 34.312C323.152 34.216 322.768 34.1093 322.373 33.992C321.989 33.8853 321.6 33.768 321.205 33.64C320.821 33.512 320.453 33.384 320.101 33.256C319.301 33.576 318.459 33.8587 317.573 34.104C316.699 34.36 315.845 34.5573 315.013 34.696C314.896 34.7173 314.805 34.712 314.741 34.68C314.677 34.6587 314.624 34.6 314.581 34.504L314.245 33.624C314.213 33.5387 314.219 33.464 314.261 33.4C314.315 33.336 314.379 33.2933 314.453 33.272C315.104 33.144 315.744 33 316.373 32.84C317.013 32.68 317.616 32.5093 318.181 32.328C318.757 32.1467 319.285 31.9547 319.765 31.752C320.245 31.5493 320.661 31.3467 321.013 31.144C321.173 31.0373 321.253 30.952 321.253 30.888C321.253 30.8133 321.131 30.776 320.885 30.776H315.317C315.264 30.776 315.216 30.76 315.173 30.728C315.141 30.6853 315.125 30.632 315.125 30.568V29.512C315.125 29.3947 315.189 29.336 315.317 29.336H322.453C323.019 29.336 323.413 29.4107 323.637 29.56C323.872 29.6987 323.989 29.8853 323.989 30.12C323.989 30.3013 323.925 30.5093 323.797 30.744C323.68 30.968 323.499 31.192 323.253 31.416ZM319.973 22.712C319.973 22.8187 319.947 22.952 319.893 23.112C319.84 23.2613 319.781 23.4 319.717 23.528C319.451 24.0933 319.04 24.6693 318.485 25.256C318.667 25.4053 318.864 25.56 319.077 25.72C319.301 25.8693 319.525 26.0133 319.749 26.152C319.973 26.2907 320.192 26.4187 320.405 26.536C320.629 26.6427 320.837 26.7333 321.029 26.808C321.147 26.8507 321.211 26.9147 321.221 27C321.243 27.0747 321.227 27.16 321.173 27.256L320.725 28.008C320.608 28.1893 320.443 28.232 320.229 28.136C320.037 28.0613 319.819 27.96 319.573 27.832C319.328 27.6933 319.077 27.544 318.821 27.384C318.565 27.2133 318.309 27.0373 318.053 26.856C317.797 26.6747 317.568 26.4933 317.365 26.312C316.789 26.7813 316.155 27.224 315.461 27.64C314.768 28.056 314.032 28.424 313.253 28.744C313.2 28.7653 313.125 28.7707 313.029 28.76C312.933 28.7493 312.859 28.696 312.805 28.6L312.357 27.768C312.304 27.6827 312.299 27.6027 312.341 27.528C312.384 27.4427 312.448 27.384 312.533 27.352C313.12 27.1067 313.68 26.8293 314.213 26.52C314.757 26.2107 315.248 25.8907 315.685 25.56C316.133 25.2293 316.517 24.8987 316.837 24.568C317.168 24.2373 317.408 23.928 317.557 23.64C317.6 23.5653 317.621 23.5067 317.621 23.464C317.632 23.4107 317.552 23.384 317.381 23.384H313.253C313.189 23.384 313.136 23.3627 313.093 23.32C313.061 23.2667 313.045 23.208 313.045 23.144V22.136C313.045 22.008 313.125 21.944 313.285 21.944H318.645C319.072 21.944 319.397 22.0027 319.621 22.12C319.856 22.2267 319.973 22.424 319.973 22.712ZM326.501 25.128C326.501 25.1813 326.475 25.2293 326.421 25.272C326.379 25.3147 326.325 25.336 326.261 25.336H324.101V28.312C324.101 28.4613 324.032 28.536 323.893 28.536H322.469C322.331 28.536 322.261 28.456 322.261 28.296V19.736C322.261 19.5973 322.331 19.528 322.469 19.528H323.893C324.032 19.528 324.101 19.5973 324.101 19.736V23.8H326.261C326.325 23.8 326.379 23.8213 326.421 23.864C326.475 23.896 326.501 23.9387 326.501 23.992V25.128ZM318.613 20.84C318.613 20.904 318.587 20.968 318.533 21.032C318.491 21.0853 318.432 21.112 318.357 21.112H314.613C314.571 21.112 314.517 21.0907 314.453 21.048C314.4 21.0053 314.373 20.9413 314.373 20.856V19.944C314.373 19.8693 314.4 19.8107 314.453 19.768C314.517 19.7253 314.571 19.704 314.613 19.704H318.357C318.421 19.704 318.48 19.7307 318.533 19.784C318.587 19.8373 318.613 19.896 318.613 19.96V20.84ZM341.132 26.696C341.132 26.76 341.106 26.8133 341.052 26.856C341.01 26.8987 340.962 26.92 340.908 26.92H338.748V34.504C338.748 34.568 338.722 34.616 338.668 34.648C338.626 34.6907 338.578 34.712 338.524 34.712H337.116C336.967 34.712 336.892 34.6427 336.892 34.504V19.736C336.892 19.5973 336.967 19.528 337.116 19.528H338.524C338.578 19.528 338.626 19.5493 338.668 19.592C338.722 19.6347 338.748 19.6827 338.748 19.736V25.384H340.908C340.962 25.384 341.01 25.4053 341.052 25.448C341.106 25.48 341.132 25.5227 341.132 25.576V26.696ZM333.34 25.72C333.34 25.2293 333.292 24.7653 333.196 24.328C333.1 23.8907 332.962 23.512 332.78 23.192C332.599 22.8613 332.375 22.6 332.108 22.408C331.842 22.216 331.538 22.12 331.196 22.12C330.866 22.12 330.567 22.216 330.3 22.408C330.044 22.6 329.826 22.8613 329.644 23.192C329.463 23.512 329.324 23.8907 329.228 24.328C329.132 24.7653 329.084 25.2293 329.084 25.72C329.084 26.2 329.132 26.6587 329.228 27.096C329.324 27.5333 329.463 27.9173 329.644 28.248C329.826 28.5787 330.044 28.8453 330.3 29.048C330.567 29.24 330.866 29.336 331.196 29.336C331.538 29.336 331.842 29.24 332.108 29.048C332.375 28.8453 332.599 28.5787 332.78 28.248C332.962 27.9173 333.1 27.5333 333.196 27.096C333.292 26.6587 333.34 26.2 333.34 25.72ZM331.196 30.968C330.588 30.968 330.039 30.8453 329.548 30.6C329.058 30.344 328.642 29.9867 328.3 29.528C327.97 29.0693 327.714 28.52 327.532 27.88C327.351 27.24 327.26 26.5307 327.26 25.752C327.26 24.952 327.351 24.2267 327.532 23.576C327.714 22.9253 327.97 22.376 328.3 21.928C328.642 21.4693 329.058 21.1173 329.548 20.872C330.039 20.616 330.588 20.488 331.196 20.488C331.815 20.488 332.364 20.6107 332.844 20.856C333.335 21.1013 333.751 21.4533 334.092 21.912C334.434 22.36 334.695 22.9093 334.876 23.56C335.058 24.2 335.148 24.92 335.148 25.72C335.148 26.52 335.058 27.2453 334.876 27.896C334.695 28.536 334.434 29.0853 334.092 29.544C333.751 30.0027 333.335 30.3547 332.844 30.6C332.364 30.8453 331.815 30.968 331.196 30.968ZM355.571 31.88C355.571 31.9333 355.545 31.9867 355.491 32.04C355.438 32.0933 355.385 32.12 355.331 32.12H341.395C341.331 32.12 341.278 32.0933 341.235 32.04C341.193 31.9867 341.171 31.9333 341.171 31.88V30.84C341.171 30.776 341.193 30.7173 341.235 30.664C341.278 30.6107 341.331 30.584 341.395 30.584H347.443V27.656H344.515C344.046 27.656 343.726 27.576 343.555 27.416C343.385 27.256 343.299 26.9573 343.299 26.52V20.408C343.299 20.3547 343.321 20.312 343.363 20.28C343.406 20.2373 343.454 20.216 343.507 20.216H344.915C344.969 20.216 345.017 20.2373 345.059 20.28C345.113 20.312 345.139 20.3547 345.139 20.408V22.664H351.571V20.392C351.571 20.3387 351.593 20.2907 351.635 20.248C351.678 20.2053 351.726 20.184 351.779 20.184H353.203C353.257 20.184 353.305 20.2053 353.347 20.248C353.39 20.2907 353.411 20.3387 353.411 20.392V26.584C353.411 26.936 353.326 27.2027 353.155 27.384C352.985 27.5653 352.67 27.656 352.211 27.656H349.283V30.584H355.331C355.385 30.584 355.438 30.616 355.491 30.68C355.545 30.7333 355.571 30.7867 355.571 30.84V31.88ZM351.571 24.152H345.139V25.88C345.139 26.0613 345.235 26.152 345.427 26.152H351.283C351.475 26.152 351.571 26.0613 351.571 25.88V24.152ZM368.698 34.504C368.698 34.6427 368.629 34.712 368.49 34.712H367.066C366.927 34.712 366.858 34.6427 366.858 34.504V19.736C366.858 19.5973 366.927 19.528 367.066 19.528H368.49C368.629 19.528 368.698 19.5973 368.698 19.736V34.504ZM364.378 21.928C364.293 22.9627 364.074 23.9387 363.722 24.856C363.381 25.7733 362.922 26.6267 362.346 27.416C361.781 28.2053 361.109 28.936 360.33 29.608C359.551 30.28 358.693 30.8933 357.754 31.448C357.669 31.5013 357.573 31.5227 357.466 31.512C357.37 31.4907 357.295 31.4373 357.242 31.352L356.698 30.504C356.645 30.4187 356.629 30.3387 356.65 30.264C356.671 30.1787 356.719 30.1147 356.794 30.072C358.383 29.1333 359.653 28.0507 360.602 26.824C361.562 25.5973 362.186 24.2533 362.474 22.792C362.517 22.5787 362.506 22.44 362.442 22.376C362.378 22.3013 362.245 22.264 362.042 22.264H357.53C357.381 22.264 357.306 22.1893 357.306 22.04V20.92C357.306 20.792 357.381 20.728 357.53 20.728H363.258C363.738 20.728 364.053 20.8293 364.202 21.032C364.351 21.224 364.41 21.5227 364.378 21.928Z" fill="white"/>
</svg>
