<svg width="364" height="310" viewBox="0 0 364 310" fill="none" xmlns="http://www.w3.org/2000/svg">
<g filter="url(#filter0_d_1_481)">
<rect x="5" y="1" width="354" height="300" rx="16" fill="#033522" shape-rendering="crispEdges"/>
<rect x="4.5" y="0.5" width="355" height="301" rx="16.5" stroke="#B2A374" stroke-opacity="0.4" shape-rendering="crispEdges"/>
<path d="M65.976 54.04C65.864 53.788 65.724 53.62 65.5 53.536C65.276 53.48 65.052 53.424 64.884 53.424L64.044 53.48V63.532C64.044 63.868 63.988 64.204 63.876 64.54C63.764 64.876 63.512 65.128 63.148 65.352C62.756 65.576 62.224 65.744 61.524 65.828C60.796 65.94 59.844 65.912 58.668 65.8V45.444C58.668 44.996 58.64 44.52 58.64 44.044C58.612 43.568 58.556 43.092 58.5 42.588C58.976 42.476 59.508 42.336 60.124 42.224C60.712 42.112 61.356 42.028 62.028 42.028C62.476 42.028 62.84 42.084 63.176 42.196C63.484 42.308 63.736 42.42 63.96 42.588C64.184 42.756 64.352 42.924 64.464 43.092C64.576 43.26 64.66 43.428 64.716 43.568C64.492 43.904 64.324 44.352 64.212 44.856C64.1 45.36 64.044 45.808 64.044 46.172V51.408L66.732 51.296C67.096 51.296 67.348 51.38 67.516 51.576C67.656 51.8 67.74 52.024 67.74 52.276C67.74 52.724 67.572 53.116 67.264 53.48C66.928 53.872 66.508 54.04 65.976 54.04ZM49.54 55.944C49.568 56.784 49.736 57.372 50.072 57.736C50.38 58.1 50.968 58.212 51.864 58.1L52.508 58.016C53.292 57.652 53.964 57.316 54.552 57.008C55.112 56.728 55.644 56.588 56.12 56.616C56.512 56.672 56.82 56.784 57.016 56.98C57.184 57.204 57.296 57.456 57.352 57.736C57.38 58.016 57.352 58.352 57.296 58.716C57.212 59.108 57.128 59.472 57.044 59.836C56.876 59.78 56.624 59.752 56.288 59.752C55.952 59.752 55.644 59.752 55.42 59.752L51.248 60.032C50.128 60.144 49.148 60.144 48.28 60.032C47.412 59.92 46.656 59.696 46.04 59.332C45.396 58.996 44.892 58.492 44.528 57.82C44.164 57.148 43.968 56.28 43.912 55.216L43.576 48.02C43.52 47.488 43.436 47.068 43.268 46.732C43.1 46.396 42.96 46.172 42.82 46.06C43.184 45.472 43.66 45.052 44.248 44.828C44.808 44.604 45.424 44.464 46.04 44.464C46.264 44.464 46.516 44.492 46.824 44.52C47.104 44.576 47.412 44.604 47.692 44.66C47.972 44.716 48.224 44.8 48.448 44.856C48.672 44.94 48.868 45.024 48.98 45.08C49.036 45.332 49.092 45.864 49.148 46.648C49.204 47.46 49.232 48.384 49.288 49.42C49.344 50.484 49.372 51.576 49.428 52.752C49.456 53.928 49.484 54.992 49.54 55.944ZM68.8589 59.976C69.4469 59.948 70.0349 59.948 70.6509 59.948C71.2669 59.948 71.8829 59.948 72.5549 59.92C73.5349 59.92 74.5989 59.864 75.7749 59.78C76.9509 59.696 78.1269 59.584 79.3309 59.444C80.5069 59.304 81.7109 59.136 82.8869 58.968C84.0629 58.8 85.1549 58.576 86.1909 58.352V45.444C86.1909 44.996 86.1629 44.52 86.1629 44.044C86.1349 43.568 86.0789 43.092 86.0229 42.588C86.4989 42.476 87.0309 42.336 87.6469 42.224C88.2349 42.112 88.8789 42.028 89.5509 42.028C89.9989 42.028 90.3629 42.084 90.6989 42.196C91.0069 42.308 91.2589 42.42 91.4829 42.588C91.7069 42.756 91.8749 42.924 91.9869 43.092C92.0989 43.26 92.1829 43.428 92.2389 43.568C92.0149 43.904 91.8469 44.352 91.7349 44.856C91.6229 45.36 91.5669 45.808 91.5669 46.172V63.532C91.5669 63.868 91.5109 64.204 91.3989 64.54C91.2869 64.876 91.0349 65.128 90.6709 65.352C90.2789 65.576 89.7469 65.744 89.0469 65.828C88.3189 65.94 87.3669 65.912 86.1909 65.8V60.536C85.1829 60.76 84.1469 60.984 83.0269 61.152C81.9069 61.32 80.7869 61.488 79.6669 61.628C78.5469 61.796 77.4269 61.908 76.3069 62.02C75.1869 62.132 74.1509 62.244 73.1989 62.3C72.9189 62.356 72.6949 62.412 72.4709 62.496C72.2469 62.58 72.0509 62.664 71.8549 62.748C71.6309 62.832 71.4069 62.916 71.1829 62.972C70.9589 63.056 70.7069 63.084 70.4269 63.084C69.5589 63.084 69.1109 62.72 69.0549 61.936L68.8589 59.976ZM70.0629 50.008C70.0629 49.112 70.2029 48.244 70.5109 47.432C70.8189 46.62 71.2669 45.92 71.8829 45.304C72.4709 44.716 73.2269 44.24 74.1229 43.876C75.0189 43.54 76.0549 43.344 77.2309 43.344C78.4069 43.344 79.4149 43.54 80.3109 43.876C81.2069 44.24 81.9349 44.716 82.5509 45.304C83.1669 45.92 83.6149 46.62 83.9229 47.432C84.2029 48.244 84.3709 49.112 84.3709 50.008C84.3709 50.96 84.2029 51.828 83.9229 52.64C83.6149 53.452 83.1669 54.152 82.5509 54.74C81.9349 55.356 81.2069 55.832 80.3109 56.168C79.4149 56.532 78.4069 56.7 77.2309 56.7C76.0549 56.7 75.0189 56.532 74.1229 56.168C73.2269 55.832 72.4709 55.356 71.8829 54.74C71.2669 54.152 70.8189 53.452 70.5109 52.64C70.2029 51.828 70.0629 50.96 70.0629 50.008ZM75.4669 50.008C75.4669 50.624 75.4669 51.184 75.5229 51.744C75.5789 52.304 75.6629 52.78 75.8029 53.228C75.9149 53.676 76.1109 54.012 76.3349 54.264C76.5589 54.544 76.8389 54.656 77.2309 54.656C77.5669 54.656 77.8749 54.544 78.0989 54.264C78.3229 54.012 78.4909 53.676 78.6309 53.228C78.7429 52.78 78.8269 52.304 78.8829 51.744C78.9389 51.184 78.9669 50.624 78.9669 50.008C78.9669 49.448 78.9389 48.86 78.8829 48.3C78.8269 47.74 78.7429 47.264 78.6309 46.816C78.4909 46.396 78.3229 46.06 78.0989 45.78C77.8749 45.528 77.5669 45.388 77.2309 45.388C76.8389 45.388 76.5589 45.528 76.3349 45.78C76.1109 46.06 75.9149 46.396 75.8029 46.816C75.6629 47.264 75.5789 47.74 75.5229 48.3C75.4669 48.86 75.4669 49.448 75.4669 50.008ZM104.242 61.684C104.242 60.928 104.438 60.228 104.83 59.612C105.222 58.996 105.81 58.436 106.538 57.988C107.266 57.54 108.134 57.204 109.142 56.952C110.15 56.728 111.298 56.588 112.558 56.588C113.79 56.588 114.938 56.728 115.946 56.952C116.954 57.204 117.85 57.54 118.578 57.988C119.306 58.436 119.866 58.996 120.258 59.612C120.65 60.228 120.846 60.928 120.846 61.684C120.846 62.468 120.65 63.196 120.258 63.812C119.866 64.428 119.306 64.96 118.578 65.408C117.85 65.856 116.954 66.22 115.946 66.444C114.938 66.696 113.79 66.808 112.558 66.808C111.298 66.808 110.15 66.696 109.142 66.444C108.134 66.22 107.266 65.856 106.538 65.408C105.81 64.96 105.222 64.428 104.83 63.812C104.438 63.196 104.242 62.468 104.242 61.684ZM99.7902 52.948C100.63 52.948 101.414 52.976 102.086 53.004C102.758 53.06 103.486 53.116 104.326 53.172H107.91V51.184C107.91 50.736 107.882 50.316 107.882 49.868C107.854 49.42 107.826 48.972 107.77 48.496C108.162 48.412 108.638 48.3 109.198 48.188C109.758 48.076 110.29 47.992 110.822 47.992C111.354 47.992 111.858 48.104 112.334 48.3C112.782 48.496 113.146 48.86 113.398 49.42C113.174 49.756 113.062 50.12 113.006 50.512C112.95 50.932 112.922 51.38 112.922 51.856V53.172H119.95C120.706 52.78 121.35 52.528 121.91 52.36C122.47 52.192 122.946 52.136 123.338 52.164C123.786 52.22 124.094 52.332 124.29 52.528C124.486 52.724 124.598 52.976 124.654 53.284C124.71 53.592 124.682 53.928 124.626 54.292C124.57 54.684 124.486 55.048 124.402 55.412C124.234 55.356 123.982 55.328 123.646 55.272C123.282 55.244 122.974 55.216 122.694 55.216H104.97C104.746 55.216 104.494 55.272 104.186 55.384C103.878 55.496 103.57 55.636 103.234 55.748C102.898 55.888 102.534 56 102.198 56.112C101.862 56.224 101.554 56.28 101.274 56.28C100.826 56.28 100.49 56.14 100.266 55.86C100.042 55.58 99.9302 55.244 99.9022 54.852L99.7902 52.948ZM108.218 45.024C107.826 45.248 107.546 45.528 107.35 45.892C107.126 46.256 106.986 46.648 106.902 47.04C106.23 47.04 105.67 46.956 105.222 46.788C104.746 46.62 104.354 46.424 104.046 46.144C103.738 45.864 103.514 45.584 103.374 45.248C103.234 44.94 103.178 44.632 103.178 44.324C103.178 43.96 103.262 43.652 103.486 43.372C103.682 43.12 103.99 42.98 104.382 42.98H115.498C115.918 42.868 116.422 42.756 117.038 42.616C117.654 42.504 118.242 42.42 118.802 42.42C119.39 42.42 119.922 42.532 120.37 42.756C120.818 42.98 121.182 43.372 121.434 43.96C121.294 44.184 121.182 44.464 121.098 44.8C121.014 45.136 120.986 45.556 120.986 46.032C120.986 46.928 120.93 47.796 120.846 48.636C120.734 49.476 120.622 50.092 120.482 50.456C120.37 50.736 120.202 50.96 120.006 51.128C119.81 51.296 119.53 51.38 119.166 51.436C118.774 51.492 118.298 51.464 117.682 51.408C117.066 51.352 116.282 51.268 115.33 51.1C115.414 50.764 115.498 50.344 115.554 49.784C115.61 49.224 115.638 48.664 115.666 48.048C115.694 47.46 115.722 46.9 115.722 46.34C115.722 45.78 115.75 45.36 115.75 45.024H108.218ZM109.646 61.684C109.646 62.132 109.702 62.552 109.87 62.916C110.01 63.308 110.206 63.616 110.486 63.896C110.766 64.176 111.074 64.372 111.438 64.54C111.774 64.708 112.166 64.764 112.558 64.764C112.95 64.764 113.314 64.708 113.678 64.54C114.014 64.372 114.322 64.176 114.602 63.896C114.854 63.616 115.05 63.308 115.218 62.916C115.358 62.552 115.442 62.132 115.442 61.684C115.442 61.236 115.358 60.844 115.19 60.452C115.022 60.088 114.826 59.78 114.574 59.5C114.294 59.22 113.986 59.024 113.65 58.856C113.314 58.716 112.95 58.632 112.558 58.632C112.166 58.632 111.774 58.716 111.438 58.856C111.074 59.024 110.766 59.22 110.486 59.5C110.206 59.78 110.01 60.088 109.87 60.452C109.702 60.844 109.646 61.236 109.646 61.684ZM140.165 46.508C139.801 48.972 138.877 51.016 137.393 52.696C135.881 54.376 133.781 55.58 131.037 56.336C130.729 56.448 130.393 56.476 130.057 56.476C129.721 56.476 129.357 56.364 128.993 56.196C128.629 56.028 128.265 55.776 127.929 55.44C127.565 55.104 127.229 54.6 126.893 53.984C128.209 53.564 129.385 53.088 130.393 52.556C131.401 52.052 132.269 51.436 132.941 50.764C133.613 50.092 134.117 49.308 134.453 48.412C134.789 47.544 134.929 46.536 134.873 45.416H132.045C131.653 45.64 131.373 45.92 131.177 46.284C130.953 46.648 130.813 47.04 130.729 47.432C130.057 47.432 129.497 47.348 129.049 47.18C128.573 47.012 128.181 46.816 127.873 46.536C127.565 46.256 127.341 45.976 127.201 45.64C127.061 45.332 127.005 45.024 127.005 44.716C127.005 44.352 127.089 44.044 127.313 43.764C127.509 43.512 127.817 43.372 128.209 43.372H134.677C135.097 43.26 135.629 43.148 136.301 43.008C136.945 42.896 137.561 42.812 138.121 42.812C138.709 42.812 139.269 42.924 139.773 43.148C140.277 43.372 140.641 43.764 140.893 44.352C140.753 44.576 140.613 44.856 140.473 45.22C140.333 45.612 140.221 46.032 140.165 46.508ZM149.965 51.492C149.853 51.24 149.713 51.072 149.489 50.988C149.265 50.932 149.041 50.876 148.873 50.876L148.033 50.932V56.448C148.033 56.896 147.949 57.288 147.837 57.624C147.697 57.96 147.445 58.24 147.053 58.436C146.661 58.632 146.101 58.744 145.401 58.8C144.701 58.856 143.777 58.828 142.657 58.716V45.444C142.657 44.996 142.629 44.52 142.629 44.044C142.601 43.568 142.545 43.092 142.489 42.588C142.965 42.476 143.497 42.336 144.113 42.224C144.701 42.112 145.345 42.028 146.017 42.028C146.465 42.028 146.829 42.084 147.165 42.196C147.473 42.308 147.725 42.42 147.949 42.588C148.173 42.756 148.341 42.924 148.453 43.092C148.565 43.26 148.649 43.428 148.705 43.568C148.481 43.904 148.313 44.352 148.201 44.856C148.089 45.36 148.033 45.808 148.033 46.172V48.86L150.721 48.748C151.085 48.748 151.337 48.832 151.505 49.028C151.645 49.252 151.729 49.476 151.729 49.728C151.729 50.176 151.561 50.568 151.253 50.932C150.917 51.324 150.497 51.492 149.965 51.492ZM147.053 61.124C147.557 61.124 147.949 61.32 148.173 61.712C148.397 62.104 148.509 62.552 148.509 63.112C148.509 63.56 148.425 63.98 148.313 64.372C148.201 64.764 148.033 65.184 147.809 65.604C147.277 65.744 146.717 65.856 146.129 65.94C145.541 66.052 144.953 66.136 144.365 66.192C143.777 66.248 143.217 66.304 142.657 66.332C142.097 66.36 141.593 66.36 141.145 66.36C139.969 66.36 138.933 66.22 138.009 65.94C137.085 65.66 136.217 65.24 135.405 64.736C134.565 64.232 133.781 63.616 133.025 62.916C132.269 62.244 131.513 61.488 130.729 60.648C130.561 60.452 130.477 60.2 130.477 59.892C130.477 59.724 130.505 59.5 130.617 59.276C130.701 59.052 130.841 58.856 131.065 58.66C131.289 58.492 131.569 58.324 131.905 58.184C132.241 58.072 132.661 57.988 133.165 57.96C133.501 58.464 133.865 58.968 134.257 59.416C134.649 59.864 135.097 60.284 135.601 60.62C136.105 60.984 136.637 61.264 137.225 61.46C137.813 61.684 138.457 61.768 139.185 61.768C139.857 61.768 140.529 61.74 141.201 61.684C141.873 61.628 142.517 61.544 143.189 61.46C143.861 61.376 144.505 61.292 145.149 61.236C145.793 61.18 146.437 61.124 147.053 61.124ZM45.774 89.9C45.984 89.732 46.222 89.606 46.502 89.522C46.782 89.438 47.076 89.396 47.384 89.396C47.846 89.396 48.196 89.48 48.448 89.634C48.686 89.802 48.812 90.04 48.812 90.376C48.784 90.516 48.77 90.684 48.77 90.88C48.756 91.09 48.756 91.286 48.756 91.468V96.69C48.756 96.858 48.728 97.026 48.672 97.194C48.616 97.362 48.49 97.488 48.294 97.6C48.098 97.712 47.832 97.796 47.468 97.838C47.104 97.894 46.628 97.88 46.04 97.824H44.374C44.178 97.866 44.01 97.894 43.856 97.908C43.702 97.936 43.562 97.936 43.422 97.936C42.694 97.936 42.26 97.684 42.12 97.18C42.162 97.068 42.19 96.928 42.218 96.788C42.232 96.648 42.246 96.494 42.246 96.326V91.356C42.12 91.244 42.008 91.09 41.924 90.866C41.826 90.642 41.77 90.46 41.77 90.292C41.98 90.068 42.246 89.914 42.554 89.816C42.862 89.732 43.184 89.676 43.492 89.676C43.884 89.676 44.22 89.76 44.514 89.928C44.808 90.096 44.962 90.348 44.962 90.684V93.092H46.04V90.922C45.956 90.782 45.9 90.628 45.858 90.46C45.816 90.306 45.788 90.124 45.774 89.9ZM53.488 94.52C53.432 94.394 53.362 94.31 53.25 94.268C53.138 94.24 53.026 94.212 52.942 94.212L52.522 94.24V99.266C52.522 99.434 52.494 99.602 52.438 99.77C52.382 99.938 52.256 100.064 52.074 100.176C51.878 100.288 51.612 100.372 51.262 100.414C50.898 100.47 50.422 100.456 49.834 100.4V90.222C49.834 89.998 49.82 89.76 49.82 89.522C49.806 89.284 49.778 89.046 49.75 88.794C49.988 88.738 50.254 88.668 50.562 88.612C50.856 88.556 51.178 88.514 51.514 88.514C51.738 88.514 51.92 88.542 52.088 88.598C52.242 88.654 52.368 88.71 52.48 88.794C52.592 88.878 52.676 88.962 52.732 89.046C52.788 89.13 52.83 89.214 52.858 89.284C52.746 89.452 52.662 89.676 52.606 89.928C52.55 90.18 52.522 90.404 52.522 90.586V93.204L53.866 93.148C54.048 93.148 54.174 93.19 54.258 93.288C54.328 93.4 54.37 93.512 54.37 93.638C54.37 93.862 54.286 94.058 54.132 94.24C53.964 94.436 53.754 94.52 53.488 94.52ZM44.962 96.816H46.04V94.1H44.962V96.816ZM58.2335 90.348C58.0935 90.404 57.9955 90.46 57.9115 90.53C57.8275 90.6 57.7715 90.698 57.7435 90.81C57.3515 90.81 57.0575 90.726 56.8335 90.558C56.6095 90.404 56.4555 90.236 56.3995 90.054C56.3435 89.872 56.3575 89.704 56.4555 89.55C56.5535 89.396 56.7495 89.312 57.0295 89.312H62.5035C62.8535 89.256 63.1895 89.214 63.4975 89.172C63.8055 89.13 64.0715 89.116 64.3235 89.13C64.5755 89.144 64.7855 89.2 64.9675 89.298C65.1495 89.41 65.2895 89.564 65.4015 89.788C65.2895 89.956 65.2335 90.11 65.2195 90.25C65.2055 90.39 65.2055 90.558 65.2055 90.74V91.874C65.2055 92.042 65.1775 92.21 65.1215 92.378C65.0655 92.546 64.9395 92.672 64.7575 92.784C64.5615 92.896 64.2955 92.98 63.9315 93.022C63.5675 93.078 63.0915 93.064 62.5035 93.008H59.4375V94.8H63.3575C63.6655 94.674 63.9455 94.576 64.2115 94.492C64.4775 94.422 64.7295 94.394 64.9675 94.408C65.1915 94.422 65.3455 94.478 65.4435 94.576C65.5275 94.674 65.5835 94.8 65.5975 94.94C65.6115 95.08 65.5975 95.248 65.5695 95.416C65.5275 95.584 65.4855 95.752 65.4435 95.892C65.3595 95.864 65.2475 95.85 65.0795 95.85C64.9115 95.85 64.7575 95.836 64.6455 95.836H62.2935V97.95H64.6595C65.0375 97.754 65.3595 97.628 65.6395 97.544C65.9195 97.46 66.1575 97.432 66.3535 97.446C66.5775 97.474 66.7315 97.53 66.8295 97.628C66.9275 97.726 66.9835 97.852 67.0115 98.006C67.0395 98.16 67.0255 98.328 66.9975 98.51C66.9695 98.706 66.9275 98.888 66.8855 99.07C66.8015 99.042 66.6755 99.028 66.5075 99C66.3255 98.986 66.1715 98.972 66.0315 98.972H57.1695C57.0575 98.972 56.9315 99 56.7775 99.056C56.6235 99.112 56.4695 99.182 56.3015 99.238C56.1335 99.308 55.9515 99.364 55.7835 99.42C55.6155 99.476 55.4615 99.504 55.3215 99.504C55.0975 99.504 54.9295 99.434 54.8175 99.294C54.7055 99.154 54.6495 98.986 54.6355 98.79L54.5795 97.838C54.9995 97.838 55.3915 97.852 55.7275 97.866C56.0635 97.894 56.4275 97.922 56.8475 97.95H59.6055V95.836H59.4375C59.2135 95.878 58.9615 95.906 58.6815 95.934C58.4015 95.962 58.1355 95.962 57.8975 95.962C57.1835 95.962 56.7495 95.71 56.6095 95.206C56.6515 95.094 56.6795 94.968 56.7075 94.828C56.7215 94.688 56.7355 94.548 56.7355 94.38V93.232C56.4555 92.98 56.3155 92.7 56.3015 92.364C56.5115 92.14 56.7635 92.014 57.0715 91.958C57.3655 91.902 57.6735 91.874 57.9815 91.874C58.0655 91.874 58.1915 91.888 58.3315 91.888C58.4715 91.902 58.6255 91.916 58.7655 91.93C58.9055 91.958 59.0455 91.972 59.1715 91.986C59.2835 92.014 59.3815 92.028 59.4375 92.042H62.5035V90.348H58.2335ZM79.6669 94.52C79.6109 94.394 79.5409 94.31 79.4289 94.268C79.3169 94.24 79.2049 94.212 79.1209 94.212L78.7009 94.24V99.266C78.7009 99.434 78.6729 99.602 78.6169 99.77C78.5609 99.938 78.4349 100.064 78.2529 100.176C78.0569 100.288 77.7909 100.372 77.4409 100.414C77.0769 100.47 76.6009 100.456 76.0129 100.4V90.222C76.0129 89.998 75.9989 89.76 75.9989 89.522C75.9849 89.284 75.9569 89.046 75.9289 88.794C76.1669 88.738 76.4329 88.668 76.7409 88.612C77.0349 88.556 77.3569 88.514 77.6929 88.514C77.9169 88.514 78.0989 88.542 78.2669 88.598C78.4209 88.654 78.5469 88.71 78.6589 88.794C78.7709 88.878 78.8549 88.962 78.9109 89.046C78.9669 89.13 79.0089 89.214 79.0369 89.284C78.9249 89.452 78.8409 89.676 78.7849 89.928C78.7289 90.18 78.7009 90.404 78.7009 90.586V93.204L80.0449 93.148C80.2269 93.148 80.3529 93.19 80.4369 93.288C80.5069 93.4 80.5489 93.512 80.5489 93.638C80.5489 93.862 80.4649 94.058 80.3109 94.24C80.1429 94.436 79.9329 94.52 79.6669 94.52ZM74.7669 91.44C74.7109 92.056 74.5709 92.7 74.3469 93.4C74.1229 94.1 73.8149 94.758 73.4229 95.374C73.0309 95.99 72.5689 96.55 72.0369 97.026C71.4909 97.516 70.8749 97.852 70.2029 98.034C70.0489 98.09 69.8809 98.104 69.7129 98.104C69.5449 98.104 69.3629 98.048 69.1809 97.964C68.9989 97.88 68.8169 97.754 68.6489 97.586C68.4669 97.418 68.2989 97.166 68.1309 96.858C68.7889 96.648 69.3769 96.326 69.8809 95.892C70.3849 95.458 70.8189 94.968 71.1549 94.408C71.4909 93.848 71.7429 93.274 71.9109 92.658C72.0789 92.042 72.1489 91.454 72.1209 90.894H70.7069C70.5109 91.006 70.3709 91.146 70.2729 91.328C70.1609 91.51 70.0909 91.706 70.0489 91.902C69.7129 91.902 69.4329 91.86 69.2089 91.776C68.9709 91.692 68.7749 91.594 68.6209 91.454C68.4669 91.314 68.3549 91.174 68.2849 91.006C68.2149 90.852 68.1869 90.698 68.1869 90.544C68.1869 90.362 68.2289 90.208 68.3409 90.068C68.4389 89.942 68.5929 89.872 68.7889 89.872H72.0229C72.2329 89.816 72.4989 89.76 72.8349 89.69C73.1569 89.634 73.4649 89.592 73.7449 89.592C74.0389 89.592 74.3189 89.648 74.5709 89.76C74.8229 89.872 75.0049 90.068 75.1309 90.362C75.0609 90.474 74.9909 90.614 74.9349 90.796C74.8649 90.992 74.8089 91.202 74.7669 91.44ZM88.0804 91.44C88.0244 92.056 87.8844 92.7 87.6604 93.4C87.4224 94.1 87.1004 94.758 86.7084 95.374C86.3024 95.99 85.8264 96.55 85.2804 97.026C84.7204 97.516 84.1044 97.852 83.4324 98.034C83.2784 98.09 83.1104 98.104 82.9424 98.104C82.7744 98.104 82.5924 98.048 82.4104 97.964C82.2284 97.88 82.0464 97.754 81.8784 97.586C81.6964 97.418 81.5284 97.166 81.3604 96.858C82.0184 96.648 82.6064 96.326 83.1244 95.892C83.6424 95.472 84.0764 94.982 84.4264 94.436C84.7764 93.89 85.0424 93.316 85.2104 92.7C85.3784 92.084 85.4624 91.496 85.4344 90.936H83.9364C83.7404 91.048 83.6004 91.188 83.5024 91.37C83.3904 91.552 83.3204 91.748 83.2784 91.944C82.9424 91.944 82.6624 91.902 82.4384 91.818C82.2004 91.734 82.0044 91.608 81.8504 91.468C81.6964 91.328 81.5844 91.188 81.5144 91.02C81.4444 90.852 81.4164 90.698 81.4164 90.544C81.4164 90.362 81.4584 90.208 81.5704 90.068C81.6684 89.942 81.8224 89.872 82.0184 89.872H85.3364C85.5464 89.816 85.8124 89.76 86.1484 89.69C86.4704 89.634 86.7784 89.592 87.0584 89.592C87.3524 89.592 87.6324 89.648 87.8844 89.76C88.1364 89.872 88.3184 90.068 88.4444 90.362C88.3744 90.474 88.3044 90.614 88.2484 90.796C88.1784 90.992 88.1224 91.202 88.0804 91.44ZM92.2804 99.266C92.2804 99.434 92.2524 99.602 92.1964 99.77C92.1404 99.938 92.0144 100.064 91.8324 100.176C91.6364 100.288 91.3704 100.372 91.0204 100.414C90.6564 100.47 90.1804 100.456 89.5924 100.4V90.222C89.5924 89.998 89.5784 89.76 89.5784 89.522C89.5644 89.284 89.5364 89.046 89.5084 88.794C89.7464 88.738 90.0124 88.668 90.3204 88.612C90.6144 88.556 90.9364 88.514 91.2724 88.514C91.4964 88.514 91.6784 88.542 91.8464 88.598C92.0004 88.654 92.1264 88.71 92.2384 88.794C92.3504 88.878 92.4344 88.962 92.4904 89.046C92.5464 89.13 92.5884 89.214 92.6164 89.284C92.5044 89.452 92.4204 89.676 92.3644 89.928C92.3084 90.18 92.2804 90.404 92.2804 90.586V99.266ZM100.55 94.632L96.574 89.06H99.304L103.364 94.632L99.304 100.19H96.574L100.55 94.632Z" fill="#B2A374"/>
</g>
<path d="M5 261H359V281C359 292.046 350.046 301 339 301H25C13.9543 301 5 292.046 5 281V261Z" fill="#022336"/>
<g clip-path="url(#clip0_1_481)">
<path d="M257.647 204.647C257.647 194.247 266.071 185.823 276.471 185.823C286.871 185.823 295.294 194.247 295.294 204.647C295.294 215.047 286.871 223.47 276.471 223.47C266.071 223.47 257.647 215.047 257.647 204.647Z" fill="#F0681C"/>
<path d="M238.824 247C238.824 234.482 263.906 228.176 276.471 228.176C289.035 228.176 314.118 234.482 314.118 247V261.117H238.824V247Z" fill="#F0681C"/>
</g>
<defs>
<filter id="filter0_d_1_481" x="0" y="0" width="364" height="310" filterUnits="userSpaceOnUse" color-interpolation-filters="sRGB">
<feFlood flood-opacity="0" result="BackgroundImageFix"/>
<feColorMatrix in="SourceAlpha" type="matrix" values="0 0 0 0 0 0 0 0 0 0 0 0 0 0 0 0 0 0 127 0" result="hardAlpha"/>
<feOffset dy="4"/>
<feGaussianBlur stdDeviation="2"/>
<feComposite in2="hardAlpha" operator="out"/>
<feColorMatrix type="matrix" values="0 0 0 0 0 0 0 0 0 0 0 0 0 0 0 0 0 0 0.25 0"/>
<feBlend mode="normal" in2="BackgroundImageFix" result="effect1_dropShadow_1_481"/>
<feBlend mode="normal" in="SourceGraphic" in2="effect1_dropShadow_1_481" result="shape"/>
</filter>
<clipPath id="clip0_1_481">
<rect width="112.941" height="112.941" fill="white" transform="translate(220 167)"/>
</clipPath>
</defs>
</svg>
