<svg width="178" height="29" viewBox="0 0 178 29" fill="none" xmlns="http://www.w3.org/2000/svg">
<path d="M19.25 3.48C19.1 3.84 19.01 4.23 18.98 4.65C18.95 5.1 18.95 5.58 18.95 6.09V11.28H20.51V4.98C20.51 4.53 20.48 4.05 20.48 3.57C20.45 3.09 20.42 2.61 20.36 2.1C20.72 1.98 21.17 1.86 21.74 1.74C22.31 1.62 22.88 1.53 23.48 1.53C24.05 1.53 24.59 1.65 25.1 1.86C25.58 2.1 25.97 2.49 26.21 3.09C25.97 3.45 25.82 3.87 25.7 4.38C25.58 4.92 25.52 5.37 25.52 5.73V24.78C25.52 25.14 25.46 25.5 25.37 25.83C25.25 26.16 25.04 26.43 24.71 26.67C24.35 26.91 23.87 27.06 23.21 27.15C22.55 27.27 21.65 27.24 20.51 27.12V13.5H18.95V24.18C18.95 24.54 18.89 24.87 18.8 25.17C18.71 25.5 18.5 25.77 18.17 26.01C17.84 26.25 17.36 26.4 16.7 26.49C16.04 26.61 15.17 26.58 14.09 26.46V5.55C14.09 5.07 14.06 4.62 14.06 4.14C14.03 3.66 14 3.18 13.94 2.67C14.3 2.55 14.72 2.43 15.23 2.28C15.71 2.16 16.22 2.07 16.73 2.07C17.24 2.07 17.72 2.16 18.17 2.34C18.62 2.55 18.98 2.94 19.25 3.48ZM7.04 16.83C7.04 17.61 7.19 18.15 7.49 18.42C7.76 18.72 8.21 18.81 8.87 18.72L9.26 18.63C9.8 18.21 10.28 17.88 10.7 17.64C11.12 17.4 11.54 17.31 11.96 17.34C12.32 17.4 12.59 17.55 12.74 17.79C12.86 18.03 12.95 18.33 12.95 18.66C12.95 19.02 12.92 19.35 12.86 19.71C12.77 20.07 12.71 20.37 12.65 20.61C12.53 20.58 12.38 20.55 12.17 20.52C11.96 20.52 11.75 20.52 11.57 20.52L8.24 20.76C7.25 20.88 6.38 20.88 5.6 20.79C4.82 20.7 4.13 20.46 3.59 20.07C3.02 19.71 2.57 19.17 2.27 18.45C1.97 17.73 1.79 16.8 1.79 15.6L1.52 7.65C1.46 7.08 1.37 6.63 1.25 6.27C1.13 5.91 0.98 5.67 0.83 5.55C1.1 5.04 1.49 4.68 2.03 4.47C2.57 4.26 3.11 4.14 3.71 4.14C4.28 4.14 4.82 4.2 5.36 4.32C5.87 4.47 6.26 4.62 6.5 4.8C6.56 5.07 6.59 5.64 6.65 6.54C6.71 7.44 6.74 8.49 6.8 9.66C6.86 10.86 6.89 12.09 6.92 13.38C6.95 14.67 6.98 15.81 7.04 16.83ZM33.9406 13.41C34.8406 13.41 35.6806 13.44 36.4006 13.47C37.1206 13.53 37.9006 13.59 38.8006 13.65H55.5406C56.3506 13.23 57.0406 12.96 57.6406 12.78C58.2406 12.6 58.7506 12.54 59.1706 12.57C59.6506 12.63 59.9806 12.75 60.1906 12.96C60.4006 13.17 60.5206 13.44 60.5806 13.77C60.6406 14.1 60.6106 14.46 60.5506 14.85C60.4906 15.27 60.4006 15.66 60.3106 16.05C60.1306 15.99 59.8606 15.96 59.5006 15.9C59.1106 15.87 58.7806 15.84 58.4806 15.84H39.4906C39.2506 15.84 38.9806 15.9 38.6506 16.02C38.3206 16.14 37.9906 16.29 37.6306 16.41C37.2706 16.56 36.8806 16.68 36.5206 16.8C36.1606 16.92 35.8306 16.98 35.5306 16.98C35.0506 16.98 34.6906 16.83 34.4506 16.53C34.2106 16.23 34.0906 15.87 34.0606 15.45L33.9406 13.41ZM56.3206 21.75C56.8606 21.75 57.2806 21.96 57.5206 22.38C57.7606 22.8 57.8806 23.28 57.8806 23.88C57.8806 24.36 57.7906 24.81 57.6706 25.23C57.5506 25.65 57.3706 26.1 57.1306 26.55C56.5606 26.7 55.9006 26.82 55.1206 26.91C54.3406 27.03 53.5306 27.12 52.7206 27.18C51.9106 27.24 51.1306 27.3 50.3806 27.33C49.6306 27.36 49.0006 27.36 48.5206 27.36C47.2606 27.36 46.1506 27.21 45.1906 26.91C44.2306 26.61 43.3306 26.16 42.4906 25.59C41.6506 25.02 40.8406 24.33 40.0606 23.55C39.2806 22.77 38.5006 21.9 37.6606 20.94C37.4806 20.73 37.3906 20.46 37.3906 20.13C37.3906 19.95 37.4206 19.71 37.5406 19.47C37.6306 19.23 37.7806 19.02 38.0206 18.81C38.2606 18.63 38.5606 18.45 38.9206 18.3C39.2806 18.18 39.7306 18.09 40.2706 18.06C40.6306 18.6 40.9906 19.14 41.4106 19.65C41.8306 20.19 42.2806 20.64 42.8206 21.06C43.3306 21.48 43.9006 21.84 44.5606 22.08C45.1906 22.32 45.9106 22.44 46.7206 22.44C47.5006 22.44 48.3406 22.41 49.1806 22.35C50.0206 22.29 50.8606 22.2 51.7006 22.11C52.5406 22.02 53.3506 21.93 54.1306 21.87C54.9106 21.81 55.6606 21.75 56.3206 21.75ZM42.9706 4.74C42.5506 4.98 42.2506 5.28 42.0406 5.67C41.8006 6.06 41.6506 6.48 41.5606 6.9C40.8406 6.9 40.2406 6.81 39.7606 6.63C39.2506 6.45 38.8306 6.24 38.5006 5.94C38.1706 5.64 37.9306 5.34 37.7806 4.98C37.6306 4.65 37.5706 4.32 37.5706 3.99C37.5706 3.6 37.6606 3.27 37.9006 2.97C38.1106 2.7 38.4406 2.55 38.8606 2.55H50.7706C51.2206 2.43 51.7606 2.31 52.4206 2.16C53.0806 2.04 53.7106 1.95 54.3106 1.95C54.9406 1.95 55.5106 2.07 55.9906 2.31C56.4706 2.55 56.8606 2.97 57.1306 3.6C56.9806 3.84 56.8606 4.14 56.7706 4.5C56.6806 4.86 56.6506 5.31 56.6506 5.82C56.6506 6.3 56.6206 6.81 56.5906 7.32C56.5606 7.83 56.5306 8.31 56.5006 8.76C56.4406 9.24 56.3806 9.66 56.3206 10.02C56.2606 10.38 56.1706 10.68 56.1106 10.86C55.9906 11.16 55.8106 11.4 55.6006 11.58C55.3906 11.76 55.0906 11.85 54.7006 11.91C54.2806 11.97 53.7706 11.94 53.1106 11.88C52.4506 11.82 51.6106 11.73 50.5906 11.55C50.6806 11.19 50.7706 10.71 50.8306 10.08C50.8906 9.48 50.9206 8.82 50.9506 8.13C50.9806 7.47 51.0106 6.81 51.0106 6.18C51.0106 5.58 51.0406 5.1 51.0406 4.74H42.9706ZM78.5195 14.52C77.9195 14.52 77.4695 14.34 77.1395 13.95C76.7795 13.59 76.6295 13.17 76.6295 12.69C76.6295 12.42 76.6895 12.18 76.8695 11.97C77.0195 11.76 77.2895 11.64 77.7095 11.64H80.9195V5.19C80.9195 4.71 80.8895 4.2 80.8895 3.69C80.8595 3.18 80.7995 2.67 80.7395 2.13C81.2495 2.01 81.8195 1.86 82.4795 1.74C83.1095 1.62 83.7995 1.53 84.5195 1.53C84.9995 1.53 85.3895 1.59 85.7495 1.71C86.0795 1.83 86.3495 1.95 86.5895 2.13C86.8295 2.31 87.0095 2.49 87.1295 2.67C87.2495 2.85 87.3395 3.03 87.3995 3.18C87.1595 3.54 86.9795 4.02 86.8595 4.56C86.7395 5.1 86.6795 5.58 86.6795 5.97V24.54C86.6795 24.9 86.6195 25.26 86.4995 25.62C86.3795 25.98 86.1095 26.25 85.7195 26.49C85.2995 26.73 84.7295 26.91 83.9795 27C83.1995 27.12 82.1795 27.09 80.9195 26.97V13.86H79.8395C79.6295 13.86 79.3595 13.92 79.0595 14.01C78.7595 14.1 78.5795 14.28 78.5195 14.52ZM75.9995 9.87C75.8195 10.59 75.5795 11.34 75.2195 12.18C74.8595 13.02 74.4095 13.83 73.9295 14.67C73.4195 15.51 72.8495 16.35 72.2195 17.13C71.5895 17.94 70.9295 18.69 70.2395 19.35C69.5195 20.01 68.7995 20.61 68.0495 21.09C67.2695 21.57 66.5195 21.9 65.7695 22.08C65.5295 22.14 65.2895 22.17 65.0495 22.11C64.8095 22.05 64.5395 21.93 64.2695 21.75C63.9695 21.57 63.6695 21.27 63.3695 20.91C63.0395 20.55 62.7095 20.04 62.4095 19.44C63.7895 18.72 65.0195 17.88 66.0395 16.92C67.0595 15.96 67.8995 15 68.5595 14.01C69.2195 13.02 69.7295 12.06 70.0595 11.13C70.3595 10.2 70.5395 9.39 70.5395 8.73H68.1995C67.7795 8.97 67.4795 9.3 67.2695 9.75C67.0295 10.2 66.8795 10.65 66.7895 11.07C66.0695 11.07 65.4695 10.98 64.9895 10.77C64.4795 10.59 64.0595 10.32 63.7295 10.02C63.3995 9.72 63.1595 9.36 63.0095 9C62.8595 8.64 62.7995 8.31 62.7995 8.01C62.7995 7.62 62.8895 7.29 63.1295 7.02C63.3395 6.78 63.6695 6.63 64.0895 6.63H70.5395C70.9895 6.54 71.5295 6.42 72.1595 6.3C72.7595 6.18 73.3895 6.09 73.9895 6.09C74.6195 6.09 75.1895 6.21 75.7295 6.42C76.2695 6.66 76.6595 7.05 76.9295 7.65C76.7795 7.86 76.6295 8.13 76.4795 8.46C76.2995 8.79 76.1495 9.27 75.9995 9.87ZM70.9295 20.1C71.8595 19.26 72.6995 18.36 73.4195 17.46C74.1395 16.56 74.7395 15.54 75.2195 14.46C75.6995 14.64 76.1795 14.85 76.6595 15.09C77.1395 15.33 77.5295 15.63 77.8895 15.96C78.2495 16.29 78.5195 16.65 78.6995 17.07C78.8795 17.49 78.9695 17.94 78.9395 18.45C78.6995 18.63 78.4595 18.87 78.1595 19.17C77.8595 19.47 77.5595 19.8 77.2295 20.13C76.8995 20.49 76.5695 20.82 76.2095 21.12C75.8495 21.45 75.5195 21.69 75.1895 21.87C74.8595 22.05 74.5595 22.14 74.2595 22.17C73.9595 22.23 73.6595 22.17 73.3595 22.05C73.0295 21.93 72.6695 21.69 72.2795 21.39C71.8895 21.09 71.4395 20.64 70.9295 20.1ZM66.3995 3.09C66.3995 2.91 66.3995 2.67 66.4595 2.43C66.4895 2.19 66.5495 1.98 66.6695 1.8C66.7895 1.62 66.9395 1.44 67.1195 1.32C67.2995 1.2 67.5695 1.11 67.8695 1.11C68.1095 1.11 68.4095 1.17 68.7095 1.26C69.0095 1.38 69.3695 1.47 69.7595 1.59C70.1195 1.71 70.5395 1.83 71.0195 1.92C71.4695 2.04 71.9795 2.07 72.5195 2.07C73.1195 2.07 73.6295 2.25 73.9895 2.61C74.3495 2.97 74.5895 3.6 74.6795 4.5C74.0795 4.74 73.4495 4.92 72.8495 5.1C72.2495 5.28 71.6195 5.43 70.9895 5.52C70.3595 5.61 69.7295 5.64 69.0995 5.58C68.4395 5.52 67.8095 5.37 67.1795 5.1C66.9095 4.74 66.6995 4.41 66.5795 4.08C66.4595 3.78 66.3995 3.45 66.3995 3.09ZM120.57 24.57C120.57 24.93 120.51 25.29 120.39 25.65C120.27 26.01 120 26.28 119.61 26.52C119.19 26.76 118.62 26.94 117.87 27.03C117.09 27.15 116.07 27.12 114.81 27V17.1H111.63C111.09 18.54 110.28 19.71 109.17 20.55C108.06 21.42 106.65 21.84 104.91 21.84C103.65 21.84 102.54 21.63 101.61 21.15C100.68 20.67 99.9001 20.04 99.3001 19.2C98.6701 18.39 98.2201 17.43 97.9201 16.32C97.6201 15.21 97.4701 14.01 97.4701 12.69C97.4701 11.43 97.6201 10.23 97.9201 9.12C98.2201 8.01 98.6701 7.05 99.3001 6.21C99.9001 5.4 100.68 4.77 101.61 4.29C102.54 3.81 103.65 3.57 104.91 3.57C106.59 3.57 107.97 3.99 109.05 4.77C110.13 5.58 110.97 6.66 111.51 7.98H114.81V5.19C114.81 4.71 114.78 4.2 114.78 3.69C114.75 3.18 114.69 2.67 114.63 2.13C115.14 2.01 115.71 1.86 116.37 1.74C117 1.62 117.69 1.53 118.41 1.53C118.89 1.53 119.28 1.59 119.64 1.71C119.97 1.83 120.24 1.95 120.48 2.13C120.72 2.31 120.9 2.49 121.02 2.67C121.14 2.85 121.23 3.03 121.29 3.18C121.05 3.54 120.87 4.02 120.75 4.56C120.63 5.1 120.57 5.58 120.57 5.97V24.57ZM103.17 12.69C103.17 13.74 103.17 14.7 103.23 15.54C103.29 16.38 103.38 17.13 103.5 17.73C103.62 18.33 103.8 18.81 104.01 19.14C104.22 19.5 104.49 19.65 104.82 19.65C105.12 19.65 105.36 19.5 105.57 19.14C105.78 18.81 105.96 18.33 106.08 17.73C106.2 17.13 106.32 16.38 106.38 15.54C106.44 14.7 106.47 13.74 106.47 12.69C106.47 11.67 106.44 10.71 106.38 9.87C106.32 9.03 106.2 8.28 106.08 7.68C105.96 7.08 105.78 6.6 105.57 6.27C105.36 5.94 105.12 5.76 104.82 5.76C104.49 5.76 104.22 5.94 104.01 6.27C103.8 6.6 103.62 7.08 103.5 7.68C103.38 8.28 103.29 9.03 103.23 9.87C103.17 10.71 103.17 11.67 103.17 12.69ZM112.35 12.69C112.35 13.47 112.29 14.22 112.17 14.88H114.81V10.2H112.14C112.2 10.62 112.23 11.01 112.29 11.43C112.32 11.85 112.35 12.27 112.35 12.69ZM143.309 3.24C143.159 3.6 143.069 3.99 143.039 4.41C143.009 4.86 143.009 5.34 143.009 5.85V9.84H144.389V4.98C144.389 4.53 144.359 4.05 144.359 3.57C144.329 3.09 144.299 2.61 144.239 2.1C144.659 1.98 145.169 1.86 145.769 1.74C146.339 1.62 146.909 1.53 147.479 1.53C148.019 1.53 148.529 1.65 149.009 1.86C149.489 2.1 149.849 2.49 150.089 3.09C149.849 3.45 149.699 3.87 149.579 4.38C149.459 4.92 149.399 5.37 149.399 5.73V15.33C149.399 15.69 149.339 16.05 149.249 16.38C149.129 16.71 148.919 16.98 148.589 17.22C148.229 17.46 147.749 17.61 147.089 17.7C146.429 17.82 145.529 17.79 144.389 17.67V12H143.009V14.85C143.009 15.21 142.949 15.54 142.859 15.84C142.769 16.17 142.559 16.44 142.229 16.68C141.899 16.92 141.419 17.07 140.759 17.16C140.099 17.28 139.229 17.25 138.149 17.13V5.31C138.149 4.83 138.119 4.38 138.119 3.9C138.089 3.42 138.059 2.94 137.999 2.43C138.359 2.31 138.779 2.19 139.289 2.04C139.769 1.92 140.279 1.83 140.789 1.83C141.299 1.83 141.779 1.92 142.229 2.1C142.679 2.31 143.039 2.7 143.309 3.24ZM130.529 23.28C130.529 21.72 131.309 20.49 132.899 19.59C134.489 18.69 136.739 18.21 139.649 18.21C142.559 18.21 144.809 18.69 146.369 19.59C147.929 20.49 148.739 21.72 148.739 23.28C148.739 24.87 147.929 26.13 146.369 27.03C144.809 27.96 142.559 28.41 139.649 28.41C136.709 28.41 134.459 27.96 132.899 27.03C131.309 26.13 130.529 24.87 130.529 23.28ZM125.309 12.9C125.309 12 125.489 11.28 125.849 10.68C126.209 10.08 126.689 9.63 127.289 9.27C127.859 8.91 128.489 8.67 129.179 8.52C129.869 8.4 130.529 8.31 131.189 8.31C131.789 8.31 132.449 8.4 133.139 8.52C133.829 8.67 134.459 8.91 135.029 9.27C135.599 9.63 136.079 10.08 136.439 10.68C136.799 11.28 137.009 12 137.009 12.9C137.009 13.8 136.799 14.55 136.439 15.15C136.079 15.75 135.599 16.2 135.029 16.56C134.459 16.92 133.829 17.19 133.139 17.31C132.449 17.46 131.789 17.52 131.189 17.52C130.529 17.52 129.869 17.46 129.179 17.31C128.489 17.19 127.859 16.92 127.289 16.56C126.689 16.2 126.209 15.75 125.849 15.15C125.489 14.55 125.309 13.8 125.309 12.9ZM124.019 5.01C124.379 5.01 124.739 5.04 125.039 5.04C125.339 5.04 125.639 5.07 125.939 5.07C126.209 5.1 126.509 5.13 126.809 5.16C127.109 5.19 127.439 5.22 127.829 5.25H133.379C134.009 4.86 134.519 4.59 134.939 4.47C135.359 4.35 135.779 4.29 136.199 4.32C136.529 4.35 136.769 4.47 136.949 4.65C137.129 4.86 137.219 5.13 137.279 5.43C137.309 5.73 137.309 6.09 137.279 6.48C137.219 6.87 137.159 7.26 137.099 7.65C136.919 7.59 136.679 7.56 136.379 7.5C136.049 7.47 135.749 7.44 135.509 7.44H128.399C128.219 7.44 128.009 7.5 127.769 7.62C127.529 7.74 127.259 7.83 126.989 7.95C126.719 8.07 126.449 8.19 126.179 8.31C125.879 8.43 125.609 8.46 125.369 8.46C124.949 8.46 124.649 8.34 124.469 8.07C124.259 7.8 124.139 7.47 124.109 7.05L124.019 5.01ZM136.319 23.28C136.319 24.15 136.619 24.87 137.219 25.41C137.819 25.95 138.629 26.22 139.649 26.22C140.609 26.22 141.419 25.95 142.019 25.41C142.619 24.87 142.949 24.15 142.949 23.28C142.949 22.44 142.619 21.75 142.019 21.21C141.419 20.67 140.609 20.4 139.649 20.4C138.629 20.4 137.819 20.67 137.219 21.21C136.619 21.75 136.319 22.44 136.319 23.28ZM127.259 2.13C127.259 1.71 127.379 1.35 127.679 1.02C127.949 0.69 128.339 0.509998 128.879 0.509998C129.179 0.509998 129.389 0.539998 129.569 0.599999C129.719 0.659998 129.899 0.719999 130.109 0.779999C130.289 0.84 130.559 0.899999 130.919 0.96C131.249 1.02 131.759 1.02 132.479 1.02C132.989 1.02 133.409 1.23 133.739 1.62C134.039 2.01 134.249 2.64 134.339 3.54C133.319 3.96 132.239 4.26 131.129 4.41C130.019 4.59 128.909 4.47 127.799 4.05C127.619 3.81 127.499 3.51 127.409 3.15C127.289 2.82 127.259 2.49 127.259 2.13ZM130.169 12.9C130.169 13.62 130.229 14.22 130.349 14.67C130.469 15.12 130.769 15.33 131.189 15.33C131.579 15.33 131.849 15.12 131.969 14.67C132.089 14.22 132.179 13.62 132.179 12.9C132.179 12.18 132.089 11.61 131.969 11.16C131.849 10.74 131.579 10.5 131.189 10.5C130.769 10.5 130.469 10.74 130.349 11.16C130.229 11.61 130.169 12.18 130.169 12.9ZM160.798 20.01C161.728 19.17 162.628 18.24 163.498 17.22C164.368 16.2 165.058 15.15 165.538 14.07C166.018 14.25 166.528 14.46 167.008 14.7C167.488 14.94 167.878 15.21 168.238 15.51C168.598 15.81 168.868 16.17 169.078 16.56C169.258 16.98 169.348 17.43 169.318 17.94C169.078 18.18 168.778 18.45 168.448 18.81C168.088 19.17 167.728 19.56 167.338 19.95C166.948 20.34 166.558 20.7 166.168 21.06C165.748 21.42 165.388 21.66 165.058 21.84C164.728 22.02 164.428 22.11 164.128 22.14C163.828 22.2 163.528 22.14 163.228 21.99C162.898 21.87 162.538 21.63 162.148 21.3C161.758 21 161.308 20.55 160.798 20.01ZM167.098 6.69C166.858 8.07 166.408 9.54 165.748 11.04C165.058 12.57 164.248 14.01 163.288 15.39C162.328 16.77 161.308 18.03 160.168 19.14C159.028 20.28 157.918 21.12 156.778 21.72C156.478 21.9 156.148 21.99 155.788 21.99C155.428 21.99 155.038 21.93 154.648 21.75C154.258 21.57 153.868 21.3 153.508 20.91C153.118 20.52 152.758 19.98 152.398 19.32C153.658 18.51 154.828 17.52 155.878 16.35C156.928 15.18 157.828 13.98 158.578 12.78C159.328 11.58 159.928 10.41 160.348 9.27C160.768 8.16 160.978 7.23 160.978 6.51H158.188C157.768 6.75 157.468 7.05 157.258 7.44C157.018 7.83 156.868 8.25 156.778 8.67C156.058 8.67 155.458 8.58 154.978 8.4C154.468 8.22 154.048 7.95 153.718 7.65C153.388 7.35 153.148 7.05 152.998 6.69C152.848 6.33 152.788 6 152.788 5.67C152.788 5.28 152.878 4.95 153.118 4.65C153.328 4.38 153.658 4.23 154.078 4.23H161.068C161.518 4.11 162.088 3.99 162.808 3.84C163.498 3.72 164.158 3.63 164.758 3.63C165.388 3.63 165.988 3.75 166.528 3.99C167.068 4.23 167.458 4.65 167.728 5.28C167.608 5.46 167.488 5.64 167.368 5.88C167.218 6.12 167.128 6.39 167.098 6.69ZM176.668 24.57C176.668 24.93 176.608 25.29 176.488 25.65C176.368 26.01 176.098 26.28 175.708 26.52C175.288 26.76 174.718 26.94 173.968 27.03C173.188 27.15 172.168 27.12 170.908 27V5.19C170.908 4.71 170.878 4.2 170.878 3.69C170.848 3.18 170.788 2.67 170.728 2.13C171.238 2.01 171.808 1.86 172.468 1.74C173.098 1.62 173.788 1.53 174.508 1.53C174.988 1.53 175.378 1.59 175.738 1.71C176.068 1.83 176.338 1.95 176.578 2.13C176.818 2.31 176.998 2.49 177.118 2.67C177.238 2.85 177.328 3.03 177.388 3.18C177.148 3.54 176.968 4.02 176.848 4.56C176.728 5.1 176.668 5.58 176.668 5.97V24.57Z" fill="white"/>
</svg>
