<svg width="364" height="310" viewBox="0 0 364 310" fill="none" xmlns="http://www.w3.org/2000/svg">
<g filter="url(#filter0_d_1_488)">
<rect x="5" y="1" width="354" height="300" rx="16" fill="#033522" shape-rendering="crispEdges"/>
<rect x="4.5" y="0.5" width="355" height="301" rx="16.5" stroke="#B2A374" stroke-opacity="0.4" shape-rendering="crispEdges"/>
<path d="M65.976 54.04C65.864 53.788 65.724 53.62 65.5 53.536C65.276 53.48 65.052 53.424 64.884 53.424L64.044 53.48V63.532C64.044 63.868 63.988 64.204 63.876 64.54C63.764 64.876 63.512 65.128 63.148 65.352C62.756 65.576 62.224 65.744 61.524 65.828C60.796 65.94 59.844 65.912 58.668 65.8V45.444C58.668 44.996 58.64 44.52 58.64 44.044C58.612 43.568 58.556 43.092 58.5 42.588C58.976 42.476 59.508 42.336 60.124 42.224C60.712 42.112 61.356 42.028 62.028 42.028C62.476 42.028 62.84 42.084 63.176 42.196C63.484 42.308 63.736 42.42 63.96 42.588C64.184 42.756 64.352 42.924 64.464 43.092C64.576 43.26 64.66 43.428 64.716 43.568C64.492 43.904 64.324 44.352 64.212 44.856C64.1 45.36 64.044 45.808 64.044 46.172V51.408L66.732 51.296C67.096 51.296 67.348 51.38 67.516 51.576C67.656 51.8 67.74 52.024 67.74 52.276C67.74 52.724 67.572 53.116 67.264 53.48C66.928 53.872 66.508 54.04 65.976 54.04ZM49.54 55.944C49.568 56.784 49.736 57.372 50.072 57.736C50.38 58.1 50.968 58.212 51.864 58.1L52.508 58.016C53.292 57.652 53.964 57.316 54.552 57.008C55.112 56.728 55.644 56.588 56.12 56.616C56.512 56.672 56.82 56.784 57.016 56.98C57.184 57.204 57.296 57.456 57.352 57.736C57.38 58.016 57.352 58.352 57.296 58.716C57.212 59.108 57.128 59.472 57.044 59.836C56.876 59.78 56.624 59.752 56.288 59.752C55.952 59.752 55.644 59.752 55.42 59.752L51.248 60.032C50.128 60.144 49.148 60.144 48.28 60.032C47.412 59.92 46.656 59.696 46.04 59.332C45.396 58.996 44.892 58.492 44.528 57.82C44.164 57.148 43.968 56.28 43.912 55.216L43.576 48.02C43.52 47.488 43.436 47.068 43.268 46.732C43.1 46.396 42.96 46.172 42.82 46.06C43.184 45.472 43.66 45.052 44.248 44.828C44.808 44.604 45.424 44.464 46.04 44.464C46.264 44.464 46.516 44.492 46.824 44.52C47.104 44.576 47.412 44.604 47.692 44.66C47.972 44.716 48.224 44.8 48.448 44.856C48.672 44.94 48.868 45.024 48.98 45.08C49.036 45.332 49.092 45.864 49.148 46.648C49.204 47.46 49.232 48.384 49.288 49.42C49.344 50.484 49.372 51.576 49.428 52.752C49.456 53.928 49.484 54.992 49.54 55.944ZM82.9709 53.564C82.9709 53.9 82.9149 54.236 82.8029 54.572C82.6909 54.908 82.4389 55.16 82.0469 55.384C81.6549 55.608 81.1229 55.776 80.3949 55.86C79.6669 55.972 78.7149 55.944 77.5389 55.832H74.2069C73.8149 55.916 73.4789 55.972 73.1709 56C72.8629 56.056 72.5829 56.056 72.3029 56.056C70.8469 56.056 69.9789 55.552 69.6989 54.544C69.7829 54.32 69.8389 54.04 69.8949 53.76C69.9229 53.48 69.9509 53.172 69.9509 52.836V46.676C69.6709 46.424 69.4469 46.116 69.2789 45.78C69.1109 45.444 68.9989 45.08 68.9989 44.632C69.4189 44.184 69.9509 43.876 70.5669 43.652C71.1829 43.428 71.8269 43.316 72.4429 43.316C72.8909 43.316 73.3389 43.4 73.7589 43.512C74.1509 43.624 74.5149 43.82 74.7949 44.044C74.9349 43.848 75.1309 43.68 75.3829 43.568C75.6069 43.456 75.8869 43.372 76.2229 43.372H77.5389C77.9589 43.26 78.4629 43.148 79.0509 43.008C79.6109 42.896 80.1989 42.84 80.7589 42.84C81.3189 42.84 81.8509 42.952 82.3269 43.176C82.8029 43.4 83.1389 43.792 83.3629 44.352C83.1949 44.688 83.1109 45.136 83.0549 45.64C82.9989 46.144 82.9709 46.592 82.9709 46.956V53.564ZM92.1549 51.492C92.0429 51.24 91.9029 51.072 91.6789 50.988C91.4549 50.932 91.2309 50.876 91.0629 50.876L90.2229 50.932V56.448C90.2229 56.896 90.1389 57.288 90.0269 57.624C89.8869 57.96 89.6349 58.24 89.2429 58.436C88.8509 58.632 88.2909 58.744 87.5909 58.8C86.8909 58.856 85.9669 58.828 84.8469 58.716V45.444C84.8469 44.996 84.8189 44.52 84.8189 44.044C84.7909 43.568 84.7349 43.092 84.6789 42.588C85.1549 42.476 85.6869 42.336 86.3029 42.224C86.8909 42.112 87.5349 42.028 88.2069 42.028C88.6549 42.028 89.0189 42.084 89.3549 42.196C89.6629 42.308 89.9149 42.42 90.1389 42.588C90.3629 42.756 90.5309 42.924 90.6429 43.092C90.7549 43.26 90.8389 43.428 90.8949 43.568C90.6709 43.904 90.5029 44.352 90.3909 44.856C90.2789 45.36 90.2229 45.808 90.2229 46.172V48.86L92.9109 48.748C93.2749 48.748 93.5269 48.832 93.6949 49.028C93.8349 49.252 93.9189 49.476 93.9189 49.728C93.9189 50.176 93.7509 50.568 93.4429 50.932C93.1069 51.324 92.6869 51.492 92.1549 51.492ZM89.2429 61.124C89.7469 61.124 90.1389 61.32 90.3629 61.712C90.5869 62.104 90.6989 62.552 90.6989 63.112C90.6989 63.56 90.6149 63.98 90.5029 64.372C90.3909 64.764 90.2229 65.184 89.9989 65.604C89.4669 65.744 88.9069 65.856 88.3189 65.94C87.7309 66.052 87.1429 66.136 86.5549 66.192C85.9669 66.248 85.4069 66.304 84.8469 66.332C84.2869 66.36 83.7829 66.36 83.3349 66.36C82.1589 66.36 81.1229 66.22 80.1989 65.94C79.2749 65.66 78.4069 65.24 77.5949 64.736C76.7549 64.232 75.9709 63.616 75.2149 62.916C74.4589 62.244 73.7029 61.488 72.9189 60.648C72.7509 60.452 72.6669 60.2 72.6669 59.892C72.6669 59.724 72.6949 59.5 72.8069 59.276C72.8909 59.052 73.0309 58.856 73.2549 58.66C73.4789 58.492 73.7589 58.324 74.0949 58.184C74.4309 58.072 74.8509 57.988 75.3549 57.96C75.6909 58.464 76.0549 58.968 76.4469 59.416C76.8389 59.864 77.2869 60.284 77.7909 60.62C78.2949 60.984 78.8269 61.264 79.4149 61.46C80.0029 61.684 80.6469 61.768 81.3749 61.768C82.0469 61.768 82.7189 61.74 83.3909 61.684C84.0629 61.628 84.7069 61.544 85.3789 61.46C86.0509 61.376 86.6949 61.292 87.3389 61.236C87.9829 61.18 88.6269 61.124 89.2429 61.124ZM75.3829 45.724V53.816H77.5389V45.388H76.2509C76.0549 45.388 75.8869 45.416 75.7189 45.472C75.5509 45.528 75.4389 45.612 75.3829 45.724ZM95.0378 59.976C95.6258 59.948 96.2138 59.948 96.8298 59.948C97.4458 59.948 98.0618 59.948 98.7338 59.92C99.7138 59.92 100.778 59.864 101.954 59.78C103.13 59.696 104.306 59.584 105.51 59.444C106.686 59.304 107.89 59.136 109.066 58.968C110.242 58.8 111.334 58.576 112.37 58.352V45.444C112.37 44.996 112.342 44.52 112.342 44.044C112.314 43.568 112.258 43.092 112.202 42.588C112.678 42.476 113.21 42.336 113.826 42.224C114.414 42.112 115.058 42.028 115.73 42.028C116.178 42.028 116.542 42.084 116.878 42.196C117.186 42.308 117.438 42.42 117.662 42.588C117.886 42.756 118.054 42.924 118.166 43.092C118.278 43.26 118.362 43.428 118.418 43.568C118.194 43.904 118.026 44.352 117.914 44.856C117.802 45.36 117.746 45.808 117.746 46.172V63.532C117.746 63.868 117.69 64.204 117.578 64.54C117.466 64.876 117.214 65.128 116.85 65.352C116.458 65.576 115.926 65.744 115.226 65.828C114.498 65.94 113.546 65.912 112.37 65.8V60.536C111.362 60.76 110.326 60.984 109.206 61.152C108.086 61.32 106.966 61.488 105.846 61.628C104.726 61.796 103.606 61.908 102.486 62.02C101.366 62.132 100.33 62.244 99.3778 62.3C99.0978 62.356 98.8738 62.412 98.6498 62.496C98.4258 62.58 98.2298 62.664 98.0338 62.748C97.8098 62.832 97.5858 62.916 97.3618 62.972C97.1378 63.056 96.8858 63.084 96.6058 63.084C95.7378 63.084 95.2898 62.72 95.2338 61.936L95.0378 59.976ZM96.2418 50.008C96.2418 49.112 96.3818 48.244 96.6898 47.432C96.9978 46.62 97.4458 45.92 98.0618 45.304C98.6498 44.716 99.4058 44.24 100.302 43.876C101.198 43.54 102.234 43.344 103.41 43.344C104.586 43.344 105.594 43.54 106.49 43.876C107.386 44.24 108.114 44.716 108.73 45.304C109.346 45.92 109.794 46.62 110.102 47.432C110.382 48.244 110.55 49.112 110.55 50.008C110.55 50.96 110.382 51.828 110.102 52.64C109.794 53.452 109.346 54.152 108.73 54.74C108.114 55.356 107.386 55.832 106.49 56.168C105.594 56.532 104.586 56.7 103.41 56.7C102.234 56.7 101.198 56.532 100.302 56.168C99.4058 55.832 98.6498 55.356 98.0618 54.74C97.4458 54.152 96.9978 53.452 96.6898 52.64C96.3818 51.828 96.2418 50.96 96.2418 50.008ZM101.646 50.008C101.646 50.624 101.646 51.184 101.702 51.744C101.758 52.304 101.842 52.78 101.982 53.228C102.094 53.676 102.29 54.012 102.514 54.264C102.738 54.544 103.018 54.656 103.41 54.656C103.746 54.656 104.054 54.544 104.278 54.264C104.502 54.012 104.67 53.676 104.81 53.228C104.922 52.78 105.006 52.304 105.062 51.744C105.118 51.184 105.146 50.624 105.146 50.008C105.146 49.448 105.118 48.86 105.062 48.3C105.006 47.74 104.922 47.264 104.81 46.816C104.67 46.396 104.502 46.06 104.278 45.78C104.054 45.528 103.746 45.388 103.41 45.388C103.018 45.388 102.738 45.528 102.514 45.78C102.29 46.06 102.094 46.396 101.982 46.816C101.842 47.264 101.758 47.74 101.702 48.3C101.646 48.86 101.646 49.448 101.646 50.008ZM149.013 63.532C149.013 63.868 148.957 64.204 148.845 64.54C148.733 64.876 148.481 65.128 148.117 65.352C147.725 65.576 147.193 65.744 146.493 65.828C145.765 65.94 144.813 65.912 143.637 65.8V56.56H140.669C140.165 57.904 139.409 58.996 138.373 59.78C137.337 60.592 136.021 60.984 134.397 60.984C133.221 60.984 132.185 60.788 131.317 60.34C130.449 59.892 129.721 59.304 129.161 58.52C128.573 57.764 128.153 56.868 127.873 55.832C127.593 54.796 127.453 53.676 127.453 52.444C127.453 51.268 127.593 50.148 127.873 49.112C128.153 48.076 128.573 47.18 129.161 46.396C129.721 45.64 130.449 45.052 131.317 44.604C132.185 44.156 133.221 43.932 134.397 43.932C135.965 43.932 137.253 44.324 138.261 45.052C139.269 45.808 140.053 46.816 140.557 48.048H143.637V45.444C143.637 44.996 143.609 44.52 143.609 44.044C143.581 43.568 143.525 43.092 143.469 42.588C143.945 42.476 144.477 42.336 145.093 42.224C145.681 42.112 146.325 42.028 146.997 42.028C147.445 42.028 147.809 42.084 148.145 42.196C148.453 42.308 148.705 42.42 148.929 42.588C149.153 42.756 149.321 42.924 149.433 43.092C149.545 43.26 149.629 43.428 149.685 43.568C149.461 43.904 149.293 44.352 149.181 44.856C149.069 45.36 149.013 45.808 149.013 46.172V63.532ZM132.773 52.444C132.773 53.424 132.773 54.32 132.829 55.104C132.885 55.888 132.969 56.588 133.081 57.148C133.193 57.708 133.361 58.156 133.557 58.464C133.753 58.8 134.005 58.94 134.313 58.94C134.593 58.94 134.817 58.8 135.013 58.464C135.209 58.156 135.377 57.708 135.489 57.148C135.601 56.588 135.713 55.888 135.769 55.104C135.825 54.32 135.853 53.424 135.853 52.444C135.853 51.492 135.825 50.596 135.769 49.812C135.713 49.028 135.601 48.328 135.489 47.768C135.377 47.208 135.209 46.76 135.013 46.452C134.817 46.144 134.593 45.976 134.313 45.976C134.005 45.976 133.753 46.144 133.557 46.452C133.361 46.76 133.193 47.208 133.081 47.768C132.969 48.328 132.885 49.028 132.829 49.812C132.773 50.596 132.773 51.492 132.773 52.444ZM141.341 52.444C141.341 53.172 141.285 53.872 141.173 54.488H143.637V50.12H141.145C141.201 50.512 141.229 50.876 141.285 51.268C141.313 51.66 141.341 52.052 141.341 52.444ZM170.236 43.624C170.096 43.96 170.012 44.324 169.984 44.716C169.956 45.136 169.956 45.584 169.956 46.06V49.784H171.244V45.248C171.244 44.828 171.216 44.38 171.216 43.932C171.188 43.484 171.16 43.036 171.104 42.56C171.496 42.448 171.972 42.336 172.532 42.224C173.064 42.112 173.596 42.028 174.128 42.028C174.632 42.028 175.108 42.14 175.556 42.336C176.004 42.56 176.34 42.924 176.564 43.484C176.34 43.82 176.2 44.212 176.088 44.688C175.976 45.192 175.92 45.612 175.92 45.948V54.908C175.92 55.244 175.864 55.58 175.78 55.888C175.668 56.196 175.472 56.448 175.164 56.672C174.828 56.896 174.38 57.036 173.764 57.12C173.148 57.232 172.308 57.204 171.244 57.092V51.8H169.956V54.46C169.956 54.796 169.9 55.104 169.816 55.384C169.732 55.692 169.536 55.944 169.228 56.168C168.92 56.392 168.472 56.532 167.856 56.616C167.24 56.728 166.428 56.7 165.42 56.588V45.556C165.42 45.108 165.392 44.688 165.392 44.24C165.364 43.792 165.336 43.344 165.28 42.868C165.616 42.756 166.008 42.644 166.484 42.504C166.932 42.392 167.408 42.308 167.884 42.308C168.36 42.308 168.808 42.392 169.228 42.56C169.648 42.756 169.984 43.12 170.236 43.624ZM158.308 62.328C158.308 60.872 159.036 59.724 160.52 58.884C162.004 58.044 164.104 57.596 166.82 57.596C169.536 57.596 171.636 58.044 173.092 58.884C174.548 59.724 175.304 60.872 175.304 62.328C175.304 63.812 174.548 64.988 173.092 65.828C171.636 66.696 169.536 67.116 166.82 67.116C164.076 67.116 161.976 66.696 160.52 65.828C159.036 64.988 158.308 63.812 158.308 62.328ZM153.436 52.64C153.436 51.8 153.604 51.128 153.94 50.568C154.276 50.008 154.724 49.588 155.284 49.252C155.816 48.916 156.404 48.692 157.048 48.552C157.692 48.44 158.308 48.356 158.924 48.356C159.484 48.356 160.1 48.44 160.744 48.552C161.388 48.692 161.976 48.916 162.508 49.252C163.04 49.588 163.488 50.008 163.824 50.568C164.16 51.128 164.356 51.8 164.356 52.64C164.356 53.48 164.16 54.18 163.824 54.74C163.488 55.3 163.04 55.72 162.508 56.056C161.976 56.392 161.388 56.644 160.744 56.756C160.1 56.896 159.484 56.952 158.924 56.952C158.308 56.952 157.692 56.896 157.048 56.756C156.404 56.644 155.816 56.392 155.284 56.056C154.724 55.72 154.276 55.3 153.94 54.74C153.604 54.18 153.436 53.48 153.436 52.64ZM152.232 45.276C152.568 45.276 152.904 45.304 153.184 45.304C153.464 45.304 153.744 45.332 154.024 45.332C154.276 45.36 154.556 45.388 154.836 45.416C155.116 45.444 155.424 45.472 155.788 45.5H160.968C161.556 45.136 162.032 44.884 162.424 44.772C162.816 44.66 163.208 44.604 163.6 44.632C163.908 44.66 164.132 44.772 164.3 44.94C164.468 45.136 164.552 45.388 164.608 45.668C164.636 45.948 164.636 46.284 164.608 46.648C164.552 47.012 164.496 47.376 164.44 47.74C164.272 47.684 164.048 47.656 163.768 47.6C163.46 47.572 163.18 47.544 162.956 47.544H156.32C156.152 47.544 155.956 47.6 155.732 47.712C155.508 47.824 155.256 47.908 155.004 48.02C154.752 48.132 154.5 48.244 154.248 48.356C153.968 48.468 153.716 48.496 153.492 48.496C153.1 48.496 152.82 48.384 152.652 48.132C152.456 47.88 152.344 47.572 152.316 47.18L152.232 45.276ZM163.712 62.328C163.712 63.14 163.992 63.812 164.552 64.316C165.112 64.82 165.868 65.072 166.82 65.072C167.716 65.072 168.472 64.82 169.032 64.316C169.592 63.812 169.9 63.14 169.9 62.328C169.9 61.544 169.592 60.9 169.032 60.396C168.472 59.892 167.716 59.64 166.82 59.64C165.868 59.64 165.112 59.892 164.552 60.396C163.992 60.9 163.712 61.544 163.712 62.328ZM155.256 42.588C155.256 42.196 155.368 41.86 155.648 41.552C155.9 41.244 156.264 41.076 156.768 41.076C157.048 41.076 157.244 41.104 157.412 41.16C157.552 41.216 157.72 41.272 157.916 41.328C158.084 41.384 158.336 41.44 158.672 41.496C158.98 41.552 159.456 41.552 160.128 41.552C160.604 41.552 160.996 41.748 161.304 42.112C161.584 42.476 161.78 43.064 161.864 43.904C160.912 44.296 159.904 44.576 158.868 44.716C157.832 44.884 156.796 44.772 155.76 44.38C155.592 44.156 155.48 43.876 155.396 43.54C155.284 43.232 155.256 42.924 155.256 42.588ZM157.972 52.64C157.972 53.312 158.028 53.872 158.14 54.292C158.252 54.712 158.532 54.908 158.924 54.908C159.288 54.908 159.54 54.712 159.652 54.292C159.764 53.872 159.848 53.312 159.848 52.64C159.848 51.968 159.764 51.436 159.652 51.016C159.54 50.624 159.288 50.4 158.924 50.4C158.532 50.4 158.252 50.624 158.14 51.016C158.028 51.436 157.972 51.968 157.972 52.64ZM45.774 89.9C45.984 89.732 46.222 89.606 46.502 89.522C46.782 89.438 47.076 89.396 47.384 89.396C47.846 89.396 48.196 89.48 48.448 89.634C48.686 89.802 48.812 90.04 48.812 90.376C48.784 90.516 48.77 90.684 48.77 90.88C48.756 91.09 48.756 91.286 48.756 91.468V96.69C48.756 96.858 48.728 97.026 48.672 97.194C48.616 97.362 48.49 97.488 48.294 97.6C48.098 97.712 47.832 97.796 47.468 97.838C47.104 97.894 46.628 97.88 46.04 97.824H44.374C44.178 97.866 44.01 97.894 43.856 97.908C43.702 97.936 43.562 97.936 43.422 97.936C42.694 97.936 42.26 97.684 42.12 97.18C42.162 97.068 42.19 96.928 42.218 96.788C42.232 96.648 42.246 96.494 42.246 96.326V91.356C42.12 91.244 42.008 91.09 41.924 90.866C41.826 90.642 41.77 90.46 41.77 90.292C41.98 90.068 42.246 89.914 42.554 89.816C42.862 89.732 43.184 89.676 43.492 89.676C43.884 89.676 44.22 89.76 44.514 89.928C44.808 90.096 44.962 90.348 44.962 90.684V93.092H46.04V90.922C45.956 90.782 45.9 90.628 45.858 90.46C45.816 90.306 45.788 90.124 45.774 89.9ZM53.488 94.52C53.432 94.394 53.362 94.31 53.25 94.268C53.138 94.24 53.026 94.212 52.942 94.212L52.522 94.24V99.266C52.522 99.434 52.494 99.602 52.438 99.77C52.382 99.938 52.256 100.064 52.074 100.176C51.878 100.288 51.612 100.372 51.262 100.414C50.898 100.47 50.422 100.456 49.834 100.4V90.222C49.834 89.998 49.82 89.76 49.82 89.522C49.806 89.284 49.778 89.046 49.75 88.794C49.988 88.738 50.254 88.668 50.562 88.612C50.856 88.556 51.178 88.514 51.514 88.514C51.738 88.514 51.92 88.542 52.088 88.598C52.242 88.654 52.368 88.71 52.48 88.794C52.592 88.878 52.676 88.962 52.732 89.046C52.788 89.13 52.83 89.214 52.858 89.284C52.746 89.452 52.662 89.676 52.606 89.928C52.55 90.18 52.522 90.404 52.522 90.586V93.204L53.866 93.148C54.048 93.148 54.174 93.19 54.258 93.288C54.328 93.4 54.37 93.512 54.37 93.638C54.37 93.862 54.286 94.058 54.132 94.24C53.964 94.436 53.754 94.52 53.488 94.52ZM44.962 96.816H46.04V94.1H44.962V96.816ZM58.2335 90.348C58.0935 90.404 57.9955 90.46 57.9115 90.53C57.8275 90.6 57.7715 90.698 57.7435 90.81C57.3515 90.81 57.0575 90.726 56.8335 90.558C56.6095 90.404 56.4555 90.236 56.3995 90.054C56.3435 89.872 56.3575 89.704 56.4555 89.55C56.5535 89.396 56.7495 89.312 57.0295 89.312H62.5035C62.8535 89.256 63.1895 89.214 63.4975 89.172C63.8055 89.13 64.0715 89.116 64.3235 89.13C64.5755 89.144 64.7855 89.2 64.9675 89.298C65.1495 89.41 65.2895 89.564 65.4015 89.788C65.2895 89.956 65.2335 90.11 65.2195 90.25C65.2055 90.39 65.2055 90.558 65.2055 90.74V91.874C65.2055 92.042 65.1775 92.21 65.1215 92.378C65.0655 92.546 64.9395 92.672 64.7575 92.784C64.5615 92.896 64.2955 92.98 63.9315 93.022C63.5675 93.078 63.0915 93.064 62.5035 93.008H59.4375V94.8H63.3575C63.6655 94.674 63.9455 94.576 64.2115 94.492C64.4775 94.422 64.7295 94.394 64.9675 94.408C65.1915 94.422 65.3455 94.478 65.4435 94.576C65.5275 94.674 65.5835 94.8 65.5975 94.94C65.6115 95.08 65.5975 95.248 65.5695 95.416C65.5275 95.584 65.4855 95.752 65.4435 95.892C65.3595 95.864 65.2475 95.85 65.0795 95.85C64.9115 95.85 64.7575 95.836 64.6455 95.836H62.2935V97.95H64.6595C65.0375 97.754 65.3595 97.628 65.6395 97.544C65.9195 97.46 66.1575 97.432 66.3535 97.446C66.5775 97.474 66.7315 97.53 66.8295 97.628C66.9275 97.726 66.9835 97.852 67.0115 98.006C67.0395 98.16 67.0255 98.328 66.9975 98.51C66.9695 98.706 66.9275 98.888 66.8855 99.07C66.8015 99.042 66.6755 99.028 66.5075 99C66.3255 98.986 66.1715 98.972 66.0315 98.972H57.1695C57.0575 98.972 56.9315 99 56.7775 99.056C56.6235 99.112 56.4695 99.182 56.3015 99.238C56.1335 99.308 55.9515 99.364 55.7835 99.42C55.6155 99.476 55.4615 99.504 55.3215 99.504C55.0975 99.504 54.9295 99.434 54.8175 99.294C54.7055 99.154 54.6495 98.986 54.6355 98.79L54.5795 97.838C54.9995 97.838 55.3915 97.852 55.7275 97.866C56.0635 97.894 56.4275 97.922 56.8475 97.95H59.6055V95.836H59.4375C59.2135 95.878 58.9615 95.906 58.6815 95.934C58.4015 95.962 58.1355 95.962 57.8975 95.962C57.1835 95.962 56.7495 95.71 56.6095 95.206C56.6515 95.094 56.6795 94.968 56.7075 94.828C56.7215 94.688 56.7355 94.548 56.7355 94.38V93.232C56.4555 92.98 56.3155 92.7 56.3015 92.364C56.5115 92.14 56.7635 92.014 57.0715 91.958C57.3655 91.902 57.6735 91.874 57.9815 91.874C58.0655 91.874 58.1915 91.888 58.3315 91.888C58.4715 91.902 58.6255 91.916 58.7655 91.93C58.9055 91.958 59.0455 91.972 59.1715 91.986C59.2835 92.014 59.3815 92.028 59.4375 92.042H62.5035V90.348H58.2335ZM79.6669 94.52C79.6109 94.394 79.5409 94.31 79.4289 94.268C79.3169 94.24 79.2049 94.212 79.1209 94.212L78.7009 94.24V99.266C78.7009 99.434 78.6729 99.602 78.6169 99.77C78.5609 99.938 78.4349 100.064 78.2529 100.176C78.0569 100.288 77.7909 100.372 77.4409 100.414C77.0769 100.47 76.6009 100.456 76.0129 100.4V90.222C76.0129 89.998 75.9989 89.76 75.9989 89.522C75.9849 89.284 75.9569 89.046 75.9289 88.794C76.1669 88.738 76.4329 88.668 76.7409 88.612C77.0349 88.556 77.3569 88.514 77.6929 88.514C77.9169 88.514 78.0989 88.542 78.2669 88.598C78.4209 88.654 78.5469 88.71 78.6589 88.794C78.7709 88.878 78.8549 88.962 78.9109 89.046C78.9669 89.13 79.0089 89.214 79.0369 89.284C78.9249 89.452 78.8409 89.676 78.7849 89.928C78.7289 90.18 78.7009 90.404 78.7009 90.586V93.204L80.0449 93.148C80.2269 93.148 80.3529 93.19 80.4369 93.288C80.5069 93.4 80.5489 93.512 80.5489 93.638C80.5489 93.862 80.4649 94.058 80.3109 94.24C80.1429 94.436 79.9329 94.52 79.6669 94.52ZM74.7669 91.44C74.7109 92.056 74.5709 92.7 74.3469 93.4C74.1229 94.1 73.8149 94.758 73.4229 95.374C73.0309 95.99 72.5689 96.55 72.0369 97.026C71.4909 97.516 70.8749 97.852 70.2029 98.034C70.0489 98.09 69.8809 98.104 69.7129 98.104C69.5449 98.104 69.3629 98.048 69.1809 97.964C68.9989 97.88 68.8169 97.754 68.6489 97.586C68.4669 97.418 68.2989 97.166 68.1309 96.858C68.7889 96.648 69.3769 96.326 69.8809 95.892C70.3849 95.458 70.8189 94.968 71.1549 94.408C71.4909 93.848 71.7429 93.274 71.9109 92.658C72.0789 92.042 72.1489 91.454 72.1209 90.894H70.7069C70.5109 91.006 70.3709 91.146 70.2729 91.328C70.1609 91.51 70.0909 91.706 70.0489 91.902C69.7129 91.902 69.4329 91.86 69.2089 91.776C68.9709 91.692 68.7749 91.594 68.6209 91.454C68.4669 91.314 68.3549 91.174 68.2849 91.006C68.2149 90.852 68.1869 90.698 68.1869 90.544C68.1869 90.362 68.2289 90.208 68.3409 90.068C68.4389 89.942 68.5929 89.872 68.7889 89.872H72.0229C72.2329 89.816 72.4989 89.76 72.8349 89.69C73.1569 89.634 73.4649 89.592 73.7449 89.592C74.0389 89.592 74.3189 89.648 74.5709 89.76C74.8229 89.872 75.0049 90.068 75.1309 90.362C75.0609 90.474 74.9909 90.614 74.9349 90.796C74.8649 90.992 74.8089 91.202 74.7669 91.44ZM88.0804 91.44C88.0244 92.056 87.8844 92.7 87.6604 93.4C87.4224 94.1 87.1004 94.758 86.7084 95.374C86.3024 95.99 85.8264 96.55 85.2804 97.026C84.7204 97.516 84.1044 97.852 83.4324 98.034C83.2784 98.09 83.1104 98.104 82.9424 98.104C82.7744 98.104 82.5924 98.048 82.4104 97.964C82.2284 97.88 82.0464 97.754 81.8784 97.586C81.6964 97.418 81.5284 97.166 81.3604 96.858C82.0184 96.648 82.6064 96.326 83.1244 95.892C83.6424 95.472 84.0764 94.982 84.4264 94.436C84.7764 93.89 85.0424 93.316 85.2104 92.7C85.3784 92.084 85.4624 91.496 85.4344 90.936H83.9364C83.7404 91.048 83.6004 91.188 83.5024 91.37C83.3904 91.552 83.3204 91.748 83.2784 91.944C82.9424 91.944 82.6624 91.902 82.4384 91.818C82.2004 91.734 82.0044 91.608 81.8504 91.468C81.6964 91.328 81.5844 91.188 81.5144 91.02C81.4444 90.852 81.4164 90.698 81.4164 90.544C81.4164 90.362 81.4584 90.208 81.5704 90.068C81.6684 89.942 81.8224 89.872 82.0184 89.872H85.3364C85.5464 89.816 85.8124 89.76 86.1484 89.69C86.4704 89.634 86.7784 89.592 87.0584 89.592C87.3524 89.592 87.6324 89.648 87.8844 89.76C88.1364 89.872 88.3184 90.068 88.4444 90.362C88.3744 90.474 88.3044 90.614 88.2484 90.796C88.1784 90.992 88.1224 91.202 88.0804 91.44ZM92.2804 99.266C92.2804 99.434 92.2524 99.602 92.1964 99.77C92.1404 99.938 92.0144 100.064 91.8324 100.176C91.6364 100.288 91.3704 100.372 91.0204 100.414C90.6564 100.47 90.1804 100.456 89.5924 100.4V90.222C89.5924 89.998 89.5784 89.76 89.5784 89.522C89.5644 89.284 89.5364 89.046 89.5084 88.794C89.7464 88.738 90.0124 88.668 90.3204 88.612C90.6144 88.556 90.9364 88.514 91.2724 88.514C91.4964 88.514 91.6784 88.542 91.8464 88.598C92.0004 88.654 92.1264 88.71 92.2384 88.794C92.3504 88.878 92.4344 88.962 92.4904 89.046C92.5464 89.13 92.5884 89.214 92.6164 89.284C92.5044 89.452 92.4204 89.676 92.3644 89.928C92.3084 90.18 92.2804 90.404 92.2804 90.586V99.266ZM100.55 94.632L96.574 89.06H99.304L103.364 94.632L99.304 100.19H96.574L100.55 94.632Z" fill="#B2A374"/>
</g>
<path d="M5 261H359V281C359 292.046 350.046 301 339 301H25C13.9543 301 5 292.046 5 281V261Z" fill="#022336"/>
<g clip-path="url(#clip0_1_488)">
<path d="M296.9 253.782V203.627H303.606C305.45 203.627 307.028 204.282 308.342 205.591C309.655 206.901 310.312 208.475 310.312 210.314V247.094C310.312 248.933 309.655 250.508 308.342 251.817C307.028 253.127 305.45 253.782 303.606 253.782H296.9ZM270.076 203.627H283.488V196.94H270.076V203.627ZM263.37 253.782V196.94C263.37 195.1 264.027 193.526 265.34 192.217C266.653 190.907 268.232 190.252 270.076 190.252H283.488C285.332 190.252 286.911 190.907 288.224 192.217C289.537 193.526 290.194 195.1 290.194 196.94V253.782H263.37ZM249.959 253.782C248.114 253.782 246.536 253.127 245.223 251.817C243.909 250.508 243.253 248.933 243.253 247.094V210.314C243.253 208.475 243.909 206.901 245.223 205.591C246.536 204.282 248.114 203.627 249.959 203.627H256.664V253.782H249.959Z" fill="#F0681C"/>
</g>
<defs>
<filter id="filter0_d_1_488" x="0" y="0" width="364" height="310" filterUnits="userSpaceOnUse" color-interpolation-filters="sRGB">
<feFlood flood-opacity="0" result="BackgroundImageFix"/>
<feColorMatrix in="SourceAlpha" type="matrix" values="0 0 0 0 0 0 0 0 0 0 0 0 0 0 0 0 0 0 127 0" result="hardAlpha"/>
<feOffset dy="4"/>
<feGaussianBlur stdDeviation="2"/>
<feComposite in2="hardAlpha" operator="out"/>
<feColorMatrix type="matrix" values="0 0 0 0 0 0 0 0 0 0 0 0 0 0 0 0 0 0 0.25 0"/>
<feBlend mode="normal" in2="BackgroundImageFix" result="effect1_dropShadow_1_488"/>
<feBlend mode="normal" in="SourceGraphic" in2="effect1_dropShadow_1_488" result="shape"/>
</filter>
<clipPath id="clip0_1_488">
<rect width="112.941" height="112.941" fill="white" transform="translate(220 167)"/>
</clipPath>
</defs>
</svg>
