<svg width="364" height="310" viewBox="0 0 364 310" fill="none" xmlns="http://www.w3.org/2000/svg">
<g filter="url(#filter0_d_1_458)">
<rect x="5" y="1" width="354" height="300" rx="16" fill="#033522" shape-rendering="crispEdges"/>
<rect x="4.5" y="0.5" width="355" height="301" rx="16.5" stroke="#B2A374" stroke-opacity="0.4" shape-rendering="crispEdges"/>
<path d="M65.024 63.532C65.024 63.868 64.968 64.204 64.856 64.54C64.744 64.876 64.492 65.128 64.128 65.352C63.736 65.576 63.204 65.744 62.504 65.828C61.776 65.94 60.824 65.912 59.648 65.8V56.56H56.68C56.176 57.904 55.42 58.996 54.384 59.78C53.348 60.592 52.032 60.984 50.408 60.984C49.232 60.984 48.196 60.788 47.328 60.34C46.46 59.892 45.732 59.304 45.172 58.52C44.584 57.764 44.164 56.868 43.884 55.832C43.604 54.796 43.464 53.676 43.464 52.444C43.464 51.268 43.604 50.148 43.884 49.112C44.164 48.076 44.584 47.18 45.172 46.396C45.732 45.64 46.46 45.052 47.328 44.604C48.196 44.156 49.232 43.932 50.408 43.932C51.976 43.932 53.264 44.324 54.272 45.052C55.28 45.808 56.064 46.816 56.568 48.048H59.648V45.444C59.648 44.996 59.62 44.52 59.62 44.044C59.592 43.568 59.536 43.092 59.48 42.588C59.956 42.476 60.488 42.336 61.104 42.224C61.692 42.112 62.336 42.028 63.008 42.028C63.456 42.028 63.82 42.084 64.156 42.196C64.464 42.308 64.716 42.42 64.94 42.588C65.164 42.756 65.332 42.924 65.444 43.092C65.556 43.26 65.64 43.428 65.696 43.568C65.472 43.904 65.304 44.352 65.192 44.856C65.08 45.36 65.024 45.808 65.024 46.172V63.532ZM48.784 52.444C48.784 53.424 48.784 54.32 48.84 55.104C48.896 55.888 48.98 56.588 49.092 57.148C49.204 57.708 49.372 58.156 49.568 58.464C49.764 58.8 50.016 58.94 50.324 58.94C50.604 58.94 50.828 58.8 51.024 58.464C51.22 58.156 51.388 57.708 51.5 57.148C51.612 56.588 51.724 55.888 51.78 55.104C51.836 54.32 51.864 53.424 51.864 52.444C51.864 51.492 51.836 50.596 51.78 49.812C51.724 49.028 51.612 48.328 51.5 47.768C51.388 47.208 51.22 46.76 51.024 46.452C50.828 46.144 50.604 45.976 50.324 45.976C50.016 45.976 49.764 46.144 49.568 46.452C49.372 46.76 49.204 47.208 49.092 47.768C48.98 48.328 48.896 49.028 48.84 49.812C48.784 50.596 48.784 51.492 48.784 52.444ZM57.352 52.444C57.352 53.172 57.296 53.872 57.184 54.488H59.648V50.12H57.156C57.212 50.512 57.24 50.876 57.296 51.268C57.324 51.66 57.352 52.052 57.352 52.444ZM86.2469 43.624C86.1069 43.96 86.0229 44.324 85.9949 44.716C85.9669 45.136 85.9669 45.584 85.9669 46.06V49.784H87.2549V45.248C87.2549 44.828 87.2269 44.38 87.2269 43.932C87.1989 43.484 87.1709 43.036 87.1149 42.56C87.5069 42.448 87.9829 42.336 88.5429 42.224C89.0749 42.112 89.6069 42.028 90.1389 42.028C90.6429 42.028 91.1189 42.14 91.5669 42.336C92.0149 42.56 92.3509 42.924 92.5749 43.484C92.3509 43.82 92.2109 44.212 92.0989 44.688C91.9869 45.192 91.9309 45.612 91.9309 45.948V54.908C91.9309 55.244 91.8749 55.58 91.7909 55.888C91.6789 56.196 91.4829 56.448 91.1749 56.672C90.8389 56.896 90.3909 57.036 89.7749 57.12C89.1589 57.232 88.3189 57.204 87.2549 57.092V51.8H85.9669V54.46C85.9669 54.796 85.9109 55.104 85.8269 55.384C85.7429 55.692 85.5469 55.944 85.2389 56.168C84.9309 56.392 84.4829 56.532 83.8669 56.616C83.2509 56.728 82.4389 56.7 81.4309 56.588V45.556C81.4309 45.108 81.4029 44.688 81.4029 44.24C81.3749 43.792 81.3469 43.344 81.2909 42.868C81.6269 42.756 82.0189 42.644 82.4949 42.504C82.9429 42.392 83.4189 42.308 83.8949 42.308C84.3709 42.308 84.8189 42.392 85.2389 42.56C85.6589 42.756 85.9949 43.12 86.2469 43.624ZM74.3189 62.328C74.3189 60.872 75.0469 59.724 76.5309 58.884C78.0149 58.044 80.1149 57.596 82.8309 57.596C85.5469 57.596 87.6469 58.044 89.1029 58.884C90.5589 59.724 91.3149 60.872 91.3149 62.328C91.3149 63.812 90.5589 64.988 89.1029 65.828C87.6469 66.696 85.5469 67.116 82.8309 67.116C80.0869 67.116 77.9869 66.696 76.5309 65.828C75.0469 64.988 74.3189 63.812 74.3189 62.328ZM69.4469 52.64C69.4469 51.8 69.6149 51.128 69.9509 50.568C70.2869 50.008 70.7349 49.588 71.2949 49.252C71.8269 48.916 72.4149 48.692 73.0589 48.552C73.7029 48.44 74.3189 48.356 74.9349 48.356C75.4949 48.356 76.1109 48.44 76.7549 48.552C77.3989 48.692 77.9869 48.916 78.5189 49.252C79.0509 49.588 79.4989 50.008 79.8349 50.568C80.1709 51.128 80.3669 51.8 80.3669 52.64C80.3669 53.48 80.1709 54.18 79.8349 54.74C79.4989 55.3 79.0509 55.72 78.5189 56.056C77.9869 56.392 77.3989 56.644 76.7549 56.756C76.1109 56.896 75.4949 56.952 74.9349 56.952C74.3189 56.952 73.7029 56.896 73.0589 56.756C72.4149 56.644 71.8269 56.392 71.2949 56.056C70.7349 55.72 70.2869 55.3 69.9509 54.74C69.6149 54.18 69.4469 53.48 69.4469 52.64ZM68.2429 45.276C68.5789 45.276 68.9149 45.304 69.1949 45.304C69.4749 45.304 69.7549 45.332 70.0349 45.332C70.2869 45.36 70.5669 45.388 70.8469 45.416C71.1269 45.444 71.4349 45.472 71.7989 45.5H76.9789C77.5669 45.136 78.0429 44.884 78.4349 44.772C78.8269 44.66 79.2189 44.604 79.6109 44.632C79.9189 44.66 80.1429 44.772 80.3109 44.94C80.4789 45.136 80.5629 45.388 80.6189 45.668C80.6469 45.948 80.6469 46.284 80.6189 46.648C80.5629 47.012 80.5069 47.376 80.4509 47.74C80.2829 47.684 80.0589 47.656 79.7789 47.6C79.4709 47.572 79.1909 47.544 78.9669 47.544H72.3309C72.1629 47.544 71.9669 47.6 71.7429 47.712C71.5189 47.824 71.2669 47.908 71.0149 48.02C70.7629 48.132 70.5109 48.244 70.2589 48.356C69.9789 48.468 69.7269 48.496 69.5029 48.496C69.1109 48.496 68.8309 48.384 68.6629 48.132C68.4669 47.88 68.3549 47.572 68.3269 47.18L68.2429 45.276ZM79.7229 62.328C79.7229 63.14 80.0029 63.812 80.5629 64.316C81.1229 64.82 81.8789 65.072 82.8309 65.072C83.7269 65.072 84.4829 64.82 85.0429 64.316C85.6029 63.812 85.9109 63.14 85.9109 62.328C85.9109 61.544 85.6029 60.9 85.0429 60.396C84.4829 59.892 83.7269 59.64 82.8309 59.64C81.8789 59.64 81.1229 59.892 80.5629 60.396C80.0029 60.9 79.7229 61.544 79.7229 62.328ZM71.2669 42.588C71.2669 42.196 71.3789 41.86 71.6589 41.552C71.9109 41.244 72.2749 41.076 72.7789 41.076C73.0589 41.076 73.2549 41.104 73.4229 41.16C73.5629 41.216 73.7309 41.272 73.9269 41.328C74.0949 41.384 74.3469 41.44 74.6829 41.496C74.9909 41.552 75.4669 41.552 76.1389 41.552C76.6149 41.552 77.0069 41.748 77.3149 42.112C77.5949 42.476 77.7909 43.064 77.8749 43.904C76.9229 44.296 75.9149 44.576 74.8789 44.716C73.8429 44.884 72.8069 44.772 71.7709 44.38C71.6029 44.156 71.4909 43.876 71.4069 43.54C71.2949 43.232 71.2669 42.924 71.2669 42.588ZM73.9829 52.64C73.9829 53.312 74.0389 53.872 74.1509 54.292C74.2629 54.712 74.5429 54.908 74.9349 54.908C75.2989 54.908 75.5509 54.712 75.6629 54.292C75.7749 53.872 75.8589 53.312 75.8589 52.64C75.8589 51.968 75.7749 51.436 75.6629 51.016C75.5509 50.624 75.2989 50.4 74.9349 50.4C74.5429 50.4 74.2629 50.624 74.1509 51.016C74.0389 51.436 73.9829 51.968 73.9829 52.64ZM102.57 59.276C103.438 58.492 104.278 57.624 105.09 56.672C105.902 55.72 106.546 54.74 106.994 53.732C107.442 53.9 107.918 54.096 108.366 54.32C108.814 54.544 109.178 54.796 109.514 55.076C109.85 55.356 110.102 55.692 110.298 56.056C110.466 56.448 110.55 56.868 110.522 57.344C110.298 57.568 110.018 57.82 109.71 58.156C109.374 58.492 109.038 58.856 108.674 59.22C108.31 59.584 107.946 59.92 107.582 60.256C107.19 60.592 106.854 60.816 106.546 60.984C106.238 61.152 105.958 61.236 105.678 61.264C105.398 61.32 105.118 61.264 104.838 61.124C104.53 61.012 104.194 60.788 103.83 60.48C103.466 60.2 103.046 59.78 102.57 59.276ZM108.45 46.844C108.226 48.132 107.806 49.504 107.19 50.904C106.546 52.332 105.79 53.676 104.894 54.964C103.998 56.252 103.046 57.428 101.982 58.464C100.918 59.528 99.8818 60.312 98.8178 60.872C98.5378 61.04 98.2298 61.124 97.8938 61.124C97.5578 61.124 97.1938 61.068 96.8298 60.9C96.4658 60.732 96.1018 60.48 95.7658 60.116C95.4018 59.752 95.0658 59.248 94.7298 58.632C95.9058 57.876 96.9978 56.952 97.9778 55.86C98.9578 54.768 99.7978 53.648 100.498 52.528C101.198 51.408 101.758 50.316 102.15 49.252C102.542 48.216 102.738 47.348 102.738 46.676H100.134C99.7418 46.9 99.4618 47.18 99.2658 47.544C99.0418 47.908 98.9018 48.3 98.8178 48.692C98.1458 48.692 97.5858 48.608 97.1378 48.44C96.6618 48.272 96.2698 48.02 95.9618 47.74C95.6538 47.46 95.4298 47.18 95.2898 46.844C95.1498 46.508 95.0938 46.2 95.0938 45.892C95.0938 45.528 95.1778 45.22 95.4018 44.94C95.5978 44.688 95.9058 44.548 96.2978 44.548H102.822C103.242 44.436 103.774 44.324 104.446 44.184C105.09 44.072 105.706 43.988 106.266 43.988C106.854 43.988 107.414 44.1 107.918 44.324C108.422 44.548 108.786 44.94 109.038 45.528C108.926 45.696 108.814 45.864 108.702 46.088C108.562 46.312 108.478 46.564 108.45 46.844ZM117.382 63.532C117.382 63.868 117.326 64.204 117.214 64.54C117.102 64.876 116.85 65.128 116.486 65.352C116.094 65.576 115.562 65.744 114.862 65.828C114.134 65.94 113.182 65.912 112.006 65.8V45.444C112.006 44.996 111.978 44.52 111.978 44.044C111.95 43.568 111.894 43.092 111.838 42.588C112.314 42.476 112.846 42.336 113.462 42.224C114.05 42.112 114.694 42.028 115.366 42.028C115.814 42.028 116.178 42.084 116.514 42.196C116.822 42.308 117.074 42.42 117.298 42.588C117.522 42.756 117.69 42.924 117.802 43.092C117.914 43.26 117.998 43.428 118.054 43.568C117.83 43.904 117.662 44.352 117.55 44.856C117.438 45.36 117.382 45.808 117.382 46.172V63.532ZM145.429 48.972C144.673 49.756 143.777 50.568 142.741 51.352C141.677 52.136 140.557 52.864 139.381 53.508C138.177 54.18 136.945 54.74 135.657 55.188C134.369 55.636 133.137 55.916 131.905 56.028C131.457 56.084 131.093 56.028 130.757 55.888C130.421 55.776 130.141 55.58 129.889 55.328C129.637 55.076 129.413 54.768 129.217 54.376C129.021 54.012 128.853 53.62 128.685 53.172C129.861 52.892 131.009 52.556 132.129 52.108C133.249 51.688 134.257 51.24 135.181 50.764C136.105 50.316 136.917 49.868 137.617 49.42C138.289 48.972 138.849 48.608 139.241 48.272H134.425C134.089 48.44 133.837 48.636 133.641 48.888C133.445 49.168 133.305 49.42 133.221 49.672C132.633 49.672 132.129 49.616 131.709 49.476C131.261 49.336 130.925 49.168 130.645 48.944C130.365 48.72 130.141 48.496 130.029 48.216C129.889 47.936 129.833 47.684 129.833 47.404C129.833 47.068 129.945 46.788 130.169 46.564C130.393 46.34 130.701 46.2 131.037 46.2H140.529C140.949 46.116 141.453 46.032 142.069 45.948C142.685 45.864 143.301 45.808 143.917 45.808C144.197 45.808 144.505 45.864 144.813 45.92C145.093 46.004 145.373 46.144 145.625 46.312C145.877 46.508 146.073 46.76 146.241 47.04C146.409 47.32 146.493 47.684 146.521 48.076C146.353 48.16 146.157 48.272 145.989 48.44C145.821 48.608 145.625 48.776 145.429 48.972ZM125.969 57.372C126.809 57.372 127.593 57.4 128.265 57.428C128.937 57.484 129.665 57.54 130.505 57.596H146.129C146.885 57.204 147.529 56.952 148.089 56.784C148.649 56.616 149.125 56.56 149.517 56.588C149.965 56.644 150.273 56.756 150.469 56.952C150.665 57.148 150.777 57.4 150.833 57.708C150.889 58.016 150.861 58.352 150.805 58.716C150.749 59.108 150.665 59.472 150.581 59.836C150.413 59.78 150.161 59.752 149.825 59.696C149.461 59.668 149.153 59.64 148.873 59.64H141.397V64.092C141.397 64.372 141.341 64.652 141.229 64.904C141.117 65.184 140.865 65.38 140.501 65.548C140.109 65.716 139.577 65.828 138.877 65.884C138.149 65.94 137.197 65.912 136.021 65.8V59.64H131.149C130.925 59.64 130.673 59.696 130.365 59.808C130.057 59.92 129.749 60.06 129.413 60.172C129.077 60.312 128.713 60.424 128.377 60.536C128.041 60.648 127.733 60.704 127.453 60.704C127.005 60.704 126.669 60.564 126.445 60.284C126.221 60.004 126.109 59.668 126.081 59.276L125.969 57.372ZM133.585 43.288C133.585 42.896 133.697 42.532 133.977 42.14C134.257 41.776 134.649 41.58 135.209 41.58C135.433 41.58 135.797 41.636 136.245 41.692C136.693 41.776 137.169 41.86 137.729 41.944C138.289 42.056 138.849 42.14 139.437 42.196C140.025 42.28 140.585 42.308 141.089 42.308C141.649 42.308 142.125 42.504 142.517 42.84C142.881 43.176 143.077 43.792 143.105 44.688C142.629 44.856 142.013 44.996 141.229 45.108C140.445 45.22 139.633 45.276 138.793 45.304C137.925 45.332 137.085 45.332 136.273 45.276C135.433 45.22 134.761 45.136 134.201 45.024C133.977 44.8 133.809 44.52 133.725 44.184C133.613 43.848 133.585 43.568 133.585 43.288ZM140.417 54.012C140.921 53.788 141.397 53.536 141.845 53.256C142.293 52.976 142.741 52.696 143.133 52.416C143.525 52.136 143.861 51.884 144.197 51.604C144.505 51.352 144.785 51.128 145.009 50.904C146.017 51.296 146.745 51.772 147.249 52.332C147.753 52.892 147.949 53.536 147.865 54.32C147.697 54.376 147.501 54.46 147.249 54.628C146.969 54.796 146.689 54.964 146.381 55.132C146.045 55.3 145.709 55.496 145.317 55.664C144.925 55.832 144.533 55.972 144.141 56.028C143.497 56.168 142.853 56.112 142.237 55.832C141.621 55.552 141.005 54.964 140.417 54.012ZM167.576 51.912C167.016 51.912 166.596 51.744 166.288 51.352C165.952 50.988 165.812 50.596 165.812 50.148C165.812 49.896 165.868 49.672 166.036 49.476C166.176 49.28 166.428 49.168 166.82 49.168H169.816V45.444C169.816 44.996 169.788 44.52 169.788 44.044C169.76 43.568 169.704 43.092 169.648 42.588C170.124 42.476 170.656 42.336 171.272 42.224C171.86 42.112 172.504 42.028 173.176 42.028C173.624 42.028 173.988 42.084 174.324 42.196C174.632 42.308 174.884 42.42 175.108 42.588C175.332 42.756 175.5 42.924 175.612 43.092C175.724 43.26 175.808 43.428 175.864 43.568C175.64 43.904 175.472 44.352 175.36 44.856C175.248 45.36 175.192 45.808 175.192 46.172V56.728C175.192 57.064 175.136 57.4 175.024 57.736C174.912 58.072 174.66 58.324 174.296 58.548C173.904 58.772 173.372 58.94 172.672 59.024C171.944 59.136 170.992 59.108 169.816 58.996V51.24H168.808C168.612 51.24 168.36 51.296 168.08 51.408C167.8 51.52 167.632 51.688 167.576 51.912ZM165.14 49.112C164.916 49.84 164.524 50.652 163.964 51.492C163.404 52.36 162.732 53.2 161.948 53.984C161.164 54.796 160.268 55.524 159.26 56.168C158.252 56.812 157.216 57.288 156.096 57.568C155.872 57.624 155.648 57.652 155.368 57.652C155.088 57.652 154.808 57.568 154.5 57.4C154.192 57.26 153.884 57.008 153.548 56.644C153.212 56.308 152.876 55.804 152.54 55.188C153.66 54.796 154.696 54.32 155.648 53.704C156.572 53.088 157.356 52.472 158.028 51.8C158.7 51.128 159.204 50.484 159.568 49.84C159.932 49.196 160.128 48.636 160.128 48.132H157.944C157.552 48.356 157.272 48.636 157.076 48.972C156.852 49.336 156.712 49.728 156.628 50.12C155.956 50.12 155.396 50.036 154.948 49.868C154.472 49.7 154.08 49.504 153.772 49.224C153.464 48.972 153.24 48.692 153.1 48.356C152.96 48.048 152.904 47.74 152.904 47.46C152.904 47.096 152.988 46.788 153.212 46.536C153.408 46.312 153.716 46.172 154.108 46.172H160.156C160.576 46.088 161.08 45.976 161.668 45.864C162.228 45.752 162.816 45.668 163.376 45.668C163.964 45.668 164.496 45.78 165 45.976C165.476 46.2 165.84 46.564 166.092 47.124C165.952 47.32 165.784 47.6 165.616 47.936C165.448 48.3 165.28 48.692 165.14 49.112ZM173.932 61.124C174.436 61.124 174.828 61.32 175.052 61.712C175.276 62.104 175.388 62.552 175.388 63.112C175.388 63.56 175.304 63.98 175.192 64.372C175.08 64.764 174.912 65.184 174.688 65.604C174.156 65.744 173.596 65.856 172.98 65.94C172.364 66.052 171.776 66.136 171.16 66.192C170.544 66.248 169.956 66.304 169.396 66.332C168.808 66.36 168.276 66.36 167.828 66.36C166.652 66.36 165.644 66.248 164.776 66.024C163.908 65.8 163.096 65.492 162.34 65.044C161.584 64.624 160.828 64.092 160.1 63.476C159.344 62.86 158.532 62.132 157.636 61.292C157.524 61.236 157.468 61.124 157.44 60.984C157.384 60.844 157.384 60.704 157.384 60.536C157.384 60.368 157.412 60.172 157.496 59.948C157.58 59.724 157.72 59.528 157.916 59.332C158.112 59.164 158.364 58.996 158.7 58.884C159.036 58.772 159.428 58.688 159.932 58.66C160.772 59.668 161.64 60.452 162.592 60.984C163.516 61.516 164.608 61.768 165.84 61.768C166.512 61.768 167.184 61.74 167.884 61.684C168.584 61.628 169.284 61.544 169.956 61.46C170.628 61.376 171.328 61.292 172 61.236C172.672 61.18 173.316 61.124 173.932 61.124ZM160.66 56.112C162.48 54.936 163.88 53.424 164.888 51.576C165.364 51.772 165.812 51.996 166.232 52.22C166.624 52.444 166.988 52.724 167.268 53.004C167.548 53.312 167.744 53.648 167.884 54.04C167.996 54.432 168.024 54.852 167.968 55.3C167.8 55.412 167.604 55.552 167.352 55.748C167.1 55.944 166.82 56.168 166.512 56.392C166.204 56.616 165.896 56.868 165.56 57.092C165.224 57.316 164.916 57.512 164.636 57.68C164.356 57.848 164.076 57.96 163.824 58.016C163.544 58.072 163.264 58.044 162.984 57.932C162.676 57.82 162.34 57.624 161.976 57.344C161.584 57.064 161.164 56.644 160.66 56.112ZM156.264 42.924C156.264 42.756 156.264 42.532 156.32 42.308C156.348 42.084 156.404 41.888 156.516 41.72C156.628 41.552 156.768 41.384 156.936 41.272C157.104 41.16 157.356 41.076 157.636 41.076C157.86 41.076 158.14 41.132 158.42 41.216C158.7 41.328 159.036 41.412 159.4 41.524C159.736 41.636 160.128 41.748 160.576 41.832C160.996 41.944 161.472 41.972 161.976 41.972C162.536 41.972 163.012 42.14 163.348 42.476C163.684 42.812 163.908 43.4 163.992 44.24C163.432 44.464 162.844 44.632 162.284 44.8C161.724 44.968 161.136 45.108 160.548 45.192C159.96 45.276 159.372 45.304 158.784 45.248C158.168 45.192 157.58 45.052 156.992 44.8C156.74 44.464 156.544 44.156 156.432 43.848C156.32 43.568 156.264 43.26 156.264 42.924ZM45.774 89.9C45.984 89.732 46.222 89.606 46.502 89.522C46.782 89.438 47.076 89.396 47.384 89.396C47.846 89.396 48.196 89.48 48.448 89.634C48.686 89.802 48.812 90.04 48.812 90.376C48.784 90.516 48.77 90.684 48.77 90.88C48.756 91.09 48.756 91.286 48.756 91.468V96.69C48.756 96.858 48.728 97.026 48.672 97.194C48.616 97.362 48.49 97.488 48.294 97.6C48.098 97.712 47.832 97.796 47.468 97.838C47.104 97.894 46.628 97.88 46.04 97.824H44.374C44.178 97.866 44.01 97.894 43.856 97.908C43.702 97.936 43.562 97.936 43.422 97.936C42.694 97.936 42.26 97.684 42.12 97.18C42.162 97.068 42.19 96.928 42.218 96.788C42.232 96.648 42.246 96.494 42.246 96.326V91.356C42.12 91.244 42.008 91.09 41.924 90.866C41.826 90.642 41.77 90.46 41.77 90.292C41.98 90.068 42.246 89.914 42.554 89.816C42.862 89.732 43.184 89.676 43.492 89.676C43.884 89.676 44.22 89.76 44.514 89.928C44.808 90.096 44.962 90.348 44.962 90.684V93.092H46.04V90.922C45.956 90.782 45.9 90.628 45.858 90.46C45.816 90.306 45.788 90.124 45.774 89.9ZM53.488 94.52C53.432 94.394 53.362 94.31 53.25 94.268C53.138 94.24 53.026 94.212 52.942 94.212L52.522 94.24V99.266C52.522 99.434 52.494 99.602 52.438 99.77C52.382 99.938 52.256 100.064 52.074 100.176C51.878 100.288 51.612 100.372 51.262 100.414C50.898 100.47 50.422 100.456 49.834 100.4V90.222C49.834 89.998 49.82 89.76 49.82 89.522C49.806 89.284 49.778 89.046 49.75 88.794C49.988 88.738 50.254 88.668 50.562 88.612C50.856 88.556 51.178 88.514 51.514 88.514C51.738 88.514 51.92 88.542 52.088 88.598C52.242 88.654 52.368 88.71 52.48 88.794C52.592 88.878 52.676 88.962 52.732 89.046C52.788 89.13 52.83 89.214 52.858 89.284C52.746 89.452 52.662 89.676 52.606 89.928C52.55 90.18 52.522 90.404 52.522 90.586V93.204L53.866 93.148C54.048 93.148 54.174 93.19 54.258 93.288C54.328 93.4 54.37 93.512 54.37 93.638C54.37 93.862 54.286 94.058 54.132 94.24C53.964 94.436 53.754 94.52 53.488 94.52ZM44.962 96.816H46.04V94.1H44.962V96.816ZM58.2335 90.348C58.0935 90.404 57.9955 90.46 57.9115 90.53C57.8275 90.6 57.7715 90.698 57.7435 90.81C57.3515 90.81 57.0575 90.726 56.8335 90.558C56.6095 90.404 56.4555 90.236 56.3995 90.054C56.3435 89.872 56.3575 89.704 56.4555 89.55C56.5535 89.396 56.7495 89.312 57.0295 89.312H62.5035C62.8535 89.256 63.1895 89.214 63.4975 89.172C63.8055 89.13 64.0715 89.116 64.3235 89.13C64.5755 89.144 64.7855 89.2 64.9675 89.298C65.1495 89.41 65.2895 89.564 65.4015 89.788C65.2895 89.956 65.2335 90.11 65.2195 90.25C65.2055 90.39 65.2055 90.558 65.2055 90.74V91.874C65.2055 92.042 65.1775 92.21 65.1215 92.378C65.0655 92.546 64.9395 92.672 64.7575 92.784C64.5615 92.896 64.2955 92.98 63.9315 93.022C63.5675 93.078 63.0915 93.064 62.5035 93.008H59.4375V94.8H63.3575C63.6655 94.674 63.9455 94.576 64.2115 94.492C64.4775 94.422 64.7295 94.394 64.9675 94.408C65.1915 94.422 65.3455 94.478 65.4435 94.576C65.5275 94.674 65.5835 94.8 65.5975 94.94C65.6115 95.08 65.5975 95.248 65.5695 95.416C65.5275 95.584 65.4855 95.752 65.4435 95.892C65.3595 95.864 65.2475 95.85 65.0795 95.85C64.9115 95.85 64.7575 95.836 64.6455 95.836H62.2935V97.95H64.6595C65.0375 97.754 65.3595 97.628 65.6395 97.544C65.9195 97.46 66.1575 97.432 66.3535 97.446C66.5775 97.474 66.7315 97.53 66.8295 97.628C66.9275 97.726 66.9835 97.852 67.0115 98.006C67.0395 98.16 67.0255 98.328 66.9975 98.51C66.9695 98.706 66.9275 98.888 66.8855 99.07C66.8015 99.042 66.6755 99.028 66.5075 99C66.3255 98.986 66.1715 98.972 66.0315 98.972H57.1695C57.0575 98.972 56.9315 99 56.7775 99.056C56.6235 99.112 56.4695 99.182 56.3015 99.238C56.1335 99.308 55.9515 99.364 55.7835 99.42C55.6155 99.476 55.4615 99.504 55.3215 99.504C55.0975 99.504 54.9295 99.434 54.8175 99.294C54.7055 99.154 54.6495 98.986 54.6355 98.79L54.5795 97.838C54.9995 97.838 55.3915 97.852 55.7275 97.866C56.0635 97.894 56.4275 97.922 56.8475 97.95H59.6055V95.836H59.4375C59.2135 95.878 58.9615 95.906 58.6815 95.934C58.4015 95.962 58.1355 95.962 57.8975 95.962C57.1835 95.962 56.7495 95.71 56.6095 95.206C56.6515 95.094 56.6795 94.968 56.7075 94.828C56.7215 94.688 56.7355 94.548 56.7355 94.38V93.232C56.4555 92.98 56.3155 92.7 56.3015 92.364C56.5115 92.14 56.7635 92.014 57.0715 91.958C57.3655 91.902 57.6735 91.874 57.9815 91.874C58.0655 91.874 58.1915 91.888 58.3315 91.888C58.4715 91.902 58.6255 91.916 58.7655 91.93C58.9055 91.958 59.0455 91.972 59.1715 91.986C59.2835 92.014 59.3815 92.028 59.4375 92.042H62.5035V90.348H58.2335ZM79.6669 94.52C79.6109 94.394 79.5409 94.31 79.4289 94.268C79.3169 94.24 79.2049 94.212 79.1209 94.212L78.7009 94.24V99.266C78.7009 99.434 78.6729 99.602 78.6169 99.77C78.5609 99.938 78.4349 100.064 78.2529 100.176C78.0569 100.288 77.7909 100.372 77.4409 100.414C77.0769 100.47 76.6009 100.456 76.0129 100.4V90.222C76.0129 89.998 75.9989 89.76 75.9989 89.522C75.9849 89.284 75.9569 89.046 75.9289 88.794C76.1669 88.738 76.4329 88.668 76.7409 88.612C77.0349 88.556 77.3569 88.514 77.6929 88.514C77.9169 88.514 78.0989 88.542 78.2669 88.598C78.4209 88.654 78.5469 88.71 78.6589 88.794C78.7709 88.878 78.8549 88.962 78.9109 89.046C78.9669 89.13 79.0089 89.214 79.0369 89.284C78.9249 89.452 78.8409 89.676 78.7849 89.928C78.7289 90.18 78.7009 90.404 78.7009 90.586V93.204L80.0449 93.148C80.2269 93.148 80.3529 93.19 80.4369 93.288C80.5069 93.4 80.5489 93.512 80.5489 93.638C80.5489 93.862 80.4649 94.058 80.3109 94.24C80.1429 94.436 79.9329 94.52 79.6669 94.52ZM74.7669 91.44C74.7109 92.056 74.5709 92.7 74.3469 93.4C74.1229 94.1 73.8149 94.758 73.4229 95.374C73.0309 95.99 72.5689 96.55 72.0369 97.026C71.4909 97.516 70.8749 97.852 70.2029 98.034C70.0489 98.09 69.8809 98.104 69.7129 98.104C69.5449 98.104 69.3629 98.048 69.1809 97.964C68.9989 97.88 68.8169 97.754 68.6489 97.586C68.4669 97.418 68.2989 97.166 68.1309 96.858C68.7889 96.648 69.3769 96.326 69.8809 95.892C70.3849 95.458 70.8189 94.968 71.1549 94.408C71.4909 93.848 71.7429 93.274 71.9109 92.658C72.0789 92.042 72.1489 91.454 72.1209 90.894H70.7069C70.5109 91.006 70.3709 91.146 70.2729 91.328C70.1609 91.51 70.0909 91.706 70.0489 91.902C69.7129 91.902 69.4329 91.86 69.2089 91.776C68.9709 91.692 68.7749 91.594 68.6209 91.454C68.4669 91.314 68.3549 91.174 68.2849 91.006C68.2149 90.852 68.1869 90.698 68.1869 90.544C68.1869 90.362 68.2289 90.208 68.3409 90.068C68.4389 89.942 68.5929 89.872 68.7889 89.872H72.0229C72.2329 89.816 72.4989 89.76 72.8349 89.69C73.1569 89.634 73.4649 89.592 73.7449 89.592C74.0389 89.592 74.3189 89.648 74.5709 89.76C74.8229 89.872 75.0049 90.068 75.1309 90.362C75.0609 90.474 74.9909 90.614 74.9349 90.796C74.8649 90.992 74.8089 91.202 74.7669 91.44ZM88.0804 91.44C88.0244 92.056 87.8844 92.7 87.6604 93.4C87.4224 94.1 87.1004 94.758 86.7084 95.374C86.3024 95.99 85.8264 96.55 85.2804 97.026C84.7204 97.516 84.1044 97.852 83.4324 98.034C83.2784 98.09 83.1104 98.104 82.9424 98.104C82.7744 98.104 82.5924 98.048 82.4104 97.964C82.2284 97.88 82.0464 97.754 81.8784 97.586C81.6964 97.418 81.5284 97.166 81.3604 96.858C82.0184 96.648 82.6064 96.326 83.1244 95.892C83.6424 95.472 84.0764 94.982 84.4264 94.436C84.7764 93.89 85.0424 93.316 85.2104 92.7C85.3784 92.084 85.4624 91.496 85.4344 90.936H83.9364C83.7404 91.048 83.6004 91.188 83.5024 91.37C83.3904 91.552 83.3204 91.748 83.2784 91.944C82.9424 91.944 82.6624 91.902 82.4384 91.818C82.2004 91.734 82.0044 91.608 81.8504 91.468C81.6964 91.328 81.5844 91.188 81.5144 91.02C81.4444 90.852 81.4164 90.698 81.4164 90.544C81.4164 90.362 81.4584 90.208 81.5704 90.068C81.6684 89.942 81.8224 89.872 82.0184 89.872H85.3364C85.5464 89.816 85.8124 89.76 86.1484 89.69C86.4704 89.634 86.7784 89.592 87.0584 89.592C87.3524 89.592 87.6324 89.648 87.8844 89.76C88.1364 89.872 88.3184 90.068 88.4444 90.362C88.3744 90.474 88.3044 90.614 88.2484 90.796C88.1784 90.992 88.1224 91.202 88.0804 91.44ZM92.2804 99.266C92.2804 99.434 92.2524 99.602 92.1964 99.77C92.1404 99.938 92.0144 100.064 91.8324 100.176C91.6364 100.288 91.3704 100.372 91.0204 100.414C90.6564 100.47 90.1804 100.456 89.5924 100.4V90.222C89.5924 89.998 89.5784 89.76 89.5784 89.522C89.5644 89.284 89.5364 89.046 89.5084 88.794C89.7464 88.738 90.0124 88.668 90.3204 88.612C90.6144 88.556 90.9364 88.514 91.2724 88.514C91.4964 88.514 91.6784 88.542 91.8464 88.598C92.0004 88.654 92.1264 88.71 92.2384 88.794C92.3504 88.878 92.4344 88.962 92.4904 89.046C92.5464 89.13 92.5884 89.214 92.6164 89.284C92.5044 89.452 92.4204 89.676 92.3644 89.928C92.3084 90.18 92.2804 90.404 92.2804 90.586V99.266ZM100.55 94.632L96.574 89.06H99.304L103.364 94.632L99.304 100.19H96.574L100.55 94.632Z" fill="#B2A374"/>
</g>
<path d="M5 261H359V281C359 292.046 350.046 301 339 301H25C13.9543 301 5 292.046 5 281V261Z" fill="#022336"/>
<g clip-path="url(#clip0_1_458)">
<path d="M264.325 223.833H229.584L257.863 244.046L247.138 278.833L275.417 257.337L303.742 278.833L292.971 244.046L321.25 223.833H286.509L275.417 187.167L264.325 223.833ZM322.9 278.833L314.375 251.287L333.534 237.583H317.767L303.65 247.667L310.342 269.3L322.9 278.833ZM302.917 214.667L294.575 187.167L289.809 202.979L293.338 214.667H302.917Z" fill="#FF5C00"/>
</g>
<defs>
<filter id="filter0_d_1_458" x="0" y="0" width="364" height="310" filterUnits="userSpaceOnUse" color-interpolation-filters="sRGB">
<feFlood flood-opacity="0" result="BackgroundImageFix"/>
<feColorMatrix in="SourceAlpha" type="matrix" values="0 0 0 0 0 0 0 0 0 0 0 0 0 0 0 0 0 0 127 0" result="hardAlpha"/>
<feOffset dy="4"/>
<feGaussianBlur stdDeviation="2"/>
<feComposite in2="hardAlpha" operator="out"/>
<feColorMatrix type="matrix" values="0 0 0 0 0 0 0 0 0 0 0 0 0 0 0 0 0 0 0.25 0"/>
<feBlend mode="normal" in2="BackgroundImageFix" result="effect1_dropShadow_1_458"/>
<feBlend mode="normal" in="SourceGraphic" in2="effect1_dropShadow_1_458" result="shape"/>
</filter>
<clipPath id="clip0_1_458">
<rect width="110" height="110" fill="white" transform="translate(225 178)"/>
</clipPath>
</defs>
</svg>
