<svg width="1438" height="128" viewBox="0 0 1438 128" fill="none" xmlns="http://www.w3.org/2000/svg">
<path d="M20.25 8.48C20.1 8.84 20.01 9.23 19.98 9.65C19.95 10.1 19.95 10.58 19.95 11.09V16.28H21.51V9.98C21.51 9.53 21.48 9.05 21.48 8.57C21.45 8.09 21.42 7.61 21.36 7.1C21.72 6.98 22.17 6.86 22.74 6.74C23.31 6.62 23.88 6.53 24.48 6.53C25.05 6.53 25.59 6.65 26.1 6.86C26.58 7.1 26.97 7.49 27.21 8.09C26.97 8.45 26.82 8.87 26.7 9.38C26.58 9.92 26.52 10.37 26.52 10.73V29.78C26.52 30.14 26.46 30.5 26.37 30.83C26.25 31.16 26.04 31.43 25.71 31.67C25.35 31.91 24.87 32.06 24.21 32.15C23.55 32.27 22.65 32.24 21.51 32.12V18.5H19.95V29.18C19.95 29.54 19.89 29.87 19.8 30.17C19.71 30.5 19.5 30.77 19.17 31.01C18.84 31.25 18.36 31.4 17.7 31.49C17.04 31.61 16.17 31.58 15.09 31.46V10.55C15.09 10.07 15.06 9.62 15.06 9.14C15.03 8.66 15 8.18 14.94 7.67C15.3 7.55 15.72 7.43 16.23 7.28C16.71 7.16 17.22 7.07 17.73 7.07C18.24 7.07 18.72 7.16 19.17 7.34C19.62 7.55 19.98 7.94 20.25 8.48ZM8.04 21.83C8.04 22.61 8.19 23.15 8.49 23.42C8.76 23.72 9.21 23.81 9.87 23.72L10.26 23.63C10.8 23.21 11.28 22.88 11.7 22.64C12.12 22.4 12.54 22.31 12.96 22.34C13.32 22.4 13.59 22.55 13.74 22.79C13.86 23.03 13.95 23.33 13.95 23.66C13.95 24.02 13.92 24.35 13.86 24.71C13.77 25.07 13.71 25.37 13.65 25.61C13.53 25.58 13.38 25.55 13.17 25.52C12.96 25.52 12.75 25.52 12.57 25.52L9.24 25.76C8.25 25.88 7.38 25.88 6.6 25.79C5.82 25.7 5.13 25.46 4.59 25.07C4.02 24.71 3.57 24.17 3.27 23.45C2.97 22.73 2.79 21.8 2.79 20.6L2.52 12.65C2.46 12.08 2.37 11.63 2.25 11.27C2.13 10.91 1.98 10.67 1.83 10.55C2.1 10.04 2.49 9.68 3.03 9.47C3.57 9.26 4.11 9.14 4.71 9.14C5.28 9.14 5.82 9.2 6.36 9.32C6.87 9.47 7.26 9.62 7.5 9.8C7.56 10.07 7.59 10.64 7.65 11.54C7.71 12.44 7.74 13.49 7.8 14.66C7.86 15.86 7.89 17.09 7.92 18.38C7.95 19.67 7.98 20.81 8.04 21.83ZM34.9406 18.41C35.8406 18.41 36.6806 18.44 37.4006 18.47C38.1206 18.53 38.9006 18.59 39.8006 18.65H56.5406C57.3506 18.23 58.0406 17.96 58.6406 17.78C59.2406 17.6 59.7506 17.54 60.1706 17.57C60.6506 17.63 60.9806 17.75 61.1906 17.96C61.4006 18.17 61.5206 18.44 61.5806 18.77C61.6406 19.1 61.6106 19.46 61.5506 19.85C61.4906 20.27 61.4006 20.66 61.3106 21.05C61.1306 20.99 60.8606 20.96 60.5006 20.9C60.1106 20.87 59.7806 20.84 59.4806 20.84H40.4906C40.2506 20.84 39.9806 20.9 39.6506 21.02C39.3206 21.14 38.9906 21.29 38.6306 21.41C38.2706 21.56 37.8806 21.68 37.5206 21.8C37.1606 21.92 36.8306 21.98 36.5306 21.98C36.0506 21.98 35.6906 21.83 35.4506 21.53C35.2106 21.23 35.0906 20.87 35.0606 20.45L34.9406 18.41ZM57.3206 26.75C57.8606 26.75 58.2806 26.96 58.5206 27.38C58.7606 27.8 58.8806 28.28 58.8806 28.88C58.8806 29.36 58.7906 29.81 58.6706 30.23C58.5506 30.65 58.3706 31.1 58.1306 31.55C57.5606 31.7 56.9006 31.82 56.1206 31.91C55.3406 32.03 54.5306 32.12 53.7206 32.18C52.9106 32.24 52.1306 32.3 51.3806 32.33C50.6306 32.36 50.0006 32.36 49.5206 32.36C48.2606 32.36 47.1506 32.21 46.1906 31.91C45.2306 31.61 44.3306 31.16 43.4906 30.59C42.6506 30.02 41.8406 29.33 41.0606 28.55C40.2806 27.77 39.5006 26.9 38.6606 25.94C38.4806 25.73 38.3906 25.46 38.3906 25.13C38.3906 24.95 38.4206 24.71 38.5406 24.47C38.6306 24.23 38.7806 24.02 39.0206 23.81C39.2606 23.63 39.5606 23.45 39.9206 23.3C40.2806 23.18 40.7306 23.09 41.2706 23.06C41.6306 23.6 41.9906 24.14 42.4106 24.65C42.8306 25.19 43.2806 25.64 43.8206 26.06C44.3306 26.48 44.9006 26.84 45.5606 27.08C46.1906 27.32 46.9106 27.44 47.7206 27.44C48.5006 27.44 49.3406 27.41 50.1806 27.35C51.0206 27.29 51.8606 27.2 52.7006 27.11C53.5406 27.02 54.3506 26.93 55.1306 26.87C55.9106 26.81 56.6606 26.75 57.3206 26.75ZM43.9706 9.74C43.5506 9.98 43.2506 10.28 43.0406 10.67C42.8006 11.06 42.6506 11.48 42.5606 11.9C41.8406 11.9 41.2406 11.81 40.7606 11.63C40.2506 11.45 39.8306 11.24 39.5006 10.94C39.1706 10.64 38.9306 10.34 38.7806 9.98C38.6306 9.65 38.5706 9.32 38.5706 8.99C38.5706 8.6 38.6606 8.27 38.9006 7.97C39.1106 7.7 39.4406 7.55 39.8606 7.55H51.7706C52.2206 7.43 52.7606 7.31 53.4206 7.16C54.0806 7.04 54.7106 6.95 55.3106 6.95C55.9406 6.95 56.5106 7.07 56.9906 7.31C57.4706 7.55 57.8606 7.97 58.1306 8.6C57.9806 8.84 57.8606 9.14 57.7706 9.5C57.6806 9.86 57.6506 10.31 57.6506 10.82C57.6506 11.3 57.6206 11.81 57.5906 12.32C57.5606 12.83 57.5306 13.31 57.5006 13.76C57.4406 14.24 57.3806 14.66 57.3206 15.02C57.2606 15.38 57.1706 15.68 57.1106 15.86C56.9906 16.16 56.8106 16.4 56.6006 16.58C56.3906 16.76 56.0906 16.85 55.7006 16.91C55.2806 16.97 54.7706 16.94 54.1106 16.88C53.4506 16.82 52.6106 16.73 51.5906 16.55C51.6806 16.19 51.7706 15.71 51.8306 15.08C51.8906 14.48 51.9206 13.82 51.9506 13.13C51.9806 12.47 52.0106 11.81 52.0106 11.18C52.0106 10.58 52.0406 10.1 52.0406 9.74H43.9706ZM79.5195 19.52C78.9195 19.52 78.4695 19.34 78.1395 18.95C77.7795 18.59 77.6295 18.17 77.6295 17.69C77.6295 17.42 77.6895 17.18 77.8695 16.97C78.0195 16.76 78.2895 16.64 78.7095 16.64H81.9195V10.19C81.9195 9.71 81.8895 9.2 81.8895 8.69C81.8595 8.18 81.7995 7.67 81.7395 7.13C82.2495 7.01 82.8195 6.86 83.4795 6.74C84.1095 6.62 84.7995 6.53 85.5195 6.53C85.9995 6.53 86.3895 6.59 86.7495 6.71C87.0795 6.83 87.3495 6.95 87.5895 7.13C87.8295 7.31 88.0095 7.49 88.1295 7.67C88.2495 7.85 88.3395 8.03 88.3995 8.18C88.1595 8.54 87.9795 9.02 87.8595 9.56C87.7395 10.1 87.6795 10.58 87.6795 10.97V29.54C87.6795 29.9 87.6195 30.26 87.4995 30.62C87.3795 30.98 87.1095 31.25 86.7195 31.49C86.2995 31.73 85.7295 31.91 84.9795 32C84.1995 32.12 83.1795 32.09 81.9195 31.97V18.86H80.8395C80.6295 18.86 80.3595 18.92 80.0595 19.01C79.7595 19.1 79.5795 19.28 79.5195 19.52ZM76.9995 14.87C76.8195 15.59 76.5795 16.34 76.2195 17.18C75.8595 18.02 75.4095 18.83 74.9295 19.67C74.4195 20.51 73.8495 21.35 73.2195 22.13C72.5895 22.94 71.9295 23.69 71.2395 24.35C70.5195 25.01 69.7995 25.61 69.0495 26.09C68.2695 26.57 67.5195 26.9 66.7695 27.08C66.5295 27.14 66.2895 27.17 66.0495 27.11C65.8095 27.05 65.5395 26.93 65.2695 26.75C64.9695 26.57 64.6695 26.27 64.3695 25.91C64.0395 25.55 63.7095 25.04 63.4095 24.44C64.7895 23.72 66.0195 22.88 67.0395 21.92C68.0595 20.96 68.8995 20 69.5595 19.01C70.2195 18.02 70.7295 17.06 71.0595 16.13C71.3595 15.2 71.5395 14.39 71.5395 13.73H69.1995C68.7795 13.97 68.4795 14.3 68.2695 14.75C68.0295 15.2 67.8795 15.65 67.7895 16.07C67.0695 16.07 66.4695 15.98 65.9895 15.77C65.4795 15.59 65.0595 15.32 64.7295 15.02C64.3995 14.72 64.1595 14.36 64.0095 14C63.8595 13.64 63.7995 13.31 63.7995 13.01C63.7995 12.62 63.8895 12.29 64.1295 12.02C64.3395 11.78 64.6695 11.63 65.0895 11.63H71.5395C71.9895 11.54 72.5295 11.42 73.1595 11.3C73.7595 11.18 74.3895 11.09 74.9895 11.09C75.6195 11.09 76.1895 11.21 76.7295 11.42C77.2695 11.66 77.6595 12.05 77.9295 12.65C77.7795 12.86 77.6295 13.13 77.4795 13.46C77.2995 13.79 77.1495 14.27 76.9995 14.87ZM71.9295 25.1C72.8595 24.26 73.6995 23.36 74.4195 22.46C75.1395 21.56 75.7395 20.54 76.2195 19.46C76.6995 19.64 77.1795 19.85 77.6595 20.09C78.1395 20.33 78.5295 20.63 78.8895 20.96C79.2495 21.29 79.5195 21.65 79.6995 22.07C79.8795 22.49 79.9695 22.94 79.9395 23.45C79.6995 23.63 79.4595 23.87 79.1595 24.17C78.8595 24.47 78.5595 24.8 78.2295 25.13C77.8995 25.49 77.5695 25.82 77.2095 26.12C76.8495 26.45 76.5195 26.69 76.1895 26.87C75.8595 27.05 75.5595 27.14 75.2595 27.17C74.9595 27.23 74.6595 27.17 74.3595 27.05C74.0295 26.93 73.6695 26.69 73.2795 26.39C72.8895 26.09 72.4395 25.64 71.9295 25.1ZM67.3995 8.09C67.3995 7.91 67.3995 7.67 67.4595 7.43C67.4895 7.19 67.5495 6.98 67.6695 6.8C67.7895 6.62 67.9395 6.44 68.1195 6.32C68.2995 6.2 68.5695 6.11 68.8695 6.11C69.1095 6.11 69.4095 6.17 69.7095 6.26C70.0095 6.38 70.3695 6.47 70.7595 6.59C71.1195 6.71 71.5395 6.83 72.0195 6.92C72.4695 7.04 72.9795 7.07 73.5195 7.07C74.1195 7.07 74.6295 7.25 74.9895 7.61C75.3495 7.97 75.5895 8.6 75.6795 9.5C75.0795 9.74 74.4495 9.92 73.8495 10.1C73.2495 10.28 72.6195 10.43 71.9895 10.52C71.3595 10.61 70.7295 10.64 70.0995 10.58C69.4395 10.52 68.8095 10.37 68.1795 10.1C67.9095 9.74 67.6995 9.41 67.5795 9.08C67.4595 8.78 67.3995 8.45 67.3995 8.09ZM121.57 29.57C121.57 29.93 121.51 30.29 121.39 30.65C121.27 31.01 121 31.28 120.61 31.52C120.19 31.76 119.62 31.94 118.87 32.03C118.09 32.15 117.07 32.12 115.81 32V22.1H112.63C112.09 23.54 111.28 24.71 110.17 25.55C109.06 26.42 107.65 26.84 105.91 26.84C104.65 26.84 103.54 26.63 102.61 26.15C101.68 25.67 100.9 25.04 100.3 24.2C99.6701 23.39 99.2201 22.43 98.9201 21.32C98.6201 20.21 98.4701 19.01 98.4701 17.69C98.4701 16.43 98.6201 15.23 98.9201 14.12C99.2201 13.01 99.6701 12.05 100.3 11.21C100.9 10.4 101.68 9.77 102.61 9.29C103.54 8.81 104.65 8.57 105.91 8.57C107.59 8.57 108.97 8.99 110.05 9.77C111.13 10.58 111.97 11.66 112.51 12.98H115.81V10.19C115.81 9.71 115.78 9.2 115.78 8.69C115.75 8.18 115.69 7.67 115.63 7.13C116.14 7.01 116.71 6.86 117.37 6.74C118 6.62 118.69 6.53 119.41 6.53C119.89 6.53 120.28 6.59 120.64 6.71C120.97 6.83 121.24 6.95 121.48 7.13C121.72 7.31 121.9 7.49 122.02 7.67C122.14 7.85 122.23 8.03 122.29 8.18C122.05 8.54 121.87 9.02 121.75 9.56C121.63 10.1 121.57 10.58 121.57 10.97V29.57ZM104.17 17.69C104.17 18.74 104.17 19.7 104.23 20.54C104.29 21.38 104.38 22.13 104.5 22.73C104.62 23.33 104.8 23.81 105.01 24.14C105.22 24.5 105.49 24.65 105.82 24.65C106.12 24.65 106.36 24.5 106.57 24.14C106.78 23.81 106.96 23.33 107.08 22.73C107.2 22.13 107.32 21.38 107.38 20.54C107.44 19.7 107.47 18.74 107.47 17.69C107.47 16.67 107.44 15.71 107.38 14.87C107.32 14.03 107.2 13.28 107.08 12.68C106.96 12.08 106.78 11.6 106.57 11.27C106.36 10.94 106.12 10.76 105.82 10.76C105.49 10.76 105.22 10.94 105.01 11.27C104.8 11.6 104.62 12.08 104.5 12.68C104.38 13.28 104.29 14.03 104.23 14.87C104.17 15.71 104.17 16.67 104.17 17.69ZM113.35 17.69C113.35 18.47 113.29 19.22 113.17 19.88H115.81V15.2H113.14C113.2 15.62 113.23 16.01 113.29 16.43C113.32 16.85 113.35 17.27 113.35 17.69ZM144.309 8.24C144.159 8.6 144.069 8.99 144.039 9.41C144.009 9.86 144.009 10.34 144.009 10.85V14.84H145.389V9.98C145.389 9.53 145.359 9.05 145.359 8.57C145.329 8.09 145.299 7.61 145.239 7.1C145.659 6.98 146.169 6.86 146.769 6.74C147.339 6.62 147.909 6.53 148.479 6.53C149.019 6.53 149.529 6.65 150.009 6.86C150.489 7.1 150.849 7.49 151.089 8.09C150.849 8.45 150.699 8.87 150.579 9.38C150.459 9.92 150.399 10.37 150.399 10.73V20.33C150.399 20.69 150.339 21.05 150.249 21.38C150.129 21.71 149.919 21.98 149.589 22.22C149.229 22.46 148.749 22.61 148.089 22.7C147.429 22.82 146.529 22.79 145.389 22.67V17H144.009V19.85C144.009 20.21 143.949 20.54 143.859 20.84C143.769 21.17 143.559 21.44 143.229 21.68C142.899 21.92 142.419 22.07 141.759 22.16C141.099 22.28 140.229 22.25 139.149 22.13V10.31C139.149 9.83 139.119 9.38 139.119 8.9C139.089 8.42 139.059 7.94 138.999 7.43C139.359 7.31 139.779 7.19 140.289 7.04C140.769 6.92 141.279 6.83 141.789 6.83C142.299 6.83 142.779 6.92 143.229 7.1C143.679 7.31 144.039 7.7 144.309 8.24ZM131.529 28.28C131.529 26.72 132.309 25.49 133.899 24.59C135.489 23.69 137.739 23.21 140.649 23.21C143.559 23.21 145.809 23.69 147.369 24.59C148.929 25.49 149.739 26.72 149.739 28.28C149.739 29.87 148.929 31.13 147.369 32.03C145.809 32.96 143.559 33.41 140.649 33.41C137.709 33.41 135.459 32.96 133.899 32.03C132.309 31.13 131.529 29.87 131.529 28.28ZM126.309 17.9C126.309 17 126.489 16.28 126.849 15.68C127.209 15.08 127.689 14.63 128.289 14.27C128.859 13.91 129.489 13.67 130.179 13.52C130.869 13.4 131.529 13.31 132.189 13.31C132.789 13.31 133.449 13.4 134.139 13.52C134.829 13.67 135.459 13.91 136.029 14.27C136.599 14.63 137.079 15.08 137.439 15.68C137.799 16.28 138.009 17 138.009 17.9C138.009 18.8 137.799 19.55 137.439 20.15C137.079 20.75 136.599 21.2 136.029 21.56C135.459 21.92 134.829 22.19 134.139 22.31C133.449 22.46 132.789 22.52 132.189 22.52C131.529 22.52 130.869 22.46 130.179 22.31C129.489 22.19 128.859 21.92 128.289 21.56C127.689 21.2 127.209 20.75 126.849 20.15C126.489 19.55 126.309 18.8 126.309 17.9ZM125.019 10.01C125.379 10.01 125.739 10.04 126.039 10.04C126.339 10.04 126.639 10.07 126.939 10.07C127.209 10.1 127.509 10.13 127.809 10.16C128.109 10.19 128.439 10.22 128.829 10.25H134.379C135.009 9.86 135.519 9.59 135.939 9.47C136.359 9.35 136.779 9.29 137.199 9.32C137.529 9.35 137.769 9.47 137.949 9.65C138.129 9.86 138.219 10.13 138.279 10.43C138.309 10.73 138.309 11.09 138.279 11.48C138.219 11.87 138.159 12.26 138.099 12.65C137.919 12.59 137.679 12.56 137.379 12.5C137.049 12.47 136.749 12.44 136.509 12.44H129.399C129.219 12.44 129.009 12.5 128.769 12.62C128.529 12.74 128.259 12.83 127.989 12.95C127.719 13.07 127.449 13.19 127.179 13.31C126.879 13.43 126.609 13.46 126.369 13.46C125.949 13.46 125.649 13.34 125.469 13.07C125.259 12.8 125.139 12.47 125.109 12.05L125.019 10.01ZM137.319 28.28C137.319 29.15 137.619 29.87 138.219 30.41C138.819 30.95 139.629 31.22 140.649 31.22C141.609 31.22 142.419 30.95 143.019 30.41C143.619 29.87 143.949 29.15 143.949 28.28C143.949 27.44 143.619 26.75 143.019 26.21C142.419 25.67 141.609 25.4 140.649 25.4C139.629 25.4 138.819 25.67 138.219 26.21C137.619 26.75 137.319 27.44 137.319 28.28ZM128.259 7.13C128.259 6.71 128.379 6.35 128.679 6.02C128.949 5.69 129.339 5.51 129.879 5.51C130.179 5.51 130.389 5.54 130.569 5.6C130.719 5.66 130.899 5.72 131.109 5.78C131.289 5.84 131.559 5.9 131.919 5.96C132.249 6.02 132.759 6.02 133.479 6.02C133.989 6.02 134.409 6.23 134.739 6.62C135.039 7.01 135.249 7.64 135.339 8.54C134.319 8.96 133.239 9.26 132.129 9.41C131.019 9.59 129.909 9.47 128.799 9.05C128.619 8.81 128.499 8.51 128.409 8.15C128.289 7.82 128.259 7.49 128.259 7.13ZM131.169 17.9C131.169 18.62 131.229 19.22 131.349 19.67C131.469 20.12 131.769 20.33 132.189 20.33C132.579 20.33 132.849 20.12 132.969 19.67C133.089 19.22 133.179 18.62 133.179 17.9C133.179 17.18 133.089 16.61 132.969 16.16C132.849 15.74 132.579 15.5 132.189 15.5C131.769 15.5 131.469 15.74 131.349 16.16C131.229 16.61 131.169 17.18 131.169 17.9ZM161.798 25.01C162.728 24.17 163.628 23.24 164.498 22.22C165.368 21.2 166.058 20.15 166.538 19.07C167.018 19.25 167.528 19.46 168.008 19.7C168.488 19.94 168.878 20.21 169.238 20.51C169.598 20.81 169.868 21.17 170.078 21.56C170.258 21.98 170.348 22.43 170.318 22.94C170.078 23.18 169.778 23.45 169.448 23.81C169.088 24.17 168.728 24.56 168.338 24.95C167.948 25.34 167.558 25.7 167.168 26.06C166.748 26.42 166.388 26.66 166.058 26.84C165.728 27.02 165.428 27.11 165.128 27.14C164.828 27.2 164.528 27.14 164.228 26.99C163.898 26.87 163.538 26.63 163.148 26.3C162.758 26 162.308 25.55 161.798 25.01ZM168.098 11.69C167.858 13.07 167.408 14.54 166.748 16.04C166.058 17.57 165.248 19.01 164.288 20.39C163.328 21.77 162.308 23.03 161.168 24.14C160.028 25.28 158.918 26.12 157.778 26.72C157.478 26.9 157.148 26.99 156.788 26.99C156.428 26.99 156.038 26.93 155.648 26.75C155.258 26.57 154.868 26.3 154.508 25.91C154.118 25.52 153.758 24.98 153.398 24.32C154.658 23.51 155.828 22.52 156.878 21.35C157.928 20.18 158.828 18.98 159.578 17.78C160.328 16.58 160.928 15.41 161.348 14.27C161.768 13.16 161.978 12.23 161.978 11.51H159.188C158.768 11.75 158.468 12.05 158.258 12.44C158.018 12.83 157.868 13.25 157.778 13.67C157.058 13.67 156.458 13.58 155.978 13.4C155.468 13.22 155.048 12.95 154.718 12.65C154.388 12.35 154.148 12.05 153.998 11.69C153.848 11.33 153.788 11 153.788 10.67C153.788 10.28 153.878 9.95 154.118 9.65C154.328 9.38 154.658 9.23 155.078 9.23H162.068C162.518 9.11 163.088 8.99 163.808 8.84C164.498 8.72 165.158 8.63 165.758 8.63C166.388 8.63 166.988 8.75 167.528 8.99C168.068 9.23 168.458 9.65 168.728 10.28C168.608 10.46 168.488 10.64 168.368 10.88C168.218 11.12 168.128 11.39 168.098 11.69ZM177.668 29.57C177.668 29.93 177.608 30.29 177.488 30.65C177.368 31.01 177.098 31.28 176.708 31.52C176.288 31.76 175.718 31.94 174.968 32.03C174.188 32.15 173.168 32.12 171.908 32V10.19C171.908 9.71 171.878 9.2 171.878 8.69C171.848 8.18 171.788 7.67 171.728 7.13C172.238 7.01 172.808 6.86 173.468 6.74C174.098 6.62 174.788 6.53 175.508 6.53C175.988 6.53 176.378 6.59 176.738 6.71C177.068 6.83 177.338 6.95 177.578 7.13C177.818 7.31 177.998 7.49 178.118 7.67C178.238 7.85 178.328 8.03 178.388 8.18C178.148 8.54 177.968 9.02 177.848 9.56C177.728 10.1 177.668 10.58 177.668 10.97V29.57Z" fill="white"/>
<line y1="63.5" x2="364" y2="63.5" stroke="#B2A374"/>
</svg>
