<svg width="295" height="92" viewBox="0 0 295 92" fill="none" xmlns="http://www.w3.org/2000/svg">
<path opacity="0.2" d="M0.502493 83.382C0.456968 85.8056 1.03704 87.4569 1.98286 88.5981C2.93267 89.744 4.30277 90.438 5.95583 90.8436C7.61176 91.25 9.51194 91.3574 11.4745 91.3594C12.4536 91.3604 13.4403 91.3353 14.4149 91.3097L14.505 91.3074C15.4463 91.2827 16.3765 91.2582 17.2648 91.2582H17.4873H17.7098H17.9323H18.1548H18.3774H18.5999H18.8224H19.0449H19.2674H19.49H19.7125H19.935H20.1575H20.38H20.6025H20.8251H21.0476H21.2701H21.4926H21.7151H21.9376H22.1601H22.3827H22.6052H22.8277H23.0502H23.2727H23.4952H23.7177H23.9403H24.1628H24.3853H24.6078H24.8303H25.0528H25.2753H25.4978H25.7203H25.9429H26.1654H26.3879H26.6104H26.8329H27.0554H27.2779H27.5004H27.7229H27.9454H28.168H28.3905H28.613H28.8355H29.058H29.2805H29.503H29.7255H29.948H30.1705H30.393H30.6155H30.838H31.0605H31.283H31.5056H31.7281H31.9506H32.1731H32.3956H32.6181H32.8406H33.0631H33.2856H33.5081H33.7306H33.9531H34.1756H34.3981H34.6206H34.8431H35.0656H35.2881H35.5106H35.7331H35.9556H36.1781H36.4006H36.6231H36.8456H37.0681H37.2906H37.5131H37.7356H37.9581H38.1806H38.4031H38.6256H38.8481H39.0706H39.2931H39.5156H39.7381H39.9606H40.1831H40.4056H40.6281H40.8506H41.0731H41.2956H41.5181H41.7406H41.9631H42.1856H42.4081H42.6306H42.8531H43.0756H43.2981H43.5206H43.7431H43.9656H44.1881H44.4105H44.633H44.8555H45.078H45.3005H45.523H45.7455H45.968H46.1905H46.413H46.6355H46.858H47.0805H47.303H47.5255H47.748H47.9705H48.1929H48.4154H48.6379H48.8604H49.0829H49.3054H49.5279H49.7504H49.9729H50.1954H50.4179H50.6404H50.8629H51.0853H51.3078H51.5303H51.7528H51.9753H52.1978H52.4203H52.6428H52.8653H53.0878H53.3103H53.5327H53.7552H53.9777H54.2002H54.4227H54.6452H54.8677H55.0902H55.3127H55.5352H55.7576H55.9801H56.2026H56.4251H56.6476H56.8701H57.0926H57.3151H57.5376H57.76H57.9825H58.205H58.4275H58.65H58.8725H59.095H59.3175H59.54H59.7624H59.9849H60.2074H60.4299H60.6524H60.8749H61.0974H61.3199H61.5423H61.7648H61.9873H62.2098H62.4323H62.6548H62.8773H63.0998H63.3222H63.5447H63.7672H63.9897H64.2122H64.4347H64.6572H64.8797H65.1021H65.3246H65.5471H65.7696H65.9921H66.2146H66.4371H66.6595H66.882H67.1045H67.327H67.5495H67.772H67.9945H68.2169H68.4394H68.6619H68.8844H69.1069H69.3294H69.5519H69.7744H69.9968H70.2193H70.4418H70.6643H70.8868H71.1093H71.3317H71.5542H71.7767H71.9992H72.2217H72.4442H72.6667H72.8892H73.1116H73.3341H73.5566H73.7791H74.0016H74.2241H74.4466H74.669H74.8915H75.114H75.3365H75.559H75.7815H76.004H76.2264H76.4489H76.6714H76.8939H77.1164H77.3389H77.5614H77.7838H78.0063H78.2288H78.4513H78.6738H78.8963H79.1188H79.3412H79.5637H79.7862H80.0087H80.2312H80.4537H80.6762H80.8986H81.1211H81.3436H81.5661H81.7886H82.0111H82.2336H82.456H82.6785H82.901H83.1235H83.346H83.5685H83.791H84.0135H84.2359H84.4584H84.6809H84.9034H85.1259H85.3484H85.5709H85.7934H86.0158H86.2383H86.4608H86.6833H86.9058H87.1283H87.3508H87.5732H87.7957H88.0182H88.2407H88.4632H88.6857H88.9082H89.1307H89.3532H89.5756H89.7981H90.0206H90.2431H90.4656H90.6881H90.9106H91.1331H91.3556H91.578H91.8005H92.023H92.2455H92.468H92.6905H92.913H93.1355H93.358H93.5804H93.8029H94.0254H94.2479H94.4704H94.6929H94.9154H95.1379H95.3604H95.5829H95.8054H96.0278H96.2503H96.4728H96.6953H96.9178H97.1403H97.3628H97.5853H97.8078H98.0303H98.2528H98.4753H98.6977H98.9202H99.1427H99.3652H99.5877H99.8102H100.033H100.255H100.478H100.7H100.923H101.145H101.368H101.59H101.813H102.035H102.258H102.48H102.703H102.925H103.148H103.37H103.593H103.815H104.038H104.26H104.483H104.705H104.928H105.15H105.373H105.595H105.818H106.04H106.263H106.485H106.708H106.93H107.153H107.375H107.598H107.82H108.043H108.265H108.488H108.71H108.933H109.155H109.378H109.6H109.823H110.045H110.268H110.49H110.713H110.935H111.158H111.38H111.603H111.825H112.048H112.27H112.493H112.715H112.938H113.16H113.383H113.605H113.828H114.05H114.273H114.495H114.718H114.94H115.163H115.385H115.608H115.83H116.053H116.275H116.498H116.72H116.943H117.165H117.388H117.61H117.833H118.055H118.278H118.5H118.723H118.945H119.168H119.39H119.613H119.835H120.058H120.28H120.503H120.725H120.948H121.17H121.393H121.615H121.838H122.06H122.283H122.505H122.728H122.95H123.173H123.395H123.618H123.84H124.063H124.285H124.508H124.73H124.953H125.175H125.398H125.62H125.843H126.065H126.288H126.511H126.733H126.956H127.178H127.401H127.623H127.846H128.068H128.291H128.513H128.736H128.958H129.181H129.403H129.626H129.848H130.071H130.293H130.516H130.738H130.961H131.183H132.391L132.155 91.4941C141.846 91.4942 151.538 91.4956 161.23 91.497C191.289 91.5015 221.353 91.5059 251.417 91.4705C254.442 91.4647 257.508 90.9743 259.629 89.6856C260.68 89.0471 261.484 88.2218 261.952 87.1727C262.419 86.1245 262.571 84.8082 262.239 83.1523L262.239 83.1512C262.09 82.4004 261.605 81.5863 260.833 80.7571C260.067 79.9333 259.049 79.1281 257.899 78.3939C255.594 76.923 252.818 75.7762 250.602 75.3359L250.699 74.8455L250.601 75.3359C247.107 74.6409 243.453 74.7171 239.728 74.8205L239.367 74.8306C235.778 74.931 232.126 75.0332 228.592 74.4302L228.592 74.4302C226.861 74.1338 224.959 72.8789 223.417 71.3414C221.872 69.8007 220.596 67.8849 220.189 66.1619L220.188 66.1593C219.832 64.612 220.48 62.6678 221.462 60.9089C222.458 59.1241 223.868 57.4039 225.22 56.2648L225.22 56.2645C226.344 55.3195 227.973 54.9853 229.62 54.863C230.756 54.7788 231.973 54.793 233.113 54.8062C233.629 54.8122 234.13 54.8181 234.599 54.8145L234.6 54.8145C242.384 54.7614 250.167 54.7581 257.949 54.7548C270.913 54.7492 283.874 54.7437 296.832 54.5079C301.527 54.4213 305.113 52.7626 306.997 50.4614C307.937 49.3144 308.456 48.0078 308.497 46.6387C308.539 45.2698 308.103 43.8025 307.072 42.3333C306.028 40.8479 304.125 39.5418 301.926 38.5973C299.734 37.6561 297.312 37.102 295.291 37.0736L295.29 37.0736C264 36.6019 232.708 36.6491 201.414 36.8732L201.413 36.8732C198.26 36.891 195.51 36.4914 193.472 35.1792C191.397 33.8434 190.146 31.6202 189.871 28.2045M0.502493 83.382L190.37 28.1645M0.502493 83.382C0.544876 81.1897 1.16596 79.6205 2.14733 78.4792C3.13482 77.3307 4.52617 76.57 6.1852 76.0718C9.22203 75.1599 13.0085 75.1643 16.508 75.1683L0.502493 83.382ZM189.871 28.2045L190.37 28.1645M189.871 28.2045C189.871 28.2045 189.871 28.2046 189.871 28.2046L190.37 28.1645M189.871 28.2045C189.573 24.5001 190.593 21.8163 192.593 20.008C194.57 18.2201 197.432 17.3559 200.689 17.1102M190.37 28.1645C189.792 20.9937 194.317 18.0923 200.727 17.6088M200.689 17.1102C200.689 17.1102 200.689 17.1102 200.689 17.1102L200.727 17.6088M200.689 17.1102C204.729 16.8044 208.779 16.6693 212.819 16.5345C214.4 16.4817 215.98 16.429 217.557 16.3661L217.557 16.3661C220.538 16.2496 223.252 15.6111 224.975 14.2622C225.825 13.5963 226.431 12.7599 226.722 11.7176C227.014 10.6708 226.999 9.3765 226.535 7.78248M200.689 17.1102L200.727 17.6088M200.727 17.6088L226.535 7.78248M226.535 7.78248C226.535 7.78258 226.535 7.78268 226.535 7.78278L227.015 7.64276M226.535 7.78248L217.577 16.8657C223.61 16.6299 228.947 14.2828 227.015 7.64276M226.535 7.78248L227.015 7.64276M226.535 7.78248C226.111 6.33083 224.581 4.61824 222.64 3.24157C220.705 1.86933 218.508 0.934695 216.875 0.912946M227.015 7.64276C226.072 4.41118 220.44 0.460163 216.882 0.412986M216.882 0.412986L216.875 0.912946M216.882 0.412986L216.875 0.912942C216.875 0.912943 216.875 0.912945 216.875 0.912946M216.882 0.412986L96.61 0.50019C110.902 0.55906 125.194 0.563968 139.484 0.568877C165.283 0.577738 191.08 0.586599 216.875 0.912946M206.253 68.9173C204.927 70.695 202.674 72.1282 200.219 73.1198C197.756 74.1146 195.028 74.6903 192.695 74.7086C144.049 75.0723 95.3941 75.1083 46.7471 75.1443C37.0178 75.1515 27.2887 75.1588 17.5601 75.1686C17.56 75.1686 17.5599 75.1686 17.5598 75.1686L206.253 68.9173ZM206.253 68.9173C208.673 65.6758 208.424 61.9867 206.473 59.0977C204.533 56.2246 200.921 54.1479 196.598 53.9892C180.82 53.4122 165.032 53.0115 149.258 52.6112L149.177 52.6091C148.854 52.6008 148.531 52.5945 148.209 52.5882C147.256 52.5696 146.31 52.5511 145.39 52.4818C144.163 52.3893 143.027 52.2084 142.058 51.8346C141.096 51.4638 140.308 50.9077 139.751 50.0635C139.19 49.2156 138.832 48.0322 138.812 46.3568L138.812 46.3565C138.772 43.1875 139.676 40.7714 141.365 39.16C143.056 37.5456 145.607 36.6683 149.002 36.7316C153.144 36.8133 157.296 36.7932 161.439 36.7731C163.277 36.7641 165.113 36.7552 166.945 36.7552C169.826 36.7552 172.386 36.2787 174.191 34.8749C176.029 33.4453 176.982 31.1382 176.824 27.7285L176.824 27.7277C176.674 24.5956 175.89 21.9564 174.232 20.0936C172.562 18.217 170.072 17.2036 166.676 17.1913C159.464 17.1559 152.254 17.1559 145.046 17.1559C137.838 17.1559 130.631 17.1559 123.421 17.1206L123.42 17.1206C121.051 17.1114 118.682 17.146 116.319 17.1806C109.513 17.2801 102.748 17.3791 96.1172 16.4298L96.1171 16.4297C94.437 16.1895 92.3268 15.0245 90.5333 13.4621C88.7341 11.8947 87.3729 10.0314 87.0632 8.48901C86.7549 6.93485 86.8298 5.68066 87.1788 4.6735C87.5262 3.67099 88.1568 2.87934 89.0196 2.26318C90.7669 1.0153 93.4681 0.488541 96.6098 0.500189L206.253 68.9173ZM201.41 36.3732C232.706 36.1491 264.002 36.1019 295.298 36.5737C299.493 36.6326 305.243 38.8617 307.482 42.0461C311.818 48.2262 306.433 54.8309 296.841 55.0078C283.88 55.2437 270.91 55.2492 257.941 55.2548L201.41 36.3732Z" fill="#B2A374" stroke="black"/>
</svg>
