<svg width="259" height="118" viewBox="0 0 259 118" fill="none" xmlns="http://www.w3.org/2000/svg">
<path opacity="0.2" d="M53.6576 50.3818L53.7599 50.3792C74.0264 49.8657 94.3112 49.3518 114.581 48.6117C120.094 48.4097 124.691 45.7667 127.156 42.122C129.633 38.4612 129.947 33.7952 126.878 29.6904C125.196 27.4394 122.328 25.6138 119.186 24.3468C116.036 23.0766 112.549 22.3426 109.571 22.3194L109.571 22.3194C47.0716 21.853 -15.4386 21.8067 -77.9397 21.7605C-90.44 21.7513 -102.94 21.742 -115.439 21.7294C-115.439 21.7294 -115.439 21.7294 -115.439 21.7294L53.6576 50.3818ZM53.6576 50.3818C53.6575 50.3818 53.6575 50.3818 53.6574 50.3818C53.2444 50.3924 52.8306 50.4005 52.4172 50.4086C51.1924 50.4325 49.9709 50.4563 48.7851 50.5455C47.2022 50.6646 45.7277 50.8979 44.463 51.3848C43.2061 51.8686 42.1675 52.5981 41.431 53.7105C40.6921 54.8266 40.2276 56.373 40.202 58.5406L40.2019 58.541C40.1502 62.633 41.3204 65.7739 43.5251 67.875C45.7329 69.979 49.0519 71.1107 53.4387 71.0291M53.6576 50.3818L53.4387 71.0291M53.4387 71.0291C58.759 70.9242 64.0905 70.9501 69.4121 70.9758C71.7737 70.9873 74.1333 70.9987 76.4891 70.9987C80.1804 70.9987 83.4298 71.6094 85.7106 73.3804C88.0248 75.1774 89.2409 78.0854 89.0391 82.4286L89.039 82.4294C88.8469 86.43 87.8454 89.7784 85.745 92.1341C83.6324 94.5034 80.4762 95.7933 76.1434 95.8089L53.4387 71.0291ZM-26.2821 107.086C-25.8755 105.062 -24.0982 102.645 -21.7776 100.627C-19.4632 98.6143 -16.7271 97.1008 -14.5301 96.7872L-14.53 96.7872C-5.99922 95.5678 2.70898 95.695 11.4565 95.8227C14.491 95.8671 17.5303 95.9114 20.5685 95.8997L20.569 95.8997C29.8325 95.8543 39.0924 95.8543 48.3538 95.8543C57.6145 95.8543 66.8766 95.8543 76.1427 95.8089L-26.2821 107.086ZM-26.2821 107.086C-26.6815 109.097 -26.5866 110.731 -26.1282 112.052C-25.6713 113.368 -24.8416 114.406 -23.7116 115.212C-21.4299 116.839 -17.9223 117.515 -13.8761 117.5L-26.2821 107.086ZM153.186 108.057C153.788 105.994 153.812 104.307 153.428 102.933C153.045 101.564 152.247 100.467 151.133 99.5962C148.884 97.8384 145.361 97.0174 141.521 96.8675L141.52 96.8675C139.493 96.7867 137.462 96.7191 135.43 96.6514C130.24 96.4786 125.041 96.3054 119.854 95.9134C115.684 95.5994 112.044 94.4961 109.537 92.233C107.007 89.9494 105.706 86.5538 106.087 81.8359C106.087 81.8359 106.087 81.8358 106.087 81.8358L106.585 81.876C107.266 73.4048 112.731 71.3021 120.77 71.3475C160.979 71.6349 201.187 71.6954 241.396 71.0903C246.785 71.0147 254.173 68.1556 257.049 64.0713C262.62 56.1446 255.702 47.6734 243.379 47.4465C226.726 47.1439 210.062 47.1368 193.4 47.1297C183.403 47.1255 173.407 47.1212 163.416 47.0532C162.786 47.0484 162.128 47.0561 161.457 47.0639C157.884 47.1058 153.928 47.1521 151.774 45.3438C148.428 42.5301 144.719 36.7667 145.522 33.2874C146.491 29.1879 151.729 23.8632 155.801 23.1673C160.277 22.4049 164.912 22.5342 169.542 22.6634C174.466 22.8008 179.383 22.938 184.095 22.0025M153.186 108.057L256.64 63.7834M153.186 108.057C152.629 109.966 150.631 112.186 148.128 113.957C145.632 115.725 142.78 116.942 140.641 116.97C107.499 117.389 74.3535 117.4 41.2066 117.412C22.8462 117.418 4.48535 117.424 -13.8759 117.5L153.187 108.057C153.187 108.057 153.186 108.057 153.186 108.057ZM184.095 22.0025L183.998 21.5121C179.49 22.4071 174.78 22.3084 169.996 22.1759L169.537 22.1631C164.922 22.0342 160.242 21.9035 155.717 22.6744L155.717 22.6744C153.534 23.0474 151.117 24.6338 149.145 26.5966C147.17 28.5626 145.549 30.9976 145.035 33.1724L145.035 33.175C144.589 35.1059 145.398 37.5595 146.656 39.8092C147.928 42.0848 149.729 44.2774 151.452 45.7265L151.453 45.7267C152.86 46.9082 154.913 47.3349 157.024 47.4913C158.477 47.5989 160.029 47.5808 161.491 47.5638C162.156 47.556 162.803 47.5485 163.412 47.5531C173.411 47.6213 183.41 47.6255 193.408 47.6298C210.065 47.6368 226.72 47.6439 243.37 47.9464C249.43 48.058 254.082 50.196 256.538 53.1886C257.762 54.6812 258.442 56.3863 258.497 58.1766C258.551 59.9665 257.979 61.8777 256.64 63.7834M184.095 22.0025L183.998 21.5121C186.866 20.9434 190.449 19.4649 193.423 17.5702C194.908 16.6241 196.225 15.584 197.22 14.5161C198.221 13.4429 198.864 12.3757 199.062 11.3768L199.062 11.3757C199.492 9.22917 199.298 7.51035 198.683 6.13425C198.068 4.75724 197.012 3.67858 195.642 2.84785C192.884 1.1749 188.914 0.545303 185.018 0.537804C146.392 0.492424 107.766 0.498093 69.1462 0.503769C56.5795 0.505615 44.0134 0.507469 31.4481 0.507553M184.095 22.0025L31.4481 0.507553M256.64 63.7834L257.048 64.0703L256.64 63.7838C256.64 63.7836 256.64 63.7835 256.64 63.7834ZM31.4481 0.507553L31.751 0.810097H30.543H30.2571H29.9713H29.6853H29.3995H29.1136H28.8277H28.5418H28.2559H27.97H27.6841H27.3982H27.1124H26.8265H26.5406H26.2547H25.9688H25.6829H25.397H25.1111H24.8253H24.5394H24.2535H23.9676H23.6817H23.3958H23.11H22.8241H22.5382H22.2523H21.9664H21.6805H21.3947H21.1088H20.8229H20.537H20.2511H19.9653H19.6794H19.3935H19.1076H18.8217H18.5359H18.25H17.9641H17.6782H17.3923H17.1065H16.8206H16.5347H16.2488H15.963H15.6771H15.3912H15.1053H14.8195H14.5336H14.2477H13.9619H13.676H13.3901H13.1042H12.8184H12.5325H12.2466H11.9607H11.6749H11.389H11.1031H10.8172H10.5314H10.2455H9.95964H9.67377H9.38789H9.10202H8.81616H8.53029H8.24442H7.95856H7.67268H7.38681H7.10095H6.81508H6.52921H6.24335H5.95747H5.67162H5.38574H5.09987H4.81401H4.52814H4.24228H3.95641H3.67055H3.38469H3.09882H2.81296H2.52708H2.24123H1.95537H1.66949H1.38364H1.09776H0.811905H0.526047H0.240173H-0.0456848H-0.331543H-0.617401H-0.903275H-1.18913H-1.47499H-1.76085H-2.04671H-2.33258H-2.61844H-2.9043H-3.19016H-3.47601H-3.76187H-4.04773H-4.3336H-4.61946H-4.90532H-5.19118H-5.47704H-5.76289H-6.04875H-6.33461H-6.62047H-6.90633H-7.19218H-7.47804H-7.7639H-8.04976H-8.33562H-8.62148H-8.90733H-9.19318H-9.47903H-9.76489H-10.0508H-10.3366H-10.6225H-10.9083H-11.1942H-11.48H-11.7659H-12.0517H-12.3376H-12.6235H-12.9093H-13.1952H-13.481H-13.7669H-14.0527H-14.3386H-14.6244H-14.9103H-15.1961H-15.482H-15.7678H-16.0537H-16.3396H-16.6254H-16.9113H-17.1971H-17.483H-17.7688H-18.0547H-18.3405H-18.6264H-18.9122H-19.1981H-19.4839H-19.7698H-20.0556H-20.3415H-20.6273H-20.9132H-21.199H-21.4849H-21.7707H-22.0566H-22.3424H-22.6283H-22.9141H-23.2H-23.4858H-23.7717H-24.0575H-24.3434H-24.6292H-24.9151H-25.201H-25.4868H-25.7727H-26.0585H-26.3443H-26.6302H-26.916H-27.2019H-27.4877H-27.7736H-28.0594H-28.3453H-28.6311H-28.917H-29.2028H-29.4887H-29.7745H-30.0604H-30.3462H-30.6321H-30.9179H-31.2038H-31.4896H-31.7755H-32.0613H-32.3472H-32.633H-32.9189H-33.2047H-33.4906H-33.7764H-34.0623H-34.3481H-34.634H-34.9198H-35.2057H-35.4915H-35.7774H-36.0632H-36.349H-36.6349H-36.9207H-37.2066H-37.4924H-37.7783H-38.0641H-38.35H-38.6358H-38.9217H-39.2075H-39.4934H-39.7792H-40.0651H-40.3509H-40.6368H-40.9226H-41.2085H-41.4943H-41.7802H-42.066H-42.3518H-42.6377H-42.9235H-43.2094H-43.4952H-43.7811H-44.0669H-44.3528H-44.6386H-44.9245H-45.2103H-45.4962H-45.782H-46.0679H-46.3537H-46.6396H-46.9254H-47.2113H-47.4971H-47.7829H-48.0688H-48.3546H-48.6405H-48.9263H-49.2122H-49.498H-49.7839H-50.0697H-50.3556H-50.6414H-50.9273H-51.2131H-51.499H-51.7848H-52.0707H-52.3565H-52.6424H-52.9282H-53.2141H-53.4999H-53.7858H-54.0716H-54.3575H-54.6433H-54.9291H-55.215H-55.5008H-55.7867H-56.0725H-56.3584H-56.6442H-56.9301H-57.2159H-57.5018H-57.7876H-58.0735H-58.3593H-58.6452H-58.931H-59.2169H-59.5027H-59.7886H-60.0744H-60.3603H-60.6461H-60.932H-61.2178H-61.5037H-61.7895H-62.0754H-62.3612H-62.6471H-62.9329H-63.2188H-63.5046H-63.7905H-64.0763H-64.3622H-64.648H-64.9339H-65.2197H-65.5056H-65.7915H-66.0773H-66.3632H-66.649H-66.9349H-67.2207H-67.5066H-67.7924H-68.0783H-68.3641H-68.65H-68.9358H-69.2217H-69.5075H-69.7934H-70.0792H-70.3651H-70.6509H-70.9368H-71.2227H-71.5085H-71.7944H-72.0802H-72.3661H-72.6519H-72.9378H-73.2236H-73.5095H-73.7953H-74.0812H-74.3671H-74.6529H-74.9388H-75.2246H-75.5105H-75.7963H-76.0822H-76.3681H-76.6539H-76.9398H-77.2256H-77.5115H-77.7973H-78.0832H-78.3691H-78.6549H-78.9408H-79.2266H-79.5125H-79.7984H-80.0842H-80.3701H-80.6559H-80.9418H-81.2276H-81.5135H-81.7994H-82.0852H-82.3711H-82.6569H-82.9428H-83.2287H-83.5145H-83.8004H-84.0863H-84.3721H-84.658H-84.9438H-85.2297H-85.5156H-85.8014H-86.0873H-86.3732H-86.659H-86.9449H-87.2307H-87.5166H-87.8025H-88.0883H-88.3742H-88.6601H-88.9459H-89.2318H-89.5177H-89.8035H-90.0894H-90.3753H-90.6611H-90.947H-91.2329H-91.5187H-91.8046H-92.0905H-92.3763H-92.6622H-92.9481H-93.2339H-93.5198H-93.8057H-94.0915H-94.3774H-94.6633H-94.9492H-95.235H-95.5209H-95.8068H-96.0926H-96.3785H-96.6644H-96.9502H-97.2361H-97.522H-97.8079H-98.0937H-98.3796H-98.6655H-98.9514H-99.2372H-99.5231H-99.809H-100.095H-100.381H-100.667H-100.952H-101.238H-101.524H-101.81H-102.096H-102.382H-102.668H-102.954H-103.239H-103.525H-103.811H-104.097H-104.383H-104.669H-104.955H-105.241H-105.527H-105.812H-106.098H-106.384H-106.67H-106.956H-107.242H-107.528H-107.814H-108.099H-108.385H-108.671H-108.957H-109.243H-109.529H-109.815H-110.101H-110.387H-110.672H-110.958H-111.244H-111.53H-111.816H-112.102H-112.388H-112.674H-112.96H-113.245H-113.531H-113.817H-114.103H-114.389H-114.675H-114.961H-115.247H-115.533H-115.818C-116.957 0.810097 -118.15 0.778831 -119.359 0.747139L-119.476 0.744072C-120.728 0.711281 -121.998 0.679039 -123.258 0.680336C-125.783 0.682922 -128.238 0.820625 -130.382 1.34599C-132.524 1.87066 -134.316 2.77228 -135.562 4.27348C-136.805 5.76978 -137.556 7.92359 -137.497 11.0561L31.4481 0.507553Z" fill="#B2A374" stroke="black"/>
</svg>
