<svg width="32" height="32" viewBox="0 0 32 32" fill="none" xmlns="http://www.w3.org/2000/svg">
<path fill-rule="evenodd" clip-rule="evenodd" d="M22.3725 5.0035C21.8869 4.22654 20.7553 4.22654 20.2697 5.0035L18.1578 8.3826C17.5701 8.31542 16.9706 8.28054 16.3618 8.28054C15.753 8.28054 15.1535 8.31541 14.5658 8.3826L12.4538 5.0035C11.9682 4.22654 10.8367 4.22654 10.3511 5.0035L5.35578 12.996C4.83179 13.5859 4.37574 14.2148 3.99713 14.8727C5.15786 15.5446 6.51064 15.6043 7.55169 15.0331L8.94031 17.4707C7.01715 18.5259 4.81422 18.4125 2.95631 17.4679C2.80353 18.1138 2.72363 18.7732 2.72363 19.439C2.72363 19.6243 2.72982 19.8079 2.74205 19.9897C4.03994 21.598 6.09922 22.0292 7.55169 21.2322L8.94031 23.6699C7.4535 24.4856 5.79947 24.603 4.26693 24.1777C6.54375 27.3618 11.1055 29.3576 16.3618 29.3576C21.6254 29.3576 26.1925 27.3562 28.4661 24.1644C26.9203 24.6053 25.2474 24.4941 23.7453 23.6699L25.1339 21.2322C26.6019 22.0377 28.6896 21.5887 29.9848 19.9378C29.9948 19.773 29.9999 19.6067 29.9999 19.439C29.9999 18.7673 29.9186 18.102 29.7631 17.4506C27.8981 18.4111 25.6801 18.5323 23.7453 17.4707L25.1339 15.0331C26.1834 15.6089 27.5498 15.5436 28.7168 14.8561C28.3402 14.2043 27.8874 13.5811 27.3679 12.9962L22.3725 5.0035ZM16.0234 20.7334C17.5727 20.7334 18.8288 19.8402 18.8288 19.3975C18.8288 18.9548 17.5727 18.8632 16.0234 18.8632C14.474 18.8632 13.218 18.9548 13.218 19.3975C13.218 19.8402 14.474 20.7334 16.0234 20.7334Z" fill="#FF7C33"/>
</svg>
