<svg width="178" height="60" viewBox="0 0 178 60" fill="none" xmlns="http://www.w3.org/2000/svg">
<path d="M35.37 34.57C35.31 35.95 35.19 37.33 35.04 38.68C34.83 40.93 33.57 42.7 31.08 42.7C28.53 42.7 27.3 40.93 27.09 38.68C26.49 32.98 26.49 26.71 27.09 21.04C27.3 18.82 28.53 17.05 31.08 17.05C33.57 17.05 34.83 18.82 35.04 21.04C35.19 22.39 35.31 23.77 35.37 25.15C36.9 24.79 38.58 24.76 40.11 25.12C40.2 23.74 40.29 22.39 40.44 21.04C40.68 18.82 41.91 17.05 44.4 17.05C46.92 17.05 48.18 18.82 48.42 21.04C48.99 26.71 48.99 32.98 48.42 38.68C48.18 40.93 46.92 42.7 44.4 42.7C41.91 42.7 40.68 40.93 40.44 38.68C40.29 37.33 40.2 35.98 40.11 34.6C38.58 34.96 36.9 34.93 35.37 34.57ZM50.2615 33.76C50.2915 27.91 54.1315 23.74 60.0415 23.74C66.0115 23.74 68.8615 28.81 68.8615 33.76C68.8015 38.77 65.2915 43.21 59.9515 43.21C54.3715 43.21 50.2615 39.16 50.2615 33.76ZM58.6615 35.44C58.4215 35.89 59.2915 36.34 59.7115 35.77C60.5215 34.57 60.7315 32.95 60.7615 31.45C60.7915 30.76 59.7715 30.79 59.7415 31.3C59.6215 32.77 59.3815 34 58.6615 35.44ZM78.979 34.27C78.919 35.74 78.799 37.21 78.649 38.65C78.439 40.9 77.179 42.67 74.689 42.67C72.139 42.67 70.909 40.9 70.699 38.65C70.309 35.08 70.249 31.27 70.279 27.55C70.339 18.94 73.009 16.81 80.899 16.75C87.109 16.69 90.529 19.87 90.469 26.08C90.469 30.25 89.119 32.65 85.789 33.88C85.279 34.03 85.489 34.63 85.969 34.51C86.839 34.33 87.799 33.79 88.579 33.28C89.629 34.18 90.709 35.5 91.369 37.36C92.059 39.34 91.459 41.2 89.179 42.22C86.719 43.36 83.749 42.25 82.369 39.97C81.439 38.44 80.869 36.43 80.689 34.33C80.119 34.33 79.549 34.3 78.979 34.27ZM82.669 26.95C81.259 26.44 80.179 25.84 79.069 24.7C78.709 24.37 78.019 25.03 78.409 25.57C79.279 26.74 80.779 27.43 82.189 27.94C82.819 28.15 83.089 27.16 82.669 26.95ZM104.608 40.48C103.258 42.52 101.188 43.21 98.8479 43.21C95.4279 43.21 92.7279 41.41 92.7279 38.11C92.7279 35.11 95.0379 33.22 98.0979 32.62C100.888 32.05 102.838 30.79 103.828 29.29C104.218 28.69 103.348 28.09 102.958 28.66C101.788 30.37 99.4479 31.63 96.8679 31.63C94.5279 31.63 93.2979 30.4 93.2979 28.72C93.2979 25.69 97.2279 23.74 101.878 23.74C106.648 23.74 109.378 25.42 110.608 28.9C111.658 31.84 111.628 36.58 110.788 40.24C110.398 42.01 109.378 42.94 107.668 42.94C105.988 42.94 104.968 42.1 104.608 40.48ZM99.5079 38.35C100.948 38.17 102.298 37.21 103.408 36.28C104.008 35.8 103.258 35.08 102.868 35.38C101.728 36.34 100.648 36.97 99.0579 37.36C98.5779 37.48 98.8179 38.44 99.5079 38.35ZM121.233 37.15C121.173 37.78 121.143 38.38 121.083 38.98C120.843 41.23 119.613 42.7 117.123 42.7C114.573 42.7 113.253 41.23 113.013 38.98C112.803 37 112.713 34.69 112.653 32.71V27.34C112.653 25.18 114.093 23.74 116.253 23.74C117.963 23.74 119.703 24.22 120.333 25.57C118.773 27.46 117.993 29.65 118.233 31.99C118.323 32.71 119.133 32.65 119.103 32.05C118.863 28.99 120.543 25.78 122.493 24.61C123.363 24.1 124.323 23.74 125.313 23.74C126.963 23.74 128.673 24.28 129.783 25.51C131.463 27.34 131.583 29.53 131.553 31.93C131.523 34.18 131.313 36.88 130.833 38.98C130.323 41.23 129.183 42.7 126.573 42.7C123.933 42.7 122.583 41.23 122.313 38.98C122.253 38.47 122.193 37.93 122.163 37.39C122.163 36.64 121.443 36.55 121.233 37.15ZM145.433 23.74L146.993 22.3C148.223 21.16 149.783 21.4 150.893 22.72C151.943 24.01 151.943 25.45 150.833 26.68L150.503 27.07C150.473 27.43 151.163 27.82 151.163 30.16C151.163 32.92 150.173 35.74 147.533 37.06C146.183 36.52 144.593 36.13 142.643 36.1C141.893 36.1 141.833 36.94 142.583 36.94C148.762 37.24 151.523 40.66 150.863 43.78C150.293 46.42 147.173 48.85 141.533 48.85C135.562 48.85 132.923 46.21 132.443 43.27C132.053 40.72 133.253 37.9 135.443 36.25C133.313 34.96 132.413 32.17 133.013 29.53C133.703 26.38 136.613 23.41 142.283 23.41C143.273 23.41 144.173 23.53 145.433 23.74ZM141.353 31.51C141.113 31.96 141.983 32.38 142.373 31.84C143.213 30.7 143.333 29.05 143.393 27.58C143.393 26.86 142.433 26.89 142.403 27.4C142.313 28.84 142.043 30.1 141.353 31.51ZM141.113 44.53C140.903 45.01 141.743 45.4 142.103 44.86C142.913 43.72 143.093 42.07 143.153 40.63C143.153 39.94 142.163 39.94 142.133 40.45C142.043 41.89 141.833 43.12 141.113 44.53Z" fill="#FF9D66"/>
</svg>
