<svg width="140" height="100" viewBox="0 0 140 100" fill="none" xmlns="http://www.w3.org/2000/svg">
<rect width="140" height="100" fill="#718FF9"/>
<path d="M85.7595 53.0163C89.2678 52.734 92.5671 52.2401 95.6457 51.5346C95.7995 51.4993 95.9493 51.464 96.103 51.4248C96.1109 50.9388 96.1109 50.4527 96.1109 49.9628C96.1109 48.9044 96.103 47.8539 96.0872 46.8034C92.8825 47.3326 89.6777 47.6423 86.469 47.7246C85.6176 47.7246 84.9987 47.4894 84.6203 47.019C84.2418 46.5486 84.029 46.0077 83.9817 45.3962C83.9344 44.7847 84.0763 44.2164 84.4074 43.7029C84.7425 43.1855 85.1918 42.9268 85.7595 42.9268C89.2678 42.6445 92.5671 42.1506 95.6457 41.4451L95.9414 41.3745C95.7837 37.294 95.5117 33.2841 95.1215 29.333C94.9796 28.0238 94.6839 26.8047 94.2385 25.6837C93.7931 24.5587 93.1821 23.5788 92.4055 22.736C91.629 21.8933 90.675 21.2269 89.5476 20.7369C88.4163 20.243 87.1234 20 85.6649 20C84.2064 20 82.9213 20.243 81.8176 20.7369C80.7139 21.2269 79.7836 21.8933 79.0307 22.736C78.2778 23.5788 77.6786 24.5587 77.2332 25.6837C76.7838 26.8047 76.4921 28.0238 76.3502 29.333C76.161 30.9244 76.0072 32.5002 75.8929 34.0681C75.7747 35.636 75.6682 37.2392 75.5736 38.8776C73.784 38.4543 71.9274 38.2544 69.9998 38.2779C68.0683 38.3014 66.2116 38.5249 64.422 38.9443C64.3274 37.3097 64.221 35.6948 64.1066 34.1034C63.9884 32.5158 63.8347 30.9244 63.6454 29.333C63.5075 28.0238 63.2237 26.8047 62.7979 25.6837C62.3762 24.5587 61.777 23.5788 61.0004 22.736C60.2239 21.8933 59.2818 21.2269 58.178 20.7369C57.0704 20.243 55.7893 20 54.3308 20C52.8722 20 51.5202 20.243 50.4125 20.7369C49.3088 21.2269 48.3667 21.8933 47.5901 22.736C46.8175 23.5788 46.2144 24.5587 45.7926 25.6837C45.3708 26.8047 45.087 28.0238 44.9451 29.333C44.5273 33.2841 44.2356 37.298 44.0661 41.3785C44.1607 41.402 44.2553 41.4216 44.3499 41.4451C47.4285 42.1506 50.7279 42.6445 54.2361 42.9268C54.8077 42.9268 55.2571 43.1855 55.5882 43.7029C55.9193 44.2164 56.0612 44.7847 56.0179 45.3962C55.9666 46.0077 55.7538 46.5486 55.3754 47.019C54.9969 47.4894 54.382 47.7246 53.5266 47.7246C50.3179 47.6423 47.1171 47.3326 43.9123 46.8034C43.8966 47.8539 43.8887 48.9044 43.8887 49.9628C43.8887 50.4527 43.8887 50.9388 43.8887 51.4248C44.0424 51.464 44.1922 51.4993 44.3459 51.5346C47.4246 52.2401 50.7239 52.734 54.2322 53.0163C54.8038 53.0163 55.2532 53.275 55.5843 53.7924C55.9154 54.3098 56.0573 54.8742 56.0139 55.4857C55.9627 56.0972 55.7498 56.6381 55.3714 57.1085C54.993 57.5789 54.3781 57.8141 53.5227 57.8141C50.3455 57.7318 47.1723 57.4299 43.999 56.9086C44.1567 61.5535 44.4681 66.1162 44.9412 70.5965C45.0831 71.9057 45.3669 73.1326 45.7887 74.2771C46.2104 75.4256 46.8136 76.4212 47.5862 77.2601C48.3627 78.1028 49.3048 78.7692 50.4086 79.2631C51.5162 79.7531 52.821 80 54.3268 80C55.8326 80 57.0664 79.7531 58.1741 79.2631C59.2778 78.7692 60.2199 78.1028 60.9965 77.2601C61.773 76.4212 62.3722 75.4256 62.794 74.2771C63.2197 73.1326 63.5035 71.9057 63.6415 70.5965C63.8307 69.005 63.9845 67.4136 64.1027 65.8222C64.217 64.2347 64.3235 62.6197 64.4181 60.9813C66.2077 61.4007 68.0643 61.6241 69.9958 61.6476C71.9234 61.6711 73.7801 61.4712 75.5697 61.0518C75.6643 62.6903 75.7707 64.2895 75.889 65.8574C76.0033 67.4254 76.157 69.005 76.3462 70.5965C76.4881 71.9057 76.7798 73.1326 77.2292 74.2771C77.6747 75.4256 78.2738 76.4212 79.0267 77.2601C79.7796 78.1028 80.7099 78.7692 81.8136 79.2631C82.9174 79.7531 84.2024 80 85.6609 80C87.1194 80 88.4124 79.7531 89.5437 79.2631C90.6711 78.7692 91.625 78.1028 92.4016 77.2601C93.1781 76.4212 93.7891 75.4256 94.2345 74.2771C94.68 73.1326 94.9756 71.9057 95.1175 70.5965C95.559 66.1162 95.8507 61.5535 95.9966 56.9086C92.8194 57.4299 89.6462 57.7318 86.4651 57.8141C85.6136 57.8141 84.9947 57.5789 84.6163 57.1085C84.2379 56.6381 84.025 56.0972 83.9777 55.4857C83.9304 54.8742 84.0723 54.3098 84.4035 53.7924C84.7385 53.275 85.1879 53.0163 85.7555 53.0163H85.7595ZM73.0981 48.8339L70.8788 51.5738C70.457 52.0912 69.6687 52.0912 69.2469 51.5738L67.0276 48.8339C66.4757 48.1518 66.9606 47.1405 67.8436 47.1405H72.2821C73.1651 47.1405 73.65 48.1518 73.0981 48.8339Z" fill="#FF9D66"/>
</svg>
