<svg width="100" height="100" viewBox="0 0 100 100" fill="none" xmlns="http://www.w3.org/2000/svg">
<rect width="100" height="100" fill="#718FF9"/>
<path d="M65.7595 53.0163C69.2678 52.734 72.5671 52.2401 75.6457 51.5346C75.7995 51.4993 75.9493 51.464 76.103 51.4248C76.1109 50.9388 76.1109 50.4527 76.1109 49.9628C76.1109 48.9044 76.103 47.8539 76.0872 46.8034C72.8825 47.3326 69.6777 47.6423 66.469 47.7246C65.6176 47.7246 64.9987 47.4894 64.6203 47.019C64.2418 46.5486 64.029 46.0077 63.9817 45.3962C63.9344 44.7847 64.0763 44.2164 64.4074 43.7029C64.7425 43.1855 65.1918 42.9268 65.7595 42.9268C69.2678 42.6445 72.5671 42.1506 75.6457 41.4451L75.9414 41.3745C75.7837 37.294 75.5117 33.2841 75.1215 29.333C74.9796 28.0238 74.6839 26.8047 74.2385 25.6837C73.7931 24.5587 73.1821 23.5788 72.4055 22.736C71.629 21.8933 70.675 21.2269 69.5476 20.7369C68.4163 20.243 67.1234 20 65.6649 20C64.2064 20 62.9213 20.243 61.8176 20.7369C60.7139 21.2269 59.7836 21.8933 59.0307 22.736C58.2778 23.5788 57.6786 24.5587 57.2332 25.6837C56.7838 26.8047 56.4921 28.0238 56.3502 29.333C56.161 30.9244 56.0072 32.5002 55.8929 34.0681C55.7747 35.636 55.6682 37.2392 55.5736 38.8776C53.784 38.4543 51.9274 38.2544 49.9998 38.2779C48.0683 38.3014 46.2116 38.5249 44.422 38.9443C44.3274 37.3097 44.221 35.6948 44.1066 34.1034C43.9884 32.5158 43.8347 30.9244 43.6454 29.333C43.5075 28.0238 43.2237 26.8047 42.7979 25.6837C42.3762 24.5587 41.777 23.5788 41.0004 22.736C40.2239 21.8933 39.2818 21.2269 38.178 20.7369C37.0704 20.243 35.7893 20 34.3308 20C32.8722 20 31.5202 20.243 30.4125 20.7369C29.3088 21.2269 28.3667 21.8933 27.5901 22.736C26.8175 23.5788 26.2144 24.5587 25.7926 25.6837C25.3708 26.8047 25.087 28.0238 24.9451 29.333C24.5273 33.2841 24.2356 37.298 24.0661 41.3785C24.1607 41.402 24.2553 41.4216 24.3499 41.4451C27.4285 42.1506 30.7279 42.6445 34.2361 42.9268C34.8077 42.9268 35.2571 43.1855 35.5882 43.7029C35.9193 44.2164 36.0612 44.7847 36.0179 45.3962C35.9666 46.0077 35.7538 46.5486 35.3754 47.019C34.9969 47.4894 34.382 47.7246 33.5266 47.7246C30.3179 47.6423 27.1171 47.3326 23.9123 46.8034C23.8966 47.8539 23.8887 48.9044 23.8887 49.9628C23.8887 50.4527 23.8887 50.9388 23.8887 51.4248C24.0424 51.464 24.1922 51.4993 24.3459 51.5346C27.4246 52.2401 30.7239 52.734 34.2322 53.0163C34.8038 53.0163 35.2532 53.275 35.5843 53.7924C35.9154 54.3098 36.0573 54.8742 36.0139 55.4857C35.9627 56.0972 35.7498 56.6381 35.3714 57.1085C34.993 57.5789 34.3781 57.8141 33.5227 57.8141C30.3455 57.7318 27.1723 57.4299 23.999 56.9086C24.1567 61.5535 24.4681 66.1162 24.9412 70.5965C25.0831 71.9057 25.3669 73.1326 25.7887 74.2771C26.2104 75.4256 26.8136 76.4212 27.5862 77.2601C28.3627 78.1028 29.3048 78.7692 30.4086 79.2631C31.5162 79.7531 32.821 80 34.3268 80C35.8326 80 37.0664 79.7531 38.1741 79.2631C39.2778 78.7692 40.2199 78.1028 40.9965 77.2601C41.773 76.4212 42.3722 75.4256 42.794 74.2771C43.2197 73.1326 43.5035 71.9057 43.6415 70.5965C43.8307 69.005 43.9844 67.4136 44.1027 65.8222C44.217 64.2347 44.3235 62.6197 44.4181 60.9813C46.2077 61.4007 48.0643 61.6241 49.9958 61.6476C51.9234 61.6711 53.7801 61.4712 55.5697 61.0518C55.6643 62.6903 55.7707 64.2895 55.889 65.8574C56.0033 67.4254 56.157 69.005 56.3462 70.5965C56.4881 71.9057 56.7798 73.1326 57.2292 74.2771C57.6747 75.4256 58.2738 76.4212 59.0267 77.2601C59.7796 78.1028 60.7099 78.7692 61.8136 79.2631C62.9174 79.7531 64.2024 80 65.6609 80C67.1194 80 68.4124 79.7531 69.5437 79.2631C70.6711 78.7692 71.625 78.1028 72.4016 77.2601C73.1781 76.4212 73.7891 75.4256 74.2345 74.2771C74.68 73.1326 74.9756 71.9057 75.1175 70.5965C75.559 66.1162 75.8507 61.5535 75.9966 56.9086C72.8194 57.4299 69.6462 57.7318 66.4651 57.8141C65.6136 57.8141 64.9947 57.5789 64.6163 57.1085C64.2379 56.6381 64.025 56.0972 63.9777 55.4857C63.9304 54.8742 64.0723 54.3098 64.4035 53.7924C64.7385 53.275 65.1879 53.0163 65.7555 53.0163H65.7595ZM53.0981 48.8339L50.8788 51.5738C50.457 52.0912 49.6687 52.0912 49.2469 51.5738L47.0276 48.8339C46.4757 48.1518 46.9606 47.1405 47.8436 47.1405H52.2821C53.1651 47.1405 53.65 48.1518 53.0981 48.8339Z" fill="#FF9D66"/>
</svg>
