<svg width="64" height="100" viewBox="0 0 64 100" fill="none" xmlns="http://www.w3.org/2000/svg">
<ellipse cx="32.6012" cy="96.3856" rx="24.151" ry="3.61446" fill="#868686" fill-opacity="0.4"/>
<ellipse cx="32.6019" cy="33.735" rx="16.9057" ry="16.8675" fill="white"/>
<path d="M32 0C14.3086 0 0 15.0843 0 33.7349C0 59.0362 32 96.3856 32 96.3856C32 96.3856 64 59.0362 64 33.7349C64 15.0843 49.6914 0 32 0ZM32 45.7831C25.6914 45.7831 20.5714 40.3855 20.5714 33.7349C20.5714 27.0843 25.6914 21.6867 32 21.6867C38.3086 21.6867 43.4286 27.0843 43.4286 33.7349C43.4286 40.3855 38.3086 45.7831 32 45.7831Z" fill="#FF5C00"/>
</svg>
