<?xml version="1.0" encoding="UTF-8"?>
<!DOCTYPE svg PUBLIC "-//W3C//DTD SVG 1.1//EN" "http://www.w3.org/Graphics/SVG/1.1/DTD/svg11.dtd">
<svg xmlns="http://www.w3.org/2000/svg" version="1.1" width="74px" height="73px" style="shape-rendering:geometricPrecision; text-rendering:geometricPrecision; image-rendering:optimizeQuality; fill-rule:evenodd; clip-rule:evenodd" xmlns:xlink="http://www.w3.org/1999/xlink">
<g><path style="opacity:0.969" fill="#fffcfa" d="M 29.5,-0.5 C 34.1667,-0.5 38.8333,-0.5 43.5,-0.5C 50.3578,2.68843 56.0244,7.35509 60.5,13.5C 59.1854,14.8946 59.5188,15.8946 61.5,16.5C 61.8333,17.8333 62.1667,17.8333 62.5,16.5C 63.3382,16.8417 63.6716,17.5084 63.5,18.5C 63.6882,20.1033 63.1882,21.4366 62,22.5C 61.6667,21.8333 61.3333,21.1667 61,20.5C 59.3453,42.2489 47.8453,50.7489 26.5,46C 15.8849,40.2631 10.8849,31.4298 11.5,19.5C 12.7298,17.7028 13.3964,15.7028 13.5,13.5C 17.3263,7.00051 22.6596,2.33384 29.5,-0.5 Z"/></g>
<g><path style="opacity:1" fill="#ff5e06" d="M 25.5,13.5 C 27.1992,13.3398 28.8659,13.5065 30.5,14C 32.0175,15.6851 33.6841,17.1851 35.5,18.5C 38.5606,15.2161 42.2272,13.7161 46.5,14C 49.3788,15.6658 50.2121,18.1658 49,21.5C 44.6518,26.0153 40.1518,30.3487 35.5,34.5C 31.543,30.0415 27.3763,25.7081 23,21.5C 22.0182,18.2253 22.8515,15.5586 25.5,13.5 Z"/></g>
<g><path style="opacity:0.004" fill="#fe0000" d="M 60.5,13.5 C 61.4013,14.2905 62.0679,15.2905 62.5,16.5C 62.1667,16.5 61.8333,16.5 61.5,16.5C 59.5188,15.8946 59.1854,14.8946 60.5,13.5 Z"/></g>
<g><path style="opacity:0.004" fill="#fb3118" d="M 13.5,13.5 C 13.3964,15.7028 12.7298,17.7028 11.5,19.5C 9.35231,19.3894 9.01897,20.056 10.5,21.5C 9.5,22.3333 8.5,23.1667 7.5,24C 10.1667,24.6667 10.1667,25.3333 7.5,26C 8.16667,26.3333 8.83333,26.6667 9.5,27C 8.20677,27.49 6.87344,27.6567 5.5,27.5C 6.17119,26.1529 6.17119,24.9862 5.5,24C 7.48115,20.7098 9.81448,17.7098 12.5,15C 11.2881,13.8932 11.6214,13.3932 13.5,13.5 Z"/></g>
<g><path style="opacity:0.043" fill="#ee7874" d="M 63.5,18.5 C 65.6516,19.0768 65.985,20.2435 64.5,22C 66.4414,23.8159 67.1081,25.8159 66.5,28C 67.1667,28.3333 67.8333,28.6667 68.5,29C 67.3725,32.8734 67.3725,36.7067 68.5,40.5C 68.2908,41.9945 67.6241,43.1612 66.5,44C 66.8333,44.3333 67.1667,44.6667 67.5,45C 66.6824,46.1771 65.6824,47.5104 64.5,49C 64.6448,49.772 64.9781,50.4387 65.5,51C 64.4606,52.6167 63.4606,53.7834 62.5,54.5C 61.0689,54.8807 60.2355,55.8807 60,57.5C 59.6667,57.1667 59.3333,56.8333 59,56.5C 58.5616,58.6418 57.7282,59.9751 56.5,60.5C 55.1411,59.9935 54.1411,58.9935 53.5,57.5C 52.9041,58.7161 52.7374,60.0494 53,61.5C 52.1667,60.5 51.3333,59.5 50.5,58.5C 49.1667,59.1667 47.8333,59.8333 46.5,60.5C 46.0024,59.3966 45.6691,58.3966 45.5,57.5C 44.6143,58.325 44.281,59.325 44.5,60.5C 39.8053,59.9669 35.1386,59.8003 30.5,60C 30.8333,60.3333 31.1667,60.6667 31.5,61C 30.244,61.4169 29.5774,62.2502 29.5,63.5C 25.5591,61.5018 21.5591,60.8351 17.5,61.5C 17.1667,60.5 16.5,59.8333 15.5,59.5C 15.1667,58.1667 14.8333,58.1667 14.5,59.5C 11.3575,56.1498 8.69084,52.9831 6.5,50C 8.797,48.8403 8.46367,47.8403 5.5,47C 7.99134,46.3741 7.99134,45.5407 5.5,44.5C 6.0016,43.2836 6.33494,42.1169 6.5,41C 5.09001,40.6322 4.09001,39.7989 3.5,38.5C 3.87971,36.9793 4.04638,35.3126 4,33.5C 4.46524,32.0692 5.29857,30.9025 6.5,30C 5.74756,29.3292 5.41423,28.4959 5.5,27.5C 6.87344,27.6567 8.20677,27.49 9.5,27C 8.83333,26.6667 8.16667,26.3333 7.5,26C 10.1667,25.3333 10.1667,24.6667 7.5,24C 8.5,23.1667 9.5,22.3333 10.5,21.5C 9.01897,20.056 9.35231,19.3894 11.5,19.5C 10.8849,31.4298 15.8849,40.2631 26.5,46C 47.8453,50.7489 59.3453,42.2489 61,20.5C 61.3333,21.1667 61.6667,21.8333 62,22.5C 63.1882,21.4366 63.6882,20.1033 63.5,18.5 Z"/></g>
<g><path style="opacity:0.004" fill="#000000" d="M 62.5,54.5 C 63.8333,55.1667 63.8333,55.1667 62.5,54.5 Z"/></g>
<g><path style="opacity:0.004" fill="#000000" d="M 14.5,59.5 C 14.8333,59.5 15.1667,59.5 15.5,59.5C 15.3147,60.1701 14.9813,60.1701 14.5,59.5 Z"/></g>
<g><path style="opacity:0.012" fill="#ff6d59" d="M 56.5,60.5 C 54.7767,63.8735 52.61,64.5402 50,62.5C 47.8267,65.7267 44.8267,67.7267 41,68.5C 40.5357,67.9056 40.369,67.2389 40.5,66.5C 40.4226,65.2502 39.756,64.4169 38.5,64C 38.9574,63.586 39.2907,63.086 39.5,62.5C 37.563,61.8425 35.7297,61.5092 34,61.5C 33.0975,62.7014 31.9308,63.5348 30.5,64C 31.1258,64.7504 31.6258,65.5838 32,66.5C 32.6891,65.6433 33.5224,64.9767 34.5,64.5C 35.6956,64.8457 35.6956,65.3457 34.5,66C 36.0581,66.21 37.3915,66.71 38.5,67.5C 35.2869,67.81 32.2869,67.4767 29.5,66.5C 29.5,65.5 29.5,64.5 29.5,63.5C 29.5774,62.2502 30.244,61.4169 31.5,61C 31.1667,60.6667 30.8333,60.3333 30.5,60C 35.1386,59.8003 39.8053,59.9669 44.5,60.5C 44.281,59.325 44.6143,58.325 45.5,57.5C 45.6691,58.3966 46.0024,59.3966 46.5,60.5C 47.8333,59.8333 49.1667,59.1667 50.5,58.5C 51.3333,59.5 52.1667,60.5 53,61.5C 52.7374,60.0494 52.9041,58.7161 53.5,57.5C 54.1411,58.9935 55.1411,59.9935 56.5,60.5 Z"/></g>
<g><path style="opacity:0.004" fill="#e3dad7" d="M 29.5,63.5 C 29.5,64.5 29.5,65.5 29.5,66.5C 28.6043,67.5063 27.9377,67.5063 27.5,66.5C 26.968,63.5404 26.3013,63.2071 25.5,65.5C 24.6851,64.5707 23.8518,63.5707 23,62.5C 22.6924,63.3081 22.1924,63.9747 21.5,64.5C 20.2008,63.3063 18.8675,62.3063 17.5,61.5C 21.5591,60.8351 25.5591,61.5018 29.5,63.5 Z"/></g>
<g><path style="opacity:0.004" fill="#fe0000" d="M 27.5,66.5 C 26.8333,66.1667 26.1667,65.8333 25.5,65.5C 26.3013,63.2071 26.968,63.5404 27.5,66.5 Z"/></g>
<g><path style="opacity:0.008" fill="#f5a19e" d="M 40.5,66.5 C 39.7784,66.9175 39.2784,67.5842 39,68.5C 38.6012,68.2716 38.4346,67.9382 38.5,67.5C 37.3915,66.71 36.0581,66.21 34.5,66C 35.6956,65.3457 35.6956,64.8457 34.5,64.5C 33.5224,64.9767 32.6891,65.6433 32,66.5C 31.6258,65.5838 31.1258,64.7504 30.5,64C 31.9308,63.5348 33.0975,62.7014 34,61.5C 35.7297,61.5092 37.563,61.8425 39.5,62.5C 39.2907,63.086 38.9574,63.586 38.5,64C 39.756,64.4169 40.4226,65.2502 40.5,66.5 Z"/></g>
</svg>
