<svg width="32" height="32" viewBox="0 0 32 32" fill="none" xmlns="http://www.w3.org/2000/svg">
<g id="icon/icon">
<rect width="32" height="32" fill="white"/>
<path id="Subtract" fill-rule="evenodd" clip-rule="evenodd" d="M22.7891 4.17881C22.2698 3.34795 21.0597 3.34795 20.5405 4.1788L18.282 7.79237C17.6535 7.72053 17.0125 7.68324 16.3614 7.68324C15.7104 7.68324 15.0694 7.72053 14.4409 7.79237L12.1824 4.17881C11.6631 3.34795 10.4531 3.34795 9.93384 4.1788L4.59182 12.726C4.03156 13.3569 3.54394 14.0293 3.13912 14.7328C4.38037 15.4512 5.82701 15.5151 6.94029 14.9043L8.42523 17.511C6.36867 18.6394 4.01292 18.5181 2.02613 17.508C1.86277 18.1986 1.77734 18.9038 1.77734 19.6157C1.77734 19.8139 1.78397 20.0103 1.79705 20.2046C3.18496 21.9246 5.38707 22.3856 6.94029 21.5334L8.42523 24.1401C6.83533 25.0125 5.06661 25.1379 3.4278 24.6832C5.86259 28.0881 10.7407 30.2223 16.3614 30.2223C21.99 30.2223 26.8739 28.0821 29.3053 24.669C27.6523 25.1404 25.8634 25.0215 24.2571 24.1401L25.742 21.5334C27.3118 22.3947 29.5444 21.9146 30.9294 20.1492C30.9401 19.9729 30.9455 19.7951 30.9455 19.6157C30.9455 18.8974 30.8586 18.186 30.6924 17.4895C28.698 18.5166 26.3262 18.6462 24.2571 17.511L25.742 14.9043C26.8644 15.5201 28.3256 15.4502 29.5735 14.715C29.1708 14.018 28.6866 13.3516 28.1311 12.726L22.7891 4.17881ZM15.9996 21C17.6564 21 18.9996 20.0448 18.9996 19.5714C18.9996 19.098 17.6564 19 15.9996 19C14.3427 19 12.9996 19.098 12.9996 19.5714C12.9996 20.0448 14.3427 21 15.9996 21Z" fill="#FF5C00"/>
</g>
</svg>
