<svg width="32" height="32" viewBox="0 0 32 32" fill="none" xmlns="http://www.w3.org/2000/svg">
<g id="icon/icon">
<path id="Vector" d="M26.6 28C23.7333 28 20.9391 27.3609 18.2173 26.0827C15.4947 24.8053 13.0836 23.1164 10.984 21.016C8.88356 18.9164 7.19467 16.5053 5.91733 13.7827C4.63911 11.0609 4 8.26667 4 5.4C4 5 4.13333 4.66667 4.4 4.4C4.66667 4.13333 5 4 5.4 4H10.8C11.1111 4 11.3889 4.1 11.6333 4.3C11.8778 4.5 12.0222 4.75556 12.0667 5.06667L12.9333 9.73333C12.9778 10.0444 12.9724 10.3276 12.9173 10.5827C12.8613 10.8387 12.7333 11.0667 12.5333 11.2667L10.6667 13.3333C11.6 14.9333 12.7667 16.4333 14.1667 17.8333C15.5667 19.2333 17.1111 20.4444 18.8 21.4667L20.6 19.5333C20.8 19.3333 21.0613 19.1831 21.384 19.0827C21.7058 18.9831 22.0222 18.9556 22.3333 19L26.9333 19.9333C27.2444 20 27.5 20.1498 27.7 20.3827C27.9 20.6164 28 20.8889 28 21.2V26.6C28 27 27.8667 27.3333 27.6 27.6C27.3333 27.8667 27 28 26.6 28Z" fill="#FF5C00"/>
<circle id="Ellipse 33" cx="24" cy="9" r="4" fill="#FF5C00"/>
</g>
</svg>
