<svg width="32" height="32" viewBox="0 0 32 32" fill="none" xmlns="http://www.w3.org/2000/svg">
<g id="icon/icon">
<path id="Subtract" fill-rule="evenodd" clip-rule="evenodd" d="M15.4007 4.45C15.7562 4.18333 16.2451 4.18333 16.6007 4.45L26.2673 11.7C26.5191 11.8889 26.6673 12.1852 26.6673 12.5V27C26.6673 27.5523 26.2196 28 25.6673 28H21.0007C20.4484 28 20.0007 27.5523 20.0007 27V19.6667C20.0007 19.1144 19.5529 18.6667 19.0007 18.6667H13.0007C12.4484 18.6667 12.0007 19.1144 12.0007 19.6667V27C12.0007 27.5523 11.5529 28 11.0007 28H6.33398C5.7817 28 5.33398 27.5523 5.33398 27V12.5C5.33398 12.1852 5.48218 11.8889 5.73398 11.7L15.4007 4.45ZM16.0007 15C17.1052 15 18.0007 14.1046 18.0007 13C18.0007 11.8954 17.1052 11 16.0007 11C14.8961 11 14.0007 11.8954 14.0007 13C14.0007 14.1046 14.8961 15 16.0007 15Z" fill="#FF5C00"/>
</g>
</svg>
