<svg width="34" height="34" viewBox="0 0 34 34" fill="none" xmlns="http://www.w3.org/2000/svg">
<g id="Property 1=&#236;&#151;&#189;&#236;&#160;&#132;" clip-path="url(#clip0_1572_19142)">
<path id="Union" fill-rule="evenodd" clip-rule="evenodd" d="M19.5121 32.2479C25.3044 32.2479 30 27.5523 30 21.7601C30 15.9678 25.3044 11.2722 19.5121 11.2722C13.7199 11.2722 9.02429 15.9678 9.02429 21.7601C9.02429 27.5523 13.7199 32.2479 19.5121 32.2479ZM24.1734 17.0989H14.8509V26.4214H24.1734V17.0989Z" fill="#FF5C00"/>
<path id="Subtract" fill-rule="evenodd" clip-rule="evenodd" d="M14.8509 16.1622C18.1951 14.2315 19.3409 9.95529 17.4101 6.61112C15.4793 3.26694 11.2032 2.12115 7.85899 4.05191C4.51482 5.98266 3.36902 10.2588 5.29978 13.603C7.23054 16.9472 11.5067 18.093 14.8509 16.1622ZM12.4923 5.86203L7.10999 8.96954L10.2175 14.3519L15.5999 11.2444L12.4923 5.86203Z" fill="#FF5C00"/>
</g>
<defs>
<clipPath id="clip0_1572_19142">
<rect width="34" height="34" fill="white"/>
</clipPath>
</defs>
</svg>
