<svg width="34" height="34" viewBox="0 0 34 34" fill="none" xmlns="http://www.w3.org/2000/svg">
<g clip-path="url(#clip0_1638_13762)">
<path d="M25.5556 7.22228H24.3333V4.77783H21.8889V7.22228H12.1111V4.77783H9.66667V7.22228H8.44444C7.08778 7.22228 6.01222 8.32228 6.01222 9.66672L6 26.7778C6 28.1223 7.08778 29.2223 8.44444 29.2223H25.5556C26.9 29.2223 28 28.1223 28 26.7778V9.66672C28 8.32228 26.9 7.22228 25.5556 7.22228ZM25.5556 26.7778H8.44444V14.5556H25.5556V26.7778ZM13.3333 19.4445H10.8889V17.0001H13.3333V19.4445ZM18.2222 19.4445H15.7778V17.0001H18.2222V19.4445ZM23.1111 19.4445H20.6667V17.0001H23.1111V19.4445ZM13.3333 24.3334H10.8889V21.8889H13.3333V24.3334ZM18.2222 24.3334H15.7778V21.8889H18.2222V24.3334ZM23.1111 24.3334H20.6667V21.8889H23.1111V24.3334Z" fill="#FF5C00"/>
</g>
<defs>
<clipPath id="clip0_1638_13762">
<rect width="34" height="34" fill="white"/>
</clipPath>
</defs>
</svg>
