<svg width="34" height="34" viewBox="0 0 34 34" fill="none" xmlns="http://www.w3.org/2000/svg">
<path fill-rule="evenodd" clip-rule="evenodd" d="M22.3726 5.00362C21.887 4.22666 20.7555 4.22666 20.2699 5.00362L18.1579 8.38273C17.5702 8.31554 16.9707 8.28066 16.3619 8.28066C15.7531 8.28066 15.1536 8.31554 14.5659 8.38272L12.454 5.00362C11.9684 4.22666 10.8368 4.22666 10.3512 5.00362L5.3559 12.9961C4.83191 13.5861 4.37586 14.2149 3.99725 14.8728C5.15798 15.5447 6.51076 15.6044 7.55181 15.0332L8.94043 17.4708C7.01728 18.526 4.81434 18.4126 2.95643 17.468C2.80365 18.1139 2.72375 18.7734 2.72375 19.4391C2.72375 19.6244 2.72995 19.808 2.74217 19.9898C4.04006 21.5981 6.09934 22.0293 7.55181 21.2323L8.94043 23.67C7.45362 24.4858 5.79959 24.6031 4.26705 24.1778C6.54387 27.3619 11.1056 29.3578 16.3619 29.3578C21.6255 29.3578 26.1926 27.3563 28.4663 24.1645C26.9204 24.6054 25.2476 24.4942 23.7454 23.67L25.134 21.2323C26.602 22.0378 28.6898 21.5888 29.9849 19.9379C29.9949 19.7731 30 19.6068 30 19.4391C30 18.7674 29.9187 18.1021 29.7632 17.4507C27.8983 18.4112 25.6802 18.5324 23.7454 17.4708L25.134 15.0332C26.1836 15.609 27.5499 15.5437 28.717 14.8563C28.3403 14.2044 27.8875 13.5812 27.368 12.9963L22.3726 5.00362ZM16.0235 20.7336C17.5729 20.7336 18.8289 19.8403 18.8289 19.3976C18.8289 18.955 17.5729 18.8633 16.0235 18.8633C14.4741 18.8633 13.2181 18.955 13.2181 19.3976C13.2181 19.8403 14.4741 20.7336 16.0235 20.7336Z" fill="#FF5C00"/>
</svg>
